<?xml version="1.0" encoding="UTF-8"?>
<svg id="Laag_2" data-name="Laag 2" xmlns="http://www.w3.org/2000/svg" viewBox="0 0 936.32 936.32">
  <defs>
    <style>
      .cls-1 {
        fill: #64b8d1;
      }

      .cls-2 {
        fill: #a64033;
      }

      .cls-3 {
        fill: #ea954c;
      }

      .cls-4 {
        fill: #7d5fff;
      }

      .cls-5 {
        fill: #f0ebda;
      }

      .cls-6 {
        fill: #feca05;
      }

      .cls-7 {
        fill: #805f39;
      }

      .cls-8 {
        fill: #895818;
      }

      .cls-9 {
        fill: #895b55;
      }

      .cls-10 {
        fill: #e4c55e;
      }

      .cls-11 {
        fill: #765530;
      }

      .cls-12 {
        fill: #2f9960;
      }

      .cls-13 {
        fill: #e8a774;
      }

      .cls-14 {
        fill: #a98787;
      }

      .cls-15 {
        fill: #dc7179;
      }

      .cls-16 {
        fill: #5dadb9;
      }

      .cls-17 {
        fill: #aa3e33;
      }

      .cls-18 {
        fill: #f08588;
      }

      .cls-19 {
        fill: #fff;
      }

      .cls-20 {
        fill: #e07982;
      }

      .cls-21 {
        fill: #b98673;
      }

      .cls-22 {
        fill: #916027;
      }

      .cls-23 {
        fill: #c76a4d;
      }

      .cls-24 {
        fill: #3f8999;
      }

      .cls-25 {
        fill: #9a6221;
      }

      .cls-26 {
        fill: #715227;
      }

      .cls-27 {
        fill: #8ed1e6;
      }

      .cls-28 {
        fill: #405a98;
      }

      .cls-29 {
        fill: #5b401d;
      }

      .cls-30 {
        fill: #203c88;
      }
    </style>
  </defs>
  <g id="Laag_1-2" data-name="Laag 1">
    <rect class="cls-4" x="0" width="936.32" height="936.32" rx="87.96" ry="87.96"/>
    <g>
      <path class="cls-19" d="M150.15,136.28v-67.88h33.16c8.53,0,14.95,1.62,19.25,4.85,4.3,3.23,6.45,7.5,6.45,12.8,0,3.56-.87,6.64-2.62,9.26s-4.14,4.64-7.18,6.06c-3.04,1.42-6.53,2.13-10.47,2.13l1.84-3.98c4.27,0,8.05.7,11.35,2.08,3.3,1.39,5.87,3.44,7.71,6.16,1.84,2.72,2.76,6.05,2.76,9.99,0,5.82-2.3,10.36-6.89,13.62-4.59,3.27-11.35,4.9-20.27,4.9h-35.1ZM165.76,124.45h18.33c4.07,0,7.16-.66,9.26-1.99,2.1-1.32,3.15-3.44,3.15-6.35s-1.05-4.96-3.15-6.35c-2.1-1.39-5.19-2.08-9.26-2.08h-19.49v-11.44h16.78c3.81,0,6.74-.66,8.78-1.99,2.04-1.32,3.05-3.35,3.05-6.06s-1.02-4.64-3.05-5.96c-2.04-1.32-4.96-1.99-8.78-1.99h-15.61v44.22Z"/>
      <path class="cls-19" d="M224.33,136.28v-67.88h51.3v12.61h-35.69v42.67h36.95v12.61h-52.56ZM238.78,107.96v-12.22h32.68v12.22h-32.68Z"/>
      <path class="cls-19" d="M303.46,136.28v-55.08h-21.72v-12.8h59.15v12.8h-21.72v55.08h-15.71Z"/>
      <path class="cls-19" d="M337.01,136.28l30.26-67.88h15.52l30.35,67.88h-16.48l-24.82-59.93h6.21l-24.92,59.93h-16.1ZM352.14,121.73l4.17-11.93h34.91l4.27,11.93h-43.35Z"/>
      <path class="cls-19" d="M420.21,136.28v-67.88h15.71v55.08h34.04v12.8h-49.75Z"/>
      <path class="cls-19" d="M478.78,136.28v-67.88h51.3v12.61h-35.69v42.67h36.95v12.61h-52.56ZM493.23,107.96v-12.22h32.68v12.22h-32.68Z"/>
      <path class="cls-19" d="M543.85,136.28v-67.88h12.99l40.05,48.87h-6.3v-48.87h15.52v67.88h-12.9l-40.15-48.87h6.3v48.87h-15.52Z"/>
      <path class="cls-19" d="M649.64,136.28v-67.88h12.99l40.05,48.87h-6.3v-48.87h15.52v67.88h-12.9l-40.15-48.87h6.3v48.87h-15.52Z"/>
      <path class="cls-19" d="M719.07,136.28l30.25-67.88h15.52l30.35,67.88h-16.49l-24.82-59.93h6.21l-24.92,59.93h-16.1ZM734.2,121.73l4.17-11.93h34.91l4.27,11.93h-43.35Z"/>
      <path class="cls-19" d="M152.67,252.64v-67.88h15.71v67.88h-15.71Z"/>
      <path class="cls-19" d="M184.47,252.64v-67.88h12.99l40.05,48.87h-6.3v-48.87h15.52v67.88h-12.9l-40.15-48.87h6.3v48.87h-15.52Z"/>
      <path class="cls-19" d="M285.13,253.81c-5.43,0-10.64-.73-15.61-2.18-4.98-1.45-8.99-3.34-12.02-5.67l5.33-11.83c2.91,2.07,6.35,3.77,10.33,5.09,3.98,1.33,8,1.99,12.07,1.99,3.1,0,5.61-.31,7.52-.92,1.91-.61,3.31-1.47,4.22-2.57.9-1.1,1.36-2.36,1.36-3.78,0-1.81-.71-3.25-2.13-4.31-1.42-1.07-3.3-1.94-5.62-2.62-2.33-.68-4.9-1.33-7.71-1.94s-5.62-1.37-8.44-2.28c-2.81-.9-5.38-2.07-7.71-3.49-2.33-1.42-4.22-3.3-5.67-5.62s-2.18-5.3-2.18-8.92c0-3.88,1.05-7.42,3.15-10.62,2.1-3.2,5.27-5.75,9.5-7.66,4.23-1.91,9.55-2.86,15.95-2.86,4.27,0,8.47.5,12.61,1.5,4.14,1,7.79,2.51,10.96,4.51l-4.85,11.93c-3.17-1.81-6.34-3.15-9.5-4.02-3.17-.87-6.27-1.31-9.31-1.31s-5.53.36-7.47,1.07c-1.94.71-3.33,1.63-4.17,2.76-.84,1.13-1.26,2.44-1.26,3.93,0,1.75.71,3.15,2.13,4.22,1.42,1.07,3.3,1.92,5.62,2.57,2.33.65,4.9,1.29,7.71,1.94,2.81.65,5.62,1.39,8.44,2.23,2.81.84,5.38,1.97,7.71,3.39,2.33,1.42,4.22,3.3,5.67,5.62,1.45,2.33,2.18,5.27,2.18,8.82,0,3.82-1.07,7.31-3.2,10.47-2.13,3.17-5.32,5.72-9.55,7.66-4.23,1.94-9.58,2.91-16.05,2.91Z"/>
      <path class="cls-19" d="M337.78,252.64v-55.08h-21.72v-12.8h59.15v12.8h-21.72v55.08h-15.71Z"/>
      <path class="cls-19" d="M371.34,252.64l30.25-67.88h15.52l30.35,67.88h-16.49l-24.82-59.93h6.21l-24.92,59.93h-16.1ZM386.46,238.1l4.17-11.93h34.91l4.27,11.93h-43.35Z"/>
      <path class="cls-19" d="M454.54,252.64v-67.88h15.71v55.08h34.04v12.8h-49.75Z"/>
      <path class="cls-19" d="M513.11,252.64v-67.88h15.71v55.08h34.04v12.8h-49.75Z"/>
      <path class="cls-19" d="M563.14,252.64l30.26-67.88h15.52l30.35,67.88h-16.49l-24.82-59.93h6.21l-24.92,59.93h-16.1ZM578.27,238.1l4.17-11.93h34.91l4.27,11.93h-43.35Z"/>
      <path class="cls-19" d="M657.01,252.64v-55.08h-21.72v-12.8h59.15v12.8h-21.72v55.08h-15.71Z"/>
      <path class="cls-19" d="M702.88,252.64v-67.88h15.71v67.88h-15.71Z"/>
      <path class="cls-19" d="M734.68,252.64v-67.88h51.3v12.61h-35.69v42.67h36.95v12.61h-52.56ZM749.13,224.33v-12.22h32.68v12.22h-32.68Z"/>
    </g>
    <g>
      <rect class="cls-5" x="236.29" y="409.65" width="463.74" height="236.75" transform="translate(-191.71 277.9) rotate(-27.68)"/>
      <rect class="cls-3" x="262.06" y="514.16" width="13.7" height="236.75" transform="translate(-263.06 197.31) rotate(-27.68)"/>
      <rect class="cls-3" x="660.58" y="305.13" width="13.7" height="236.75" transform="translate(-120.35 358.51) rotate(-27.68)"/>
      <path class="cls-13" d="M606.3,321.87l-236.03,123.85c-3.88,12.26-23.55,78.83,15.81,140.51,30.42,47.67,78.19,64.28,94.16,69.16l236.11-123.85-110.05-209.68Z"/>
      <ellipse class="cls-10" cx="516.44" cy="499.58" rx="83.74" ry="102.74" transform="translate(-172.97 297.08) rotate(-27.68)"/>
      <path class="cls-12" d="M356.54,710.99c-2.86,1.59-6.09,2.37-9.36,2.26l-1.57-5.48c2.61.11,5.21-.48,7.51-1.72,3.6-1.88,4.01-4.06,2.29-7.35s-3.63-3.24-6.84-1.57c-1.83.98-3.47,2.26-4.86,3.81l-3.32-1.29-6.51-15.12,15.43-8.15,3.14,5.37-10.93,5.73,2.57,5.97c1.09-.95,2.29-1.76,3.57-2.42,5.71-3.01,10.41-1.83,13.45,3.96,3.65,6.71,2.52,12.26-4.58,15.99Z"/>
      <path class="cls-12" d="M380.47,698.47c-7.12,3.75-12.29.95-18-9.87-5.99-11.39-5.14-16.82,2.08-20.57s12.14-1.41,18,9.98c5.84,10.72,4.96,16.76-2.08,20.47ZM367.62,673.53c-2.88,1.52-3.42,3.55.93,11.88s6.45,9.2,9.33,7.71,3.39-3.55-1.05-12.03-6.53-9.05-9.33-7.56h.13Z"/>
      <path class="cls-8" d="M616.17,387.54c-4.17-2.7-30.85-19.41-53.35-7.2-22.03,11.93-23.37,42.45-23.53,47.52l54.79,104.47,76.88-40.32-54.79-104.47Z"/>
      <path class="cls-8" d="M602.98,362.39l-46.51,5.79-30.37,34.53,16.28,31.03,76.77-40.32-16.17-31.03Z"/>
      <path class="cls-25" d="M618.56,418.06c-3.01-1.95-22.24-14.04-38.57-5.14-16.33,8.9-16.92,30.67-17.02,34.35l39.6,75.46,55.54-29.13-39.54-75.54Z"/>
      <path class="cls-25" d="M609.05,399.88l-33.61,4.19-21.96,24.94,11.78,22.42,55.54-29.13-11.75-22.42Z"/>
      <path class="cls-26" d="M589.64,428.81c-4.24-2.78-31.32-19.77-54.25-7.35-22.45,12.16-23.81,43.2-23.96,48.36l55.74,106.27,78.21-41.14-55.74-106.14Z"/>
      <path class="cls-26" d="M576.22,403.33l-47.31,5.91-30.85,35.1,16.56,31.57,78.21-41.14-16.61-31.45Z"/>
      <path class="cls-7" d="M592.08,459.89c-3.06-2.01-22.63-14.27-39.18-5.3-16.56,8.97-17.2,31.19-17.3,34.94l40.26,76.75,56.57-29.62-40.34-76.77Z"/>
      <path class="cls-7" d="M582.39,441.35l-34.17,4.27c-7.46,8.43-14.9,16.88-22.34,25.35l11.98,22.81,56.57-29.62-12.03-22.81Z"/>
      <rect class="cls-30" x="246.81" y="507.57" width="53.63" height="35.74" transform="translate(-212.77 187.24) rotate(-27.68)"/>
      <g id="s">
        <g id="c">
          <path id="t" class="cls-6" d="M267.16,513.14l.33,1.95.98-.15-1.31-1.8Z"/>
          <path id="t-2" class="cls-6" d="M267.16,513.14l1.41,1.39-.69.72-.72-2.11Z"/>
        </g>
        <g id="a">
          <g id="c-2">
            <path id="t-3" class="cls-6" d="M269.48,513.47l-1.77.93.46.87,1.31-1.8Z"/>
            <path id="t-4" class="cls-6" d="M269.48,513.47l-.9,1.8-.87-.46,1.77-1.34Z"/>
          </g>
          <g id="c-3">
            <path id="t-5" class="cls-6" d="M269.86,515.79l-1.41-1.39-.69.72,2.11.67Z"/>
            <path id="t-6" class="cls-6" d="M269.86,515.79l-1.95-.28v-1l1.95,1.29Z"/>
          </g>
        </g>
        <g id="a-2">
          <g id="c-4">
            <path id="t-7" class="cls-6" d="M266.14,515.25l1.75-.93.46.87-2.21.05Z"/>
            <path id="t-8" class="cls-6" d="M266.14,515.25l1.95.28.15-.98-2.11.69Z"/>
          </g>
          <g id="c-5">
            <path id="t-9" class="cls-6" d="M267.81,516.87l-.33-1.95.98-.18-.64,2.13Z"/>
            <path id="t-10" class="cls-6" d="M267.81,516.87l.87-1.77-.9-.44.03,2.21Z"/>
          </g>
        </g>
      </g>
      <g id="s-2">
        <g id="c-6">
          <path id="t-11" class="cls-6" d="M278.22,534.25l.33,1.95.98-.15-1.31-1.8Z"/>
          <path id="t-12" class="cls-6" d="M278.22,534.25l1.44,1.39-.69.72-.75-2.11Z"/>
        </g>
        <g id="a-3">
          <g id="c-7">
            <path id="t-13" class="cls-6" d="M280.53,534.58l-1.75.93.46.87,1.29-1.8Z"/>
            <path id="t-14" class="cls-6" d="M280.53,534.58l-.87,1.77-.9-.44,1.77-1.34Z"/>
          </g>
          <g id="c-8">
            <path id="t-15" class="cls-6" d="M280.95,537.03l-1.44-1.39-.69.69,2.13.69Z"/>
            <path id="t-16" class="cls-6" d="M280.95,537.03l-1.98-.28.15-1,1.83,1.29Z"/>
          </g>
        </g>
        <g id="a-4">
          <g id="c-9">
            <path id="t-17" class="cls-6" d="M277.19,536.33l1.77-.9.46.87-2.24.03Z"/>
            <path id="t-18" class="cls-6" d="M277.19,536.33l1.98.31v-1l-1.98.69Z"/>
          </g>
          <g id="c-10">
            <path id="t-19" class="cls-6" d="M278.86,537.98l-.33-1.95.98-.18-.64,2.13Z"/>
            <path id="t-20" class="cls-6" d="M278.86,537.98l.87-1.77-.87-.44v2.21Z"/>
          </g>
        </g>
      </g>
      <g id="l">
        <g id="s-3">
          <g id="c-11">
            <path id="t-21" class="cls-6" d="M262.15,529.31l.33,1.95.98-.15-1.31-1.8Z"/>
            <path id="t-22" class="cls-6" d="M262.15,529.31l1.41,1.39-.69.72-.72-2.11Z"/>
          </g>
          <g id="a-5">
            <g id="c-12">
              <path id="t-23" class="cls-6" d="M264.46,529.57l-1.77.93.46.87,1.31-1.8Z"/>
              <path id="t-24" class="cls-6" d="M264.46,529.57l-.9,1.77-.87-.44,1.77-1.34Z"/>
            </g>
            <g id="c-13">
              <path id="t-25" class="cls-6" d="M264.85,531.88l-1.41-1.39-.69.69,2.11.69Z"/>
              <path id="t-26" class="cls-6" d="M264.85,531.88l-1.98-.31.15-.98,1.83,1.29Z"/>
            </g>
          </g>
          <g id="a-6">
            <g id="c-14">
              <path id="t-27" class="cls-6" d="M261.1,531.32l1.77-.93.46.9-2.24.03Z"/>
              <path id="t-28" class="cls-6" d="M261.1,531.32l1.98.31v-1l-1.98.69Z"/>
            </g>
            <g id="c-15">
              <path id="t-29" class="cls-6" d="M262.77,532.96l-.33-1.95.98-.18-.64,2.13Z"/>
              <path id="t-30" class="cls-6" d="M262.77,532.96l.9-1.77-.9-.46v2.24Z"/>
            </g>
          </g>
        </g>
        <g id="s-4">
          <g id="c-16">
            <path id="t-31" class="cls-6" d="M263.26,521.06l.87-1.8-.87-.44v2.24Z"/>
            <path id="t-32" class="cls-6" d="M263.26,521.06l-.33-1.95.98-.18-.64,2.13Z"/>
          </g>
          <g id="a-7">
            <g id="c-17">
              <path id="t-33" class="cls-6" d="M261.58,519.41l1.98.28v-.98l-1.98.69Z"/>
              <path id="t-34" class="cls-6" d="M261.58,519.41l1.77-.93.46.9-2.24.03Z"/>
            </g>
            <g id="c-18">
              <path id="t-35" class="cls-6" d="M262.61,517.33l.33,1.95,1-.18-1.34-1.77Z"/>
              <path id="t-36" class="cls-6" d="M262.61,517.33l1.44,1.39-.69.69-.75-2.08Z"/>
            </g>
          </g>
          <g id="a-8">
            <g id="c-19">
              <path id="t-37" class="cls-6" d="M265.34,519.95l-1.98-.28.15-.98,1.83,1.26Z"/>
              <path id="t-38" class="cls-6" d="M265.34,519.95l-1.44-1.36-.69.69,2.13.67Z"/>
            </g>
            <g id="c-20">
              <path id="t-39" class="cls-6" d="M264.93,517.66l-.87,1.77-.9-.44,1.77-1.34Z"/>
              <path id="t-40" class="cls-6" d="M264.93,517.66l-1.75.93.46.87,1.29-1.8Z"/>
            </g>
          </g>
        </g>
        <g id="s-5">
          <g id="c-21">
            <path id="t-41" class="cls-6" d="M263.49,525.87l-1.41-1.39-.69.69,2.11.69Z"/>
            <path id="t-42" class="cls-6" d="M263.49,525.87l-1.95-.31v-.98l1.95,1.29Z"/>
          </g>
          <g id="a-9">
            <g id="c-22">
              <path id="t-43" class="cls-6" d="M261.43,526.95l.87-1.8-.9-.44.03,2.24Z"/>
              <path id="t-44" class="cls-6" d="M261.43,526.95l-.33-1.95.98-.18-.64,2.13Z"/>
            </g>
            <g id="c-23">
              <path id="t-45" class="cls-6" d="M259.76,525.3l1.95.28.15-.98-2.11.69Z"/>
              <path id="t-46" class="cls-6" d="M259.76,525.3l1.75-.93.46.9-2.21.03Z"/>
            </g>
          </g>
          <g id="a-10">
            <g id="c-24">
              <path id="t-47" class="cls-6" d="M263.1,523.55l-.87,1.77-.9-.44,1.77-1.34Z"/>
              <path id="t-48" class="cls-6" d="M263.1,523.55l-1.77.93.46.87,1.31-1.8Z"/>
            </g>
            <g id="c-25">
              <path id="t-49" class="cls-6" d="M260.79,523.22l1.41,1.39-.69.69-.72-2.08Z"/>
              <path id="t-50" class="cls-6" d="M260.79,523.22l.33,1.95.98-.15-1.31-1.8Z"/>
            </g>
          </g>
        </g>
        <g id="s-6">
          <g id="c-26">
            <path id="t-51" class="cls-6" d="M268.63,534.09l-1.75.93.46.9,1.29-1.83Z"/>
            <path id="t-52" class="cls-6" d="M268.63,534.09l-.87,1.8-.9-.44,1.77-1.36Z"/>
          </g>
          <g id="a-11">
            <g id="c-27">
              <path id="t-53" class="cls-6" d="M269.01,536.41l-1.41-1.39-.69.72,2.11.67Z"/>
              <path id="t-54" class="cls-6" d="M269.01,536.41l-1.95-.28.15-.98,1.8,1.26Z"/>
            </g>
            <g id="c-28">
              <path id="t-55" class="cls-6" d="M266.91,537.49l.87-1.77-.87-.44v2.21Z"/>
              <path id="t-56" class="cls-6" d="M266.91,537.49l-.33-1.95.98-.15-.64,2.11Z"/>
            </g>
          </g>
          <g id="a-12">
            <g id="c-29">
              <path id="t-57" class="cls-6" d="M266.32,533.76l1.44,1.39-.69.72-.75-2.11Z"/>
              <path id="t-58" class="cls-6" d="M266.32,533.76l.33,1.95.98-.15-1.31-1.8Z"/>
            </g>
            <g id="c-30">
              <path id="t-59" class="cls-6" d="M265.29,535.87l1.75-.93.46.87-2.21.05Z"/>
              <path id="t-60" class="cls-6" d="M265.29,535.87l1.95.28.15-.98-2.11.69Z"/>
            </g>
          </g>
        </g>
        <g id="s-7">
          <g id="c-31">
            <path id="t-61" class="cls-6" d="M274.62,535.95l-1.75.93.46.87,1.29-1.8Z"/>
            <path id="t-62" class="cls-6" d="M274.62,535.95l-.87,1.77-.9-.44,1.77-1.34Z"/>
          </g>
          <g id="a-13">
            <g id="c-32">
              <path id="t-63" class="cls-6" d="M274.9,538.23l-1.41-1.39-.69.72,2.11.67Z"/>
              <path id="t-64" class="cls-6" d="M274.9,538.23l-1.95-.28.15-.98,1.8,1.26Z"/>
            </g>
            <g id="c-33">
              <path id="t-65" class="cls-6" d="M272.85,539.34l.87-1.8-.87-.44v2.24Z"/>
              <path id="t-66" class="cls-6" d="M272.85,539.34l-.33-1.98.98-.15-.64,2.13Z"/>
            </g>
          </g>
          <g id="a-14">
            <g id="c-34">
              <path id="t-67" class="cls-6" d="M272.2,535.61l1.44,1.39-.69.69-.75-2.08Z"/>
              <path id="t-68" class="cls-6" d="M272.2,535.61l.33,1.95.98-.18-1.31-1.77Z"/>
            </g>
            <g id="c-35">
              <path id="t-69" class="cls-6" d="M271.17,537.69l1.77-.93.44.87-2.21.05Z"/>
              <path id="t-70" class="cls-6" d="M271.17,537.69l1.98.28v-.98l-1.98.69Z"/>
            </g>
          </g>
        </g>
      </g>
      <g id="l-2">
        <g id="s-8">
          <g id="c-36">
            <path id="t-71" class="cls-6" d="M283.26,518.15l1.41,1.39-.69.72-.72-2.11Z"/>
            <path id="t-72" class="cls-6" d="M283.26,518.15l.33,1.98.98-.18-1.31-1.8Z"/>
          </g>
          <g id="a-15">
            <g id="c-37">
              <path id="t-73" class="cls-6" d="M282.33,520.26l1.77-.93.46.87-2.24.05Z"/>
              <path id="t-74" class="cls-6" d="M282.33,520.26l1.98.28v-.98l-1.98.69Z"/>
            </g>
            <g id="c-38">
              <path id="t-75" class="cls-6" d="M283.88,521.88l-.33-1.95.98-.15-.64,2.11Z"/>
              <path id="t-76" class="cls-6" d="M283.88,521.88l.9-1.77-.9-.44v2.21Z"/>
            </g>
          </g>
          <g id="a-16">
            <g id="c-39">
              <path id="t-77" class="cls-6" d="M285.55,518.51l-1.75.9.46.9,1.29-1.8Z"/>
              <path id="t-78" class="cls-6" d="M285.55,518.51l-.87,1.77-.87-.44,1.75-1.34Z"/>
            </g>
            <g id="c-40">
              <path id="t-79" class="cls-6" d="M285.96,520.8l-1.44-1.39-.69.72,2.13.67Z"/>
              <path id="t-80" class="cls-6" d="M285.96,520.8l-1.98-.28.15-.98,1.83,1.26Z"/>
            </g>
          </g>
        </g>
        <g id="s-9">
          <g id="c-41">
            <path id="t-81" class="cls-6" d="M275.88,514.43l-1.95-.28v-.98l1.95,1.26Z"/>
            <path id="t-82" class="cls-6" d="M275.88,514.43l-1.41-1.39-.69.72,2.11.67Z"/>
          </g>
          <g id="a-17">
            <g id="c-42">
              <path id="t-83" class="cls-6" d="M275.49,512.14l-.87,1.75-.9-.44,1.77-1.31Z"/>
              <path id="t-84" class="cls-6" d="M275.49,512.14l-1.77.93.46.87,1.31-1.8Z"/>
            </g>
            <g id="c-43">
              <path id="t-85" class="cls-6" d="M273.18,511.8l1.41,1.39-.69.69-.72-2.08Z"/>
              <path id="t-86" class="cls-6" d="M273.18,511.8l.33,1.95.98-.18-1.31-1.77Z"/>
            </g>
          </g>
          <g id="a-18">
            <g id="c-44">
              <path id="t-87" class="cls-6" d="M273.82,515.5l.87-1.77-.9-.44.03,2.21Z"/>
              <path id="t-88" class="cls-6" d="M273.82,515.5l-.33-1.95.98-.15-.64,2.11Z"/>
            </g>
            <g id="c-45">
              <path id="t-89" class="cls-6" d="M272.05,513.89l1.95.28.15-.98-2.11.69Z"/>
              <path id="t-90" class="cls-6" d="M272.05,513.89l1.75-.93.46.87-2.21.05Z"/>
            </g>
          </g>
        </g>
        <g id="s-10">
          <g id="c-46">
            <path id="t-91" class="cls-6" d="M279.76,517.36l-.33-1.95.98-.18-.64,2.13Z"/>
            <path id="t-92" class="cls-6" d="M279.76,517.36l.87-1.77-.9-.46.03,2.24Z"/>
          </g>
          <g id="a-19">
            <g id="c-47">
              <path id="t-93" class="cls-6" d="M281.77,516.28l-1.95-.31v-.98l1.95,1.29Z"/>
              <path id="t-94" class="cls-6" d="M281.77,516.28l-1.41-1.39-.69.69,2.11.69Z"/>
            </g>
            <g id="c-48">
              <path id="t-95" class="cls-6" d="M281.38,513.89l-.87,1.77-.9-.44,1.77-1.34Z"/>
              <path id="t-96" class="cls-6" d="M281.38,513.89l-1.77.93.46.87,1.31-1.8Z"/>
            </g>
          </g>
          <g id="a-20">
            <g id="c-49">
              <path id="t-97" class="cls-6" d="M278.04,515.71l1.95.31.15-1-2.11.69Z"/>
              <path id="t-98" class="cls-6" d="M278.04,515.71l1.75-.9.46.87-2.21.03Z"/>
            </g>
            <g id="c-50">
              <path id="t-99" class="cls-6" d="M279.07,513.63l.33,1.95.98-.15-1.31-1.8Z"/>
              <path id="t-100" class="cls-6" d="M279.07,513.63l1.41,1.39-.69.72-.72-2.11Z"/>
            </g>
          </g>
        </g>
        <g id="s-11">
          <g id="c-51">
            <path id="t-101" class="cls-6" d="M283.57,526.28l1.75-.93.46.87-2.21.05Z"/>
            <path id="t-102" class="cls-6" d="M283.57,526.28l1.95.28.15-.98-2.11.69Z"/>
          </g>
          <g id="a-21">
            <g id="c-52">
              <path id="t-103" class="cls-6" d="M285.24,527.9l-.33-1.95.98-.15-.64,2.11Z"/>
              <path id="t-104" class="cls-6" d="M285.24,527.9l.87-1.77-.87-.44v2.21Z"/>
            </g>
            <g id="c-53">
              <path id="t-105" class="cls-6" d="M287.3,526.74l-1.95-.28.15-.98,1.8,1.26Z"/>
              <path id="t-106" class="cls-6" d="M287.3,526.74l-1.41-1.39-.69.72,2.11.67Z"/>
            </g>
          </g>
          <g id="a-22">
            <g id="c-54">
              <path id="t-107" class="cls-6" d="M284.6,524.17l.33,1.98.98-.18-1.31-1.8Z"/>
              <path id="t-108" class="cls-6" d="M284.6,524.17l1.44,1.39-.69.72-.75-2.11Z"/>
            </g>
            <g id="c-55">
              <path id="t-109" class="cls-6" d="M286.91,524.53l-1.75.9.46.9,1.29-1.8Z"/>
              <path id="t-110" class="cls-6" d="M286.91,524.53l-.87,1.77-.9-.44,1.77-1.34Z"/>
            </g>
          </g>
        </g>
        <g id="s-12">
          <g id="c-56">
            <path id="t-111" class="cls-6" d="M281.74,532.17l1.75-.93.46.87-2.21.05Z"/>
            <path id="t-112" class="cls-6" d="M281.74,532.17l1.95.28.15-.98-2.11.69Z"/>
          </g>
          <g id="a-23">
            <g id="c-57">
              <path id="t-113" class="cls-6" d="M283.41,533.79l-.33-1.95.98-.15-.64,2.11Z"/>
              <path id="t-114" class="cls-6" d="M283.41,533.79l.87-1.77-.9-.44.03,2.21Z"/>
            </g>
            <g id="c-58">
              <path id="t-115" class="cls-6" d="M285.47,532.71l-1.98-.28.15-.98,1.83,1.26Z"/>
              <path id="t-116" class="cls-6" d="M285.47,532.71l-1.41-1.39-.69.72,2.11.67Z"/>
            </g>
          </g>
          <g id="a-24">
            <g id="c-59">
              <path id="t-117" class="cls-6" d="M282.77,530.06l.33,1.98.98-.18-1.31-1.8Z"/>
              <path id="t-118" class="cls-6" d="M282.77,530.06l1.41,1.39-.69.72-.72-2.11Z"/>
            </g>
            <g id="c-60">
              <path id="t-119" class="cls-6" d="M285.08,530.42l-1.77.9.46.9,1.31-1.8Z"/>
              <path id="t-120" class="cls-6" d="M285.08,530.42l-.9,1.77-.87-.44,1.77-1.34Z"/>
            </g>
          </g>
        </g>
      </g>
      <g id="s-13">
        <g id="c-61">
          <path id="t-121" class="cls-6" d="M528.73,585.34l2.57,15.66,7.71-1.34-10.28-14.32Z"/>
          <path id="t-122" class="cls-6" d="M528.73,585.34l11.36,11.08-5.55,5.68-5.81-16.76Z"/>
        </g>
        <g id="a-25">
          <g id="c-62">
            <path id="t-123" class="cls-6" d="M547.16,588.04l-14.06,7.38,3.7,7.02,10.36-14.4Z"/>
            <path id="t-124" class="cls-6" d="M547.16,588.04l-7.05,14.22-7.07-3.52,14.12-10.7Z"/>
          </g>
          <g id="c-63">
            <path id="t-125" class="cls-6" d="M550.33,606.45l-11.36-11.11-5.53,5.68,16.89,5.43Z"/>
            <path id="t-126" class="cls-6" d="M550.33,606.45l-15.71-2.31,1.16-7.71,14.55,10.03Z"/>
          </g>
        </g>
        <g id="a-26">
          <g id="c-64">
            <path id="t-127" class="cls-6" d="M520.45,602.08l14.06-7.38,3.68,7.02-17.74.36Z"/>
            <path id="t-128" class="cls-6" d="M520.45,602.08l15.71,2.29,1.16-7.87-16.87,5.58Z"/>
          </g>
          <g id="c-65">
            <path id="t-129" class="cls-6" d="M533.79,615.11l-2.57-15.66,7.84-1.34-5.27,17Z"/>
            <path id="t-130" class="cls-6" d="M533.79,615.11l7.05-14.24-7.12-3.52.08,17.77Z"/>
          </g>
        </g>
      </g>
      <g id="l-3">
        <g id="s-14">
          <g id="c-66">
            <path id="t-131" class="cls-6" d="M400.12,545.23l2.57,15.66,7.71-1.34-10.28-14.32Z"/>
            <path id="t-132" class="cls-6" d="M400.12,545.23l11.36,11.08-5.55,5.68-5.81-16.76Z"/>
          </g>
          <g id="a-27">
            <g id="c-67">
              <path id="t-133" class="cls-6" d="M418.61,547.93l-14.04,7.38,3.68,7.02,10.36-14.4Z"/>
              <path id="t-134" class="cls-6" d="M418.61,547.93l-7.02,14.22-7.12-3.5,14.14-10.72Z"/>
            </g>
            <g id="c-68">
              <path id="t-135" class="cls-6" d="M421.72,566.34l-11.34-11.11-5.55,5.68,16.89,5.43Z"/>
              <path id="t-136" class="cls-6" d="M421.72,566.34l-15.71-2.31,1.16-7.84,14.55,10.16Z"/>
            </g>
          </g>
          <g id="a-28">
            <g id="c-69">
              <path id="t-137" class="cls-6" d="M391.84,561.97l14.06-7.38,3.7,7.02-17.77.36Z"/>
              <path id="t-138" class="cls-6" d="M391.84,561.97l15.71,2.29,1.16-7.87-16.87,5.58Z"/>
            </g>
            <g id="c-70">
              <path id="t-139" class="cls-6" d="M405.21,575l-2.57-15.66,7.71-1.34-5.14,17Z"/>
              <path id="t-140" class="cls-6" d="M405.21,575l7.02-14.24-7.1-3.52.08,17.77Z"/>
            </g>
          </g>
        </g>
        <g id="s-15">
          <g id="c-71">
            <path id="t-141" class="cls-6" d="M410.89,518.23l-11.36-11.11-5.55,5.68,16.92,5.43Z"/>
            <path id="t-142" class="cls-6" d="M410.89,518.23l-15.71-2.31,1.13-7.71,14.58,10.03Z"/>
          </g>
          <g id="a-29">
            <g id="c-72">
              <path id="t-143" class="cls-6" d="M394.38,526.9l7.04-14.24-7.12-3.52.08,17.77Z"/>
              <path id="t-144" class="cls-6" d="M394.38,526.9l-2.57-15.66,7.71-1.34-5.14,17Z"/>
            </g>
            <g id="c-73">
              <path id="t-145" class="cls-6" d="M381.01,513.89l15.71,2.29,1.16-7.87-16.87,5.58Z"/>
              <path id="t-146" class="cls-6" d="M381.01,513.89l14.06-7.38,3.7,7.02-17.77.36Z"/>
            </g>
          </g>
          <g id="a-30">
            <g id="c-74">
              <path id="t-147" class="cls-6" d="M407.78,499.82l-7.04,14.22-7.12-3.5,14.17-10.72Z"/>
              <path id="t-148" class="cls-6" d="M407.78,499.82l-14.06,7.38,3.68,7.02,10.39-14.4Z"/>
            </g>
            <g id="c-75">
              <path id="t-149" class="cls-6" d="M389.29,497.12l11.36,11.08-5.55,5.68-5.81-16.76Z"/>
              <path id="t-150" class="cls-6" d="M389.29,497.12l2.57,15.66,7.71-1.34-10.28-14.32Z"/>
            </g>
          </g>
        </g>
        <g id="s-16">
          <g id="c-76">
            <path id="t-151" class="cls-6" d="M452.03,584.18l-14.04,7.38,3.68,7.02,10.36-14.4Z"/>
            <path id="t-152" class="cls-6" d="M452.03,584.18l-7.02,14.22-7.12-3.52,14.14-10.7Z"/>
          </g>
          <g id="a-31">
            <g id="c-77">
              <path id="t-153" class="cls-6" d="M455.14,602.56l-11.34-11.08-5.55,5.68,16.89,5.4Z"/>
              <path id="t-154" class="cls-6" d="M455.14,602.56l-15.71-2.29,1.16-7.71,14.55,10Z"/>
            </g>
            <g id="c-78">
              <path id="t-155" class="cls-6" d="M438.63,611.26l7.02-14.24-7.1-3.42.08,17.66Z"/>
              <path id="t-156" class="cls-6" d="M438.63,611.26l-2.57-15.66,7.71-1.34-5.14,17Z"/>
            </g>
          </g>
          <g id="a-32">
            <g id="c-79">
              <path id="t-157" class="cls-6" d="M433.54,581.48l11.36,11.08-5.55,5.68-5.81-16.76Z"/>
              <path id="t-158" class="cls-6" d="M433.54,581.48l2.57,15.63,7.71-1.31-10.28-14.32Z"/>
            </g>
            <g id="c-80">
              <path id="t-159" class="cls-6" d="M425.26,598.19l14.06-7.35,3.68,7.02-17.74.33Z"/>
              <path id="t-160" class="cls-6" d="M425.26,598.19l15.71,2.31,1.16-7.87-16.87,5.55Z"/>
            </g>
          </g>
        </g>
      </g>
      <g id="l-4">
        <g id="s-17">
          <g id="c-81">
            <path id="t-161" class="cls-29" d="M568.84,456.73l11.36,11.11-5.55,5.68-5.81-16.79Z"/>
            <path id="t-162" class="cls-29" d="M568.84,456.73l2.57,15.66,7.71-1.34-10.28-14.32Z"/>
          </g>
          <g id="a-33">
            <g id="c-82">
              <path id="t-163" class="cls-29" d="M560.56,473.47l14.06-7.38,3.68,7.02-17.74.36Z"/>
              <path id="t-164" class="cls-29" d="M560.56,473.47l15.71,2.29,1.16-7.71-16.87,5.43Z"/>
            </g>
            <g id="c-83">
              <path id="t-165" class="cls-29" d="M573.9,486.5l-2.57-15.66,7.71-1.34-5.14,17Z"/>
              <path id="t-166" class="cls-29" d="M573.9,486.5l7.05-14.22-7.12-3.52.08,17.74Z"/>
            </g>
          </g>
          <g id="a-34">
            <g id="c-84">
              <path id="t-167" class="cls-29" d="M587.3,459.43l-14.06,7.38,3.7,7.05,10.36-14.42Z"/>
              <path id="t-168" class="cls-29" d="M587.3,459.43l-7.05,14.24-7.1-3.5,14.14-10.75Z"/>
            </g>
            <g id="c-85">
              <path id="t-169" class="cls-29" d="M590.44,477.89l-11.36-11.11-5.53,5.68,16.89,5.43Z"/>
              <path id="t-170" class="cls-29" d="M590.44,477.89l-15.71-2.31,1.16-7.84,14.55,10.16Z"/>
            </g>
          </g>
        </g>
        <g id="s-18">
          <g id="c-86">
            <path id="t-171" class="cls-29" d="M509.93,426.9l-15.71-2.29,1.16-7.87,14.55,10.16Z"/>
            <path id="t-172" class="cls-29" d="M509.93,426.9l-11.34-11.08-5.55,5.66,16.89,5.43Z"/>
          </g>
          <g id="a-35">
            <g id="c-87">
              <path id="t-173" class="cls-29" d="M506.8,408.47l-7.02,14.24-7.12-3.52,14.14-10.72Z"/>
              <path id="t-174" class="cls-29" d="M506.8,408.47l-14.04,7.38,3.68,7.05,10.36-14.42Z"/>
            </g>
            <g id="c-88">
              <path id="t-175" class="cls-29" d="M488.34,405.9l11.36,11.11-5.55,5.68-5.81-16.79Z"/>
              <path id="t-176" class="cls-29" d="M488.34,405.9l2.57,15.66,7.71-1.34-10.28-14.32Z"/>
            </g>
          </g>
          <g id="a-36">
            <g id="c-89">
              <path id="t-177" class="cls-29" d="M493.43,435.57l7.02-14.22-7.1-3.52.08,17.74Z"/>
              <path id="t-178" class="cls-29" d="M493.43,435.57l-2.57-15.66,7.71-1.31-5.14,16.97Z"/>
            </g>
            <g id="c-90">
              <path id="t-179" class="cls-29" d="M480.06,422.53l15.71,2.29,1.16-7.84-16.87,5.55Z"/>
              <path id="t-180" class="cls-29" d="M480.06,422.53l14.06-7.38,3.68,7.05-17.74.33Z"/>
            </g>
          </g>
        </g>
        <g id="s-19">
          <g id="c-91">
            <path id="t-181" class="cls-29" d="M540.48,450.25l-2.57-15.66,7.71-1.31-5.14,16.97Z"/>
            <path id="t-182" class="cls-29" d="M540.48,450.25l7.05-14.22-7.12-3.52.08,17.74Z"/>
          </g>
          <g id="a-37">
            <g id="c-92">
              <path id="t-183" class="cls-29" d="M557.01,441.58l-15.71-2.29,1.16-7.87,14.55,10.16Z"/>
              <path id="t-184" class="cls-29" d="M557.01,441.58l-11.36-11.08-5.53,5.66,16.89,5.43Z"/>
            </g>
            <g id="c-93">
              <path id="t-185" class="cls-29" d="M553.87,423.17l-7.05,14.24-7.1-3.52,14.14-10.72Z"/>
              <path id="t-186" class="cls-29" d="M553.87,423.17l-14.06,7.38,3.7,7.05,10.36-14.42Z"/>
            </g>
          </g>
          <g id="a-38">
            <g id="c-94">
              <path id="t-187" class="cls-29" d="M527.13,437.21l15.71,2.29,1.16-7.71-16.87,5.43Z"/>
              <path id="t-188" class="cls-29" d="M527.13,437.21l14.06-7.38,3.68,7.05-17.74.33Z"/>
            </g>
            <g id="c-95">
              <path id="t-189" class="cls-29" d="M535.41,420.47l2.57,15.66,7.71-1.34-10.28-14.32Z"/>
              <path id="t-190" class="cls-29" d="M535.41,420.47l11.36,11.11-5.55,5.68-5.81-16.79Z"/>
            </g>
          </g>
        </g>
        <g id="s-20">
          <g id="c-96">
            <path id="t-191" class="cls-29" d="M571.38,521.6l14.06-7.38,3.68,7.02-17.74.36Z"/>
            <path id="t-192" class="cls-29" d="M571.38,521.6l15.71,2.29,1.13-7.71-16.84,5.43Z"/>
          </g>
          <g id="a-39">
            <g id="c-97">
              <path id="t-193" class="cls-29" d="M584.73,534.61l-2.57-15.66,7.84-1.34-5.27,17Z"/>
              <path id="t-194" class="cls-29" d="M584.73,534.61l7.05-14.22-7.12-3.52.08,17.74Z"/>
            </g>
            <g id="c-98">
              <path id="t-195" class="cls-29" d="M601.16,525.94l-15.71-2.31,1.16-7.71,14.55,10.03Z"/>
              <path id="t-196" class="cls-29" d="M601.16,525.94l-11.36-11.11-5.53,5.68,16.89,5.43Z"/>
            </g>
          </g>
          <g id="a-40">
            <g id="c-99">
              <path id="t-197" class="cls-29" d="M579.66,504.83l2.57,15.66,7.71-1.34-10.28-14.32Z"/>
              <path id="t-198" class="cls-29" d="M579.66,504.83l11.34,11.11-5.53,5.66-5.81-16.76Z"/>
            </g>
            <g id="c-100">
              <path id="t-199" class="cls-29" d="M598.12,507.53l-14.06,7.38,3.7,7.05,10.36-14.42Z"/>
              <path id="t-200" class="cls-29" d="M598.12,507.53l-7.05,14.24-7.12-3.52,14.17-10.72Z"/>
            </g>
          </g>
        </g>
        <g id="s-21">
          <g id="c-101">
            <path id="t-201" class="cls-29" d="M556.7,568.65l14.06-7.38,3.68,7.02-17.74.36Z"/>
            <path id="t-202" class="cls-29" d="M556.7,568.65l15.71,2.29,1.13-7.87-16.84,5.58Z"/>
          </g>
          <g id="a-41">
            <g id="c-102">
              <path id="t-203" class="cls-29" d="M570.05,581.69l-2.57-15.66,7.71-1.34-5.14,17Z"/>
              <path id="t-204" class="cls-29" d="M570.05,581.69l7.05-14.24-7.12-3.52.08,17.77Z"/>
            </g>
            <g id="c-103">
              <path id="t-205" class="cls-29" d="M586.58,573.02l-15.71-2.31,1.16-7.71,14.55,10.03Z"/>
              <path id="t-206" class="cls-29" d="M586.58,573.02l-11.36-11.11-5.53,5.68,16.89,5.43Z"/>
            </g>
          </g>
          <g id="a-42">
            <g id="c-104">
              <path id="t-207" class="cls-29" d="M564.98,551.91l2.57,15.66,7.71-1.34-10.28-14.32Z"/>
              <path id="t-208" class="cls-29" d="M564.98,551.91l11.34,11.08-5.53,5.68-5.81-16.76Z"/>
            </g>
            <g id="c-105">
              <path id="t-209" class="cls-29" d="M583.44,554.61l-14.06,7.38,3.7,7.02,10.36-14.4Z"/>
              <path id="t-210" class="cls-29" d="M583.44,554.61l-7.05,14.22-7.12-3.52,14.17-10.7Z"/>
            </g>
          </g>
        </g>
      </g>
      <path class="cls-22" d="M422.56,512.21c-5.7,3.21-12.18,4.79-18.72,4.55l-3.11-10.98c5.2.25,10.38-.93,14.96-3.39,7.2-3.78,8.05-8.15,4.6-14.73-3.09-5.86-7.25-6.51-13.68-3.14-3.67,1.98-6.96,4.59-9.72,7.71l-6.61-2.57-13.04-30.24,31.06-16.43,6.25,10.77-21.67,11.47,5.14,11.93c2.19-1.89,4.59-3.52,7.15-4.86,11.39-5.99,20.8-3.65,26.87,7.92,6.97,13.47,4.71,24.55-9.49,31.99Z"/>
      <path class="cls-22" d="M470.44,487.2c-14.24,7.48-24.55,1.88-36-19.75-11.96-22.81-10.28-33.63,4.17-41.14,14.45-7.51,24.25-2.83,36.23,19.98,11.44,21.6,9.72,33.53-4.4,40.91ZM444.47,437.29c-5.79,3.03-6.87,7.15,1.88,23.78,9.08,17.33,12.86,18.38,18.64,15.43,5.79-2.96,6.79-7.1-2.11-24.04-8.9-16.94-12.78-18.1-18.41-15.17h0Z"/>
      <path class="cls-29" d="M469.64,623.13l1.03,2.13-6.87,3.6-5.84-11.13,6.66-3.57,1.16,2.13-4.35,2.29,1.18,2.29,3.68-1.93,1.03,1.95-3.68,1.93,1.39,2.57,4.6-2.26Z"/>
      <path class="cls-29" d="M478.2,616.5c1.28,1.81.86,4.31-.95,5.59-.32.22-.66.4-1.03.53-1.8,1.34-4.35.96-5.68-.84-.22-.3-.41-.63-.54-.99l-3.86-7.35,2.37-1.23,3.83,7.33c.67,1.29,1.49,1.57,2.73.9s1.47-1.44.8-2.75l-3.83-7.3,2.31-1.23,3.86,7.35Z"/>
      <path class="cls-29" d="M485.46,611.59l4.81,3.47-2.57,1.41-3.99-3.32-1.36.72,2.21,4.24-2.31,1.23-5.84-11.13,3.65-1.93c2.57-1.36,4.4-1,5.66,1.41.81,1.2.7,2.8-.26,3.88ZM481.01,608.3l-1.36.72,1.59,3.01,1.34-.69c1.03-.51,1.29-1.03.62-2.26s-1.29-1.31-2.31-.77h.13Z"/>
      <path class="cls-29" d="M495.23,612.64c-3.11,1.65-5.35.69-7.48-3.42s-1.72-6.43,1.44-8.07c3.16-1.65,5.32-.72,7.48,3.39s1.65,6.45-1.44,8.1ZM490.32,603.31c-1.49.8-1.67,1.7,0,4.63s2.42,3.34,3.93,2.57,1.65-1.72,0-4.65-2.42-3.34-3.93-2.55Z"/>
      <path class="cls-11" d="M478.98,640.95l1.05,2.13-6.87,3.6-5.71-11.13,6.66-3.47,1.16,2.11-4.37,2.29,1.21,2.29,3.65-1.93,1.03,1.95-3.65,1.93,1.39,2.57,4.45-2.34Z"/>
      <path class="cls-11" d="M477.38,630.28l3.88,3.42,1,.9h0l-.21-1.31-.64-5.14,2.57-1.34.62,9.41,1.83,3.5-2.39,1.26-1.83-3.52-7.46-5.81,2.62-1.36Z"/>
      <path class="cls-11" d="M494.27,629.59l4.81,3.47-2.7,1.41-4.01-3.32-1.36.72,2.24,4.24-2.34,1.21-5.84-11.13,3.65-1.9c2.57-1.36,4.4-1,5.66,1.39.85,1.18.81,2.78-.1,3.91ZM489.8,626.3l-1.34.69,1.59,3.03,1.31-.69c1.03-.54,1.29-1.05.64-2.29s-1.18-1.23-2.21-.69v-.05Z"/>
      <path class="cls-11" d="M504.15,630.69c-3.09,1.62-5.32.69-7.48-3.42s-1.72-6.43,1.44-8.1,5.35-.69,7.51,3.42,1.7,6.43-1.47,8.1ZM499.26,621.36c-1.52.77-1.7,1.7-.15,4.63s2.42,3.34,3.93,2.57,1.65-1.72,0-4.68-2.16-3.32-3.78-2.52h0Z"/>
      <rect class="cls-1" x="271.44" y="508.95" width="432.6" height="220.86" transform="translate(-146.23 150.76) rotate(-15.31)"/>
      <rect class="cls-1" x="275.41" y="565.09" width="12.71" height="219.67" transform="translate(-166.64 97.13) rotate(-15.15)"/>
      <rect class="cls-1" x="678.85" y="454.14" width="12.71" height="219.67" transform="translate(-123.6 198.74) rotate(-15.15)"/>
      <path class="cls-27" d="M654.87,459.09l-239.89,65.69c-5.97,10.28-37.2,67.13-13.65,131.13,18.2,49.49,58.39,74.23,71.99,81.81l239.86-65.69-58.31-212.94Z"/>
      <ellipse class="cls-10" cx="555.25" cy="598.19" rx="59.6" ry="95.85" transform="translate(-138.24 167.84) rotate(-15.31)"/>
      <path class="cls-12" d="M347.28,757.73h0l10.62-2.91,1.57,5.89-18.46,5.14-1.13-4.09c4.53-8.87,8.77-15.99,7.53-20.57-.59-2.16-2.21-3.19-5.32-2.34-2.37.76-4.43,2.28-5.86,4.32l-2.88-4.73c2.06-2.79,5.02-4.78,8.38-5.63,6.33-1.75,10.46.75,11.9,5.99,1.44,5.25-1.7,11.24-6.35,18.92Z"/>
      <path class="cls-12" d="M373.82,757.12c-7.25,1.98-11.39-1.59-14.4-12.57-3.16-11.6-1.29-16.35,6.02-18.33s11.34,1.13,14.5,12.73c3.01,10.98,1.03,16.22-6.12,18.18ZM366.95,731.79c-2.93.82-3.83,2.57-1.52,11.03,2.31,8.46,4.04,9.67,6.97,8.84s3.81-2.57,1.44-11.16c-2.37-8.59-4.09-9.49-6.89-8.72Z"/>
      <path class="cls-14" d="M639.03,524.43c-3.65-3.7-27.05-26.69-52.76-19.26-25.15,7.25-33.43,38.03-34.61,43.2l32.5,118.71,87.42-23.94-32.55-118.71Z"/>
      <path class="cls-24" d="M609.33,555.02c-3.19-3.24-23.65-23.32-46.13-16.84-22.01,6.33-29.16,33.27-30.29,37.77l28.44,103.8,76.39-20.9-28.41-103.82Z"/>
      <rect class="cls-30" x="285.95" y="561.48" width="50.03" height="33.35" transform="translate(-141.62 102.63) rotate(-15.31)"/>
      <g id="s-22">
        <g id="c-106">
          <path id="t-211" class="cls-6" d="M307.56,565.62v1.85h.93l-.93-1.85Z"/>
          <path id="t-212" class="cls-6" d="M307.56,565.62l1.03,1.54-.77.51-.26-2.06Z"/>
        </g>
        <g id="a-43">
          <g id="c-107">
            <path id="t-213" class="cls-6" d="M309.61,566.39l-1.8.49.26.9,1.54-1.39Z"/>
            <path id="t-214" class="cls-6" d="M309.61,566.39l-1.16,1.44-.75-.57,1.9-.87Z"/>
          </g>
          <g id="c-108">
            <path id="t-215" class="cls-6" d="M309.51,568.57l-1.03-1.57-.77.51,1.8,1.05Z"/>
            <path id="t-216" class="cls-6" d="M309.51,568.57l-1.75-.67.33-.87,1.41,1.54Z"/>
          </g>
        </g>
        <g id="a-44">
          <g id="c-109">
            <path id="t-217" class="cls-6" d="M306.19,567.31l1.8-.49.23.9-2.03-.41Z"/>
            <path id="t-218" class="cls-6" d="M306.19,567.31l1.85.57.33-.87-2.19.31Z"/>
          </g>
          <g id="c-110">
            <path id="t-219" class="cls-6" d="M307.4,569.14v-1.85h.93l-.93,1.85Z"/>
            <path id="t-220" class="cls-6" d="M307.4,569.14l1.16-1.44-.72-.59-.44,2.03Z"/>
          </g>
        </g>
      </g>
      <g id="s-23">
        <g id="c-111">
          <path id="t-221" class="cls-6" d="M313.44,587.06v1.85h.93l-.93-1.85Z"/>
          <path id="t-222" class="cls-6" d="M313.44,587.06l1,1.54-.77.51-.23-2.06Z"/>
        </g>
        <g id="a-45">
          <g id="c-112">
            <path id="t-223" class="cls-6" d="M315.48,587.83l-1.8.49.26.9,1.54-1.39Z"/>
            <path id="t-224" class="cls-6" d="M315.48,587.83l-1.16,1.44-.72-.57,1.88-.87Z"/>
          </g>
          <g id="c-113">
            <path id="t-225" class="cls-6" d="M315.37,590.02l-1.03-1.57-.77.51,1.8,1.05Z"/>
            <path id="t-226" class="cls-6" d="M315.37,590.02l-1.72-.67.31-.87,1.41,1.54Z"/>
          </g>
        </g>
        <g id="a-46">
          <g id="c-114">
            <path id="t-227" class="cls-6" d="M312.08,588.76l1.77-.49.26.9-2.03-.41Z"/>
            <path id="t-228" class="cls-6" d="M312.08,588.76l1.72.67.33-.87-2.06.21Z"/>
          </g>
          <g id="c-115">
            <path id="t-229" class="cls-6" d="M313.19,590.58v-1.85h.93l-.93,1.85Z"/>
            <path id="t-230" class="cls-6" d="M313.19,590.58l1.16-1.44-.64-.69-.51,2.13Z"/>
          </g>
        </g>
      </g>
      <g id="l-5">
        <g id="s-24">
          <g id="c-116">
            <path id="t-231" class="cls-6" d="M299.79,579.27v1.85h.93l-.93-1.85Z"/>
            <path id="t-232" class="cls-6" d="M299.79,579.27l1,1.54-.77.51-.23-2.06Z"/>
          </g>
          <g id="a-47">
            <g id="c-117">
              <path id="t-233" class="cls-6" d="M301.82,580.04l-1.8.49.26.9,1.54-1.39Z"/>
              <path id="t-234" class="cls-6" d="M301.82,580.04l-1.16,1.44-.72-.57,1.88-.87Z"/>
            </g>
            <g id="c-118">
              <path id="t-235" class="cls-6" d="M301.72,582.23l-1.03-1.57-.77.51,1.8,1.05Z"/>
              <path id="t-236" class="cls-6" d="M301.72,582.23l-1.75-.67.36-.82,1.39,1.49Z"/>
            </g>
          </g>
          <g id="a-48">
            <g id="c-119">
              <path id="t-237" class="cls-6" d="M298.43,580.97l1.77-.49.26.9-2.03-.41Z"/>
              <path id="t-238" class="cls-6" d="M298.43,580.97l1.72.67.33-.87-2.06.21Z"/>
            </g>
            <g id="c-120">
              <path id="t-239" class="cls-6" d="M299.61,582.79v-1.85h.93l-.93,1.85Z"/>
              <path id="t-240" class="cls-6" d="M299.61,582.79l1.16-1.44-.72-.59-.44,2.03Z"/>
            </g>
          </g>
        </g>
        <g id="s-25">
          <g id="c-121">
            <path id="t-241" class="cls-6" d="M302.44,572.04l1.16-1.44-.72-.59-.44,2.03Z"/>
            <path id="t-242" class="cls-6" d="M302.44,572.04v-1.85h.93l-.93,1.85Z"/>
          </g>
          <g id="a-49">
            <g id="c-122">
              <path id="t-243" class="cls-6" d="M301.23,570.22l1.75.67.31-.87-2.06.21Z"/>
              <path id="t-244" class="cls-6" d="M301.23,570.22l1.8-.49.23.9-2.03-.41Z"/>
            </g>
            <g id="c-123">
              <path id="t-245" class="cls-6" d="M302.59,568.52v1.85h.93l-.93-1.85Z"/>
              <path id="t-246" class="cls-6" d="M302.59,568.52l1.03,1.54-.77.51-.26-2.06Z"/>
            </g>
          </g>
          <g id="a-50">
            <g id="c-124">
              <path id="t-247" class="cls-6" d="M304.52,571.45l-1.72-.64.33-.87,1.39,1.52Z"/>
              <path id="t-248" class="cls-6" d="M304.52,571.45l-1-1.54-.77.51,1.77,1.03Z"/>
            </g>
            <g id="c-125">
              <path id="t-249" class="cls-6" d="M304.63,569.29l-1.16,1.44-.72-.57,1.88-.87Z"/>
              <path id="t-250" class="cls-6" d="M304.63,569.29l-1.77.49.23.9,1.54-1.39Z"/>
            </g>
          </g>
        </g>
        <g id="s-26">
          <g id="c-126">
            <path id="t-251" class="cls-6" d="M301.69,576.47l-1.03-1.54-.77.49,1.8,1.05Z"/>
            <path id="t-252" class="cls-6" d="M301.69,576.47l-1.75-.67.33-.85,1.41,1.52Z"/>
          </g>
          <g id="a-51">
            <g id="c-127">
              <path id="t-253" class="cls-6" d="M299.59,577.03l1.16-1.44-.72-.57-.44,2.01Z"/>
              <path id="t-254" class="cls-6" d="M299.59,577.03v-1.85h.93l-.93,1.85Z"/>
            </g>
            <g id="c-128">
              <path id="t-255" class="cls-6" d="M298.38,575.21l1.75.67.31-.87-2.06.21Z"/>
              <path id="t-256" class="cls-6" d="M298.38,575.21l1.8-.49.15.87-1.95-.39Z"/>
            </g>
          </g>
          <g id="a-52">
            <g id="c-129">
              <path id="t-257" class="cls-6" d="M301.8,574.28l-1.16,1.47-.75-.59,1.9-.87Z"/>
              <path id="t-258" class="cls-6" d="M301.8,574.28l-1.8.49.26.9,1.54-1.39Z"/>
            </g>
            <g id="c-130">
              <path id="t-259" class="cls-6" d="M299.74,573.51l1.03,1.57-.77.49-.26-2.06Z"/>
              <path id="t-260" class="cls-6" d="M299.74,573.51v1.85h.93l-.93-1.85Z"/>
            </g>
          </g>
        </g>
        <g id="s-27">
          <g id="c-131">
            <path id="t-261" class="cls-6" d="M304.73,585l-1.8.49.26.9,1.54-1.39Z"/>
            <path id="t-262" class="cls-6" d="M304.73,585l-1.16,1.47-.67-.59,1.83-.87Z"/>
          </g>
          <g id="a-53">
            <g id="c-132">
              <path id="t-263" class="cls-6" d="M304.63,587.19l-1.03-1.54-.77.49,1.8,1.05Z"/>
              <path id="t-264" class="cls-6" d="M304.63,587.19l-1.75-.67.33-.85,1.41,1.52Z"/>
            </g>
            <g id="c-133">
              <path id="t-265" class="cls-6" d="M302.52,587.75l1.16-1.44-.77-.44-.39,1.88Z"/>
              <path id="t-266" class="cls-6" d="M302.52,587.75v-1.85h.93l-.93,1.85Z"/>
            </g>
          </g>
          <g id="a-54">
            <g id="c-134">
              <path id="t-267" class="cls-6" d="M302.67,584.23l1.03,1.57-.77.49-.26-2.06Z"/>
              <path id="t-268" class="cls-6" d="M302.67,584.23v1.85h.93l-.93-1.85Z"/>
            </g>
            <g id="c-135">
              <path id="t-269" class="cls-6" d="M301.33,585.88l1.77-.49.26.9-2.03-.41Z"/>
              <path id="t-270" class="cls-6" d="M301.33,585.88l1.72.67.33-.87-2.06.21Z"/>
            </g>
          </g>
        </g>
        <g id="s-28">
          <g id="c-136">
            <path id="t-271" class="cls-6" d="M309.72,587.86l-1.67.59.23.9,1.44-1.49Z"/>
            <path id="t-272" class="cls-6" d="M309.72,587.86l-1.16,1.44-.72-.57,1.88-.87Z"/>
          </g>
          <g id="a-55">
            <g id="c-137">
              <path id="t-273" class="cls-6" d="M309.61,590.04l-1-1.54-.77.49,1.77,1.05Z"/>
              <path id="t-274" class="cls-6" d="M309.61,590.04l-1.72-.67.33-.85,1.39,1.52Z"/>
            </g>
            <g id="c-138">
              <path id="t-275" class="cls-6" d="M307.51,590.61l1.18-1.44-.75-.59-.44,2.03Z"/>
              <path id="t-276" class="cls-6" d="M307.51,590.61v-1.85h.93l-.93,1.85Z"/>
            </g>
          </g>
          <g id="a-56">
            <g id="c-139">
              <path id="t-277" class="cls-6" d="M307.69,587.09l1,1.54-.77.51-.23-2.06Z"/>
              <path id="t-278" class="cls-6" d="M307.69,587.09v1.85h.93l-.93-1.85Z"/>
            </g>
            <g id="c-140">
              <path id="t-279" class="cls-6" d="M306.32,588.78l1.77-.49.26.9-2.03-.41Z"/>
              <path id="t-280" class="cls-6" d="M306.32,588.78l1.72.67.33-.87-2.06.21Z"/>
            </g>
          </g>
        </g>
      </g>
      <g id="l-6">
        <g id="s-29">
          <g id="c-141">
            <path id="t-281" class="cls-6" d="M321.24,573.41l1,1.54-.77.51-.23-2.06Z"/>
            <path id="t-282" class="cls-6" d="M321.24,573.41v1.85h.93l-.93-1.85Z"/>
          </g>
          <g id="a-57">
            <g id="c-142">
              <path id="t-283" class="cls-6" d="M319.87,575.1l1.77-.49.26.9-2.03-.41Z"/>
              <path id="t-284" class="cls-6" d="M319.87,575.1l1.72.64.33-.85-2.06.21Z"/>
            </g>
            <g id="c-143">
              <path id="t-285" class="cls-6" d="M321.06,576.93v-1.85h.93l-.93,1.85Z"/>
              <path id="t-286" class="cls-6" d="M321.06,576.93l1.16-1.47-.72-.57-.44,2.03Z"/>
            </g>
          </g>
          <g id="a-58">
            <g id="c-144">
              <path id="t-287" class="cls-6" d="M323.27,574.18l-1.8.49.26.87,1.54-1.36Z"/>
              <path id="t-288" class="cls-6" d="M323.27,574.18l-1.16,1.44-.72-.59,1.88-.85Z"/>
            </g>
            <g id="c-145">
              <path id="t-289" class="cls-6" d="M323.16,576.34l-1.03-1.54-.77.51,1.8,1.03Z"/>
              <path id="t-290" class="cls-6" d="M323.16,576.34l-1.75-.75.33-.87,1.41,1.62Z"/>
            </g>
          </g>
        </g>
        <g id="s-30">
          <g id="c-146">
            <path id="t-291" class="cls-6" d="M315.24,568.52l-1.72-.64.33-.87,1.39,1.52Z"/>
            <path id="t-292" class="cls-6" d="M315.24,568.52l-1-1.54-.77.51,1.77,1.03Z"/>
          </g>
          <g id="a-59">
            <g id="c-147">
              <path id="t-293" class="cls-6" d="M315.35,566.36l-1.16,1.44-.72-.59,1.88-.85Z"/>
              <path id="t-294" class="cls-6" d="M315.35,566.36l-1.77.49.23.87,1.54-1.36Z"/>
            </g>
            <g id="c-148">
              <path id="t-295" class="cls-6" d="M313.32,565.59l1.03,1.54-.77.51-.26-2.06Z"/>
              <path id="t-296" class="cls-6" d="M313.32,565.59v1.85h.93l-.93-1.85Z"/>
            </g>
          </g>
          <g id="a-60">
            <g id="c-149">
              <path id="t-297" class="cls-6" d="M313.19,569.11l1.16-1.47-.72-.57-.44,2.03Z"/>
              <path id="t-298" class="cls-6" d="M313.19,569.11v-1.85h.93l-.93,1.85Z"/>
            </g>
            <g id="c-150">
              <path id="t-299" class="cls-6" d="M311.95,567.29l1.75.64.31-.85-2.06.21Z"/>
              <path id="t-300" class="cls-6" d="M311.95,567.29l1.8-.49.23.9-2.03-.41Z"/>
            </g>
          </g>
        </g>
        <g id="s-31">
          <g id="c-151">
            <path id="t-301" class="cls-6" d="M318.15,571.97v-1.85h.93l-.93,1.85Z"/>
            <path id="t-302" class="cls-6" d="M318.15,571.97l1.16-1.47-.72-.57-.44,2.03Z"/>
          </g>
          <g id="a-61">
            <g id="c-152">
              <path id="t-303" class="cls-6" d="M320.26,571.38l-1.75-.64.33-.87,1.41,1.52Z"/>
              <path id="t-304" class="cls-6" d="M320.26,571.38l-1.03-1.54-.77.51,1.8,1.03Z"/>
            </g>
            <g id="c-153">
              <path id="t-305" class="cls-6" d="M320.36,569.22l-1.16,1.44-.72-.59,1.88-.85Z"/>
              <path id="t-306" class="cls-6" d="M320.36,569.22l-1.8.49.26.87,1.54-1.36Z"/>
            </g>
          </g>
          <g id="a-62">
            <g id="c-154">
              <path id="t-307" class="cls-6" d="M316.97,570.14l1.72.64.33-.87-2.06.23Z"/>
              <path id="t-308" class="cls-6" d="M316.97,570.14l1.77-.49.26.87-2.03-.39Z"/>
            </g>
            <g id="c-155">
              <path id="t-309" class="cls-6" d="M318.33,568.45v1.85h.93l-.93-1.85Z"/>
              <path id="t-310" class="cls-6" d="M318.33,568.45l1,1.54-.77.51-.23-2.06Z"/>
            </g>
          </g>
        </g>
        <g id="s-32">
          <g id="c-156">
            <path id="t-311" class="cls-6" d="M319.9,580.86l1.77-.49.26.87-2.03-.39Z"/>
            <path id="t-312" class="cls-6" d="M319.9,580.86l1.72.64.33-.87-2.06.23Z"/>
          </g>
          <g id="a-63">
            <g id="c-157">
              <path id="t-313" class="cls-6" d="M321.08,582.69v-1.85h.93l-.93,1.85Z"/>
              <path id="t-314" class="cls-6" d="M321.08,582.69l1.16-1.47-.72-.57-.44,2.03Z"/>
            </g>
            <g id="c-158">
              <path id="t-315" class="cls-6" d="M323.19,582.1l-1.72-.64.31-.87,1.41,1.52Z"/>
              <path id="t-316" class="cls-6" d="M323.19,582.1l-1.03-1.54-.77.51,1.8,1.03Z"/>
            </g>
          </g>
          <g id="a-64">
            <g id="c-159">
              <path id="t-317" class="cls-6" d="M321.26,579.17v1.85h.93l-.93-1.85Z"/>
              <path id="t-318" class="cls-6" d="M321.26,579.17l1,1.54-.77.51-.23-2.06Z"/>
            </g>
            <g id="c-160">
              <path id="t-319" class="cls-6" d="M323.29,579.94l-1.77.49.23.87,1.54-1.36Z"/>
              <path id="t-320" class="cls-6" d="M323.29,579.94l-1.16,1.44-.72-.64,1.88-.8Z"/>
            </g>
          </g>
        </g>
        <g id="s-33">
          <g id="c-161">
            <path id="t-321" class="cls-6" d="M317.04,585.88l1.77-.49.26.9-2.03-.41Z"/>
            <path id="t-322" class="cls-6" d="M317.04,585.88l1.72.67.33-.87-2.06.21Z"/>
          </g>
          <g id="a-65">
            <g id="c-162">
              <path id="t-323" class="cls-6" d="M318.33,587.68v-1.85h.93l-.93,1.85Z"/>
              <path id="t-324" class="cls-6" d="M318.33,587.68l1.18-1.44-.75-.59-.44,2.03Z"/>
            </g>
            <g id="c-163">
              <path id="t-325" class="cls-6" d="M320.34,587.11l-1.72-.67.33-.87,1.39,1.54Z"/>
              <path id="t-326" class="cls-6" d="M320.34,587.11l-1-1.57-.77.51,1.77,1.05Z"/>
            </g>
          </g>
          <g id="a-66">
            <g id="c-164">
              <path id="t-327" class="cls-6" d="M318.33,584.16v1.85h.93l-.93-1.85Z"/>
              <path id="t-328" class="cls-6" d="M318.33,584.16l1,1.54-.77.51-.23-2.06Z"/>
            </g>
            <g id="c-165">
              <path id="t-329" class="cls-6" d="M320.44,584.93l-1.77.49.23.9,1.54-1.39Z"/>
              <path id="t-330" class="cls-6" d="M320.44,584.93l-1.16,1.44-.72-.57,1.88-.87Z"/>
            </g>
          </g>
        </g>
      </g>
      <g id="s-34">
        <g id="c-166">
          <path id="t-331" class="cls-6" d="M531.48,683.58l-.69,14.78,7.4.33-6.71-15.12Z"/>
          <path id="t-332" class="cls-6" d="M531.48,683.58l8.15,12.37-6.2,4.06-1.95-16.43Z"/>
        </g>
        <g id="a-67">
          <g id="c-167">
            <path id="t-333" class="cls-6" d="M547.78,689.8l-14.3,3.91,1.95,7.15,12.34-11.06Z"/>
            <path id="t-334" class="cls-6" d="M547.78,689.8l-9.26,11.54-5.79-4.63,15.04-6.92Z"/>
          </g>
          <g id="c-168">
            <path id="t-335" class="cls-6" d="M546.96,707.19l-8.12-12.37-6.2,4.19,14.32,8.18Z"/>
            <path id="t-336" class="cls-6" d="M546.96,707.19l-13.86-5.14,2.57-6.94,11.29,12.08Z"/>
          </g>
        </g>
        <g id="a-68">
          <g id="c-169">
            <path id="t-337" class="cls-6" d="M520.6,697.23l14.3-3.91,1.95,7.15-16.25-3.24Z"/>
            <path id="t-338" class="cls-6" d="M520.6,697.23l13.86,5.14,2.57-6.94-16.43,1.8Z"/>
          </g>
          <g id="c-170">
            <path id="t-339" class="cls-6" d="M530.17,711.86l.69-14.78,7.4.33-8.1,14.45Z"/>
            <path id="t-340" class="cls-6" d="M530.17,711.86l9.26-11.57-5.79-4.63-3.47,16.2Z"/>
          </g>
        </g>
      </g>
      <g id="l-7">
        <g id="s-35">
          <g id="c-171">
            <path id="t-341" class="cls-6" d="M422.31,621.41l-.69,14.78,7.4.36-6.71-15.14Z"/>
            <path id="t-342" class="cls-6" d="M422.31,621.41l8.15,12.37-6.2,4.06-1.95-16.43Z"/>
          </g>
          <g id="a-69">
            <g id="c-172">
              <path id="t-343" class="cls-6" d="M438.61,627.56l-14.3,3.91,1.95,7.15,12.34-11.06Z"/>
              <path id="t-344" class="cls-6" d="M438.61,627.56l-9.26,11.57-5.79-4.63,15.04-6.94Z"/>
            </g>
            <g id="c-173">
              <path id="t-345" class="cls-6" d="M437.79,645.01l-8.12-12.39-6.2,4.06,14.32,8.33Z"/>
              <path id="t-346" class="cls-6" d="M437.79,645.01l-13.86-5.14,2.57-6.92,11.29,12.06Z"/>
            </g>
          </g>
          <g id="a-70">
            <g id="c-174">
              <path id="t-347" class="cls-6" d="M411.43,634.99l14.3-3.91,1.95,7.15-16.25-3.24Z"/>
              <path id="t-348" class="cls-6" d="M411.43,634.99l13.86,5.14,2.57-6.92-16.43,1.77Z"/>
            </g>
            <g id="c-175">
              <path id="t-349" class="cls-6" d="M421,649.54l.69-14.78,7.4.33-8.1,14.45Z"/>
              <path id="t-350" class="cls-6" d="M421,649.54l9.26-11.54-5.79-4.63-3.47,16.17Z"/>
            </g>
          </g>
        </g>
        <g id="s-36">
          <g id="c-176">
            <path id="t-351" class="cls-6" d="M437.53,598.96l-8.12-12.39-6.2,4.06,14.32,8.33Z"/>
            <path id="t-352" class="cls-6" d="M437.53,598.96l-13.86-5.14,2.57-6.92,11.29,12.06Z"/>
          </g>
          <g id="a-71">
            <g id="c-177">
              <path id="t-353" class="cls-6" d="M420.74,603.54l9.26-11.54-5.79-4.63-3.47,16.17Z"/>
              <path id="t-354" class="cls-6" d="M420.74,603.54l.69-14.78,7.4.36-8.1,14.42Z"/>
            </g>
            <g id="c-178">
              <path id="t-355" class="cls-6" d="M411.17,589.01l13.86,5.14,2.57-6.92-16.43,1.77Z"/>
              <path id="t-356" class="cls-6" d="M411.17,589.01l14.3-3.93,1.95,7.15-16.25-3.21Z"/>
            </g>
          </g>
          <g id="a-72">
            <g id="c-179">
              <path id="t-357" class="cls-6" d="M438.35,581.56l-9.26,11.57-5.79-4.63,15.04-6.94Z"/>
              <path id="t-358" class="cls-6" d="M438.35,581.56l-14.3,3.91,1.98,7.15,12.32-11.06Z"/>
            </g>
            <g id="c-180">
              <path id="t-359" class="cls-6" d="M422.08,575.41l8.12,12.37-6.2,4.09-1.93-16.46Z"/>
              <path id="t-360" class="cls-6" d="M422.08,575.41l-.69,14.78,7.38.36-6.69-15.14Z"/>
            </g>
          </g>
        </g>
        <g id="s-37">
          <g id="c-181">
            <path id="t-361" class="cls-6" d="M461.83,667.28l-14.3,3.91,1.93,7.25,12.37-11.16Z"/>
            <path id="t-362" class="cls-6" d="M461.83,667.28l-9.26,11.54-5.79-4.63,15.04-6.92Z"/>
          </g>
          <g id="a-73">
            <g id="c-182">
              <path id="t-363" class="cls-6" d="M461,684.66l-8.12-12.37-6.2,4.06,14.32,8.3Z"/>
              <path id="t-364" class="cls-6" d="M461,684.66l-13.86-5.14,2.57-6.92,11.29,12.06Z"/>
            </g>
            <g id="c-183">
              <path id="t-365" class="cls-6" d="M444.32,689.26l9.26-11.57-5.79-4.63-3.47,16.2Z"/>
              <path id="t-366" class="cls-6" d="M444.32,689.26l.69-14.81,7.4.36-8.1,14.45Z"/>
            </g>
          </g>
          <g id="a-74">
            <g id="c-184">
              <path id="t-367" class="cls-6" d="M445.53,661.11l8.15,12.39-6.2,4.06-1.95-16.46Z"/>
              <path id="t-368" class="cls-6" d="M445.53,661.11l-.69,14.76,7.4.33-6.71-15.09Z"/>
            </g>
            <g id="c-185">
              <path id="t-369" class="cls-6" d="M434.65,674.71l14.3-3.99,1.95,7.15-16.25-3.16Z"/>
              <path id="t-370" class="cls-6" d="M434.65,674.71l13.86,5.14,2.57-6.92-16.43,1.77Z"/>
            </g>
          </g>
        </g>
      </g>
      <g id="l-8">
        <g id="s-38">
          <g id="c-186">
            <path id="t-371" class="cls-30" d="M593.73,574.49l8.12,12.37-6.17,4.06-1.95-16.43Z"/>
            <path id="t-372" class="cls-30" d="M593.73,574.49l-.69,14.78,7.4.33-6.71-15.12Z"/>
          </g>
          <g id="a-75">
            <g id="c-187">
              <path id="t-373" class="cls-30" d="M582.85,588.06l14.27-3.91,1.95,7.15-16.22-3.24Z"/>
              <path id="t-374" class="cls-30" d="M582.85,588.06l13.86,5.14,2.57-6.94-16.43,1.8Z"/>
            </g>
            <g id="c-188">
              <path id="t-375" class="cls-30" d="M592.42,602.62l.69-14.78,7.38.33-8.07,14.45Z"/>
              <path id="t-376" class="cls-30" d="M592.42,602.62l9.26-11.57-5.79-4.63-3.47,16.2Z"/>
            </g>
          </g>
          <g id="a-76">
            <g id="c-189">
              <path id="t-377" class="cls-30" d="M610,580.74l-14.27,3.91,1.95,7.15,12.32-11.06Z"/>
              <path id="t-378" class="cls-30" d="M610,580.74l-9.26,11.54-5.76-4.63,15.02-6.92Z"/>
            </g>
            <g id="c-190">
              <path id="t-379" class="cls-30" d="M609.21,598.01l-8.05-12.37-6.17,4.06,14.22,8.3Z"/>
              <path id="t-380" class="cls-30" d="M609.21,598.01l-13.86-5.14,2.57-6.94,11.29,12.08Z"/>
            </g>
          </g>
        </g>
        <g id="s-39">
          <g id="c-191">
            <path id="t-381" class="cls-30" d="M546.03,535.53l-13.86-5.14,2.57-6.92,11.29,12.06Z"/>
            <path id="t-382" class="cls-30" d="M546.03,535.53l-8.15-12.39-6.17,4.09,14.32,8.3Z"/>
          </g>
          <g id="a-77">
            <g id="c-192">
              <path id="t-383" class="cls-30" d="M546.83,518.13l-9.26,11.57-5.79-4.63,15.04-6.94Z"/>
              <path id="t-384" class="cls-30" d="M546.83,518.13l-14.27,3.91,1.95,7.15,12.32-11.06Z"/>
            </g>
            <g id="c-193">
              <path id="t-385" class="cls-30" d="M530.55,511.98l8.12,12.39-6.17,4.06-1.95-16.46Z"/>
              <path id="t-386" class="cls-30" d="M530.55,511.98l-.69,14.81,7.4.33-6.71-15.14Z"/>
            </g>
          </g>
          <g id="a-78">
            <g id="c-194">
              <path id="t-387" class="cls-30" d="M529.17,540.14l9.28-11.57-5.79-4.63-3.5,16.2Z"/>
              <path id="t-388" class="cls-30" d="M529.17,540.14l.72-14.81,7.38.36-8.1,14.45Z"/>
            </g>
            <g id="c-195">
              <path id="t-389" class="cls-30" d="M519.68,525.58l13.83,5.14,2.57-6.92-16.4,1.77Z"/>
              <path id="t-390" class="cls-30" d="M519.68,525.58l14.27-3.91,1.95,7.12-16.22-3.21Z"/>
            </g>
          </g>
        </g>
        <g id="s-40">
          <g id="c-196">
            <path id="t-391" class="cls-30" d="M569.2,562.92l.69-14.81,7.38.36-8.07,14.45Z"/>
            <path id="t-392" class="cls-30" d="M569.2,562.92l9.26-11.57-5.79-4.63-3.47,16.2Z"/>
          </g>
          <g id="a-79">
            <g id="c-197">
              <path id="t-393" class="cls-30" d="M585.99,558.31l-13.86-5.14,2.57-6.92,11.29,12.06Z"/>
              <path id="t-394" class="cls-30" d="M585.99,558.31l-8.15-12.39-6.17,4.09,14.32,8.3Z"/>
            </g>
            <g id="c-198">
              <path id="t-395" class="cls-30" d="M586.79,540.91l-9.26,11.57-5.76-4.63,15.02-6.94Z"/>
              <path id="t-396" class="cls-30" d="M586.79,540.91l-14.27,3.83,1.95,7.15,12.32-10.98Z"/>
            </g>
          </g>
          <g id="a-80">
            <g id="c-199">
              <path id="t-397" class="cls-30" d="M559.63,548.36l13.86,5.14,2.57-6.92-16.43,1.77Z"/>
              <path id="t-398" class="cls-30" d="M559.63,548.36l14.27-3.91,1.95,7.12-16.22-3.21Z"/>
            </g>
            <g id="c-200">
              <path id="t-399" class="cls-30" d="M570.51,534.76l-.69,14.81,7.4.33-6.71-15.14Z"/>
              <path id="t-400" class="cls-30" d="M570.51,534.76l8.12,12.39-6.17,4.06-1.95-16.46Z"/>
            </g>
          </g>
        </g>
        <g id="s-41">
          <g id="c-201">
            <path id="t-401" class="cls-30" d="M583.16,634.06l14.3-3.91,1.95,7.15-16.25-3.24Z"/>
            <path id="t-402" class="cls-30" d="M583.16,634.06l13.86,5.14,2.57-6.94-16.43,1.8Z"/>
          </g>
          <g id="a-81">
            <g id="c-202">
              <path id="t-403" class="cls-30" d="M592.65,648.61l.69-14.78,7.4.33-8.1,14.45Z"/>
              <path id="t-404" class="cls-30" d="M592.65,648.61l9.26-11.57-5.76-4.63-3.5,16.2Z"/>
            </g>
            <g id="c-203">
              <path id="t-405" class="cls-30" d="M609.44,644.01l-13.83-5.14,2.57-6.94,11.26,12.08Z"/>
              <path id="t-406" class="cls-30" d="M609.44,644.01l-8.12-12.37-6.2,4.06,14.32,8.3Z"/>
            </g>
          </g>
          <g id="a-82">
            <g id="c-204">
              <path id="t-407" class="cls-30" d="M593.98,620.46l-.69,14.81,7.38.33-6.69-15.14Z"/>
              <path id="t-408" class="cls-30" d="M593.98,620.46l8.12,12.39-6.09,4.06-2.03-16.46Z"/>
            </g>
            <g id="c-205">
              <path id="t-409" class="cls-30" d="M610.26,626.63l-14.24,3.91,1.95,7.15,12.29-11.06Z"/>
              <path id="t-410" class="cls-30" d="M610.26,626.63l-9.26,11.54-5.79-4.63,15.04-6.92Z"/>
            </g>
          </g>
        </g>
        <g id="s-42">
          <g id="c-206">
            <path id="t-411" class="cls-30" d="M560.3,674.02l14.3-3.91,1.95,7.15-16.25-3.24Z"/>
            <path id="t-412" class="cls-30" d="M560.3,674.02l13.86,5.14,2.57-6.94-16.43,1.8Z"/>
          </g>
          <g id="a-83">
            <g id="c-207">
              <path id="t-413" class="cls-30" d="M569.87,688.57l.69-14.78,7.4.33-8.1,14.45Z"/>
              <path id="t-414" class="cls-30" d="M569.87,688.57l9.26-11.57-5.76-4.63-3.5,16.2Z"/>
            </g>
            <g id="c-208">
              <path id="t-415" class="cls-30" d="M586.66,683.97l-13.83-5.14,2.57-6.94,11.26,12.08Z"/>
              <path id="t-416" class="cls-30" d="M586.66,683.97l-8.12-12.37-6.2,4.06,14.32,8.3Z"/>
            </g>
          </g>
          <g id="a-84">
            <g id="c-209">
              <path id="t-417" class="cls-30" d="M571.2,660.44l-.69,14.78,7.38.33-6.69-15.12Z"/>
              <path id="t-418" class="cls-30" d="M571.2,660.44l8.12,12.37-6.2,4.06-1.93-16.43Z"/>
            </g>
            <g id="c-210">
              <path id="t-419" class="cls-30" d="M587.48,666.59l-14.27,3.91,1.95,7.15,12.32-11.06Z"/>
              <path id="t-420" class="cls-30" d="M587.48,666.59l-9.26,11.54-5.79-4.63,15.04-6.92Z"/>
            </g>
          </g>
        </g>
      </g>
      <path class="cls-28" d="M444.96,583.8l.13.21,21.24-5.81,2.88,11.42-36.95,10.1-2.24-8.2c9.08-17.72,17.54-31.96,15.07-40.98-1.18-4.35-4.42-6.4-10.62-4.71-4.74,1.54-8.86,4.58-11.72,8.66l-5.81-9.49c4.16-5.56,10.09-9.53,16.82-11.26,12.65-3.45,20.93,1.54,23.78,12.01,2.85,10.46-3.29,22.7-12.57,38.05Z"/>
      <path class="cls-28" d="M497.98,582.59c-14.48,3.96-22.75-3.19-28.77-25.17-6.33-23.14-2.57-32.68,12.03-36.66,14.6-3.99,22.68,2.26,29,25.43,6.07,21.98,2.06,32.47-12.26,36.41ZM484.3,531.88c-5.89,1.59-7.71,5.14-3.06,22.01,4.83,17.64,8.07,19.34,13.94,17.74,5.86-1.59,7.71-5.14,2.88-22.34-4.83-17.2-8.05-18.92-13.76-17.41Z"/>
      <path class="cls-24" d="M470.03,706.29l.54,2.16-6.97,1.9-3.11-11.31,6.76-1.85.64,2.16-4.42,1.21.62,2.34,3.73-1.03.54,2.01-3.73,1,.75,2.7,4.65-1.29Z"/>
      <path class="cls-24" d="M479.23,701.94c.63,2.3-.72,4.68-3.02,5.31-2.3.63-4.68-.72-5.31-3.02h0l-2.03-7.46,2.37-.67,2.06,7.46c.06.89.83,1.57,1.73,1.51.19-.01.38-.06.56-.14,1.26-.36,1.65-1.03,1.29-2.34l-2.06-7.46,2.39-.64,2.03,7.46Z"/>
      <path class="cls-24" d="M486.72,699.01l3.68,4.11-2.75.77-2.96-3.83-1.39.39,1.18,4.32-2.39.64-3.09-11.31,3.7-1.03c2.57-.72,4.22,0,4.89,2.42.53,1.24.17,2.68-.87,3.52ZM483.3,695.13l-1.36.36.85,3.09,1.34-.36c1.03-.28,1.39-.72,1.03-1.95s-.8-1.52-1.85-1.23v.1Z"/>
      <path class="cls-24" d="M495.51,701.84c-3.16.87-5.01-.44-6.15-4.6s-.28-6.2,2.93-7.1,5.14.44,6.15,4.6.28,6.22-2.93,7.1ZM492.94,692.35c-1.52.41-1.88,1.21-1.05,4.19s1.52,3.52,3.06,3.11,1.85-1.23,1.03-4.22-1.52-3.5-3.06-3.09h.03Z"/>
      <path class="cls-16" d="M475.17,724.39l.54,2.16-6.97,1.9-3.11-11.31,6.76-1.85.64,2.16-4.45,1.23.64,2.31,3.73-1.03.54,2.01-3.73,1,.75,2.7,4.65-1.29Z"/>
      <path class="cls-16" d="M475.74,714.44l2.85,3.91.72,1.03h0v-1.23l.44-4.81,2.57-.69-1.34,8.69.98,3.57-2.42.64-.98-3.55-5.63-6.79,2.8-.77Z"/>
      <path class="cls-16" d="M491.24,717.01l3.7,4.14-2.75.75-2.98-3.81-1.39.36,1.18,4.32-2.37.64-3.11-11.31,3.73-1c2.57-.72,4.19,0,4.86,2.42.55,1.23.19,2.67-.87,3.5ZM487.85,713.12l-1.39.39.85,3.09,1.34-.39c1.05-.28,1.39-.69,1.05-1.95s-.82-1.31-1.85-1.03v-.1Z"/>
      <path class="cls-16" d="M500.03,720.07c-3.14.85-4.99-.44-6.15-4.6-1.16-4.17-.26-6.22,2.96-7.1s4.99.41,6.12,4.6.28,6.22-2.93,7.1ZM497.46,710.58c-1.52.41-1.88,1.21-1.05,4.19s1.54,3.52,3.06,3.11,1.85-1.23,1.05-4.24-1.54-3.5-3.09-3.06h.03Z"/>
      <rect class="cls-5" x="284.33" y="599.15" width="379.84" height="193.92" transform="translate(-42.54 30.97) rotate(-3.58)"/>
      <rect class="cls-15" x="284.71" y="610.67" width="11.21" height="193.92" transform="translate(-43.62 19.51) rotate(-3.58)"/>
      <rect class="cls-15" x="652.58" y="587.66" width="11.21" height="193.92" transform="translate(-41.46 42.43) rotate(-3.58)"/>
      <path class="cls-18" d="M646.51,588.22l-217.96,13.63c-6.99,7.87-43.97,51.06-35.15,110.35,6.79,45.79,36.92,74.26,47.26,83.18l217.96-13.63-12.11-193.53Z"/>
      <ellipse class="cls-20" cx="536.29" cy="693.17" rx="52.32" ry="84.15" transform="translate(-42.24 34.84) rotate(-3.58)"/>
      <path class="cls-12" d="M324.6,791.42l3.68-.23-.82-13.4v-2.93h0l-2.24,1.57-2.21,1.49-.9-4.63,7.35-5.5,3.29-.21,1.47,23.29,3.65-.23.26,4.14-13.09.8-.44-4.17Z"/>
      <path class="cls-12" d="M351.76,794.14c-6.58.41-9.51-3.39-10.13-13.37-.64-10.54,1.83-14.3,8.43-14.71,6.61-.41,9.56,3.01,10.28,13.52.49,10.08-2.16,14.24-8.59,14.55ZM350.39,771.16c-2.57.15-3.75,1.52-3.29,9.2.46,7.69,1.75,9.02,4.42,8.84s3.7-1.52,3.21-9.33-1.83-8.87-4.42-8.64l.08-.08Z"/>
      <path class="cls-17" d="M579.95,628.17c10.52-.94,21.06,1.62,29.98,7.28,18.31,11.83,21.03,32.19,21.39,35.15l5.84,93.69-48.52,3.03-8.69-139.15Z"/>
      <path class="cls-17" d="M632.27,686.15c-32.23-25.63-78.61-22.73-107.4,6.71l4.89,78.19,107.4-6.76-4.89-78.14Z"/>
      <path class="cls-21" d="M603.45,706.44c-1.39-2.11-10.28-15.43-23.14-14.37-12.86,1.05-19.62,14.81-20.75,17.12l3.75,59.7,43.94-2.73-3.81-59.73Z"/>
      <rect class="cls-30" x="307.71" y="614.48" width="43.92" height="29.29" transform="translate(-38.64 21.81) rotate(-3.58)"/>
      <g id="s-43">
        <g id="c-211">
          <path id="t-421" class="cls-6" d="M328.92,617.76l-.31,1.54.77.21-.46-1.75Z"/>
          <path id="t-422" class="cls-6" d="M328.92,617.76l.62,1.52-.77.31.15-1.83Z"/>
        </g>
        <g id="a-85">
          <g id="c-212">
            <path id="t-423" class="cls-6" d="M330.54,618.79h-1.62v.82l1.62-.82Z"/>
            <path id="t-424" class="cls-6" d="M330.54,618.79l-1.26,1.03-.51-.62,1.77-.41Z"/>
          </g>
          <g id="c-213">
            <path id="t-425" class="cls-6" d="M330.08,620.64l-.62-1.52-.75.31,1.36,1.21Z"/>
            <path id="t-426" class="cls-6" d="M330.08,620.64l-1.39-.87.44-.69.95,1.57Z"/>
          </g>
        </g>
        <g id="a-86">
          <g id="c-214">
            <path id="t-427" class="cls-6" d="M327.46,618.99h1.62v.8l-1.62-.8Z"/>
            <path id="t-428" class="cls-6" d="M327.46,618.99l1.36.85.44-.67-1.8-.18Z"/>
          </g>
          <g id="c-215">
            <path id="t-429" class="cls-6" d="M328.15,620.77l.46-1.47.8.21-1.26,1.26Z"/>
            <path id="t-430" class="cls-6" d="M328.15,620.77l1.26-1.05-.51-.62-.75,1.67Z"/>
          </g>
        </g>
      </g>
      <g id="s-44">
        <g id="c-216">
          <path id="t-431" class="cls-6" d="M330.16,637.3l-.41,1.57.8.21-.39-1.77Z"/>
          <path id="t-432" class="cls-6" d="M330.16,637.3l.59,1.52-.75.28.15-1.8Z"/>
        </g>
        <g id="a-87">
          <g id="c-217">
            <path id="t-433" class="cls-6" d="M331.75,638.28h-1.62v.8l1.62-.8Z"/>
            <path id="t-434" class="cls-6" d="M331.75,638.28l-1.23,1.03-.51-.62,1.75-.41Z"/>
          </g>
          <g id="c-218">
            <path id="t-435" class="cls-6" d="M331.19,640.13l-.59-1.52-.77.31,1.36,1.21Z"/>
            <path id="t-436" class="cls-6" d="M331.19,640.13l-1.36-.87.41-.69.95,1.57Z"/>
          </g>
        </g>
        <g id="a-88">
          <g id="c-219">
            <path id="t-437" class="cls-6" d="M328.61,638.46h1.65v.82l-1.65-.82Z"/>
            <path id="t-438" class="cls-6" d="M328.61,638.46l1.39.87.44-.67-1.83-.21Z"/>
          </g>
          <g id="c-220">
            <path id="t-439" class="cls-6" d="M329.39,640.23l.39-1.57.8.21-1.18,1.36Z"/>
            <path id="t-440" class="cls-6" d="M329.39,640.23l1.23-1.03-.51-.62-.72,1.65Z"/>
          </g>
        </g>
      </g>
      <g id="l-9">
        <g id="s-45">
          <g id="c-221">
            <path id="t-441" class="cls-6" d="M319.8,628.12l-.41,1.57.8.21-.39-1.77Z"/>
            <path id="t-442" class="cls-6" d="M319.8,628.12l.59,1.52-.75.28.15-1.8Z"/>
          </g>
          <g id="a-89">
            <g id="c-222">
              <path id="t-443" class="cls-6" d="M321.42,629.15h-1.62v.8l1.62-.8Z"/>
              <path id="t-444" class="cls-6" d="M321.42,629.15l-1.26,1.03-.51-.62,1.77-.41Z"/>
            </g>
            <g id="c-223">
              <path id="t-445" class="cls-6" d="M320.9,631l-.59-1.52-.75.28,1.34,1.23Z"/>
              <path id="t-446" class="cls-6" d="M320.9,631l-1.36-.87.44-.69.93,1.57Z"/>
            </g>
          </g>
          <g id="a-90">
            <g id="c-224">
              <path id="t-447" class="cls-6" d="M318.33,629.33h1.62v.82l-1.62-.82Z"/>
              <path id="t-448" class="cls-6" d="M318.33,629.33l1.36.87.44-.69-1.8-.18Z"/>
            </g>
            <g id="c-225">
              <path id="t-449" class="cls-6" d="M319.02,631.1l.41-1.57.8.21-1.21,1.36Z"/>
              <path id="t-450" class="cls-6" d="M319.02,631.1l1.26-1.03-.51-.62-.75,1.65Z"/>
            </g>
          </g>
        </g>
        <g id="s-46">
          <g id="c-226">
            <path id="t-451" class="cls-6" d="M323.47,622.36l1.26-1.03-.51-.62-.75,1.65Z"/>
            <path id="t-452" class="cls-6" d="M323.47,622.36l.41-1.57.77.21-1.18,1.36Z"/>
          </g>
          <g id="a-91">
            <g id="c-227">
              <path id="t-453" class="cls-6" d="M322.68,620.59l1.36.87.44-.69-1.8-.18Z"/>
              <path id="t-454" class="cls-6" d="M322.68,620.59h1.62v.82l-1.62-.82Z"/>
            </g>
            <g id="c-228">
              <path id="t-455" class="cls-6" d="M324.14,619.3l-.41,1.57.8.21-.39-1.77Z"/>
              <path id="t-456" class="cls-6" d="M324.14,619.3l.59,1.52-.75.28.15-1.8Z"/>
            </g>
          </g>
          <g id="a-92">
            <g id="c-229">
              <path id="t-457" class="cls-6" d="M325.27,622.26l-1.36-.87.44-.69.93,1.57Z"/>
              <path id="t-458" class="cls-6" d="M325.27,622.26l-.59-1.52-.75.28,1.34,1.23Z"/>
            </g>
            <g id="c-230">
              <path id="t-459" class="cls-6" d="M325.76,620.41l-1.26,1.03-.51-.62,1.77-.41Z"/>
              <path id="t-460" class="cls-6" d="M325.76,620.41h-1.62v.8l1.62-.8Z"/>
            </g>
          </g>
        </g>
        <g id="s-47">
          <g id="c-231">
            <path id="t-461" class="cls-6" d="M321.93,626.04l-.59-1.52-.75.31,1.34,1.21Z"/>
            <path id="t-462" class="cls-6" d="M321.93,626.04l-1.36-.87.33-.72,1.03,1.59Z"/>
          </g>
          <g id="a-93">
            <g id="c-232">
              <path id="t-463" class="cls-6" d="M320.03,626.17l1.26-1.05-.39-.67-.87,1.72Z"/>
              <path id="t-464" class="cls-6" d="M320.03,626.17l.41-1.59.77.21-1.18,1.39Z"/>
            </g>
            <g id="c-233">
              <path id="t-465" class="cls-6" d="M319.33,624.45l1.36.87.44-.67-1.8-.21Z"/>
              <path id="t-466" class="cls-6" d="M319.33,624.45h1.62v.8l-1.62-.8Z"/>
            </g>
          </g>
          <g id="a-94">
            <g id="c-234">
              <path id="t-467" class="cls-6" d="M322.42,624.19l-1.26,1.03-.51-.62,1.77-.41Z"/>
              <path id="t-468" class="cls-6" d="M322.42,624.19h-1.62v.82l1.62-.82Z"/>
            </g>
            <g id="c-235">
              <path id="t-469" class="cls-6" d="M320.9,623.16l.59,1.52-.75.31.15-1.83Z"/>
              <path id="t-470" class="cls-6" d="M320.9,623.16l-.41,1.57.8.21-.39-1.77Z"/>
            </g>
          </g>
        </g>
        <g id="s-48">
          <g id="c-236">
            <path id="t-471" class="cls-6" d="M323.04,633.93h-1.65v.8l1.65-.8Z"/>
            <path id="t-472" class="cls-6" d="M323.04,633.93l-1.26,1.03-.51-.62,1.77-.41Z"/>
          </g>
          <g id="a-95">
            <g id="c-237">
              <path id="t-473" class="cls-6" d="M322.55,635.78l-.59-1.52-.77.31,1.36,1.21Z"/>
              <path id="t-474" class="cls-6" d="M322.55,635.78l-1.36-.87.44-.69.93,1.57Z"/>
            </g>
            <g id="c-238">
              <path id="t-475" class="cls-6" d="M320.64,635.91l1.26-1.05-.54-.62-.72,1.67Z"/>
              <path id="t-476" class="cls-6" d="M320.64,635.91l.39-1.59.8.21-1.18,1.39Z"/>
            </g>
          </g>
          <g id="a-96">
            <g id="c-239">
              <path id="t-477" class="cls-6" d="M321.42,632.9l.59,1.52-.75.28.15-1.8Z"/>
              <path id="t-478" class="cls-6" d="M321.42,632.9l-.41,1.57.8.21-.39-1.77Z"/>
            </g>
            <g id="c-240">
              <path id="t-479" class="cls-6" d="M319.92,634.11h1.65v.82l-1.65-.82Z"/>
              <path id="t-480" class="cls-6" d="M319.92,634.11l1.39.87.44-.67-1.83-.21Z"/>
            </g>
          </g>
        </g>
        <g id="s-49">
          <g id="c-241">
            <path id="t-481" class="cls-6" d="M326.81,637.3h-1.62v.8l1.62-.8Z"/>
            <path id="t-482" class="cls-6" d="M326.81,637.3l-1.26,1.03-.51-.62,1.77-.41Z"/>
          </g>
          <g id="a-97">
            <g id="c-242">
              <path id="t-483" class="cls-6" d="M326.33,639.13l-.59-1.52-.75.31,1.34,1.21Z"/>
              <path id="t-484" class="cls-6" d="M326.33,639.13l-1.36-.87.44-.69.93,1.57Z"/>
            </g>
            <g id="c-243">
              <path id="t-485" class="cls-6" d="M324.42,639.26l1.26-1.05-.51-.62-.75,1.67Z"/>
              <path id="t-486" class="cls-6" d="M324.42,639.26l.41-1.59.77.21-1.18,1.39Z"/>
            </g>
          </g>
          <g id="a-98">
            <g id="c-244">
              <path id="t-487" class="cls-6" d="M325.19,636.25l.59,1.52-.75.28.15-1.8Z"/>
              <path id="t-488" class="cls-6" d="M325.19,636.25l-.41,1.57.8.21-.39-1.77Z"/>
            </g>
            <g id="c-245">
              <path id="t-489" class="cls-6" d="M323.73,637.46h1.62v.82l-1.62-.82Z"/>
              <path id="t-490" class="cls-6" d="M323.73,637.46l1.36.87.44-.67-1.8-.21Z"/>
            </g>
          </g>
        </g>
      </g>
      <g id="l-10">
        <g id="s-50">
          <g id="c-246">
            <path id="t-491" class="cls-6" d="M339.28,627.02l.59,1.52-.75.31.15-1.83Z"/>
            <path id="t-492" class="cls-6" d="M339.28,627.02l-.41,1.59.8.21-.39-1.8Z"/>
          </g>
          <g id="a-99">
            <g id="c-247">
              <path id="t-493" class="cls-6" d="M337.82,628.12h1.62v.8l-1.62-.8Z"/>
              <path id="t-494" class="cls-6" d="M337.82,628.12l1.36.87.44-.69-1.8-.18Z"/>
            </g>
            <g id="c-248">
              <path id="t-495" class="cls-6" d="M338.51,629.9l.41-1.57.77.21-1.18,1.36Z"/>
              <path id="t-496" class="cls-6" d="M338.51,629.9l1.26-1.03-.51-.64-.75,1.67Z"/>
            </g>
          </g>
          <g id="a-100">
            <g id="c-249">
              <path id="t-497" class="cls-6" d="M340.9,627.92h-1.62v.82l1.62-.82Z"/>
              <path id="t-498" class="cls-6" d="M340.9,627.92l-1.26,1.05-.51-.64,1.77-.41Z"/>
            </g>
            <g id="c-250">
              <path id="t-499" class="cls-6" d="M340.42,629.77l-.59-1.52-.77.31,1.36,1.21Z"/>
              <path id="t-500" class="cls-6" d="M340.42,629.77l-1.36-.87.44-.67.93,1.54Z"/>
            </g>
          </g>
        </g>
        <g id="s-51">
          <g id="c-251">
            <path id="t-501" class="cls-6" d="M335.02,621.64l-1.36-.87.44-.69.93,1.57Z"/>
            <path id="t-502" class="cls-6" d="M335.02,621.64l-.59-1.52-.77.31,1.36,1.21Z"/>
          </g>
          <g id="a-101">
            <g id="c-252">
              <path id="t-503" class="cls-6" d="M335.51,619.79l-1.26,1.03-.51-.62,1.77-.41Z"/>
              <path id="t-504" class="cls-6" d="M335.51,619.79h-1.62v.8l1.62-.8Z"/>
            </g>
            <g id="c-253">
              <path id="t-505" class="cls-6" d="M333.89,618.76l.59,1.52-.75.31.15-1.83Z"/>
              <path id="t-506" class="cls-6" d="M333.89,618.76l-.41,1.57.8.21-.39-1.77Z"/>
            </g>
          </g>
          <g id="a-102">
            <g id="c-254">
              <path id="t-507" class="cls-6" d="M333.11,621.87l1.26-1.05-.51-.62-.75,1.67Z"/>
              <path id="t-508" class="cls-6" d="M333.11,621.87l.41-1.59.77.21-1.18,1.39Z"/>
            </g>
            <g id="c-255">
              <path id="t-509" class="cls-6" d="M332.42,619.97l1.36.87.44-.67-1.8-.21Z"/>
              <path id="t-510" class="cls-6" d="M332.42,619.97h1.62v.8l-1.62-.8Z"/>
            </g>
          </g>
        </g>
        <g id="s-52">
          <g id="c-256">
            <path id="t-511" class="cls-6" d="M336.89,625.11l.41-1.59.8.21-1.21,1.39Z"/>
            <path id="t-512" class="cls-6" d="M336.89,625.11l1.26-1.05-.51-.62-.75,1.67Z"/>
          </g>
          <g id="a-103">
            <g id="c-257">
              <path id="t-513" class="cls-6" d="M338.9,624.99l-1.39-.87.44-.69.95,1.57Z"/>
              <path id="t-514" class="cls-6" d="M338.9,624.99l-.62-1.52-.75.31,1.36,1.21Z"/>
            </g>
            <g id="c-258">
              <path id="t-515" class="cls-6" d="M339.28,623.13l-1.26,1.03-.51-.62,1.77-.41Z"/>
              <path id="t-516" class="cls-6" d="M339.28,623.13h-1.62v.8l1.62-.8Z"/>
            </g>
          </g>
          <g id="a-104">
            <g id="c-259">
              <path id="t-517" class="cls-6" d="M336.33,623.31l1.36.87.44-.67-1.8-.21Z"/>
              <path id="t-518" class="cls-6" d="M336.33,623.31h1.62v.8l-1.62-.8Z"/>
            </g>
            <g id="c-260">
              <path id="t-519" class="cls-6" d="M337.67,622.11l-.39,1.57.77.21-.39-1.77Z"/>
              <path id="t-520" class="cls-6" d="M337.67,622.11l.62,1.52-.77.31.15-1.83Z"/>
            </g>
          </g>
        </g>
        <g id="s-53">
          <g id="c-261">
            <path id="t-521" class="cls-6" d="M336.82,633.06h1.62v.82l-1.62-.82Z"/>
            <path id="t-522" class="cls-6" d="M336.82,633.06l1.36.87.44-.67-1.8-.21Z"/>
          </g>
          <g id="a-105">
            <g id="c-262">
              <path id="t-523" class="cls-6" d="M337.51,634.86l.41-1.59.77.21-1.18,1.39Z"/>
              <path id="t-524" class="cls-6" d="M337.51,634.86l1.26-1.05-.51-.62-.75,1.67Z"/>
            </g>
            <g id="c-263">
              <path id="t-525" class="cls-6" d="M339.41,634.73l-1.36-.87.44-.69.93,1.57Z"/>
              <path id="t-526" class="cls-6" d="M339.41,634.73l-.59-1.52-.75.31,1.34,1.21Z"/>
            </g>
          </g>
          <g id="a-106">
            <g id="c-264">
              <path id="t-527" class="cls-6" d="M338.28,631.85l-.41,1.57.8.21-.39-1.77Z"/>
              <path id="t-528" class="cls-6" d="M338.28,631.85l.59,1.52-.75.28.15-1.8Z"/>
            </g>
            <g id="c-265">
              <path id="t-529" class="cls-6" d="M339.9,632.88h-1.62v.8l1.62-.8Z"/>
              <path id="t-530" class="cls-6" d="M339.9,632.88l-1.26,1.03-.51-.62,1.77-.41Z"/>
            </g>
          </g>
        </g>
        <g id="s-54">
          <g id="c-266">
            <path id="t-531" class="cls-6" d="M333.47,636.86h1.62v.8l-1.62-.8Z"/>
            <path id="t-532" class="cls-6" d="M333.47,636.86l1.36.87.44-.69-1.8-.18Z"/>
          </g>
          <g id="a-107">
            <g id="c-267">
              <path id="t-533" class="cls-6" d="M334.17,638.64l.41-1.57.77.18-1.18,1.39Z"/>
              <path id="t-534" class="cls-6" d="M334.17,638.64l1.26-1.03-.51-.64-.75,1.67Z"/>
            </g>
            <g id="c-268">
              <path id="t-535" class="cls-6" d="M336.07,638.51l-1.36-.87.44-.67.93,1.54Z"/>
              <path id="t-536" class="cls-6" d="M336.07,638.51l-.59-1.52-.75.31,1.34,1.21Z"/>
            </g>
          </g>
          <g id="a-108">
            <g id="c-269">
              <path id="t-537" class="cls-6" d="M334.94,635.63l-.41,1.59.8.18-.39-1.77Z"/>
              <path id="t-538" class="cls-6" d="M334.94,635.63l.59,1.52-.75.31.15-1.83Z"/>
            </g>
            <g id="c-270">
              <path id="t-539" class="cls-6" d="M336.56,636.66h-1.62v.82l1.62-.82Z"/>
              <path id="t-540" class="cls-6" d="M336.56,636.66l-1.26,1.05-.51-.64,1.77-.41Z"/>
            </g>
          </g>
        </g>
      </g>
      <g id="s-55">
        <g id="c-271">
          <path id="t-541" class="cls-6" d="M500.34,759.23l-3.24,12.6,6.35,1.75-3.11-14.35Z"/>
          <path id="t-542" class="cls-6" d="M500.34,759.23l4.78,12.08-6.04,2.39,1.26-14.48Z"/>
        </g>
        <g id="a-109">
          <g id="c-272">
            <path id="t-543" class="cls-6" d="M513.25,767.43l-12.98.8.41,6.51,12.57-7.3Z"/>
            <path id="t-544" class="cls-6" d="M513.25,767.43l-10.03,8.28-4.14-5.01,14.17-3.27Z"/>
          </g>
          <g id="c-273">
            <path id="t-545" class="cls-6" d="M509.44,782.21l-4.78-12.08-6.04,2.39,10.82,9.69Z"/>
            <path id="t-546" class="cls-6" d="M509.44,782.21l-10.98-6.97,3.5-5.48,7.48,12.44Z"/>
          </g>
        </g>
        <g id="a-110">
          <g id="c-274">
            <path id="t-547" class="cls-6" d="M488.57,768.97l12.86-.82.41,6.48-13.27-5.66Z"/>
            <path id="t-548" class="cls-6" d="M488.57,768.97l10.98,6.97,3.5-5.5-14.48-1.47Z"/>
          </g>
          <g id="c-275">
            <path id="t-549" class="cls-6" d="M494.2,783.19l3.24-12.6,6.3,1.62-9.54,10.98Z"/>
            <path id="t-550" class="cls-6" d="M494.2,783.19l10.03-8.3-4.17-5.01-5.86,13.32Z"/>
          </g>
        </g>
      </g>
      <g id="l-11">
        <g id="s-56">
          <g id="c-276">
            <path id="t-551" class="cls-6" d="M417.6,686.15l-3.21,12.57,6.27,1.62-3.06-14.19Z"/>
            <path id="t-552" class="cls-6" d="M417.6,686.15l4.78,12.08-6.04,2.39,1.26-14.48Z"/>
          </g>
          <g id="a-111">
            <g id="c-277">
              <path id="t-553" class="cls-6" d="M430.51,694.41l-12.86.82.39,6.48,12.47-7.3Z"/>
              <path id="t-554" class="cls-6" d="M430.51,694.41l-10,8.3-4.17-5.01,14.17-3.29Z"/>
            </g>
            <g id="c-278">
              <path id="t-555" class="cls-6" d="M426.7,709.29l-4.78-12.08-6.04,2.39,10.82,9.69Z"/>
              <path id="t-556" class="cls-6" d="M426.7,709.29l-10.98-6.97,3.5-5.48,7.48,12.44Z"/>
            </g>
          </g>
          <g id="a-112">
            <g id="c-279">
              <path id="t-557" class="cls-6" d="M405.75,695.95l12.98-.8.41,6.48-13.4-5.68Z"/>
              <path id="t-558" class="cls-6" d="M405.75,695.95l10.98,6.99,3.5-5.5-14.48-1.49Z"/>
            </g>
            <g id="c-280">
              <path id="t-559" class="cls-6" d="M411.46,710.17l3.24-12.57,6.3,1.59-9.54,10.98Z"/>
              <path id="t-560" class="cls-6" d="M411.46,710.17l10.03-8.28-4.14-5.01-5.89,13.29Z"/>
            </g>
          </g>
        </g>
        <g id="s-57">
          <g id="c-281">
            <path id="t-561" class="cls-6" d="M434.7,669.65l-4.78-12.11-6.04,2.39,10.82,9.72Z"/>
            <path id="t-562" class="cls-6" d="M434.7,669.65l-10.95-6.99,3.5-5.48,7.46,12.47Z"/>
          </g>
          <g id="a-113">
            <g id="c-282">
              <path id="t-563" class="cls-6" d="M419.45,670.73l10.03-8.3-4.14-4.99-5.89,13.29Z"/>
              <path id="t-564" class="cls-6" d="M419.45,670.73l3.24-12.6,6.3,1.62-9.54,10.98Z"/>
            </g>
            <g id="c-283">
              <path id="t-565" class="cls-6" d="M413.82,656.38l10.98,6.97,3.5-5.5-14.48-1.47Z"/>
              <path id="t-566" class="cls-6" d="M413.82,656.38l12.98-.82.41,6.51-13.4-5.68Z"/>
            </g>
          </g>
          <g id="a-114">
            <g id="c-284">
              <path id="t-567" class="cls-6" d="M438.51,654.84l-10,8.18-4.17-5.01,14.17-3.16Z"/>
              <path id="t-568" class="cls-6" d="M438.51,654.84l-12.86.8.39,6.51,12.47-7.3Z"/>
            </g>
            <g id="c-285">
              <path id="t-569" class="cls-6" d="M425.62,646.63l4.78,12.08-6.07,2.39,1.29-14.48Z"/>
              <path id="t-570" class="cls-6" d="M425.62,646.63l-3.24,12.6,6.27,1.62-3.03-14.22Z"/>
            </g>
          </g>
        </g>
        <g id="s-58">
          <g id="c-286">
            <path id="t-571" class="cls-6" d="M443.39,732.69l-12.86.82.41,6.48,12.44-7.3Z"/>
            <path id="t-572" class="cls-6" d="M443.39,732.69l-10.03,8.3-4.14-5.01,14.17-3.29Z"/>
          </g>
          <g id="a-115">
            <g id="c-287">
              <path id="t-573" class="cls-6" d="M439.59,747.5l-4.78-12.08-6.04,2.39,10.82,9.69Z"/>
              <path id="t-574" class="cls-6" d="M439.59,747.5l-10.98-6.97,3.47-5.48,7.51,12.44Z"/>
            </g>
            <g id="c-288">
              <path id="t-575" class="cls-6" d="M424.31,748.45l10.03-8.28-4.14-5.01-5.89,13.29Z"/>
              <path id="t-576" class="cls-6" d="M424.31,748.45l3.24-12.6,6.3,1.62-9.54,10.98Z"/>
            </g>
          </g>
          <g id="a-116">
            <g id="c-289">
              <path id="t-577" class="cls-6" d="M430.48,724.51l4.78,12.08-6.04,2.39,1.26-14.48Z"/>
              <path id="t-578" class="cls-6" d="M430.48,724.51l-3.24,12.57,6.3,1.62-3.06-14.19Z"/>
            </g>
            <g id="c-290">
              <path id="t-579" class="cls-6" d="M418.61,734.23l12.86-.8.41,6.48-13.27-5.68Z"/>
              <path id="t-580" class="cls-6" d="M418.61,734.23l10.98,6.99,3.47-5.5-14.45-1.49Z"/>
            </g>
          </g>
        </g>
      </g>
      <g id="l-12">
        <g id="s-59">
          <g id="c-291">
            <path id="t-581" class="cls-9" d="M573.36,676.49l4.78,12.08-6.07,2.39,1.29-14.48Z"/>
            <path id="t-582" class="cls-9" d="M573.36,676.49l-3.24,12.6,6.3,1.62-3.06-14.22Z"/>
          </g>
          <g id="a-117">
            <g id="c-292">
              <path id="t-583" class="cls-9" d="M561.56,686.15l12.98-.82.41,6.51-13.4-5.68Z"/>
              <path id="t-584" class="cls-9" d="M561.56,686.15l10.98,6.97,3.5-5.5-14.48-1.47Z"/>
            </g>
            <g id="c-293">
              <path id="t-585" class="cls-9" d="M567.19,700.45l3.24-12.6,6.3,1.62-9.54,10.98Z"/>
              <path id="t-586" class="cls-9" d="M567.19,700.45l10.03-8.3-4.14-4.99-5.89,13.29Z"/>
            </g>
          </g>
          <g id="a-118">
            <g id="c-294">
              <path id="t-587" class="cls-9" d="M586.25,684.69l-12.86.8.39,6.51,12.47-7.3Z"/>
              <path id="t-588" class="cls-9" d="M586.25,684.69l-10,8.28-4.14-5.01,14.14-3.27Z"/>
            </g>
            <g id="c-295">
              <path id="t-589" class="cls-9" d="M582.44,699.5l-4.78-12.11-6.04,2.39,10.82,9.72Z"/>
              <path id="t-590" class="cls-9" d="M582.44,699.5l-10.98-6.99,3.5-5.48,7.48,12.47Z"/>
            </g>
          </g>
        </g>
        <g id="s-60">
          <g id="c-296">
            <path id="t-591" class="cls-6" d="M539.3,634.47l-10.98-6.97,3.5-5.48,7.48,12.44Z"/>
            <path id="t-592" class="cls-6" d="M539.3,634.47l-4.78-12.08-6.04,2.39,10.82,9.69Z"/>
          </g>
          <g id="a-119">
            <g id="c-297">
              <path id="t-593" class="cls-6" d="M543.1,619.69l-10.03,8.28-4.14-5.14,14.17-3.14Z"/>
              <path id="t-594" class="cls-6" d="M543.1,619.69l-12.86.8.41,6.51,12.44-7.3Z"/>
            </g>
            <g id="c-298">
              <path id="t-595" class="cls-6" d="M530.19,611.59l4.78,12.08-6.04,2.39,1.26-14.48Z"/>
              <path id="t-596" class="cls-6" d="M530.19,611.59l-3.24,12.6,6.3,1.62-3.06-14.22Z"/>
            </g>
          </g>
          <g id="a-120">
            <g id="c-299">
              <path id="t-597" class="cls-6" d="M524.02,635.42l10.03-8.28-4.17-5.14-5.86,13.42Z"/>
              <path id="t-598" class="cls-6" d="M524.02,635.42l3.24-12.57,6.3,1.62-9.54,10.95Z"/>
            </g>
            <g id="c-300">
              <path id="t-599" class="cls-6" d="M518.42,621.23l10.98,6.97,3.5-5.5-14.48-1.47Z"/>
              <path id="t-600" class="cls-6" d="M518.42,621.23l12.98-.82.33,6.61-13.32-5.79Z"/>
            </g>
          </g>
        </g>
        <g id="s-61">
          <g id="c-301">
            <path id="t-601" class="cls-6" d="M554.34,662.16l3.24-12.6,6.27,1.62-9.51,10.98Z"/>
            <path id="t-602" class="cls-6" d="M554.34,662.16l10-8.28-4.14-5.01-5.86,13.29Z"/>
          </g>
          <g id="a-121">
            <g id="c-302">
              <path id="t-603" class="cls-6" d="M569.58,661.21l-10.98-6.99,3.5-5.48,7.48,12.47Z"/>
              <path id="t-604" class="cls-6" d="M569.58,661.21l-4.78-12.11-6.04,2.39,10.82,9.72Z"/>
            </g>
            <g id="c-303">
              <path id="t-605" class="cls-6" d="M573.39,646.4l-10.03,8.28-4.14-5.01,14.17-3.27Z"/>
              <path id="t-606" class="cls-6" d="M573.39,646.4l-12.86.8.41,6.51,12.44-7.3Z"/>
            </g>
          </g>
          <g id="a-122">
            <g id="c-304">
              <path id="t-607" class="cls-6" d="M548.71,647.95l10.98,6.97,3.47-5.48-14.45-1.49Z"/>
              <path id="t-608" class="cls-6" d="M548.71,647.95l12.98-.82.39,6.51-13.37-5.68Z"/>
            </g>
            <g id="c-305">
              <path id="t-609" class="cls-6" d="M560.48,638.2l-3.24,12.6,6.3,1.62-3.06-14.22Z"/>
              <path id="t-610" class="cls-6" d="M560.48,638.2l4.78,12.08-6.04,2.39,1.26-14.48Z"/>
            </g>
          </g>
        </g>
        <g id="s-62">
          <g id="c-306">
            <path id="t-611" class="cls-9" d="M553.57,725.8l12.86-.8.41,6.48-13.27-5.68Z"/>
            <path id="t-612" class="cls-9" d="M553.57,725.8l10.98,6.99,3.5-5.5-14.48-1.49Z"/>
          </g>
          <g id="a-123">
            <g id="c-307">
              <path id="t-613" class="cls-9" d="M559.2,740.15l3.24-12.6,6.3,1.62-9.54,10.98Z"/>
              <path id="t-614" class="cls-9" d="M559.2,740.15l10.03-8.28-4.14-5.14-5.89,13.42Z"/>
            </g>
            <g id="c-308">
              <path id="t-615" class="cls-9" d="M574.44,739.07l-10.98-6.97,3.5-5.48,7.48,12.44Z"/>
              <path id="t-616" class="cls-9" d="M574.44,739.07l-4.78-12.08-6.04,2.39,10.82,9.69Z"/>
            </g>
          </g>
          <g id="a-124">
            <g id="c-309">
              <path id="t-617" class="cls-9" d="M565.37,716.08l-3.24,12.57,6.27,1.62-3.03-14.19Z"/>
              <path id="t-618" class="cls-9" d="M565.37,716.08l4.78,12.08-6.07,2.39,1.29-14.48Z"/>
            </g>
            <g id="c-310">
              <path id="t-619" class="cls-9" d="M578.25,724.26l-12.86.82.39,6.48,12.47-7.3Z"/>
              <path id="t-620" class="cls-9" d="M578.25,724.26l-10,8.3-4.17-5.01,14.17-3.29Z"/>
            </g>
          </g>
        </g>
        <g id="s-63">
          <g id="c-311">
            <path id="t-621" class="cls-9" d="M526.85,756.09l12.98-.8.41,6.48-13.4-5.68Z"/>
            <path id="t-622" class="cls-9" d="M526.85,756.09l10.98,6.97,3.5-5.48-14.48-1.49Z"/>
          </g>
          <g id="a-125">
            <g id="c-312">
              <path id="t-623" class="cls-9" d="M532.48,770.31l3.24-12.6,6.3,1.62-9.54,10.98Z"/>
              <path id="t-624" class="cls-9" d="M532.48,770.31l10-8.28-4.14-5.01-5.86,13.29Z"/>
            </g>
            <g id="c-313">
              <path id="t-625" class="cls-9" d="M547.73,769.36l-10.85-6.97,3.5-5.5,7.35,12.47Z"/>
              <path id="t-626" class="cls-9" d="M547.73,769.36l-4.78-12.08-6.04,2.39,10.82,9.69Z"/>
            </g>
          </g>
          <g id="a-126">
            <g id="c-314">
              <path id="t-627" class="cls-9" d="M538.63,746.34l-3.24,12.6,6.3,1.62-3.06-14.22Z"/>
              <path id="t-628" class="cls-9" d="M538.63,746.34l4.78,12.11-6.04,2.39,1.26-14.5Z"/>
            </g>
            <g id="c-315">
              <path id="t-629" class="cls-9" d="M551.53,754.55l-12.86.82.41,6.48,12.44-7.3Z"/>
              <path id="t-630" class="cls-9" d="M551.53,754.55l-10.03,8.28-4.14-4.99,14.17-3.29Z"/>
            </g>
          </g>
        </g>
      </g>
      <path class="cls-17" d="M435.45,660.72l7.38-.46-1.67-26.77-.21-5.86-.15-.13-4.42,3.14-4.45,2.98-1.83-9.28,14.73-10.95,6.58-.41,2.91,46.56,7.3-.46.51,8.25-26.17,1.65-.51-8.25Z"/>
      <path class="cls-17" d="M489.6,666.36c-13.16.82-18.98-6.81-20.24-26.77-1.31-21.06,3.65-28.57,16.87-29.39s19.1,5.99,20.42,27.05c1.26,19.98-4.04,28.33-17.05,29.11ZM486.87,620.36c-5.32.33-7.51,3.03-6.56,18.41,1,15.99,3.47,18,8.82,17.72s7.43-3.03,6.45-18.69-3.52-17.74-8.72-17.43Z"/>
      <path class="cls-2" d="M443.52,767.71v1.95l-6.33.41-.64-10.28,6.12-.39.18,1.98-4.04.23.13,2.11,3.39-.21v1.83l-3.37.21.15,2.44,4.4-.28Z"/>
      <path class="cls-2" d="M452.16,765.63c.13,2.09-1.46,3.88-3.55,4.01s-3.88-1.46-4.01-3.55h0l-.44-6.79,2.19-.13.54,6.69c0,1.18.59,1.65,1.75,1.59s1.57-.59,1.49-1.8l-.41-6.76,2.16-.13.28,6.87Z"/>
      <path class="cls-2" d="M459.13,764.34l2.57,4.22-2.57.15-1.88-3.83h-1.26l.23,3.93-2.13.13-.64-10.28,3.37-.21c2.39-.15,3.63.72,3.75,2.93.3,1.2-.31,2.45-1.44,2.96ZM456.89,760.38h-1.23l.18,2.8h1.21c.95,0,1.31-.36,1.23-1.49s-.44-1.36-1.39-1.31Z"/>
      <path class="cls-2" d="M466.17,768.43c-2.88.18-4.22-1.26-4.47-5.14s.87-5.4,3.81-5.58c2.93-.18,4.22,1.26,4.45,5.14s-.87,5.4-3.78,5.58ZM465.63,759.82c-1.39,0-1.83.69-1.67,3.42s.69,3.29,2.11,3.21,1.8-.72,1.62-3.45-.67-3.27-2.06-3.19Z"/>
      <path class="cls-23" d="M444.55,784.17v1.95l-6.33.39-.64-10.28,6.12-.39.18,1.95-4.04.26.13,2.11,3.39-.21v1.8l-3.37.23.15,2.57,4.4-.39Z"/>
      <path class="cls-23" d="M446.89,775.66l1.75,3.86.46,1h0l.31-1.05,1.23-4.04,2.34-.15-2.7,7.25.21,3.24-2.21.13-.18-3.24-3.65-6.84,2.44-.15Z"/>
      <path class="cls-23" d="M459.74,780.82l2.57,4.19-2.57.15-1.88-3.81h-1.26l.23,3.91-2.13.15-.64-10.28,3.37-.21c2.39-.15,3.63.72,3.75,2.93.3,1.2-.31,2.45-1.44,2.96ZM457.51,776.86h-1.23l.18,2.8h1.21c.95,0,1.31-.36,1.23-1.49s-.41-1.36-1.36-1.31h-.03Z"/>
      <path class="cls-23" d="M466.81,784.91c-2.85.18-4.22-1.26-4.45-5.14s.87-5.37,3.78-5.55,4.22,1.23,4.45,5.14-.85,5.37-3.78,5.55ZM466.27,776.3c-1.39,0-1.83.69-1.65,3.42s.67,3.29,2.08,3.21,1.8-.75,1.65-3.45-.69-3.34-2.08-3.19Z"/>
    </g>
  </g>
</svg>