<?xml version="1.0" encoding="UTF-8"?>
<svg id="Laag_2" data-name="Laag 2" xmlns="http://www.w3.org/2000/svg" viewBox="0 0 936.32 936.32">
  <defs>
    <style>
      .cls-1 {
        fill: #7d5fff;
      }

      .cls-2 {
        fill: #fff;
      }

      .cls-3 {
        fill: #51ff00;
      }
    </style>
  </defs>
  <g id="Laag_1-2" data-name="Laag 1">
    <rect class="cls-1" x="0" width="936.32" height="936.32" rx="87.96" ry="87.96"/>
    <g id="Shopicon">
      <circle class="cls-3" cx="341.09" cy="708.35" r="39.1"/>
      <path class="cls-3" d="M477.94,727.9v19.55h39.1v-19.55c0-107.8-87.7-195.5-195.5-195.5h-19.55v39.1h19.55c86.23,0,156.4,70.16,156.4,156.4Z"/>
      <path class="cls-3" d="M321.54,415.11h-19.55v39.1h19.55c150.91,0,273.69,122.78,273.69,273.69v19.55h39.1v-19.55c0-172.48-140.32-312.79-312.79-312.79Z"/>
    </g>
    <g>
      <path class="cls-2" d="M143.6,143.34v-67.88h30.84c7.37,0,13.87,1.41,19.49,4.22,5.62,2.81,10.02,6.74,13.19,11.78,3.17,5.04,4.75,11.02,4.75,17.94s-1.58,12.82-4.75,17.89c-3.17,5.08-7.56,9.02-13.19,11.83-5.62,2.81-12.12,4.22-19.49,4.22h-30.84ZM159.31,130.44h14.35c4.52,0,8.45-.86,11.78-2.57,3.33-1.71,5.92-4.15,7.76-7.32,1.84-3.17,2.76-6.88,2.76-11.15s-.92-8.06-2.76-11.2c-1.84-3.13-4.43-5.56-7.76-7.27-3.33-1.71-7.26-2.57-11.78-2.57h-14.35v42.08Z"/>
      <path class="cls-2" d="M223.7,143.34v-67.88h28.99c9.44,0,16.78,2.18,22.01,6.55,5.24,4.36,7.85,10.39,7.85,18.08,0,5.04-1.2,9.39-3.59,13.04-2.39,3.65-5.79,6.45-10.18,8.39-4.4,1.94-9.63,2.91-15.71,2.91h-20.65l6.98-6.88v25.79h-15.71ZM239.41,119.29l-6.98-7.37h19.78c4.85,0,8.47-1.05,10.86-3.15,2.39-2.1,3.59-4.99,3.59-8.68s-1.2-6.66-3.59-8.73c-2.39-2.07-6.01-3.1-10.86-3.1h-19.78l6.98-7.47v38.5ZM266.85,143.34l-16.97-24.63h16.78l17.16,24.63h-16.97Z"/>
      <path class="cls-2" d="M286.05,143.34l30.26-67.88h15.52l30.35,67.88h-16.49l-24.82-59.93h6.21l-24.92,59.93h-16.1ZM301.18,128.8l4.17-11.93h34.91l4.27,11.93h-43.35Z"/>
      <path class="cls-2" d="M362.56,143.34l30.26-67.88h15.52l30.35,67.88h-16.49l-24.82-59.93h6.21l-24.92,59.93h-16.1ZM377.69,128.8l4.17-11.93h34.91l4.27,11.93h-43.35Z"/>
      <path class="cls-2" d="M445.76,143.34v-67.88h30.84c7.37,0,13.87,1.41,19.49,4.22,5.62,2.81,10.02,6.74,13.19,11.78,3.17,5.04,4.75,11.02,4.75,17.94s-1.58,12.82-4.75,17.89c-3.17,5.08-7.56,9.02-13.19,11.83-5.62,2.81-12.12,4.22-19.49,4.22h-30.84ZM461.47,130.44h14.35c4.52,0,8.45-.86,11.78-2.57,3.33-1.71,5.92-4.15,7.76-7.32,1.84-3.17,2.76-6.88,2.76-11.15s-.92-8.06-2.76-11.2c-1.84-3.13-4.43-5.56-7.76-7.27-3.33-1.71-7.26-2.57-11.78-2.57h-14.35v42.08Z"/>
      <path class="cls-2" d="M525.86,143.34v-67.88h15.71v55.08h34.04v12.8h-49.75Z"/>
      <path class="cls-2" d="M616.23,144.51c-5.37,0-10.33-.87-14.89-2.62-4.56-1.75-8.5-4.2-11.83-7.37-3.33-3.17-5.92-6.88-7.76-11.15-1.84-4.27-2.76-8.92-2.76-13.96s.92-9.7,2.76-13.96c1.84-4.27,4.44-7.98,7.81-11.15,3.36-3.17,7.3-5.62,11.83-7.37,4.52-1.75,9.44-2.62,14.74-2.62s10.29.87,14.79,2.62c4.49,1.75,8.4,4.2,11.73,7.37,3.33,3.17,5.93,6.87,7.81,11.1,1.87,4.23,2.81,8.91,2.81,14.01s-.94,9.71-2.81,14.01c-1.88,4.3-4.48,8.02-7.81,11.15-3.33,3.14-7.24,5.58-11.73,7.32-4.49,1.75-9.39,2.62-14.69,2.62ZM616.14,131.12c3.04,0,5.83-.52,8.39-1.55,2.55-1.03,4.8-2.52,6.74-4.46s3.44-4.23,4.51-6.88c1.07-2.65,1.6-5.59,1.6-8.83s-.53-6.17-1.6-8.82c-1.07-2.65-2.55-4.95-4.46-6.88-1.91-1.94-4.15-3.43-6.74-4.46-2.59-1.03-5.4-1.55-8.44-1.55s-5.83.52-8.39,1.55c-2.55,1.04-4.8,2.52-6.74,4.46s-3.44,4.24-4.51,6.88c-1.07,2.65-1.6,5.59-1.6,8.82s.53,6.09,1.6,8.78c1.07,2.68,2.55,4.99,4.46,6.93,1.91,1.94,4.15,3.43,6.74,4.46,2.58,1.03,5.4,1.55,8.44,1.55Z"/>
      <path class="cls-2" d="M698.08,144.51c-5.37,0-10.33-.87-14.89-2.62-4.56-1.75-8.5-4.2-11.83-7.37-3.33-3.17-5.92-6.88-7.76-11.15-1.84-4.27-2.76-8.92-2.76-13.96s.92-9.7,2.76-13.96c1.84-4.27,4.44-7.98,7.81-11.15,3.36-3.17,7.3-5.62,11.83-7.37,4.52-1.75,9.44-2.62,14.74-2.62s10.29.87,14.79,2.62c4.49,1.75,8.4,4.2,11.73,7.37,3.33,3.17,5.93,6.87,7.81,11.1,1.87,4.23,2.81,8.91,2.81,14.01s-.94,9.71-2.81,14.01c-1.88,4.3-4.48,8.02-7.81,11.15-3.33,3.14-7.24,5.58-11.73,7.32-4.49,1.75-9.39,2.62-14.69,2.62ZM697.98,131.12c3.04,0,5.83-.52,8.39-1.55,2.55-1.03,4.8-2.52,6.74-4.46s3.44-4.23,4.51-6.88c1.07-2.65,1.6-5.59,1.6-8.83s-.53-6.17-1.6-8.82c-1.07-2.65-2.55-4.95-4.46-6.88-1.91-1.94-4.15-3.43-6.74-4.46-2.59-1.03-5.4-1.55-8.44-1.55s-5.83.52-8.39,1.55c-2.55,1.04-4.8,2.52-6.74,4.46s-3.44,4.24-4.51,6.88c-1.07,2.65-1.6,5.59-1.6,8.82s.53,6.09,1.6,8.78c1.07,2.68,2.55,4.99,4.46,6.93,1.91,1.94,4.15,3.43,6.74,4.46,2.58,1.03,5.4,1.55,8.44,1.55Z"/>
      <path class="cls-2" d="M769.25,144.51c-5.43,0-10.64-.73-15.61-2.18-4.98-1.45-8.99-3.34-12.02-5.67l5.33-11.83c2.91,2.07,6.35,3.77,10.33,5.09,3.98,1.33,8,1.99,12.07,1.99,3.1,0,5.61-.31,7.52-.92,1.91-.61,3.31-1.47,4.22-2.57.9-1.1,1.36-2.36,1.36-3.78,0-1.81-.71-3.25-2.13-4.31-1.42-1.07-3.3-1.94-5.62-2.62-2.33-.68-4.9-1.33-7.71-1.94s-5.62-1.37-8.44-2.28c-2.81-.9-5.38-2.07-7.71-3.49-2.33-1.42-4.22-3.3-5.67-5.62-1.45-2.33-2.18-5.3-2.18-8.92,0-3.88,1.05-7.42,3.15-10.62,2.1-3.2,5.27-5.75,9.5-7.66,4.23-1.91,9.55-2.86,15.95-2.86,4.27,0,8.47.5,12.61,1.5,4.14,1,7.79,2.51,10.96,4.51l-4.85,11.93c-3.17-1.81-6.34-3.15-9.5-4.02-3.17-.87-6.27-1.31-9.31-1.31s-5.53.36-7.47,1.07c-1.94.71-3.33,1.63-4.17,2.76-.84,1.13-1.26,2.44-1.26,3.93,0,1.75.71,3.15,2.13,4.22,1.42,1.07,3.3,1.92,5.62,2.57,2.33.65,4.9,1.29,7.71,1.94,2.81.65,5.62,1.39,8.44,2.23,2.81.84,5.38,1.97,7.71,3.39,2.33,1.42,4.22,3.3,5.67,5.62,1.45,2.33,2.18,5.27,2.18,8.82,0,3.82-1.07,7.31-3.2,10.47-2.13,3.17-5.32,5.72-9.55,7.66-4.23,1.94-9.58,2.91-16.05,2.91Z"/>
      <path class="cls-2" d="M189.03,259.71l-29.29-67.88h16.97l25.6,60.12h-9.99l25.99-60.12h15.61l-29.38,67.88h-15.52Z"/>
      <path class="cls-2" d="M239.55,259.71v-67.88h51.3v12.61h-35.69v42.67h36.95v12.61h-52.56ZM254,231.39v-12.22h32.68v12.22h-32.68Z"/>
      <path class="cls-2" d="M304.62,259.71v-67.88h28.99c9.44,0,16.78,2.18,22.01,6.55,5.24,4.36,7.85,10.39,7.85,18.08,0,5.04-1.2,9.39-3.59,13.04-2.39,3.65-5.79,6.45-10.18,8.39-4.4,1.94-9.63,2.91-15.71,2.91h-20.65l6.98-6.88v25.79h-15.71ZM320.33,235.66l-6.98-7.37h19.78c4.85,0,8.47-1.05,10.86-3.15,2.39-2.1,3.59-4.99,3.59-8.68s-1.2-6.66-3.59-8.73c-2.39-2.07-6.01-3.1-10.86-3.1h-19.78l6.98-7.47v38.5ZM347.77,259.71l-16.97-24.63h16.78l17.16,24.63h-16.97Z"/>
      <path class="cls-2" d="M375.89,259.71v-67.88h33.16c8.53,0,14.95,1.62,19.25,4.85,4.3,3.23,6.45,7.5,6.45,12.8,0,3.56-.87,6.64-2.62,9.26s-4.14,4.64-7.18,6.06c-3.04,1.42-6.53,2.13-10.47,2.13l1.84-3.98c4.27,0,8.05.7,11.35,2.08,3.3,1.39,5.87,3.44,7.71,6.16,1.84,2.72,2.76,6.05,2.76,9.99,0,5.82-2.3,10.36-6.88,13.62-4.59,3.27-11.35,4.9-20.27,4.9h-35.1ZM391.51,247.88h18.33c4.07,0,7.16-.66,9.26-1.99,2.1-1.32,3.15-3.44,3.15-6.35s-1.05-4.96-3.15-6.35c-2.1-1.39-5.19-2.08-9.26-2.08h-19.49v-11.44h16.78c3.81,0,6.74-.66,8.78-1.99,2.04-1.32,3.05-3.35,3.05-6.06s-1.02-4.64-3.05-5.96c-2.04-1.32-4.96-1.99-8.78-1.99h-15.61v44.22Z"/>
      <path class="cls-2" d="M450.08,259.71v-67.88h15.71v67.88h-15.71Z"/>
      <path class="cls-2" d="M481.88,259.71v-67.88h12.99l40.05,48.87h-6.3v-48.87h15.52v67.88h-12.9l-40.15-48.87h6.3v48.87h-15.52Z"/>
      <path class="cls-2" d="M560.23,259.71v-67.88h30.84c7.37,0,13.87,1.41,19.49,4.22,5.62,2.81,10.02,6.74,13.19,11.78,3.17,5.04,4.75,11.02,4.75,17.94s-1.58,12.82-4.75,17.89c-3.17,5.08-7.56,9.02-13.19,11.83-5.62,2.81-12.12,4.22-19.49,4.22h-30.84ZM575.94,246.81h14.35c4.52,0,8.45-.86,11.78-2.57,3.33-1.71,5.92-4.15,7.76-7.32,1.84-3.17,2.76-6.88,2.76-11.15s-.92-8.06-2.76-11.2c-1.84-3.13-4.43-5.56-7.76-7.27-3.33-1.71-7.26-2.57-11.78-2.57h-14.35v42.08Z"/>
      <path class="cls-2" d="M640.33,259.71v-67.88h51.3v12.61h-35.69v42.67h36.95v12.61h-52.56ZM654.78,231.39v-12.22h32.68v12.22h-32.68Z"/>
      <path class="cls-2" d="M705.4,259.71v-67.88h12.99l40.05,48.87h-6.3v-48.87h15.52v67.88h-12.9l-40.15-48.87h6.3v48.87h-15.52Z"/>
    </g>
  </g>
</svg>