<?xml version="1.0" encoding="UTF-8"?>
<svg id="Laag_2" data-name="Laag 2" xmlns="http://www.w3.org/2000/svg" viewBox="0 0 936.32 936.32">
  <defs>
    <style>
      .cls-1 {
        fill: #7d5fff;
      }

      .cls-2 {
        fill: #51ff00;
        fill-rule: evenodd;
      }

      .cls-3 {
        fill: #fff;
      }
    </style>
  </defs>
  <g id="Laag_1-2" data-name="Laag 1">
    <rect class="cls-1" x="0" width="936.32" height="936.32" rx="87.96" ry="87.96"/>
    <g>
      <path class="cls-3" d="M244.11,137.44c-5.37,0-10.3-.86-14.79-2.57-4.49-1.71-8.4-4.15-11.73-7.32-3.33-3.17-5.92-6.88-7.76-11.15s-2.76-8.95-2.76-14.06.92-9.79,2.76-14.06,4.44-7.98,7.81-11.15c3.36-3.17,7.3-5.61,11.83-7.32,4.52-1.71,9.5-2.57,14.93-2.57,6.01,0,11.43,1,16.24,3.01,4.82,2,8.87,4.91,12.17,8.73l-10.09,9.31c-2.46-2.58-5.14-4.51-8.05-5.77-2.91-1.26-6.08-1.89-9.5-1.89s-6.3.52-9.02,1.55c-2.72,1.04-5.06,2.52-7.03,4.46-1.97,1.94-3.49,4.24-4.56,6.88-1.07,2.65-1.6,5.59-1.6,8.82s.53,6.08,1.6,8.73c1.07,2.65,2.58,4.96,4.56,6.93,1.97,1.97,4.3,3.48,6.98,4.51,2.68,1.03,5.64,1.55,8.87,1.55s6.12-.5,9.07-1.5c2.94-1,5.8-2.7,8.58-5.09l8.92,11.35c-3.68,2.78-7.97,4.91-12.85,6.4-4.88,1.49-9.75,2.23-14.59,2.23ZM271.55,128.81l-14.35-2.04v-25.5h14.35v27.54Z"/>
      <path class="cls-3" d="M277.18,136.28l30.26-67.88h15.52l30.35,67.88h-16.49l-24.82-59.93h6.21l-24.92,59.93h-16.1ZM292.31,121.73l4.17-11.93h34.91l4.27,11.93h-43.35Z"/>
      <path class="cls-3" d="M360.38,136.28v-67.88h28.99c9.44,0,16.78,2.18,22.01,6.55,5.24,4.36,7.85,10.39,7.85,18.08,0,5.04-1.2,9.39-3.59,13.04-2.39,3.65-5.79,6.45-10.18,8.39-4.4,1.94-9.63,2.91-15.71,2.91h-20.65l6.98-6.88v25.79h-15.71ZM376.09,112.23l-6.98-7.37h19.78c4.85,0,8.47-1.05,10.86-3.15,2.39-2.1,3.59-4.99,3.59-8.68s-1.2-6.66-3.59-8.73c-2.39-2.07-6.01-3.1-10.86-3.1h-19.78l6.98-7.47v38.5ZM403.53,136.28l-16.97-24.63h16.78l17.16,24.63h-16.97Z"/>
      <path class="cls-3" d="M422.73,136.28l30.26-67.88h15.52l30.35,67.88h-16.49l-24.82-59.93h6.21l-24.92,59.93h-16.1ZM437.86,121.73l4.17-11.93h34.91l4.27,11.93h-43.35Z"/>
      <path class="cls-3" d="M505.93,136.28v-67.88h12.99l40.05,48.87h-6.3v-48.87h15.52v67.88h-12.9l-40.15-48.87h6.3v48.87h-15.52Z"/>
      <path class="cls-3" d="M598.34,136.28v-55.08h-21.72v-12.8h59.15v12.8h-21.72v55.08h-15.71Z"/>
      <path class="cls-3" d="M644.21,136.28v-67.88h15.71v67.88h-15.71Z"/>
      <path class="cls-3" d="M676.02,136.28v-67.88h51.3v12.61h-35.69v42.67h36.95v12.61h-52.56ZM690.47,107.96v-12.22h32.68v12.22h-32.68Z"/>
      <path class="cls-3" d="M139.24,252.64v-67.88h15.71v67.88h-15.71Z"/>
      <path class="cls-3" d="M171.04,252.64v-67.88h12.99l40.05,48.87h-6.3v-48.87h15.52v67.88h-12.9l-40.15-48.87h6.3v48.87h-15.52Z"/>
      <path class="cls-3" d="M249.4,252.64v-67.88h33.16c8.53,0,14.95,1.62,19.25,4.85,4.3,3.23,6.45,7.5,6.45,12.8,0,3.56-.87,6.64-2.62,9.26-1.75,2.62-4.14,4.64-7.18,6.06-3.04,1.42-6.53,2.13-10.47,2.13l1.84-3.98c4.27,0,8.05.7,11.35,2.08,3.3,1.39,5.87,3.44,7.71,6.16,1.84,2.72,2.76,6.05,2.76,9.99,0,5.82-2.3,10.36-6.89,13.62-4.59,3.27-11.35,4.9-20.27,4.9h-35.1ZM265.01,240.81h18.33c4.07,0,7.16-.66,9.26-1.99,2.1-1.32,3.15-3.44,3.15-6.35s-1.05-4.96-3.15-6.35c-2.1-1.39-5.19-2.08-9.26-2.08h-19.49v-11.44h16.78c3.81,0,6.74-.66,8.78-1.99,2.04-1.32,3.05-3.35,3.05-6.06s-1.02-4.64-3.05-5.96c-2.04-1.32-4.96-1.99-8.78-1.99h-15.61v44.22Z"/>
      <path class="cls-3" d="M323.58,252.64v-67.88h51.3v12.61h-35.69v42.67h36.95v12.61h-52.56ZM338.03,224.33v-12.22h32.68v12.22h-32.68Z"/>
      <path class="cls-3" d="M421.42,253.81c-5.37,0-10.3-.86-14.79-2.57-4.49-1.71-8.4-4.15-11.73-7.32-3.33-3.17-5.92-6.88-7.76-11.15-1.84-4.27-2.76-8.95-2.76-14.06s.92-9.79,2.76-14.06c1.84-4.27,4.44-7.98,7.81-11.15,3.36-3.17,7.3-5.61,11.83-7.32,4.52-1.71,9.5-2.57,14.93-2.57,6.01,0,11.43,1,16.24,3.01,4.82,2,8.87,4.91,12.17,8.73l-10.08,9.31c-2.46-2.58-5.14-4.51-8.05-5.77s-6.08-1.89-9.5-1.89-6.3.52-9.02,1.55c-2.72,1.04-5.06,2.52-7.03,4.46-1.97,1.94-3.49,4.24-4.56,6.88-1.07,2.65-1.6,5.59-1.6,8.82s.53,6.08,1.6,8.73c1.07,2.65,2.58,4.96,4.56,6.93,1.97,1.97,4.3,3.48,6.98,4.51,2.68,1.03,5.64,1.55,8.87,1.55s6.12-.5,9.07-1.5c2.94-1,5.8-2.7,8.58-5.09l8.92,11.35c-3.69,2.78-7.97,4.91-12.85,6.4-4.88,1.49-9.75,2.23-14.59,2.23ZM448.86,245.18l-14.35-2.04v-25.5h14.35v27.54Z"/>
      <path class="cls-3" d="M463.41,252.64v-67.88h28.99c9.44,0,16.78,2.18,22.01,6.55,5.24,4.36,7.85,10.39,7.85,18.08,0,5.04-1.2,9.39-3.59,13.04-2.39,3.65-5.79,6.45-10.18,8.39-4.4,1.94-9.63,2.91-15.71,2.91h-20.65l6.98-6.88v25.79h-15.71ZM479.12,228.6l-6.98-7.37h19.78c4.85,0,8.47-1.05,10.86-3.15,2.39-2.1,3.59-4.99,3.59-8.68s-1.2-6.66-3.59-8.73c-2.39-2.07-6.01-3.1-10.86-3.1h-19.78l6.98-7.47v38.5ZM506.56,252.64l-16.97-24.63h16.78l17.16,24.63h-16.97Z"/>
      <path class="cls-3" d="M534.68,252.64v-67.88h51.3v12.61h-35.69v42.67h36.95v12.61h-52.56ZM549.13,224.33v-12.22h32.68v12.22h-32.68Z"/>
      <path class="cls-3" d="M599.75,252.64v-67.88h29.38c6.08,0,11.31.99,15.71,2.96,4.4,1.97,7.79,4.8,10.18,8.48,2.39,3.69,3.59,8.08,3.59,13.19s-1.2,9.41-3.59,13.09c-2.39,3.68-5.79,6.51-10.18,8.49-4.4,1.97-9.63,2.96-15.71,2.96h-20.66l6.98-7.08v25.79h-15.71ZM615.46,228.6l-6.98-7.47h19.78c4.85,0,8.47-1.03,10.86-3.1,2.39-2.07,3.59-4.95,3.59-8.63s-1.2-6.66-3.59-8.73c-2.39-2.07-6.01-3.1-10.86-3.1h-19.78l6.98-7.47v38.5Z"/>
      <path class="cls-3" d="M669.76,252.64v-67.88h51.3v12.61h-35.69v42.67h36.95v12.61h-52.56ZM684.21,224.33v-12.22h32.68v12.22h-32.68Z"/>
      <path class="cls-3" d="M734.83,252.64v-67.88h12.99l40.05,48.87h-6.3v-48.87h15.52v67.88h-12.9l-40.15-48.87h6.3v48.87h-15.52Z"/>
    </g>
    <path class="cls-2" d="M423.68,437.54c21.8-30.52,67.17-30.52,88.97,0l3.47,4.86c3.84,5.37,10.28,8.25,16.84,7.52l15.47-1.72c34.82-3.87,64.24,25.55,60.37,60.37l-1.72,15.47c-.73,6.56,2.15,13,7.52,16.84l4.86,3.47c30.52,21.8,30.52,67.17,0,88.97l-4.86,3.47c-5.37,3.84-8.25,10.28-7.52,16.84l1.72,15.47c3.87,34.82-25.55,64.24-60.37,60.37l-15.47-1.72c-6.56-.73-13,2.15-16.84,7.52l-3.47,4.86c-21.8,30.52-67.17,30.52-88.97,0l-3.47-4.86c-3.84-5.37-10.28-8.25-16.84-7.52l-15.47,1.72c-34.82,3.87-64.24-25.55-60.37-60.37l1.72-15.47c.73-6.56-2.15-13-7.52-16.84l-4.86-3.47c-30.52-21.8-30.52-67.17,0-88.97l4.86-3.47c5.37-3.84,8.25-10.28,7.52-16.84l-1.72-15.47c-3.87-34.82,25.55-64.24,60.37-60.37l15.47,1.72c6.56.73,13-2.15,16.84-7.52l3.47-4.86ZM535.71,539.51c7.12,7.12,7.12,18.65,0,25.77l-69.59,69.59c-8.94,8.94-23.43,8.94-32.37,0l-33.14-33.14c-7.12-7.12-7.12-18.65,0-25.77,7.12-7.12,18.65-7.12,25.77,0l23.56,23.56,60-60c7.12-7.12,18.65-7.12,25.77,0Z"/>
  </g>
</svg>