<?xml version="1.0" encoding="UTF-8"?>
<svg id="Laag_2" data-name="Laag 2" xmlns="http://www.w3.org/2000/svg" viewBox="0 0 936.32 936.32">
  <defs>
    <style>
      .cls-1 {
        fill: #7d5fff;
      }

      .cls-2 {
        stroke: #21468b;
        stroke-miterlimit: 100;
        stroke-width: 1.5px;
      }

      .cls-2, .cls-3 {
        fill: #fff;
      }

      .cls-4 {
        fill: #ae1c28;
      }

      .cls-5 {
        fill: #21468b;
      }
    </style>
  </defs>
  <g id="Laag_1-2" data-name="Laag 1">
    <rect class="cls-1" x="0" width="936.32" height="936.32" rx="87.96" ry="87.96"/>
    <g>
      <path class="cls-3" d="M214.97,136.28v-67.88h12.99l28.9,47.9h-6.88l28.41-47.9h12.9l.19,67.88h-14.74l-.1-45.29h2.72l-22.69,38.11h-7.08l-23.18-38.11h3.3v45.29h-14.74Z"/>
      <path class="cls-3" d="M340.55,137.44c-5.37,0-10.33-.87-14.89-2.62-4.56-1.75-8.5-4.2-11.83-7.37-3.33-3.17-5.92-6.88-7.76-11.15-1.84-4.27-2.76-8.92-2.76-13.96s.92-9.7,2.76-13.96c1.84-4.27,4.44-7.98,7.81-11.15,3.36-3.17,7.3-5.62,11.83-7.37,4.52-1.75,9.44-2.62,14.74-2.62s10.29.87,14.79,2.62c4.49,1.75,8.4,4.2,11.73,7.37,3.33,3.17,5.93,6.87,7.81,11.1,1.87,4.23,2.81,8.91,2.81,14.01s-.94,9.71-2.81,14.01c-1.88,4.3-4.48,8.02-7.81,11.15-3.33,3.14-7.24,5.58-11.73,7.32-4.49,1.75-9.39,2.62-14.69,2.62ZM340.45,124.06c3.04,0,5.83-.52,8.39-1.55,2.55-1.03,4.8-2.52,6.74-4.46s3.44-4.23,4.51-6.88c1.07-2.65,1.6-5.59,1.6-8.83s-.53-6.17-1.6-8.82c-1.07-2.65-2.55-4.95-4.46-6.88-1.91-1.94-4.15-3.43-6.74-4.46-2.59-1.03-5.4-1.55-8.44-1.55s-5.83.52-8.39,1.55c-2.55,1.04-4.8,2.52-6.74,4.46-1.94,1.94-3.44,4.24-4.51,6.88-1.07,2.65-1.6,5.59-1.6,8.82s.53,6.09,1.6,8.78c1.07,2.68,2.55,4.99,4.46,6.93,1.91,1.94,4.15,3.43,6.74,4.46,2.58,1.03,5.4,1.55,8.44,1.55Z"/>
      <path class="cls-3" d="M389.42,136.28v-67.88h12.99l40.05,48.87h-6.3v-48.87h15.52v67.88h-12.9l-40.15-48.87h6.3v48.87h-15.52Z"/>
      <path class="cls-3" d="M481.83,136.28v-55.08h-21.72v-12.8h59.15v12.8h-21.72v55.08h-15.71Z"/>
      <path class="cls-3" d="M515.39,136.28l30.26-67.88h15.52l30.35,67.88h-16.49l-24.82-59.93h6.21l-24.92,59.93h-16.1ZM530.51,121.73l4.17-11.93h34.91l4.27,11.93h-43.35Z"/>
      <path class="cls-3" d="M630.39,137.44c-5.37,0-10.3-.86-14.79-2.57-4.49-1.71-8.4-4.15-11.73-7.32-3.33-3.17-5.92-6.88-7.76-11.15-1.84-4.27-2.76-8.95-2.76-14.06s.92-9.79,2.76-14.06c1.84-4.27,4.44-7.98,7.81-11.15,3.36-3.17,7.3-5.61,11.83-7.32,4.52-1.71,9.5-2.57,14.93-2.57,6.01,0,11.43,1,16.24,3.01,4.82,2,8.87,4.91,12.17,8.73l-10.09,9.31c-2.46-2.58-5.14-4.51-8.05-5.77-2.91-1.26-6.08-1.89-9.5-1.89s-6.3.52-9.02,1.55c-2.72,1.04-5.06,2.52-7.03,4.46-1.97,1.94-3.49,4.24-4.56,6.88-1.07,2.65-1.6,5.59-1.6,8.82s.53,6.08,1.6,8.73c1.07,2.65,2.58,4.96,4.56,6.93,1.97,1.97,4.3,3.48,6.98,4.51,2.68,1.03,5.64,1.55,8.87,1.55s6.12-.5,9.07-1.5c2.94-1,5.8-2.7,8.58-5.09l8.92,11.35c-3.68,2.78-7.97,4.91-12.85,6.4-4.88,1.49-9.75,2.23-14.59,2.23ZM657.84,128.81l-14.35-2.04v-25.5h14.35v27.54Z"/>
      <path class="cls-3" d="M672.38,136.28v-67.88h51.3v12.61h-35.69v42.67h36.95v12.61h-52.56ZM686.83,107.96v-12.22h32.68v12.22h-32.68Z"/>
      <path class="cls-3" d="M66.9,252.64v-67.88h12.99l28.9,47.9h-6.88l28.41-47.9h12.9l.19,67.88h-14.74l-.1-45.29h2.72l-22.69,38.11h-7.08l-23.18-38.11h3.3v45.29h-14.74Z"/>
      <path class="cls-3" d="M192.48,253.81c-5.37,0-10.33-.87-14.89-2.62-4.56-1.75-8.5-4.2-11.83-7.37-3.33-3.17-5.92-6.88-7.76-11.15-1.84-4.27-2.76-8.92-2.76-13.96s.92-9.7,2.76-13.96c1.84-4.27,4.44-7.98,7.81-11.15,3.36-3.17,7.3-5.62,11.83-7.37,4.52-1.75,9.44-2.62,14.74-2.62s10.29.87,14.79,2.62c4.49,1.75,8.4,4.2,11.73,7.37,3.33,3.17,5.93,6.87,7.81,11.1,1.87,4.23,2.81,8.91,2.81,14.01s-.94,9.71-2.81,14.01c-1.88,4.3-4.48,8.02-7.81,11.15-3.33,3.14-7.24,5.58-11.73,7.32-4.49,1.75-9.39,2.62-14.69,2.62ZM192.38,240.43c3.04,0,5.83-.52,8.39-1.55,2.55-1.03,4.8-2.52,6.74-4.46s3.44-4.23,4.51-6.88c1.07-2.65,1.6-5.59,1.6-8.83s-.53-6.17-1.6-8.82c-1.07-2.65-2.55-4.95-4.46-6.88-1.91-1.94-4.15-3.43-6.74-4.46-2.59-1.03-5.4-1.55-8.44-1.55s-5.83.52-8.39,1.55c-2.55,1.04-4.8,2.52-6.74,4.46-1.94,1.94-3.44,4.24-4.51,6.88-1.07,2.65-1.6,5.59-1.6,8.82s.53,6.09,1.6,8.78c1.07,2.68,2.55,4.99,4.46,6.93,1.91,1.94,4.15,3.43,6.74,4.46,2.58,1.03,5.4,1.55,8.44,1.55Z"/>
      <path class="cls-3" d="M274.13,253.81c-5.37,0-10.3-.86-14.79-2.57-4.49-1.71-8.4-4.15-11.73-7.32-3.33-3.17-5.92-6.88-7.76-11.15-1.84-4.27-2.76-8.95-2.76-14.06s.92-9.79,2.76-14.06c1.84-4.27,4.44-7.98,7.81-11.15,3.36-3.17,7.3-5.61,11.83-7.32,4.52-1.71,9.5-2.57,14.93-2.57,6.01,0,11.43,1,16.24,3.01,4.82,2,8.87,4.91,12.17,8.73l-10.09,9.31c-2.46-2.58-5.14-4.51-8.05-5.77-2.91-1.26-6.08-1.89-9.5-1.89s-6.3.52-9.02,1.55c-2.72,1.04-5.06,2.52-7.03,4.46-1.97,1.94-3.49,4.24-4.56,6.88-1.07,2.65-1.6,5.59-1.6,8.82s.53,6.08,1.6,8.73c1.07,2.65,2.58,4.96,4.56,6.93,1.97,1.97,4.3,3.48,6.98,4.51,2.68,1.03,5.64,1.55,8.87,1.55s6.12-.5,9.07-1.5c2.94-1,5.8-2.7,8.58-5.09l8.92,11.35c-3.68,2.78-7.97,4.91-12.85,6.4-4.88,1.49-9.75,2.23-14.59,2.23ZM301.57,245.18l-14.35-2.04v-25.5h14.35v27.54Z"/>
      <path class="cls-3" d="M316.11,252.64v-67.88h51.3v12.61h-35.69v42.67h36.95v12.61h-52.56ZM330.56,224.33v-12.22h32.68v12.22h-32.68Z"/>
      <path class="cls-3" d="M381.18,252.64v-67.88h15.71v55.08h34.04v12.8h-49.75Z"/>
      <path class="cls-3" d="M439.75,252.64v-67.88h15.71v67.88h-15.71Z"/>
      <path class="cls-3" d="M484.07,253.81c-4.59,0-8.81-.86-12.65-2.57-3.85-1.71-7-4.15-9.45-7.32l8.73-10.47c1.87,2.46,3.85,4.32,5.92,5.58,2.07,1.26,4.3,1.89,6.69,1.89,6.4,0,9.6-3.75,9.6-11.25v-32.29h-23.85v-12.61h39.47v44.03c0,8.4-2.07,14.68-6.21,18.81-4.14,4.14-10.22,6.21-18.23,6.21Z"/>
      <path class="cls-3" d="M524.02,252.64v-67.88h15.61v67.88h-15.61ZM538.08,237.13l-.87-18.13,32.49-34.23h17.45l-29.29,31.52-8.73,9.31-11.05,11.54ZM570.47,252.64l-24.15-29.58,10.28-11.15,32.19,40.73h-18.33Z"/>
      <path class="cls-3" d="M623.22,252.64v-67.88h33.16c8.53,0,14.95,1.62,19.25,4.85,4.3,3.23,6.45,7.5,6.45,12.8,0,3.56-.87,6.64-2.62,9.26s-4.14,4.64-7.18,6.06c-3.04,1.42-6.53,2.13-10.47,2.13l1.84-3.98c4.27,0,8.05.7,11.35,2.08,3.3,1.39,5.87,3.44,7.71,6.16,1.84,2.72,2.76,6.05,2.76,9.99,0,5.82-2.3,10.36-6.89,13.62-4.59,3.27-11.35,4.9-20.27,4.9h-35.1ZM638.83,240.81h18.33c4.07,0,7.16-.66,9.26-1.99,2.1-1.32,3.15-3.44,3.15-6.35s-1.05-4.96-3.15-6.35c-2.1-1.39-5.19-2.08-9.26-2.08h-19.49v-11.44h16.78c3.81,0,6.74-.66,8.78-1.99,2.04-1.32,3.05-3.35,3.05-6.06s-1.02-4.64-3.05-5.96c-2.04-1.32-4.96-1.99-8.78-1.99h-15.61v44.22Z"/>
      <path class="cls-3" d="M697.4,252.64v-67.88h15.71v67.88h-15.71Z"/>
      <path class="cls-3" d="M741.71,253.81c-4.59,0-8.81-.86-12.65-2.57-3.85-1.71-7-4.15-9.45-7.32l8.73-10.47c1.87,2.46,3.85,4.32,5.92,5.58,2.07,1.26,4.3,1.89,6.69,1.89,6.4,0,9.6-3.75,9.6-11.25v-32.29h-23.85v-12.61h39.47v44.03c0,8.4-2.07,14.68-6.21,18.81-4.14,4.14-10.22,6.21-18.23,6.21Z"/>
      <path class="cls-3" d="M839.26,253.81c-9.63,0-17.16-2.68-22.59-8.05-5.43-5.37-8.15-13.03-8.15-22.98v-38.01h15.71v37.43c0,6.47,1.32,11.12,3.98,13.96,2.65,2.85,6.37,4.27,11.15,4.27s8.5-1.42,11.15-4.27c2.65-2.84,3.98-7.5,3.98-13.96v-37.43h15.52v38.01c0,9.96-2.72,17.62-8.15,22.98-5.43,5.37-12.96,8.05-22.59,8.05Z"/>
    </g>
    <g>
      <path id="rect6" class="cls-2" d="M401.24,519.06l-.51,2.75-.29,3.45-.18,2.2-.81,4.43-.52,2.86-.6,2.16-1.99,7.08-.07.24.06.26-.32,2.52-.65,1.03-.17.82-.09.28-2.15,6.78-1.29,3.2-.79,1.97-1.52,3.79-1.59,3.26-.04.08-5.42,11.14-.08.16v.02s-.86,1.74-.86,1.74l-.43.9-2.5,4.11-.28.47h0s-.35.59-.35.59l-.96,1.63-.03.04-1.55,2.62-3.3,4.7-2.96,3.62-1.72,1.55-1.12,1.01-.14.13-1.5,2.09-.96,1.12-9.59,11.17-.88,1.22-2.11,2.89-3.4,2.16h0s2.89,1.3,2.89,1.3l2.63,3.39-3.31-1.48-1.67-.79-.66-.39.11.67-.54,1.05-.06.65-.05.88.26.58.14.36-.07.21-.13.13-.27-.05-.07.26-.09.44.98.26-.17.27-2.39.23-1.99.78-.94-.11-.53-1.2.36-.27.44.72,2.66-.76.39-.49.35-.68-.19-.85-.94-.51-1.4-.31,1.3.11.83-.24-.15-.52-.89-.25s.32-.22.32-.38l-2.96-.41-1.59.51c-.02-.05-.02-.92-.24-.88-.03,0,.05.69-.2,1.01-.14.19-.08.32-.06.34-.07.19-.24.77-.27.72,0,0-.91.63-1.08.82.24-.34,1-1.47,1-1.47.1-.07.08-.76.32-.68.08.03.09-1.31-.01-1.31-.15,0-.42-.1-.7.2-.22.23-.45.86-.62,1.02-.29.26-.36.06-.38,0-.18-.43,1.08-1.94,1.15-2.07l.24-.2,2.6.76,3.41.94.47-.08.16-.24.17-.3-.58-.57-1.41-.65-2.27-.91-2.41-.05-1.55.72-.95.82-.74,1.12-.32,2.21.34,1.95.75,2.26.66-.91c-.08-.32.01-.48,0-.3l.03.22,2.88.1.5,1.31-.23.9.72,1.15.33-.08.16-.75.44-.32,1.36,1.25-.16.67h-.37s-1.32,2.54-1.32,2.54l-.45.44-.31.3-.24.64.18.62,2.34,2.7.92,1.6.43,1.43-.2.6-.98.74-.06.45.64-.05,1.63-.11.82,1.12,1.03.74,1.39.18.8.53.47-.43.29.84.64.13.87.23,1.26-.19,1.94,1.19.7.98,1.79.82.82.08,1.76,1.16.81.9,1.13.4.77-.43.13.44-.62.5-1.04.15.02.44,1.74,2.02,2.05.81,3.31,1.34,2.78.68,1.29.74h.41s.84.78.84.78l1.21.41,3.01,1.95.54.35.09.06,1.28.48,1.8.16,1.23.26,2.94.09,3.28,1.46,1.29.92,3.78-.45,3.6-1.42,1.47-.38.08-.02,1.72-1.19h0s.24.53.24.53l.15.33.56,1.21-.96.14-1.51,1.93-1.24.71.05.18.11.4-.52-.1-.27-.36-2.79,1.09-.31.02-6.74.38-1.72-.24-2.04-.83-1.54-.62-.41-.47-.54-.09-1.03.26-.91.62-.26-.19-.14-.57,1.19-1.04-.56-.09-.65.72-.59.02-.39.34-.37-.17-.11-1.87v-.05s-.26-.06-.26-.06h-.04s-.03.03-.03.03l-.76.8-.22-.3-.4-.53h0s-.44-.02-.44-.02l-.58.46-1.58.46-1.71.05-2-.67-.55-.43-.82-.64-3.16-.97-1.74-1.87-1.14-1.78-1.99-1.38-.66-.9-.76-.34-.75-1.06-.87-1.62-.85.33-3.41-1.51-2.49-1.73-.75-.3-.87-.35-.93-.85-3.27-1.58-1.23-1.03-.67-.09-.55.4-.4-.62.52-.21-.31-1.27-.74.31-.02.49-.37.09-.79-.86-.46-.5-1.27-.91.27-.87-.64.03-1.09.05-1.13.05-.68.03-3.13,1.08-2.57,1.31-.18.09-.99.2-2.22.46-.6.12-1.45.94-.67.84-.33.98.28,1.55.94,1.92-.19.28-.18.28-.16.24.19.8.03.15.09.41.58-.39.1-1.12.68.34h.63s1.64-1.72,1.64-1.72h.09s.47-.06.47-.06l.5-.72,3.07-.6.58-.5,1.72-.03.65.38.83.12.71-.15,1.19.19.17.37.03.06.58,1.27,1.09,1.26.39,1.36v1.44s-.34,1.53-.34,1.53l.35,1.17.31.29.88-.33.12,1.18.8,1.41.74,1.79.08,1.03.31.4.22-.09.11-.04.19.15.66.52h.07s.68.16.68.16l1.63-.17.64.23,1.11-.33,3.04.85,1.74.83.96,1.47.18.27.85.86,1.57.2.47.35h17.37l.78-1.91.77-.38.03-.02.35-.64.94.3-.74,1.32.26.06.94-.99.21-.22.23.59v.03s-.25.93-.25.93l-.44.92h165.05s-.02-.04-.02-.06c-.16-.63.14-1.63.14-2.34,0-1.08-.29-2.11,0-3.15.14-.19.45-.39.67-.45l.16-.26c-1.01-1.06-3.81-3.42-5.28-3.56-.93-.09-1.96.41-2.95.37-.49-.43-.62-1.14-.59-1.76.2-.11.37-.25.53-.41.77-.79,2.99-1.55,2.98-2.73-.1-.38-.38-.74-.67-1,.08-.24.23-.49.41-.66l.06-.55c-.13-.25-.23-.5-.33-.76-.17-.19-.6-.3-.85-.27-1.39-1.32.69-3.32-2.7-4l-.14-.41.17-.35c.22-.16.47-.33.74-.4l.16-.27c-.21-.17-.47-.31-.73-.4v-.32c2.34-2.06,3.96-.25,5.99-.9.78-.25,2.24-2,3-2.6,1.5-1.19,1.28-.29,2.05-2.61.94.55,1.71,1.36,2.78,1.71,2.77.89,5.69.97,8.3,2.34.29-.25.3-.87.3-1.21.06-3-1.74-1.78-2.87-3.82-.79-1.43-.17-1.59-1.82-3.11-.38-.35-1.13-.35-1.38-.76,0-.47.42-.75.65-1.13.56-.19,1.41-.03,2.03-.08.44-.04.82-.21,1.18-.45.35-.23.73-.5,1.18-.4.44.09,2.02,1.27,2.28,1.66.19.28.49,1.25.59,1.61.21.17.47.31.73.4.2.39.23.84.42,1.22.97,1.93,3.43.77,5.17.89.49-.03,1.1.03,1.58-.08.41-.1.7-.47,1.12-.54.76-.13,1.84,1,2.23,1.58.48.73.37,1.5.98,2.34.48,0,.88-.23,1.35-.27,1.11-.1,3.48.52,4.25,1.4.19.61-.34,1.44-.22,2.24.77.3,1.94-.43,2.78-.4.51.02,1,.62,1.43.5.11-.19-.1-4.24-.2-4.5-.17-.44-.53-.99-.76-1.44l.14-.45c.62-.28,1.12.15,1.65.36.39.15,2.39.74,2.7.72.3-.01.65-.19.96-.14.39.06,1.22.99,1.48,1.31.52.05.83-.13,1.3-.27,2.66-.83,1.46-1.04,2.92-2.11.65-.48,1.6-.64,2.33-.99.83-.39,1.39-1.25,2.17-1.76.34,0,.69.05,1.01.14,1.29-.41,2.39-1.38,3.63-1.89,1.72-.7,5.55-1.26,6.57-1.76.83-.41,1.59-1.49,2.61-1.18.41.13.59.56.81.86.72.94,1.68,1.33,2.73,1.81.18.02,2.21-1.16,2.62-1.35.26-.31.36-.76.65-1.03,1.04-1.01,2.78-1.26,3.68-2.52.86-1.21.8-3.89,1.51-4.68.7-.78,2-.32,2.51-1.39.63-1.31-.36-2.49-.28-3.74-.58-.48-1.33-1.24-1.77-1.85-1.79-2.5-3.6-2.45-5.94-4.02-2.82-1.91-2.09-2.38-5.93-2.03l-.34-.22c-.2-.41.06-1.66.06-2.21,0-.47.24-2.34.56-2.65,1.07-1.01,3.95-.25,5.08-2.16.52-.87.17-1.57.39-2.44.03-.12.12-.25.17-.36.34-.7.43-1.44.72-2.11.04-.08.17-.26.23-.32,1.34-1.46,8.47.19,10.23-.94,1.84-1.18.99-3.43,1.71-5.03.31-.69.78-.61,1.16-1.08.51-.63.82-2.02,1.54-2.43.5-.29,4.72-.74,5.48-1.74,1.57-2.08,1.74-5.51,3.59-7.11,1.78-.31,4.63,0,5.94-1.31l.05-.31c-.26-.66-.47-1.38-.85-1.98-2.12-4.43-1.99-4.92-.81-9.71.38-1.54,3.29-6.18,3.46-7.37.17-1.16-.28-2.71-.45-3.87-.55-3.63-.64-3.09-3.48-4.96-.58-.4-1.03-.78-1.36-1.43-.58-1.16-1.92-6.4-3.15-6.83l-.36.18c-.76,1.15-1.94,3.52-3.35,4.05-.77.29-2.28-.62-3.12-.72-.53-.07-1.06,0-1.6-.13-1.19-.27-2.32-1.16-3.54-1.28-.25-.02-.37-.05-.6-.15-.16-.07-.39-.15-.52-.25-.46-.34-.42-1.01-.87-1.34-1.82-.58-7.64,1.74-10.01-.95-1.01-1.14-3.24-2.52-4.55-3.42-.08-.26-.18-.52-.31-.76.01-.49.19-1.07.28-1.57.19-1.03.03-4.48-.28-5.5-.24-.77-.96-1.7-1.37-2.42l.14-.45c.83-.12,2.43.8,3.06-.27.31-.52,0-.91.62-1.61.85-.04,2.68.48,3.32-.18l.14-.4c-.7-1.52-3.48-2.38-4.1-3.29.38-2.93,1.99-3.56-.14-6.34l.19-.45c.16-.03.32-.1.48-.2h-109.59l.9,1.4.02.03.93,1.44.03.05-.14.09.47.61,1.43.18,8.1.09,3.18-.18,5.4.09,1.15-.18.02.23-.02.44-.45,2.11-.2.59.17.58.45.36.56.14,1.12-.59-1.27.9-1.26.14-2.75-.18-.33.23,1.57.85.67.13.96.58.28.49.08.59,1.57,2.11.31,1.08.29,2.95.55,2.26-.45,1.21-.31.45-.51,1.17-.48,1.98-.51,1.17-.34,1.26-.25.54-.65.9-.42.36-.53.81-.51,1.12-.96,1.47-.49.56-.17.31-.28.18-.98.79-.26.33-.5.37-.93.98-.98.91-.76.55-.64.26-.4.36-1.35.81-.87.39-.2.09-1.04.28-1.97.9-1.19.69-.36.17-.36.13-.84.67-.51.18-1.31.92-.88.66-1.38.72-.59.13-.48.36-.59.85-.45,1.21-1.18,1.08-.45.18-1.35.95-.73.81-.79,1.57-.76,2.52-.96,2.29-.9,1.49-1.07,1.12-.99.49-1.26.14-1.35-.14-2.08.81h-.65l-1.6.54-.42.32-2.08.76-.62.09-.7-.09-.99-.45-1.79-1.35-.62-.76-.87-.67-1.15-.32-1.52-.22-1.12-.49-.74-.04-1.2-.5-.59-.85-.48-.99-.34-.36-.22-.54-.39-.31-.93-.63-1.88-.63-1.63-.81-.56-.22-1.26-.09-1.21.18-.45.22-2.87.63-1.94-.09-1.18-.49-.9-.63-1.32-1.67-1.24-1.03-1.83-.67-.51-.27-.37-.36-1.1-.54-.63-.17-.99.4-.96-.22-.06-.02-.17.03-1.61.29-.46.08-.58.1-.02-.64v-.06s.62-.53.62-.53l-.7-.8-.53-.1-.67.22-.79.26-.64-.06-.87-.58-.32-.53-.16-.26v-.12s.04-.12.04-.12l.09-.62-.19-.29-.29.05-.79.14h-.05s-.34.07-.34.07l-1.17-.67-.32-.19.48-.53,1.19-.1.61-.76.77-.3.47-.18.18-.07.53.35.66.43.14-.2.26-.4.11-.8.47-.26.26-.14,1.04-2.13.75-.24,1.65-2.07.79-.13,1.17-1.61.42-1.34.61-.53.58-.5.22-.19-.81-.46-2.71-.33-.4-.05-.35-2.03.15-.78.05-.26-.95.13h-.05s-.17.03-.17.03h-.04s-.06.01-.06.01h-.01s-.18-.5-.18-.5l-.02-.06h0s0-.01,0-.01l2.41-.36.14-.05.38-.11.4-.49-.75-1.5.08-1.37.89-.55.22-.14.44-.57.38-.72.09-.18.06-.74-.49-1.32-.78-.91-1.23-2.19-.23-1.44-.39-.62-.48-1.67-.08-.27-.06-.19-.36-.55-.09-.14-.02-.04-.17-.14-.68-.55.27-.91v-.02s0-.02,0-.02l-1.51-3.2.13-.78-.28-.59.18-.67-.48-2.51.24-.85.05-.07h-40.17ZM504.62,522.94l-.67.9-.45.31-.56.14-1.43.76-1.6.49-1.88.13-1.18.23-1.74,1.21-1.09,1.17-.45.31-2.22,2.38-.87.58-1.8.27-1.46.45-.31.49-.48,1.12-.62.94-.42.31-.31.45-.24.66v1.18s-.16.67-.16.67l-.25.54-1.24,1.03-.93.49-1.29.94-.5.22-1.18.18-.98.45-.81.72-3.01,2.16-1.94.99-3.71,2.16-.84.63-.93.5-3.46,2.52-4.22,2.34-.56.13-1.29.94-.36.4-.54,1.03-.73.81-3.12,1.84-.22.41.22.49.34.4.14.58.05.59-.11.72-.06,1.35.06.63.39.99.62.85.42.36.48.31.51.14,1.18-.18.98-.49.56-.14,1.94-.09,2.39.9,1.32.32,3.04,1.08,2.73,1.3,2.53,1.39,2.75,2.43.7.81.5.27,2.81,2.52.7.81,1.15.45h1.29l2.67-.9,6.27-1.35,1.29-.54.45-.32.48-1.12.36-1.3,1.74-3.87-.06-.58-1.38-2.92-.06-.58.11-.72,1.91-1.89.81-.72.48-.22,2.14.18,1.32-.22.33-.18.93-1.44,1.46-1.44,5.57-3.15,2.73-.81,3.37.09.98-.45,2.31-1.35.87-.63.31-.49.73-1.66,1.6-2.12.98-1.52.96-1.95.7-1.15.81-1.62.75-4.82-.16-2.07-.59-1.49-.65-.85-.36-.51-.63-1.38-.28-.34-.05-.07-.05-.09-.43-.67-.42-.36-2-.41-2.08-.09-1.23-.22-.77-.14-.73-.81-.47-.27-3.54-.49-2.08-.45-.59-.27-.76-.09-1.24-.4-1.15-.5-1.27-1.71h0s0,0,0,0ZM449.94,545.03l-.33.08-.23,1.45-.62.75v.45s.43.25.43.25l1.37-.68,1.84-.91.68-.13.14-.26-.19-.29-2,.16-.6-.48-.48-.39h0,0ZM331.01,655.14l-.68.65-.66,1.17-1.12.93.39.28,1.76-.73,2.04-.23,1.67.64.1-.3-1.72-1.16-1.24-1.17-.53-.09h0s0,0,0,0ZM323.73,658.92l-1.79.87-1.97.48.13.67v.07s-.64,2.13-.64,2.13l-2.75-.55-1.89.11-.23.09-.19.07-.07.03-1.68.61-3.69.93-1.68.81-.78.99-1.03,2.04-.22.97.14,1.62.39,1.25.91,1.12h7.21l.25-.21,1.02-.41h.67s2.36-2.2,2.36-2.2l1.21.47.28.36-.02,1.34.3.21.43.31.42.13h23.71l-1.95-.98-2.31-.24-.68-.35-.91-2.37-.8-1.41-.53-.28-.39-.58-.58-1.46-1.02-1.29-4.16.27-.75-.19-1.36.31-1.89-1.49-1.17-.36-3.94,1.04-.35-.28-.9-.15-.16-1.18.22-.93.4-.6.16-.24,1.11-.16,2.37.99.05.02h0s.23-.64.23-.64l-.28-.47-.95-.32-.22-.08.07-.12v-.02s-.13-.77-.13-.77h0s0,0,0,0ZM336.18,660.31l-.09.67.94,1.36.64.92.97,2,.75.04.21-.49-.29-.8-.77-.75-.45-1.1-.18-1.62-.27-.21-1.45-.02h0ZM365.53,660.84l-.65.11-.1.49.77.79,2.07,1.67,2.59,1.33.18.24,1.41-.16,1.65-.65.22-.16-.02-.48-8.13-3.18h0ZM334.3,661.76l-2.27.09-.62.32-.04.08-.1.22.16.21.28.37,1.59-.36.99-.48.02-.45h0s0,0,0,0ZM329.61,662.81l-.63.14-.11.31-.02.06.27.38h.01s.52.07.52.07l1.37-.14-1.41-.83h0ZM372.91,665.9h0s-.48.2-.48.2l-.42.64.6.24,1.53.02.03-.26-1.25-.85h0Z"/>
      <path id="rect4" class="cls-5" d="M305.67,671.73l.12.39,1.22,1.5,1.98,1.18.69-.05.27-.02,2.81-.3.58-.28.13-.53.68-.58,1.02-.41h.67s.96-.89.96-.89h-11.15ZM319.7,671.73v.86s.29.21.29.21l.43.31,2.33.71.24.07.89-.14,1.26.91.7,1.79.78.93v1.11s.4,1.58.4,1.58l.31.18.99.67,1.23.17.45.06.39-.57.62.64.7-1.03.08.18.68,1.24,1.07.94,1.55,1.37,3.22-1.05,2.06-.67,1.81-1.1.66-.14.86.28.46.15,2.07-2.3,1.28-.6.5-.61v-.37s.41-.64.41-.64l.07-1.15.45-.9-.95-.17-2.29-.41-.56-.69-2.54-1.28-2.31-.25-.56-.28h-20.02ZM354.59,671.73l.06.1.85.86,1.57.2.61.46,1.46.32,1.15.96.49.11h.07s2.59,1.63,2.59,1.63l1.54.43h.1s5.01-.47,5.01-.47l1.31-.82,1.84-.74.88-.35.72-1,.69-1.69h-20.93,0ZM377.15,671.73l-.11.19.26.06.24-.25h-.39,0ZM378.59,671.73l-.16.59-1.6,3.35-.93,1.07-1.47.6-.84.65-1.21.42-.65.54-2.69.5-2.49,1.08-1.07.19-1.94-.16-2.27-.07-1.32-.36-.54.46-1.31-.25-.2-.08-2.97-1.29-2.2-1.33-.94-.15-2.32.49-.94,1.02-.06.37-.18,1.07.29.69.79.23.57.58.58,1.53,1.42.03,1.11.03.9.34.72-.17,1.52-.36-.07.5-.4.19.51,1.08h-.35s-1.99-.14-1.99-.14l-3.85.36-.75-.08-1.42-1.1-1.28-.44h-1.67s-4.39,2.71-4.39,2.71l-.83-.23-2.05.61-.62.12-.54.46-.08.32-.15.62.3.81.57.46h.44s.26,0,.26,0l.66.38,1.55.91.98,2.26,1.65.42.57.59.74.77.22.77.91,1.16.34.43,5.04,1.11,1.2-.67.46.47,1.23.25.76-.32,2.57,1.28.39.47,1.47.8.55-.09.5-.6.46-.54,2.29.85.7.26.28.1.81,1.12.49.23.61.29.42.36.51.45.33.29.09.23.23.57v.09s-.08.8-.08.8l.84,1.79.16,2.44-1.03.26-1.3.93-.32-.62-.88.18-.25-.19-.17-.13-.55.02-.79.71-.29.26-.35-.43-.17.08-.63.27h0l-.84.41-.94.03h-.28s-.03-.11-.03-.11l-.18-.61-1.03.11-.42-.36-.59.1-.58.49-1,.85-.61.24-.93.37-.35.49-1.08-.15-1.15-.96-.85-.11-2.15-1.22-1.13-1.62-2.3-2.18-.8-1.67.35-.68-1.06-2.55-1.96-1.19-.69-.42-1.19-1.03-.86-.19-2.61-1.38-1.54-.46-2.17.49-1.46-2.24-.5-.43-.41.02-1.44.05-.91.55-1.49-.24-1.22.12-1.1.11-.7-.05-1.26-1.12s-1.47-.28-1.95-.21c-.49.07-1.11.77-1.39.77s-1.12.07-1.4.07-1.54,0-1.81-.14c-.28-.14-1.18-.21-1.81-.21s-.84.07-1.19.14c-.35.07-.56.84-.84.98-.28.14-.56,1.26-.56,1.54s-.77,1.19-.77,1.19c0,0-.91.7-1.33.77-.42.07-.98-.21-1.33-.56-.35-.35-1.12-1.67-1.19-1.95-.07-.28-.84-1.47-.84-1.88s-.77-1.19-1.05-1.39c-.28-.21-1.46-1.19-1.81-1.26-.35-.07-.56-.91-.91-.98-.35-.07-.63-1.05-.63-1.67s-.23-1.32-.23-1.32l-.64-.68-.49-.18-1.43-.52-1.74.04-.94-.37-1,.2-1.81,1.01-1.86,1.49-.92.19-2.38,1.53-1.01.66-2.22,1.8-2.6,1.49-.86,1.48-.07,1.67,1.07.62,2.06,1.98,2.71,1.69,2.16,2.61,1.58,3.08,2.2,1.87.38.13.59.2,1.62,1.45.15-.03.84-.18h.08s.2-.11.2-.11l.88-.41.48-.22.37.72.78.07,1.4-.14.52.16.9-.63.7-.92.8-.12.23-.04.05-.55.65-.47.71.19.24-.42,1.39-.28.42-.57.56.83-.48,1.02-.56-.13-.26.24-.34.31,1.88,1.54h0s1.21,1,1.21,1l.44.36.3.58.5.98.03.36.03.3.62.72,1.87.44.51-.28,1.39.46.79.26.13.51,1.1.73,2.03,1.96.32.31.57-.09,3.84-.61,2.25-1.02.35.32.55.04,1.35.11,1.28-3.27.7-.95.09-.38.17-.78.75-1.55-.33-.91.45-.68,1.92-1.19,1.62-.14.91-.55.37.02,3.06,2.55,1.1.77,1.28.47.44-.09,1.27,1.36.77,1.82,2,1.02,4.13,1.02,1.02.63,1.34.5,1.15.07.48-.2,1.05-.44,1.14-.11,1.07-.97,1.06-.22.57.32.46.54,1.95-.18.92.63.87,1.79-.24,1.45.33,1.05c1.3-.29,8.3-.64,9.08.24.16.62.26,1.63.84,1.98,1.4.85,6.81,1.13,8.21.08.69-.52.43-1.54.99-2.16-.03-.13-.09-.47-.14-.58-.2-.41-.71-.8-.96-1.21-.35-.6-.57-1.33-.93-1.94-.58-.98-1.91-1.88-2.14-3.01-.28-1.39,1.04-2.19,1.29-3.32-.1-.76-.56-1.43-1.34-1.58l-.23-.49c.24-.38.62-.52,1-.7,2.22-1.05,4.58-1.75,6.73-2.99.59-.34,1.02-1.07,1.65-1.26.38-.11.85-.11,1.24-.13.69-.04,4.54-.61,4.72-.55l.39.37c.25.5-.4,3.24-.62,3.86-.13.38-.4.68-.54,1.03-.55,1.38-.25,2.93.39,4.19,1.04.58,3.55-1.3,4.72-1.22.24.02.62.16.85.25.64.25,1.44.72,2.07.88,1.33.33.99-.24,2.76.68.63.08,1.87-.67,2.69-.77l.17-.49c-.35-.45-.22-1.11-.45-1.62l.17-.36c.33-.7,1.36-.81,1.83-1.34.75-.85.81-2.23,1.74-2.93.26-.2.7-.28.99-.45.53-.31.99-1.07,1.43-1.57.58-.44,1.32-.59,1.86-.99.57-.42.77-1.27,1.32-1.76,1.73-1.54,4.99-.32,6.57,1.08.65.58,1.19,1.36,2,1.79.21.68-.25,1.32-.22,1.98.02.43.23.72.14,1.21-.23.29-.56.46-.79.72-.58.67-.67,3.5-.42,4.36.12.43.5,1.01.7,1.44-1.57.1-2.53-1.04-3.82-1.61-.58-.26-1.18-.06-1.74-.27l-.37.4c-.13.69-.14,1.38-.16,2.08,1.06,2.18,5.72.77,7.44.49.74-.12,3.01-.34,3.71-.26,1.95.22,2.73,2.5,4.07,2.83.13-.03.51-.08.62-.13.47-.2.75-.8,1.12-1.13,1.51-1.3,5.58-4.77,6.3-6.47,1.29-3.03-.82-4.13,2.64-6.61l.59.08c.67.6.19,1.5,1.3,2.3.68.18,1.3-.19,1.94.13.85.44,2.64,4.86,3.14,5.94-.1,2.25-2.72,3.63-2.81,5.84-.1,2.64,4.7,6.02,5.71,8.87.39,1.11,0,3.46,1.1,4.13,3.24,1.97,4.21-1.37,6.78.33.81.54,2,.49,2.69,1.33.37.81-1.04,5.25-1.21,6.52l.23.5c.65.51,1.52.47,2.28.27.74-.19,1.41-.57,2.19-.59,1.86-.07,3.39,1.15,5.85.77,1.45-.22,1.66-1.84,3.35-1.66,1.01.1,2.13.66,3.19.96.55.15,1.19.19,1.72-.07.54-.27.83-1.08,1.41-1.34.54-.25,1.21-.11,1.77-.27.61-.18,1.97-.67,2.53-.94.83-.39,1.19-1.4,1.83-1.98.95-.32,2.82-.07,3.55.63.35.34.6.93.93,1.3.37.42.82.67,1.26.99,1.5,1.08,1.76,2.61,1.7,4.36-.04,1.13-.37,3.17-.01,4.14.57.73,7.24,2.62,8.66,3.37,1.72.9.56,2.61,2.87,3.1.79.17,1.56-.34,2.31-.4.64-.05,1.39.22,2.02.09,1.54-.3,1.98-1.48,3.87-.58,3.69,1.74,1.82,2.15,2.75,3.82.25.44.75.79,1.1,1.16,1.3-.14,2.39-.86,3.63-1.26.84.05,1.24.8,1.74,1.35.33.35.81.74.98,1.21.09.26-.01.55-.1.78-.82,2.06-3.87,2.68-3.86,4.57.36,1.39,1.96,1.32,2.5,1.97l.14.55c-.36,2.06-2.54.8-3.6,1.08l-.36.41c.29.57.56,1.18.54,1.84l-.08.51c-.07.51-.38.95-.46,1.47-.06.41.04.91-.05,1.31-.06.29-.37.78-.62.94l-.59.09c-.45-.3-.95-.75-1.52-.72-.59.87.12,1.73-1.21,3.29-.27.99.46,1.31,1.16,1.74l.22.45c0,.73-.43,1.28-.53,1.98-.07.43.03.84.03,1.26,0,.18-.74,2.49-.79,2.57-.95,1.58-5.04,2.67-4.08,5.21,1.03.97,2.01-.19,2.9-.58l.56.23c.73,1.2-.18,2.14-.84,3.1-1.46,2.12-1.37,5.54-4.25,4.77l-.28.2c-.2.14-.12.05-.23.29-.34.74-.29,1.59-.67,2.33-.37.71-1.06,1.05-1.27,1.89-1.19-.13-2.43.23-3.4.85-.1.74-.1,1.95-.96,2.26-.57,2.17-.2,3.25.67,5.21,1.05,2.36,3.64,2.69,5.54,4.05-.08.4-.22.82-.42,1.16-.06,1,.89,1.74.79,2.71-.13,1.15-1.11,2.26-1.37,3.46l.68.45c1.38.12,1.33-1.19,3.03-.94l.3.44.57.22.53-.13c.23-.3.5-.56.76-.83.75-.81,1.28-2.54,2.51-2.63l.39.37c.07.51.3,1.11.76,1.39,1.88-.01,1.68,1.34,2.83,2.2,1.04.1,2.4-1.13,3.35-1.58l.5.18c-.01.34.08.79.25,1.08.93.35,2.7-.83,3.23-1.57.3-.03.63.02.93.08.25.56.12,1.36,0,1.94l.48.42c1.73.16,5.41-1.51,6.41-1.41,1.01.11,1.62,1.18,2.64,1.21.37.01.76-.2,1.12-.23.37-.03.74-.05,1.1-.13,1.33-3.27-1.61-4.13-3.37-6.26-.13-.35.15-.81.3-1.11l.34-.23h.42c1.56,1.02,2.1.48,2.83-1.08,1.06-2.28-.69-3.5-.33-5,.95-.85,2.47-1.87,3.82-1.66.19.15.37.36.47.58l.45.14c1.54-.33.96-2.08,1.51-2.92.16-.24.62-.6.85-.82.28-.74-1.23-2.57-1.32-3.5-.14-1.45.65-2.23,1.04-3.47l-.11-.36c-.63-.49-1.91-.27-2.72-.58-.03-.26-.16-.61-.34-.81-.53-.22-1.32-.04-1.91-.19-2.15-.56-1.98-2.57-2.25-4.36.11-.23.3-.47.5-.63-.01-.23-.16-.6-.34-.76.07-1.04,1.4-1.18,1.86-2.03l-.05-.49c-1.15-1.54-4.36.15-5.91-.14-1.16-.22-1.6-1.58-3.01-1.13-1.23.4-3.76,2.46-4.92,1.9-.34-1.23.86-2.3.93-3.42-.45-.87-.73-1.73-1.24-2.61-1.34-.54-1.25.2-1.94-1.43.14-.78.37-1.78.25-2.57-.11-.69-1.02-1.08-.73-1.84.36-.92,2.52-.55,3.82-2.74l.45-.14c1.09.42.86,4.16,3.15,4.6.53.1.92-.11,1.43-.19.25-.18.33-.41.5-.63.23-.29.63-.5.85-.81.65-.92.61-2.33,1.15-3.33.5-.91,1.57-1.86,2.36-2.61,1.11-1.22,2.94-1.45,4.1-2.56.73-.7,1.09-2.04,1.77-2.7.48-.46,1.73-.79,2.46-1.08.69-.23.93-1.12,1.5-1.57,1.12-.88,2.48-1.19,3.74-1.8,1.38-.67,2.42-1.52,3.57-2.47.02-.25-.09-.66-.26-.85-.91-.54-1.78-.25-2.41-1.49l.16-.36c1.03-.55,1.96-1.42,2.96-2.03.03-1.04-1.25-1.3-2.03-.98-1.01.41-4.7,3.73-5.48,3.91-.15.04-.81-.02-.99-.04-.56-.38-.77-.5-1.09-1.13-.35-.68-.91-6.11-.74-6.84.14-.57.68-.83,1.13-1.13-.1-.81-.74-1.77-.71-2.47.39-.67,1.1-1.04,1.63-1.58.67-.69,1.88-2.05,2.33-2.87.34-.63.47-1.34.81-1.98.56-1.03,1.6-1.76,2.19-2.83.9-1.62,1.39-3.25,2.14-4.95.68-.19,1.34-.53,2.03-.71.36-.56.46-1.47.9-1.89.86-.83,2.3-1.62,2.72-2.84.4-1.15-.88-3.96-.65-4.63.26-.3.65-.46.9-.77l-.08-.44c-.32-.41-1.06-.61-1.54-.68l-.22-.37c-.09-.7.84-3.53.95-4.53.1-.91-.31-1.63-.28-2.44.03-1.02.83-2.01.93-3,.14-1.53-1.74-2.95-1.4-5.63,0-.65.04-1.34-.25-1.93-.93-1.91-2.89-3.22-3.82-5.08-.39-.77-.86-2.5-1.41-3.05-.7-.7-1.67-.8-2.3-1.58-.81-1.01-.88-2.36-1.58-3.42-.5-.76-1.54-1.04-2.2-1.74-.44-.97,1.86-6.28,2.22-7.69l-.26-.27c-.89-.22-1.75-.62-2.64-.86-1.78-.46-5.33-.99-5.87-3.19-.1-.39-.02-.93.05-1.45h-147.39l-.36.14-.31.02-6.74.38-1.72-.24-.74-.3h-7.22ZM309.97,676.69l-.27.13-.24.12-.13.45.5.31.72-.55-.58-.46h0,0ZM308.64,678.79h0s0,0,0,0h0ZM308.65,678.79l-2.55,2.88-.45.83.17.62.68-.62-.24-.47.84-.4.53-.72.86.04.92-1.07.27-.57-.54-.39-.48-.12h0ZM321.45,684.93h0s0,0,0,0h0ZM321.46,684.93l-1.54.36-.75-.19-3.36.92-.27.08-1.23-.1-1.44.24-.61.55-.53-.24-1.69.48h-.74s-.55-.65-.55-.65l-1.25-.54-1.36.28-1.62.22-1.31.54c.02-.08-.89.76-.89,1.03,0,.28.35,1.47.42,1.88.07.42.63.7,1.05,1.05.42.35,1.12.63,1.46.98.35.35,1.54,1.19,1.89,1.6.35.42.63,1.05.7,1.54.07.49-.14,1.26-.14,1.74s.42.56.7.56.35-.84.49-1.12c.14-.28.84-.84.84-.84l1.4-.91s.63-.63,1.05-.84c.42-.21,1.25-.77,1.74-.91.49-.14.91,0,1.47.21.56.21,1.04.42,1.6.63.56.21.98.35,1.33.28.35-.07.84-.91,1.54-1.05.7-.14.98,0,1.54.07.56.07.56.49.91.91.35.42.91.84,1.33.84s1.05-.38,1.05-.38l.85-1.31,2.16-.57.13-.29.15-.35-.1-.18-.43-.79-.52-.95-.76-.42-1.09-2.22-.5-.65-.05-.06-1.03-.7-1.99-.74h0ZM431.65,708.18l5.7.73-2.91,4.11-3.64-.84.85-4h0ZM289.47,716.48h0s-1.25.17-1.25.17l-3.72,2.02-2.88.87-1.77-.18-4.95,1.93-.98,1.19c-.41,3.17,3.13,4.49-.82,8.73l-.05.58c.1.51.77.84,1.2,1.03l.23.5c.08.6-.41,1.06-.56,1.61.22.71.83,1.15.93,1.94.07.59-.13,1.29.14,1.85.44.9,1.9,1.33,2.67,1.92.98.76,1.73,1.83,2.73,2.53,1.84,1.29,4.67.42,6.66.08.69-.11,1.43-.26,2.11-.4l.34-.4c.1-1.58-.52-4.76-.31-5.71l.36-.41,1.46.18c1.61-.56,1.36-1.78,3.76-.9.35-.09.7-.23,1.02-.4.26-.49.54-.99.93-1.39,1.65-.87,4.34,2.69,7.45,1.79,1.39.33,1.94,2.16,3.15,2.74,1.39.67,3.27.16,4.75.68.98.34,1.35,1.18,2.5,1.4.35-.14.73-.25,1.1-.32.49.16,1.11.43,1.37.9-.2,1.74-1.09,4.75-.03,6.34,1.38.97,4.56,1.52,6.21,1.34.98-.11,1.94-.7,2.92-.58.22.25.17.9.09,1.18l.31.4c2.54.58,3.4-3.03,5.09-1.26,2.31.27,5.77-4.21,7.73-5.4,1.31-.79,3.08.04,4.58-.85,1.49-.89,2.87-2.02,4.35-2.92,4.86-2.96,7.92-5.58,11.38-10.16.7-.92,1.65-2.02,2.13-3.09l-1.22-1.14-.93-1.95-.35-.75-.53-.35-1.78-.38-.25.27-.04.85.2.36-.36.23-.62-.65v.74s.42.8.42.8l-.35.35-.62-.72-.15-1.03-.3-.25-.74.06-.58.36-.2.49.21.77.95.63,1.84.2,1.42.16-.02.48-2.35-.16.08.28.89.45.25.8-.37.09-.84-.89-.6.25.27.72-.45.12-.96-1.43-.23.26.42,1-1.2-1.63-.49-.36-.91.22-.28.45.87,1.41,1.05.88-.04.13-.06.2-.41.05-1.84-1.6-.51-.83-.92-.82-1.42-.36-.85-1.08-.94-.37-2.37-.18-1.05-.59-.46-.97-1.19-2.52-.74-.97-.76-.56-.9-.45-1.2-.06-2.13-.11-.55.97-.25.43-.12,1.75-1.1,2.97-1.14.23-.5.35-1.56.2-.97.12-1.5,1.39-1.91,1.07-1.05,1.42-.92.11h-.53s-.88.02-.88.02l-1.89-.76-.88-.35-.36.24-3.88-1.05h-.04s-.41.73-.41.73l-.28.5-.13.24-.23-.11-.04-.02-1.85-.96-1.75-.3-.99-.41-.32-.13-3.41-3.04-.86-.3-2-.02-2.05-.54-2.98-1.42-1.23-.24-1.9-1.11-.58-.49-.49-.42-1.21-.38-2.62-.83-.31-.28h0ZM350.24,723.47l-.24.56.2.55.49.31,1.54-.28-.1-.7-1.9-.45h0,0Z"/>
      <path id="rect8" class="cls-4" d="M585.74,369.41l-.74.08-.34.41-.34,1.3.2.55.5-.08.73-.63,2.33.73,1.09.62,1.01-.11.39-.56.54.7.35-.44-.27-.52-1.16-.7-2.95-.73-1.32-.62ZM601.71,370.02l-2.48.04-.93.37-.58.85,1.44.96,1.22.16-.53-.75,1.08-1.04,1.34-.15-.57-.45h0ZM571.32,376.36l-2.26.11-.41.02-12.61,1.76-1.27.75-1.15,1.3-.87,1.78-.07,1,.24.63.65-.67.03.1.13.45-.53.82-.14.89.2.41.39-.08,1.23-1.08.03-.71.92-.41.65-.7,1.58-.43,2.1-.05,4.67-.36,2.08-.97,1.19-1.3,2.78-.46,1-.71,1.05-.15,1.42-1.01-.47-.55-2.56-.36h0ZM534.8,382.95l-2.63.06-3.78.41-5.62.62h-.07s-10.71.7-10.71.7h-.2s-3.2-.17-3.2-.17l-1.74-.38-2.73-1-1.2-.05-.96.64-.57.41-.14.49.05.04.49.43-.08.11-.53.75.1.86.03.25.8,1.36.11.07,2.03,1.16.71.07,1.5.15,2.47-.22,1.61-.65,1.63-1.83.56-.26.1-.05.16.04,2.09.52.89-.16,2.68.63.7-.12,1.28.24,1.69-.76,2.4-.35,4.16-.95,2.5-1.1h.07s4.23.25,4.23.25l1.72-1.16-.81-.46-.59-.34-1.2-.24h0ZM615.67,383.17l-2.75.15-5.53,1.41-2.28.97-1.08.71-2.18.77-1.41.94-3.13.52-1.78.82-4.71.68-1.89-.25-2.43.34-.43.11-2,.52-4.71.61-.69.36-4.71,1.85-2.34,1.53-1.25-1.43-1.71-1.17-3.57-1.31-.83.38-.33.15-.35.09-.24.07-2.93.8-.08-.09-.55-.61-.31.5.36.29.97.54s.65.4.72.57c.07.18.61.32.75.43.14.11,1,.36,1.15.39.15.04.4.52.32.75-.07.23-.45.36-.68.43-.26.07-.64.08-.9,0-.48-.16-1.02-.63-1.36-1-.29-.32-.72-1.22-.72-1.22l-.4-.25h-.9s-.39.42-.46.65c-.08.23-.17.62-.04.83.15.24.63.21.86.36.27.18.61.48.79.75.11.17.37.47.25.65-.14.2-.58-.05-.83,0-.24.06-.71.11-.75.36-.04.2.29.4.47.5.33.19,1.01.21,1.22.29.22.07.69.23.86.47.16.23.02.68.14.93.11.23.33.54.57.61.42.13,1.07-.08,1.43-.32.28-.19.32-.82.65-.93.11-.04.28.03.36.11.16.17.29.53.22.75-.06.17-.32.26-.47.36-.27.19-.96.25-.93.57.02.26.53.3.79.32.21.02.48-.1.68-.14.23-.05.56-.3.75-.18.12.08.15.33.11.47-.09.31-.47.6-.75.75-.35.19-1.05-.03-1.29.28-.09.12-.03.37.04.5.12.27.57.44.68.72.03.07.04.19,0,.25-.05.08-.19.13-.29.14-.31.03-.75-.11-1-.29-.21-.15-.35-.5-.5-.72-.11-.15-.23-.37-.36-.5-.18-.19-.42-.5-.68-.54-.21-.03-.52.08-.65.25-.23.32-.07,1.11-.07,1.33s-.18.43-.4.29-.18-.87-.32-1.22c-.09-.22-.21-.53-.39-.68-.28-.23-.97-.43-1.15-.39-.18.04-.39.39-.43.61-.07.38.14,1.04.32,1.25.18.21.9,1,1.11,1.33.22.32.08.36-.04.43-.24.14-.68-.25-.83-.39-.14-.14-.57-.72-.93-1.18-.36-.47-.36-.79-.36-1.26s.03-.68,0-.97c-.03-.3-.07-.83-.18-1.01-.11-.18-.43-.97-.43-1.29s0-.65.04-1c.04-.36-.04-.83-.22-1.11-.18-.29-.29-.11-.36-.39-.07-.29-.04-1.29.04-1.65.07-.36.31-1.88.31-1.88l-1.85.78-.11-.02-4.62-.9-.61.56-1.63-.17-2.39.43h-1.66s-2.84.88-2.84.88l-2.02.26-2.12.65-4.09,1.75-3.15-.19-1.15.45-2.11,1.32-3.19,1-.88.72-2.57,1.07-.76.56-2.3.73-3.07,1.84-3.93,2.36-1.12.2-.8.64-1.37-.08-5.01,1.14-1.68,1.03-2.93,2.23-.83,1.31-.14.82-3.1,3.26-.07.08-.68.32h0l-1.22.57-.15.11-.67.49-.16.12-2.88,2.23-2.68,2.53-1.27,2.13-1.09,3.09.59,1.38-1.02.14-.33.63.16,2.48-.68,4.34-.93,1.83-1.57,1.88-.44,1.35.19,1.42.18,1.39,1.16,2.87.53,1.32-.15.37-1.53-.62.28-.83-.57-1.4-1.51-.53-.14.56.96,1.69.98.52-.3.91.65,1.61.72.51.96-.64.19,1.51-.79.94.66.73.23,1.92-.36,2.96,1.23,4.2-.05,1.24-.37.32.25,1.11-.22.78-.95.46-.18.34.88,1.83.17,2.7-.37.71-.79.57h-.8s-1.14.55-1.14.55l-1.46,1.55-.4,1.11,1.24,2.94.77.28.61.52,1.99,1.69,2.15.85,2.27-1.08,1.18.09.92.06,7.73,3.35,1.26.12,2.36-.51.99-1.98,1.45-.5,1.15.09,1.71-.5.94-1.01.65.06.93,1.21.37,1.62,1.41-.28,2.14-.07,1.5.55.24.09.11.03.08.27.08.28-.03.02-.31.2-2.25.18-1.06.42-1.41.17-6.26,9.14-.22.32-.41,1.95-.44,2.1.18,1.85-.02,1.29-.14,7.44-.1,1.3-.05.66-.37.64.54.55.18.02.35.04.19.29.32.48.34.03,1.48,2.09.85.73,1.82,2.81.02.03.05.08h108.52c-.15-.27-.34-.55-.58-.86l.19-.45c1.22-.25,2.65-2.73,4.39-3.55,2.49-1.17,2.92.36,5.03.36,1.9,0,3.99-.01,5.88-.26.72-.09,1.58-.37,2.3-.37.16,0,.62.12.76.18.77.34,1.34,1.9,1.83,2.11.37.03,5.02-.21,5.19-.26.34-.24.5-.62.85-.85,1.68-.41,3.38,3.21,6.04,1.97,1.14-.53,1.91-3.73,1.94-4.89.04-1.4-.22-2.82-.11-4.23.13-1.69.44-3.38.59-5.08.13-1.54.09-3.1.15-4.65.2-3.05-.06-5.73.39-8.88.07-.51-.07-1.12.08-1.63.48-1.63,2.45-2.76,2.11-4.55-.14-1.19.04-2.02.65-3.05.84-1.41,2.18-2.43,3.18-3.73.54-.71,1.25-1.6,1.57-2.43.16-.41.24-.82.48-1.21.84-1.41,2.12-2.47,2.95-3.92.31-.54,2.15-5.63,2.28-6.29.26-1.26.42-2.52.81-3.87-.12-1.01.89-2.14.79-2.78-.09-.17-.4-.54-.45-.68-.2-.56-.9-10.07-.87-11.11.03-1.22.35-3.12.09-4.27-.37-1.66-2.06-1.11-1.83-4.18.08-1.09.53-1.61.87-2.56.27-.77.02-1.74.31-2.52.26-.68.88-1.07,1.18-1.71,1.15-2.4,1-5.13.45-7.65-.13-.57-.31-2.4-.53-2.74l-2.57-.13-1.77-.82-.66.33-2.65-1.09-1.92-.3-1.08-.41-1.91-1.86.39-2.26-.57-2.33.11-.26,1.01-1.18-.07-.37-.04-.21h0s-.2.11-.2.11l-1.74,1.03h-.05s-.6-.1-.6-.1l-4.79-.71-1.27-.56-.46-.45-.07-.45-.88-.14-.82-.13-.35-.63-.77-.48-2.62-.82-2.23-2.15-2.31-1.56-1.57-5.85v-1.92s-.94-1.33-.94-1.33l-.59-.83-.05-.07.54-2.07-.11-1.37.39-1.26-3.55-2.45-.62-.07-.28.67-.07.14.04.26.78.45v.43l-2.17-.07-.58-.59,1.12-1.03v-1l-1.28-.44-.49.26-1.25.66-2.13-.85-2.9-.56h-.04s0,0,0,0ZM546.27,384.39l-1.66.16-.38.3.36.96v.81s.52.33.52.33l.37-.82.42-.11.5-.63.35.18.15-.37-.63-.81h0ZM495.11,385.54l-1.78.18-3.67,1.12-11.18,3.41-1.84.57-7.5,2.06-1.92.39-.8.16-.28.06-2.75.34-1.88.23-.58-.09-.89-.14-.53.32-.44.26.35.04.83.08-.36.18-.79.4-1.01,1.35-3.33,2.92-.17.97.75,2.2.94.65,1.16.2.92-.31,1.25-.84v-.44s.33-.34.33-.34l.19-.07.39-.14.19-.07.94-1.32,1.66-.07.08-.08.94-.91,1.34-.54,1.93-.04.74.31.96-.31.68-.61,1.08-.21.9.26.08.02,2.15-1.45.17-.11.24-.16,1.11-.75,2.87-1.51,7.18-.26.46-.49-1.86-1.62v-.3s.52.03.52.03l.94.74,1.07.06-.53-1.29.5.06.63.51.81-.2.69-.53.88-.2,1.14-.8.16.05.7.2.48-.25.59-.31,1.29-.67.13-.06.49-.79.89-.05.44-.22,1.14-.58-.02-.05-.18-.35-1.99-.82h0s0,0,0,0ZM446.06,409.27l-.88.13-2.56,1.14-3.61,1.97-.19.13-1.35.93-2.5,1.72-.35.24-1.06,1.21-.96,1.1-1.99,1.82-1.89,1.27-2.06.57-2.01,1.31-.53.46.49.84.38-.31,1.09.45,1.51-.14.31-.03h.09s.23-.03.23-.03l1.05.45,1.58-.11,2.49-3.24,1.91-.67,2.11-1.68.18-.38-.2-.29-.58-.06-.52-.83-.24-.4-.17-.27.08-.12.25-.37,2.65-1.15,1.12-.49,2.56-.84.24-.08,1.74-1.12,1.24-1.25h.2s2.69-.07,2.69-.07l.06-.09.42-.59-.21-.62-2.83-.53h0s0,0,0,0ZM423.95,429.6h0s-2.36,2.28-2.36,2.28l-.09.13-1.93,2.87-.91,1.36-3.41,5.09-.28.42-1.24,1.86-.04.07-.3.45-.61,1.61-.85,1.13-.54,1.21-.5,1.12-1.56,6.96v1.37s.54,1.58.54,1.58l.49.84.3.5.09.15.09.15.18.15.6.49,2.66-.74.64-.27.26-.45,1.03.05.64-.28.28-.93.33-.23.43.2.08-.17.57-1.18,2.29-2.95,2.13-.61,1.35-1.14,1.97-2.38.7-2.42,1.95-1.68v-2.78l.1-.56v-.06s.22-1.24.22-1.24l.04-.26-.03-.25-.2-1.34.48-1.86.14-.56-1.31-2.93-.41-.23-.92-.51-.51-1.05-.11-.23-.18-.99-1.7-1.7-.62-.06h0ZM416.8,464.57l-1.5.1-2.01.14-1.12.08-.64.5-.44.85-.43.84-.34,7.78-.26,2.6-.1,1-.69,3.45-.08.38-1.06,3.85-.03.1-1.94,7.05-1.21,2.73-.26.35-.08.11-.3.4-.42.57-1,6.13-.02.23h0s-.32,3.67-.32,3.67l-.11,1.23-.49,2.86-.02.14-.52,3.06-.14,4.04-.33,1.74h40.27l-.11-.59.24-.85.52-.64.57-.24,1.13-.46.59-.24,1.52.46.28.08,1.61-.81h.09s.71-.02.71-.02l.24.51.25.12.39.19.05.03.26.13,1.16.19.44.07.4.37.42.39.18,1.15.54.17,2.79-.8,1.38-1.31.29-.28h1.67l4.18-3.23.69-1.27v-.26s-.06-.77-.06-.77l.14-.42.55-1.67.17-.52,1.97-.19.2.5.28.69.36.34,1.37-1.75v-.29s-.01-.05-.01-.05l-.59-.1-.2-.69,1.12-.8.04-.08.39-.77v-.3s.03-.23.03-.23l-.55-.59-.22-.24-.45-1.4.09-2.51v-.09s-.51-1.07-.51-1.07l-.06-.03-.63-.26-.18-.53v-.02s-.16-.45-.16-.45l-1.19-.31-4.43-.22-1.54-.08h-.19s-.03,0-.03,0l-.65.23-1.6,1.88-.82.65-1.79.07-.62-.5-.72-1.47-1.05-.72-.36-.77.06-.78-.28-.66-.62-.5-.93-.83-.09-.55,1.26-9.31v-.04s-.06-1.19-.06-1.19l-.41-.73-2.47-4.46-.74-1.91-.28-.73-.59-.58-.4-.79-1.21-2.39-.31-.62-.74-.61.04-.05.44-.59-.02-.02-.31-.4-.31-.41-.34-.44-.49.42-.43-.18-.5-.2-1.28.7-1.43-.45-.57.21-2.19.79-.54.2-.79.61-.8,1.65-1.55,1.67-.18.2-.2.22-3.21,1.38-.39.33-.14.12-1.76.26-.55.08h-.05s-2.35-.9-2.35-.9l-.63-.68-.04-.02-1.81-.82-1.33-1.08-1.8-4.21.05-.89.82-1.84v-.03s.01-.02.01-.02l-.03-.42-.06-1.01h-.02s-.37-.14-.37-.14l-.6.41-.53.36-.49-.04-.63-.32.08-.69.03-.21.02-.16h0Z"/>
    </g>
  </g>
</svg>