<?xml version="1.0" encoding="UTF-8"?>
<svg id="Laag_2" data-name="Laag 2" xmlns="http://www.w3.org/2000/svg" xmlns:xlink="http://www.w3.org/1999/xlink" viewBox="0 0 300 300">
  <defs>
    <style>
      .cls-1 {
        fill: none;
      }

      .cls-2 {
        fill: #24244e;
      }

      .cls-3 {
        fill: #9d1919;
      }

      .cls-4 {
        fill: url(#Naamloos_verloop_125);
      }

      .cls-5 {
        fill: url(#Naamloos_verloop_127);
      }

      .cls-6 {
        fill: url(#Naamloos_verloop_126);
      }

      .cls-7 {
        fill: url(#Naamloos_verloop_129);
      }

      .cls-8 {
        fill: url(#Naamloos_verloop_128);
      }
    </style>
    <linearGradient id="Naamloos_verloop_129" data-name="Naamloos verloop 129" x1="-414.38" y1="-257.08" x2="-369.42" y2="-134.99" gradientTransform="translate(642.62 427.7) scale(1.32)" gradientUnits="userSpaceOnUse">
      <stop offset="0" stop-color="#fff"/>
      <stop offset="1" stop-color="#79c9d6"/>
    </linearGradient>
    <linearGradient id="Naamloos_verloop_128" data-name="Naamloos verloop 128" x1="-370.22" y1="-276.71" x2="-323.16" y2="-141.83" gradientTransform="translate(642.62 427.7) scale(1.32)" gradientUnits="userSpaceOnUse">
      <stop offset="0" stop-color="#3080bf"/>
      <stop offset="1" stop-color="#225e8d"/>
    </linearGradient>
    <linearGradient id="Naamloos_verloop_127" data-name="Naamloos verloop 127" x1="1848.9" y1="-347" x2="1910.22" y2="-228.03" gradientTransform="translate(-2423.97 550.16) scale(1.35)" gradientUnits="userSpaceOnUse">
      <stop offset="0" stop-color="#d6111a"/>
      <stop offset=".5" stop-color="#881819"/>
      <stop offset="1" stop-color="#521019"/>
    </linearGradient>
    <linearGradient id="Naamloos_verloop_126" data-name="Naamloos verloop 126" x1="1700.43" y1="-435.32" x2="1837.11" y2="-318.58" gradientTransform="translate(-2194.92 643.95) scale(1.32)" gradientUnits="userSpaceOnUse">
      <stop offset="0" stop-color="#f5f3c0"/>
      <stop offset=".51" stop-color="#f8e45e"/>
      <stop offset=".75" stop-color="#f9d45e"/>
      <stop offset="1" stop-color="#ee8f0f"/>
    </linearGradient>
    <linearGradient id="Naamloos_verloop_125" data-name="Naamloos verloop 125" x1="-346.4" y1="-239.47" x2="-318.68" y2="-157.04" gradientTransform="translate(642.62 427.7) scale(1.32)" gradientUnits="userSpaceOnUse">
      <stop offset="0" stop-color="#187132"/>
      <stop offset="1" stop-color="#125427"/>
    </linearGradient>
  </defs>
  <g id="Laag_1-2" data-name="Laag 1">
    <g>
      <rect class="cls-1" width="300" height="300"/>
      <g>
        <path class="cls-2" d="M282.94,150c0,73.42-59.52,132.94-132.94,132.94S17.06,223.42,17.06,150c0-73.42,59.52-132.94,132.94-132.94s132.94,59.52,132.94,132.94Z"/>
        <path class="cls-7" d="M149.48,56.69c-11.35.21-22.25,2.23-32.37,5.77v72.98h32.37V56.69ZM90.6,78.44c-16.88,14.33-28.79,34.09-32.84,56.48h32.84v-56.48ZM115.96,161.33v76.3c10.39,3.53,21.57,5.55,33.22,5.76v-82.06h-33.22ZM57.66,161.54c3.37,23.84,15.52,44.93,33.15,60.01v-60.01h-33.15Z"/>
        <path class="cls-8" d="M151.84,57.63c50.16.98,90.53,41.97,90.53,92.37s-40.37,91.37-90.53,92.35V57.63Z"/>
        <path class="cls-5" d="M114.7,63.62v73.89h34.28v21.81h-34.28v77.25c-7.86-3.25-15.25-7.54-21.96-12.76v-64.49h-35.71c-.3-3.06-.45-6.14-.45-9.22,0-4.21.28-8.42.85-12.6h35.32v-61.12c6.71-5.23,14.1-9.52,21.96-12.77h0Z"/>
        <path class="cls-3" d="M175.22,88.74h31.78v4.43h-31.78v-4.43Z"/>
        <path class="cls-6" d="M150.39,10.32c-48.36-.08-95.45,24.98-121.35,69.84-38.55,66.77-15.64,152.25,51.13,190.8,66.77,38.55,152.25,15.64,190.8-51.13,38.55-66.77,15.64-152.25-51.13-190.8-21.91-12.65-45.83-18.68-69.45-18.72h0ZM150,17.05c73.38,0,132.94,59.56,132.94,132.94s-59.56,132.94-132.94,132.94S17.06,223.38,17.06,150,76.62,17.05,150,17.05ZM142,21.71v27.56h8.4v-9.28l6.78,9.28,11.05,1.62-9.57-12.37c2.1-.44,6.04-2.67,6.04-7.37,0-7.04-6.34-9.28-10.31-9.28l-12.38-.15h0ZM152.6,27.75c2.28,0,3.9,1.55,3.98,3.24.07,1.69-1.1,3.53-3.68,3.53h-2.66l-.14-6.63,2.5-.15ZM192.19,29.32c-.15,0-.3,0-.45,0-7.24.15-13.37,4.54-14.84,11.71-1.46,7.14,5.03,15.6,12.96,17.4,8.61,1.95,16.64-2.13,18.45-11.41,1.55-7.94-4.29-15.74-12.96-17.39-1.07-.2-2.13-.31-3.17-.31h0ZM90.57,36.59l-7.51,3.98,3.53,31.09,7.96-5.89-1.03-4.71,8.69-5.16,3.98,2.95,9.14-3.68-24.75-18.57h0ZM192.38,36.93c.51,0,1.03.05,1.55.15,4.18.8,6.84,4.41,6.11,8.25-.73,3.84-4.57,6.45-8.76,5.65-4.18-.8-6.25-4.85-5.51-8.68.64-3.36,3.04-5.37,6.61-5.36ZM90.87,46.46l6.33,4.86-4.57,2.65-1.76-7.51ZM230.99,50.44l-23.57,16.36,6.92,5.45,11.35-8.84-5.75,14.29,2.95,2.8,14.44-5.89-8.69,11.79,5.3,7.51,16.65-23.87-5.31-6.33-13.56,5.45,5.45-13.7-6.19-5.01ZM150,53.93c-53.01,0-96.08,43.06-96.08,96.08s43.06,96.07,96.08,96.07,96.08-43.06,96.08-96.07-43.06-96.08-96.08-96.08ZM61.99,57.07l-11.49,13.26,20.04,17.83,5.6-6.48-7.66-6.78,5.6-6.04-4.86-4.42-5.6,6.19-2.8-2.65,6.04-6.63-4.86-4.27ZM148.14,57.63v76.25h-29.89V63.22c9.35-3.42,19.41-5.38,29.89-5.58h0ZM151.84,57.63c35.18.69,65.54,21.06,80.54,50.55-.19-.26-.39-.51-.59-.76-3.68-4.57-8.31-7.59-12.25-10.13-.31-.2-.68-.3-1.05-.29-.57.02-1.11.3-1.45.77-.92,1.27-2.65,2.33-4.91,2.33h-17.02c-.85,0-1.67.23-2.36.74-.7.51-1.32,1.41-1.32,2.48v1.94s-.02.04-.1.1c-.17.13-.49.26-.86.26h-14.66v-1.22s.01-.02.01-.02c0-2.23-1.14-4.26-2.9-5.54l-.03-.02h-.02s-6.41-4.36-6.41-4.36h0s0-.01,0-.01c-1.02-.67-2.16-.99-3.24-.97-.35,0-.71.05-1.05.14-1.35.33-2.45,1.19-3.16,2.28-1.42,2.18-1.1,5.63,1.64,7.59l3.01,2.3.02.02h.02c.63.47.98,1.01.98,1.16l-.07,4.87v.03c0,.06,0,.07-.01.1-.08,0-.25-.02-.58-.13-.71-.23-1.25-.53-2.09-.85-.84-.32-1.91-.57-3.3-.57-2.44,0-4.44,1.1-5.69,2.56-.43.5-.79,1.04-1.08,1.63v-56.96h0ZM114.56,64.66v72.91h33.58v21.52h-33.58v76.23c-7.71-3.21-14.95-7.44-21.52-12.6v-63.63h-34.99c-.3-3.02-.44-6.06-.44-9.09,0-4.16.28-8.31.83-12.43h34.6v-60.31c6.57-5.15,13.81-9.39,21.52-12.6ZM177.19,78.86c-1.51,0-2.73,1.22-2.73,2.73s1.23,2.73,2.73,2.73,2.73-1.22,2.73-2.73-1.22-2.73-2.73-2.73ZM184.15,78.86c-1.51,0-2.73,1.22-2.73,2.73s1.22,2.73,2.73,2.73,2.73-1.22,2.73-2.73-1.22-2.73-2.73-2.73ZM191.11,78.86c-1.51,0-2.73,1.22-2.73,2.73s1.23,2.73,2.73,2.73,2.73-1.22,2.73-2.73-1.22-2.73-2.73-2.73ZM198.07,78.86c-1.51,0-2.73,1.22-2.73,2.73s1.23,2.73,2.73,2.73,2.73-1.22,2.73-2.73-1.22-2.73-2.73-2.73ZM205.04,78.86c-1.51,0-2.73,1.22-2.73,2.73s1.22,2.73,2.73,2.73,2.73-1.22,2.73-2.73-1.22-2.73-2.73-2.73ZM89.35,80.32v53.56h-30.33c3.74-21.23,14.74-39.97,30.33-53.56ZM175.22,86.01v4.43h31.78v-4.43h-31.78ZM175.22,91.98v4.43h31.78v-4.43h-31.78ZM263.7,91.99l-25.05,10.17,7.07,16.5,6.63-2.8-3.68-8.4,3.09-1.47,3.54,8.11,6.04-2.51-3.39-7.81,2.95-1.33,3.53,8.4,6.19-2.5-6.92-16.36ZM34.88,95.09l-3.53,7.81,24.46,11.35,7.81-15.92-6.04-3.09-4.72,8.25-17.98-8.4ZM163.31,97.15c.29-.02.63.06,1.09.36l6.39,4.34c.8.58,1.33,1.66,1.33,2.52l-.07,5.99v.02c0,2.36,1.19,4.37,2.73,5.77.91.83,1.95,1.48,3.06,1.88-1.11.4-2.15,1.05-3.06,1.88-1.54,1.4-2.73,3.41-2.73,5.77v.02l.07,6.01c0,.87-.58,1.95-1.38,2.54l-6.36,4.31c-.62.41-1,.4-1.35.31-.36-.09-.71-.34-.95-.71-.48-.73-.68-1.58.69-2.56l.02-.02.02-.02,3.06-2.33c1.03-.74,2.48-1.98,2.48-4.12v-.03l-.07-4.9c0-1.05-.38-2.23-1.43-3.03-1.06-.8-2.57-.9-4.01-.42-1.03.34-1.7.7-2.24.91-.54.2-1,.33-1.99.33-1.39,0-2.25-.52-2.89-1.27-.64-.75-.97-1.8-.97-2.48v-.37c0-.69.33-1.73.97-2.48.64-.75,1.5-1.27,2.89-1.27.99,0,1.45.12,1.99.33.54.2,1.21.57,2.24.91,1.44.47,2.95.37,4.01-.42,1.06-.8,1.43-2.01,1.43-3.05l.07-4.87v-.03c0-2.14-1.49-3.41-2.53-4.15l-3.01-2.3-.02-.02-.02-.02c-1.38-.98-1.17-1.83-.69-2.56.24-.36.59-.62.95-.71.09-.02.18-.04.28-.04ZM218.84,101.25c3.54,2.31,7.2,4.92,10.07,8.48,3.22,4,5.5,9.15,5.5,16.73,0,14.25-13.31,25.7-26.11,25.7h-30.94c-.88,0-1.78.4-2.32,1.03-.54.62-.76,1.37-.76,2.09,0,.72.24,1.45.78,2.06.54.61,1.42,1.02,2.3,1.02h30.21c10.86,0,16.65,6.99,16.65,15.24s-6.01,15.6-16.58,15.6h-31.13c-.75,0-1.56.34-2.05.89-.49.55-.7,1.22-.7,1.86,0,.64.21,1.3.7,1.84.49.54,1.29.89,2.05.89h23.17c4.99,0,9.23,4.86,9.23,9.5,0,2.35-.67,4.53-2.15,6.11-1.48,1.58-3.84,2.73-7.82,2.73h-13.89c-.55,0-1.14.12-1.67.51s-.97,1.13-.95,1.89c.02.77.46,1.43.98,1.79.51.37,1.09.5,1.64.5h9.21c1.3,0,2.26.57,3.02,1.49.76.92,1.2,2.22,1.2,3.25,0,1.29-.48,2.48-1.32,3.22-.55.48-1.3.82-2.33.9.05-.53.06-1.14-.3-1.86-.42-.86-1.6-1.54-2.6-1.54h-5.53c-1.93,0-4.05-.73-5.62-2.1-1.57-1.37-2.65-3.31-2.65-6.11,0-2.57,1.08-4.41,2.6-5.72,1.53-1.32,3.55-2,5.04-2h13.59c.61,0,1.21-.11,1.78-.45.57-.35,1.16-1.08,1.16-1.99,0-.91-.59-1.64-1.16-1.99-.57-.35-1.16-.45-1.78-.45h-21.29c-8.19,0-12.75-5.8-12.75-12.05,0-5.58,4.78-12.18,12.01-12.18h31.68c.86,0,1.75-.4,2.28-1.02.53-.61.73-1.34.73-2.04,0-.7-.22-1.41-.74-2.02-.52-.6-1.4-1.01-2.26-1.01h-32.27c-9.02,0-16.16-6.69-16.16-16.79,0-8.44,6.9-17.09,17.11-17.09h29.25c1.59,0,3.03-.72,3.9-1.76.88-1.05,1.27-2.34,1.27-3.61,0-1.27-.37-2.57-1.25-3.63-.88-1.05-2.32-1.77-3.93-1.77h-31.2l-.02-1.75c0-1.08.59-2.17,1.53-3.03.94-.86,2.21-1.35,2.98-1.35h17.49c.68,0,1.35-.16,2-.61.66-.45,1.27-1.43,1.27-2.65s-.37-1.89-1.27-2.65c-.66-.45-1.33-.61-2-.61h-17.49c-.78,0-2.04-.49-2.98-1.35-.94-.86-1.53-1.96-1.53-3.04v-1.07h21.36c1.18,0,2.26-.38,3.11-1.03.85-.65,1.54-1.65,1.54-2.91v-1.58h10.38c2.69,0,5.03-1,6.71-2.54h0ZM237.67,120.83c3.05,9.17,4.7,18.98,4.7,29.18,0,32.27-16.55,60.67-41.62,77.19.98-1.39,1.44-3.07,1.44-4.73,0-1.98-.71-3.98-2.04-5.6-.05-.06-.12-.12-.17-.18,4.2-.2,7.4-1.63,9.49-3.85,2.25-2.41,3.15-5.57,3.15-8.63,0-4.52-2.53-8.88-6.37-11.28h1.4c12.38,0,20.27-9.35,20.27-19.3,0-8.43-5.49-15.99-14.61-18.24,13.1-2.46,24.81-14.25,24.81-28.91,0-2.01-.16-3.88-.44-5.64h0ZM151.84,121.48c.29.59.65,1.13,1.08,1.63,1.25,1.46,3.26,2.56,5.69,2.56,1.38,0,2.46-.25,3.3-.57.84-.32,1.38-.62,2.09-.85.34-.11.5-.13.58-.13,0,.02.01.04.01.1v.03l.07,4.9c0,.15-.35.67-.98,1.12h-.02s-.02.03-.02.03l-3.05,2.34c-2.74,1.96-3.02,5.37-1.59,7.55.61.93,1.49,1.68,2.58,2.09-2.96,3.71-4.65,8.33-4.65,12.99,0,10.26,6.66,18.04,15.48,19.99-6.61,2.26-10.75,8.86-10.75,15.07,0,8.13,6.44,15.74,16.45,15.74h.73c-.16.13-.33.25-.48.38-2.22,1.91-3.88,4.87-3.88,8.52s1.61,6.89,3.91,8.9c2.3,2.01,5.23,3.01,8.06,3.01h4.63c-.1.34-.2.65-.2.65-.41.93.01,2.03.95,2.44.12.05.25.1.38.12,1.32.26,2.57.28,3.7.09-13.02,7.47-28.03,11.85-44.04,12.17v-120.87ZM52.27,124.7l-28.73,9.43-1.03,8.54,27.26,14.73-.15-9.87-4.12-1.91.62-10.15,4.83-1.21,1.33-9.58h0ZM263.55,125.59c-9.62,0-14.44,7.88-14.44,15.76s5.7,15.77,14.44,15.77c8.73,0,14.59-7.15,14.59-15.77s-5.12-15.76-14.59-15.76ZM175.81,131.12h31.16c.63,0,.86.17,1.09.44.23.27.4.74.39,1.24,0,.5-.18.97-.41,1.25-.23.28-.47.44-1.07.44h-29.25c-.89,0-1.76.06-2.61.16.45-.9.7-1.9.7-2.95v-.59ZM263.74,134.13c4.24,0,6.71,3.96,6.71,7.22s-2.56,7.22-6.71,7.22-6.56-3.5-6.56-7.22,2.32-7.22,6.56-7.22ZM39.65,137.1l-.35,5.65-7.81-3.62,8.16-2.04ZM58.49,162.79h30.86v56.88c-16.41-14.29-27.73-34.28-30.86-56.88ZM118.25,162.79h29.89v79.56c-10.48-.21-20.54-2.16-29.89-5.58v-73.98Z"/>
        <path class="cls-3" d="M163.31,97.15c.29-.02.63.06,1.09.36l6.39,4.34c.8.58,1.33,1.66,1.33,2.52l-.07,5.99v.02c0,2.36,1.19,4.37,2.73,5.77.91.83,1.95,1.48,3.06,1.88-1.11.4-2.15,1.05-3.06,1.88-1.54,1.4-2.73,3.41-2.73,5.77v.02l.07,6.01c0,.87-.58,1.95-1.38,2.54l-6.36,4.31c-.62.41-1,.4-1.35.31-.36-.09-.71-.34-.95-.71-.48-.73-.68-1.58.69-2.56l.02-.02.02-.02,3.06-2.33c1.03-.74,2.48-1.98,2.48-4.12v-.03l-.07-4.9c0-1.05-.38-2.23-1.43-3.03-1.06-.8-2.57-.9-4.01-.42-1.03.34-1.7.7-2.24.91-.54.2-1,.33-1.99.33-1.39,0-2.25-.52-2.89-1.27-.64-.75-.97-1.8-.97-2.48v-.37c0-.69.33-1.73.97-2.48.64-.75,1.5-1.27,2.89-1.27.99,0,1.45.12,1.99.33.54.2,1.21.57,2.24.91,1.44.47,2.95.37,4.01-.42,1.06-.8,1.43-2.01,1.43-3.05l.07-4.87v-.03c0-2.14-1.49-3.41-2.53-4.15l-3.01-2.3-.02-.02-.02-.02c-1.38-.98-1.17-1.83-.69-2.56.24-.36.59-.62.95-.71.09-.02.18-.04.28-.04Z"/>
        <path class="cls-4" d="M218.84,101.25c3.54,2.31,7.2,4.92,10.07,8.48,3.22,4,5.5,9.15,5.5,16.73,0,14.25-13.31,25.7-26.11,25.7h-30.94c-.88,0-1.78.4-2.32,1.03-.54.62-.76,1.37-.76,2.09,0,.72.24,1.45.78,2.06.54.61,1.42,1.02,2.3,1.02h30.21c10.86,0,16.65,6.99,16.65,15.24s-6.01,15.6-16.58,15.6h-31.13c-.75,0-1.56.34-2.05.89-.49.55-.7,1.22-.7,1.86,0,.64.21,1.3.7,1.84.49.54,1.29.89,2.05.89h23.17c4.99,0,9.23,4.86,9.23,9.5,0,2.35-.67,4.53-2.15,6.11-1.48,1.58-3.84,2.73-7.82,2.73h-13.89c-.55,0-1.14.12-1.67.51s-.97,1.13-.95,1.89c.02.77.46,1.43.98,1.79.51.37,1.09.5,1.64.5h9.21c1.3,0,2.26.57,3.02,1.49.76.92,1.2,2.22,1.2,3.25,0,1.29-.48,2.48-1.32,3.22-.55.48-1.3.82-2.33.9.05-.53.06-1.14-.3-1.86-.42-.86-1.6-1.54-2.6-1.54h-5.53c-1.93,0-4.05-.73-5.62-2.1-1.57-1.37-2.65-3.31-2.65-6.11,0-2.57,1.08-4.41,2.6-5.72,1.53-1.32,3.55-2,5.04-2h13.59c.61,0,1.21-.11,1.78-.45.57-.35,1.16-1.08,1.16-1.99,0-.91-.59-1.64-1.16-1.99-.57-.35-1.16-.45-1.78-.45h-21.29c-8.19,0-12.75-5.8-12.75-12.05,0-5.58,4.78-12.18,12.01-12.18h31.68c.86,0,1.75-.4,2.28-1.02.53-.61.73-1.34.73-2.04,0-.7-.22-1.41-.74-2.02-.52-.6-1.4-1.01-2.26-1.01h-32.27c-9.02,0-16.16-6.69-16.16-16.79,0-8.44,6.9-17.09,17.11-17.09h29.25c1.59,0,3.03-.72,3.9-1.76.88-1.05,1.27-2.34,1.27-3.61,0-1.27-.37-2.57-1.25-3.63-.88-1.05-2.32-1.77-3.93-1.77h-31.2l-.02-1.75c0-1.08.59-2.17,1.53-3.03.94-.86,2.21-1.35,2.98-1.35h17.49c.68,0,1.35-.16,2-.61.66-.45,1.27-1.43,1.27-2.65s-.37-1.89-1.27-2.65c-.66-.45-1.33-.61-2-.61h-17.49c-.78,0-2.04-.49-2.98-1.35-.94-.86-1.53-1.96-1.53-3.04v-1.07h21.36c1.18,0,2.26-.38,3.11-1.03.85-.65,1.54-1.65,1.54-2.91v-1.58h10.38c2.69,0,5.03-1,6.71-2.54h0Z"/>
      </g>
    </g>
  </g>
</svg>