<?xml version="1.0" encoding="UTF-8"?>
<svg id="Laag_2" data-name="Laag 2" xmlns="http://www.w3.org/2000/svg" xmlns:xlink="http://www.w3.org/1999/xlink" viewBox="0 0 300 300">
  <defs>
    <style>
      .cls-1 {
        fill: none;
      }

      .cls-2 {
        fill: #fff;
        stroke: #fff;
        stroke-width: .28px;
      }

      .cls-2, .cls-3, .cls-4, .cls-5, .cls-6, .cls-7, .cls-8, .cls-9, .cls-10 {
        stroke-miterlimit: 11.34;
      }

      .cls-2, .cls-3, .cls-4, .cls-5, .cls-6, .cls-7, .cls-8, .cls-9, .cls-10, .cls-11 {
        fill-rule: evenodd;
      }

      .cls-3 {
        fill: url(#Naamloos_verloop_5);
      }

      .cls-3, .cls-4, .cls-5, .cls-6, .cls-7, .cls-8, .cls-9, .cls-10 {
        stroke: #010101;
        stroke-width: .22px;
      }

      .cls-4 {
        fill: url(#Naamloos_verloop_9);
      }

      .cls-12 {
        clip-path: url(#clippath-1);
      }

      .cls-13 {
        clip-path: url(#clippath-2);
      }

      .cls-5 {
        fill: url(#Naamloos_verloop_9-2);
      }

      .cls-6 {
        fill: url(#Naamloos_verloop_9-3);
      }

      .cls-7 {
        fill: url(#Naamloos_verloop_9-4);
      }

      .cls-8 {
        fill: url(#Naamloos_verloop_5-3);
      }

      .cls-9 {
        fill: url(#Naamloos_verloop_5-4);
      }

      .cls-10 {
        fill: url(#Naamloos_verloop_5-2);
      }

      .cls-11, .cls-14 {
        fill: #e62532;
      }

      .cls-15 {
        clip-path: url(#clippath);
      }
    </style>
    <linearGradient id="Naamloos_verloop_9" data-name="Naamloos verloop 9" x1="7028.81" y1="8201.45" x2="7029.15" y2="8201.1" gradientTransform="translate(-1992224.87 2324888.13) scale(283.46 -283.46)" gradientUnits="userSpaceOnUse">
      <stop offset="0" stop-color="#101010"/>
      <stop offset=".9" stop-color="#fff"/>
      <stop offset="1" stop-color="#fff"/>
    </linearGradient>
    <linearGradient id="Naamloos_verloop_5" data-name="Naamloos verloop 5" x1="7028.81" y1="8201.45" x2="7029.15" y2="8201.1" gradientTransform="translate(-1992224.87 2324888.13) scale(283.46 -283.46)" gradientUnits="userSpaceOnUse">
      <stop offset="0" stop-color="#fff"/>
      <stop offset=".1" stop-color="#fff"/>
      <stop offset="1" stop-color="#101010"/>
    </linearGradient>
    <clipPath id="clippath">
      <path class="cls-1" d="M130.79,67.01v100.47h80.77v-19.7h-36.45v-62.06h36.45v-18.72h-80.77ZM211.56,85.73v62.06h29.55v-62.06h-29.55Z"/>
    </clipPath>
    <linearGradient id="Naamloos_verloop_9-2" data-name="Naamloos verloop 9" x1="7029.21" x2="7029.56" gradientTransform="translate(-1992400.62 2324888.13) scale(283.46 -283.46)" xlink:href="#Naamloos_verloop_9"/>
    <linearGradient id="Naamloos_verloop_5-2" data-name="Naamloos verloop 5" x1="7029.21" x2="7029.56" gradientTransform="translate(-1992400.62 2324888.13) scale(283.46 -283.46)" xlink:href="#Naamloos_verloop_5"/>
    <clipPath id="clippath-1">
      <path class="cls-1" d="M69.72,67.01v100.47h80.77v-19.7h-36.45v-62.06h36.45v-18.72h-80.77ZM150.49,85.73v62.06h29.55v-62.06h-29.55Z"/>
    </clipPath>
    <linearGradient id="Naamloos_verloop_9-3" data-name="Naamloos verloop 9" x1="7029.62" x2="7029.96" gradientTransform="translate(-1992576.37 2324888.13) scale(283.46 -283.46)" xlink:href="#Naamloos_verloop_9"/>
    <linearGradient id="Naamloos_verloop_5-3" data-name="Naamloos verloop 5" x1="7029.62" x2="7029.96" gradientTransform="translate(-1992576.37 2324888.13) scale(283.46 -283.46)" xlink:href="#Naamloos_verloop_5"/>
    <clipPath id="clippath-2">
      <path class="cls-1" d="M8.65,67.01v100.47h80.77v-19.7h-36.45v-62.06h36.45v-18.72H8.65ZM89.42,85.73v62.06h29.55v-62.06h-29.55Z"/>
    </clipPath>
    <linearGradient id="Naamloos_verloop_9-4" data-name="Naamloos verloop 9" x1="7030.02" y1="8201.45" x2="7030.37" y2="8201.1" gradientTransform="translate(-1992752.12 2324888.13) scale(283.46 -283.46)" xlink:href="#Naamloos_verloop_9"/>
    <linearGradient id="Naamloos_verloop_5-4" data-name="Naamloos verloop 5" x1="7030.02" y1="8201.45" x2="7030.37" y2="8201.1" gradientTransform="translate(-1992752.12 2324888.13) scale(283.46 -283.46)" xlink:href="#Naamloos_verloop_5"/>
  </defs>
  <g id="Laag_1-2" data-name="Laag 1">
    <g>
      <rect class="cls-1" width="300" height="300"/>
      <g>
        <g id="AudiRing">
          <path id="InnerRing" class="cls-4" d="M192.85,116.76c0-27.2,22.06-49.25,49.26-49.25,27.2,0,49.25,22.06,49.25,49.26s-22.06,49.25-49.26,49.25c-27.2,0-49.24-22.05-49.25-49.25M203.68,116.77c0-21.22,17.2-38.41,38.42-38.41,21.22,0,38.41,17.2,38.41,38.42,0,21.22-17.2,38.41-38.42,38.41-21.21,0-38.41-17.2-38.41-38.41"/>
          <path id="OuterRing" class="cls-3" d="M192.85,116.76c0-27.2,22.06-49.25,49.26-49.25,27.2,0,49.25,22.06,49.25,49.26s-22.06,49.25-49.26,49.25c-27.2,0-49.24-22.05-49.25-49.25M198.76,116.77c0-23.94,19.41-43.34,43.35-43.34,23.94,0,43.34,19.41,43.34,43.35s-19.41,43.34-43.35,43.34c-23.93,0-43.33-19.4-43.34-43.34"/>
          <path id="RingFront" class="cls-2" d="M197.77,116.76c0-24.48,19.85-44.32,44.33-44.32,24.48,0,44.32,19.85,44.32,44.33,0,24.48-19.85,44.32-44.33,44.32-24.48,0-44.32-19.84-44.32-44.32M198.86,116.77c0-23.88,19.37-43.24,43.25-43.24,23.88,0,43.24,19.37,43.24,43.25s-19.37,43.24-43.25,43.24c-23.88,0-43.24-19.36-43.24-43.24"/>
        </g>
        <g class="cls-15">
          <g id="AudiRing-2" data-name="AudiRing">
            <path id="InnerRing-2" data-name="InnerRing" class="cls-5" d="M131.78,116.76c0-27.2,22.06-49.25,49.26-49.25,27.2,0,49.25,22.06,49.25,49.26s-22.06,49.25-49.26,49.25c-27.2,0-49.24-22.05-49.25-49.25M142.61,116.77c0-21.22,17.2-38.41,38.42-38.41,21.22,0,38.41,17.2,38.41,38.42,0,21.22-17.2,38.41-38.42,38.41-21.21,0-38.41-17.2-38.41-38.41"/>
            <path id="OuterRing-2" data-name="OuterRing" class="cls-10" d="M131.78,116.76c0-27.2,22.06-49.25,49.26-49.25,27.2,0,49.25,22.06,49.25,49.26s-22.06,49.25-49.26,49.25c-27.2,0-49.24-22.05-49.25-49.25M137.69,116.77c0-23.94,19.41-43.34,43.35-43.34,23.94,0,43.34,19.41,43.34,43.35s-19.41,43.34-43.35,43.34c-23.93,0-43.33-19.4-43.34-43.34"/>
            <path id="RingFront-2" data-name="RingFront" class="cls-2" d="M136.7,116.76c0-24.48,19.85-44.32,44.33-44.32,24.48,0,44.32,19.85,44.32,44.33,0,24.48-19.85,44.32-44.33,44.32-24.48,0-44.32-19.84-44.32-44.32M137.79,116.77c0-23.88,19.37-43.24,43.25-43.24,23.88,0,43.24,19.37,43.24,43.25s-19.37,43.24-43.25,43.24c-23.88,0-43.24-19.36-43.24-43.24"/>
          </g>
        </g>
        <g class="cls-12">
          <g id="AudiRing-3" data-name="AudiRing">
            <path id="InnerRing-3" data-name="InnerRing" class="cls-6" d="M70.71,116.76c0-27.2,22.06-49.25,49.26-49.25,27.2,0,49.25,22.06,49.25,49.26s-22.06,49.25-49.26,49.25c-27.2,0-49.24-22.05-49.25-49.25M81.54,116.77c0-21.22,17.2-38.41,38.42-38.41,21.22,0,38.41,17.2,38.41,38.42,0,21.22-17.2,38.41-38.42,38.41-21.21,0-38.41-17.2-38.41-38.41"/>
            <path id="OuterRing-3" data-name="OuterRing" class="cls-8" d="M70.71,116.76c0-27.2,22.06-49.25,49.26-49.25,27.2,0,49.25,22.06,49.25,49.26s-22.06,49.25-49.26,49.25c-27.2,0-49.24-22.05-49.25-49.25M76.62,116.77c0-23.94,19.41-43.34,43.35-43.34,23.94,0,43.34,19.41,43.34,43.35s-19.41,43.34-43.35,43.34c-23.93,0-43.33-19.4-43.34-43.34"/>
            <path id="RingFront-3" data-name="RingFront" class="cls-2" d="M75.63,116.76c0-24.48,19.85-44.32,44.33-44.32,24.48,0,44.32,19.85,44.32,44.33,0,24.48-19.85,44.32-44.33,44.32-24.48,0-44.32-19.84-44.32-44.32M76.71,116.77c0-23.88,19.37-43.24,43.25-43.24,23.88,0,43.24,19.37,43.24,43.25s-19.37,43.24-43.25,43.24c-23.88,0-43.24-19.36-43.24-43.24"/>
          </g>
        </g>
        <g class="cls-13">
          <g id="AudiRing-4" data-name="AudiRing">
            <path id="InnerRing-4" data-name="InnerRing" class="cls-7" d="M9.63,116.76c0-27.2,22.06-49.25,49.26-49.25,27.2,0,49.25,22.06,49.25,49.26s-22.06,49.25-49.26,49.25c-27.2,0-49.24-22.05-49.25-49.25M20.47,116.77c0-21.22,17.2-38.41,38.42-38.41,21.22,0,38.41,17.2,38.41,38.42,0,21.22-17.2,38.41-38.42,38.41-21.21,0-38.41-17.2-38.41-38.41"/>
            <path id="OuterRing-4" data-name="OuterRing" class="cls-9" d="M9.63,116.76c0-27.2,22.06-49.25,49.26-49.25,27.2,0,49.25,22.06,49.25,49.26s-22.06,49.25-49.26,49.25c-27.2,0-49.24-22.05-49.25-49.25M15.54,116.77c0-23.94,19.41-43.34,43.35-43.34,23.94,0,43.34,19.41,43.34,43.35s-19.41,43.34-43.35,43.34c-23.93,0-43.33-19.4-43.34-43.34"/>
            <path id="RingFront-4" data-name="RingFront" class="cls-2" d="M14.56,116.76c0-24.48,19.85-44.32,44.33-44.32,24.48,0,44.32,19.85,44.32,44.33,0,24.48-19.85,44.32-44.33,44.32-24.48,0-44.32-19.84-44.32-44.32M15.64,116.77c0-23.88,19.37-43.24,43.25-43.24,23.88,0,43.24,19.37,43.24,43.25s-19.37,43.24-43.25,43.24c-23.88,0-43.24-19.36-43.24-43.24"/>
          </g>
        </g>
        <path id="A" class="cls-11" d="M53.96,231.51h-16.75l29.55-44.33-5.91-6.9h19.7l34.48,51.22h-17.73l-4.93-7.88h-33.49l-4.93,7.88ZM86.47,213.78l-10.84-17.73-10.84,17.73h21.67Z"/>
        <path id="U" class="cls-11" d="M145.57,214.77v-20.19h15.27v22.66c-.04,12.78-12.37,15.76-24.13,15.76s-24.1-5.08-24.13-15.76v-22.66h15.27v20.19c0,5.42,2.83,8.37,8.87,8.37s8.87-2.58,8.87-8.37Z"/>
        <path id="D" class="cls-11" d="M184.97,180.29h18.22l12.31,15.76c4.23,5.41,7.35,10.36,7.39,16.75.08,14.28-13.79,20.19-29.06,20.19-17.24,0-29.55-7.39-29.55-20.19,0-11.82,11.82-19.21,26.6-19.21,3.45,0,5.42.49,7.88,1.48l-13.79-14.78ZM193.83,202.95c7.89,0,14.28,4.52,14.28,10.1s-6.4,10.1-14.28,10.1-14.28-4.52-14.28-10.1,6.4-10.1,14.28-10.1Z"/>
        <rect id="I" class="cls-14" x="226.83" y="194.57" width="15.76" height="36.94"/>
      </g>
    </g>
  </g>
</svg>