<?xml version="1.0" encoding="UTF-8"?>
<svg id="Laag_2" data-name="Laag 2" xmlns="http://www.w3.org/2000/svg" xmlns:xlink="http://www.w3.org/1999/xlink" viewBox="0 0 300 300">
  <defs>
    <style>
      .cls-1 {
        fill: none;
      }

      .cls-2 {
        fill: #010101;
      }

      .cls-3 {
        fill: url(#Naamloos_verloop_15);
      }

      .cls-4 {
        fill: url(#Naamloos_verloop_14);
      }

      .cls-5 {
        fill: url(#Naamloos_verloop_17);
      }

      .cls-6 {
        fill: url(#Naamloos_verloop_16);
      }

      .cls-7 {
        fill: url(#Naamloos_verloop_11);
      }

      .cls-8 {
        fill: url(#Naamloos_verloop_10);
      }

      .cls-9 {
        fill: #c3d8e8;
      }

      .cls-10 {
        fill: url(#Naamloos_verloop_11-2);
      }

      .cls-11 {
        fill: url(#Naamloos_verloop_17-2);
      }

      .cls-12 {
        fill: url(#Naamloos_verloop_17-3);
      }

      .cls-13 {
        fill: url(#Naamloos_verloop_10-2);
      }

      .cls-14 {
        fill: #13404f;
      }

      .cls-15 {
        fill: url(#Naamloos_verloop_6-3);
      }

      .cls-16 {
        fill: url(#Naamloos_verloop_6-2);
      }

      .cls-17 {
        fill: url(#Naamloos_verloop_2);
      }

      .cls-18 {
        fill: url(#Naamloos_verloop_6);
      }

      .cls-19 {
        fill: url(#Naamloos_verloop_4);
      }

      .cls-20 {
        fill: url(#Naamloos_verloop_8);
      }

      .cls-21 {
        fill: url(#Naamloos_verloop_3);
      }

      .cls-22 {
        fill: #343434;
      }
    </style>
    <linearGradient id="Naamloos_verloop_4" data-name="Naamloos verloop 4" x1="-10.61" y1="15576.36" x2="286.65" y2="15289.11" gradientTransform="translate(0 15571.16) scale(1 -1)" gradientUnits="userSpaceOnUse">
      <stop offset="0" stop-color="#e0f2fd"/>
      <stop offset=".1" stop-color="#d7ebf6"/>
      <stop offset=".27" stop-color="#bfd0d9"/>
      <stop offset=".49" stop-color="#98a5ad"/>
      <stop offset=".75" stop-color="#656c6f"/>
      <stop offset="1" stop-color="#2b2c2c"/>
    </linearGradient>
    <radialGradient id="Naamloos_verloop_2" data-name="Naamloos verloop 2" cx="8.15" cy="15551.99" fx="8.15" fy="15551.99" r="199.04" gradientTransform="translate(0 15571.16) scale(1 -1)" gradientUnits="userSpaceOnUse">
      <stop offset="0" stop-color="#fff"/>
      <stop offset=".31" stop-color="#a8a8a8"/>
      <stop offset=".65" stop-color="#50504f"/>
      <stop offset=".89" stop-color="#161617"/>
      <stop offset="1" stop-color="#010101"/>
    </radialGradient>
    <linearGradient id="Naamloos_verloop_3" data-name="Naamloos verloop 3" x1="15507.38" y1="-78.57" x2="15696.71" y2="-261.52" gradientTransform="translate(15759.68 327.42) rotate(-180) scale(1 -1)" gradientUnits="userSpaceOnUse">
      <stop offset="0" stop-color="#e0f2fd"/>
      <stop offset=".09" stop-color="#d7ebf6"/>
      <stop offset=".23" stop-color="#bed0d9"/>
      <stop offset=".42" stop-color="#96a4ac"/>
      <stop offset=".65" stop-color="#60696e"/>
      <stop offset=".91" stop-color="#1b1e1f"/>
      <stop offset="1" stop-color="#010101"/>
    </linearGradient>
    <radialGradient id="Naamloos_verloop_6" data-name="Naamloos verloop 6" cx="-27.59" cy="15572.26" fx="-27.59" fy="15572.26" r="478.28" gradientTransform="translate(0 15571.16) scale(1 -1)" gradientUnits="userSpaceOnUse">
      <stop offset="0" stop-color="#fff"/>
      <stop offset=".31" stop-color="#fefefe"/>
      <stop offset=".45" stop-color="#f6f6f6"/>
      <stop offset=".56" stop-color="#e9e9e9"/>
      <stop offset=".65" stop-color="#d7d8d8"/>
      <stop offset=".72" stop-color="#bfbebf"/>
      <stop offset=".79" stop-color="#a2a2a1"/>
      <stop offset=".86" stop-color="#808181"/>
      <stop offset=".92" stop-color="#585858"/>
      <stop offset=".97" stop-color="#2b2c2c"/>
      <stop offset="1" stop-color="#141414"/>
    </radialGradient>
    <radialGradient id="Naamloos_verloop_6-2" data-name="Naamloos verloop 6" cx="-27.62" cy="15572.26" fx="-27.62" fy="15572.26" r="478.32" xlink:href="#Naamloos_verloop_6"/>
    <radialGradient id="Naamloos_verloop_6-3" data-name="Naamloos verloop 6" cx="-27.64" cy="15572.4" fx="-27.64" fy="15572.4" r="478.68" xlink:href="#Naamloos_verloop_6"/>
    <radialGradient id="Naamloos_verloop_11" data-name="Naamloos verloop 11" cx="58.06" cy="15505.95" fx="58.06" fy="15505.95" r="129.01" gradientTransform="translate(0 15571.16) scale(1 -1)" gradientUnits="userSpaceOnUse">
      <stop offset="0" stop-color="#e7e6e6"/>
      <stop offset=".1" stop-color="#d6d7d7"/>
      <stop offset=".31" stop-color="#aeadad"/>
      <stop offset=".59" stop-color="#6d6d6d"/>
      <stop offset=".93" stop-color="#121212"/>
      <stop offset="1" stop-color="#010101"/>
    </radialGradient>
    <radialGradient id="Naamloos_verloop_8" data-name="Naamloos verloop 8" cx="93.35" cy="15488.6" fx="93.35" fy="15488.6" r="187.61" gradientTransform="translate(0 15571.16) scale(1 -1)" gradientUnits="userSpaceOnUse">
      <stop offset="0" stop-color="#fff"/>
      <stop offset=".34" stop-color="#fefefe"/>
      <stop offset=".48" stop-color="#f6f6f6"/>
      <stop offset=".58" stop-color="#eaeaea"/>
      <stop offset=".67" stop-color="#d8d8d8"/>
      <stop offset=".74" stop-color="#c3c2c2"/>
      <stop offset=".8" stop-color="#a6a6a6"/>
      <stop offset=".86" stop-color="#858585"/>
      <stop offset=".91" stop-color="#60605f"/>
      <stop offset=".95" stop-color="#404040"/>
      <stop offset=".96" stop-color="#404040"/>
      <stop offset="1" stop-color="#404040"/>
      <stop offset="1" stop-color="#010101"/>
    </radialGradient>
    <radialGradient id="Naamloos_verloop_10" data-name="Naamloos verloop 10" cx="38.26" cy="15559.72" fx="38.26" fy="15559.72" r="332.26" gradientTransform="translate(0 15571.16) scale(1 -1)" gradientUnits="userSpaceOnUse">
      <stop offset=".17" stop-color="#fff"/>
      <stop offset=".2" stop-color="#e0eff7"/>
      <stop offset=".24" stop-color="#b3d9eb"/>
      <stop offset=".29" stop-color="#8cc5e2"/>
      <stop offset=".34" stop-color="#6cb5da"/>
      <stop offset=".38" stop-color="#53aad5"/>
      <stop offset=".44" stop-color="#43a0d0"/>
      <stop offset=".49" stop-color="#389bcd"/>
      <stop offset=".56" stop-color="#39c"/>
      <stop offset=".61" stop-color="#3496c8"/>
      <stop offset=".66" stop-color="#338fbc"/>
      <stop offset=".7" stop-color="#3480a9"/>
      <stop offset=".75" stop-color="#316e8d"/>
      <stop offset=".8" stop-color="#2e5569"/>
      <stop offset=".85" stop-color="#2a373d"/>
      <stop offset=".87" stop-color="#2a292a"/>
    </radialGradient>
    <radialGradient id="Naamloos_verloop_10-2" data-name="Naamloos verloop 10" cx="38.26" cy="15559.72" fx="38.26" fy="15559.72" r="332.25" xlink:href="#Naamloos_verloop_10"/>
    <radialGradient id="Naamloos_verloop_11-2" data-name="Naamloos verloop 11" cx="59.83" cy="15504.33" fx="59.83" fy="15504.33" r="126.53" xlink:href="#Naamloos_verloop_11"/>
    <linearGradient id="Naamloos_verloop_17" data-name="Naamloos verloop 17" x1="133.41" y1="15535.92" x2="256.8" y2="15416.68" gradientTransform="translate(0 15571.16) scale(1 -1)" gradientUnits="userSpaceOnUse">
      <stop offset="0" stop-color="#f0f3fb"/>
      <stop offset=".11" stop-color="#ebeffa"/>
      <stop offset=".25" stop-color="#dcdfea"/>
      <stop offset=".4" stop-color="#c4c8d0"/>
      <stop offset=".57" stop-color="#a3a4ac"/>
      <stop offset=".75" stop-color="#76777c"/>
      <stop offset=".93" stop-color="#424343"/>
      <stop offset="1" stop-color="#2b2c2c"/>
    </linearGradient>
    <linearGradient id="Naamloos_verloop_17-2" data-name="Naamloos verloop 17" x1="33.25" y1="15435.25" x2="156.65" y2="15316.01" xlink:href="#Naamloos_verloop_17"/>
    <linearGradient id="Naamloos_verloop_14" data-name="Naamloos verloop 14" x1="92.95" y1="15477.77" x2="156.94" y2="15415.94" gradientTransform="translate(0 15571.16) scale(1 -1)" gradientUnits="userSpaceOnUse">
      <stop offset="0" stop-color="#c3d8e8"/>
      <stop offset=".13" stop-color="#bbcfe0"/>
      <stop offset=".34" stop-color="#a5bacd"/>
      <stop offset=".6" stop-color="#8098ac"/>
      <stop offset=".89" stop-color="#4f6a80"/>
      <stop offset="1" stop-color="#3b576e"/>
    </linearGradient>
    <linearGradient id="Naamloos_verloop_15" data-name="Naamloos verloop 15" x1="60.9" y1="15462.62" x2="183.06" y2="15344.58" gradientTransform="translate(0 15571.16) scale(1 -1)" gradientUnits="userSpaceOnUse">
      <stop offset="0" stop-color="#f0f3fb"/>
      <stop offset=".1" stop-color="#e8ebf7"/>
      <stop offset=".26" stop-color="#d1d4dd"/>
      <stop offset=".46" stop-color="#acafb6"/>
      <stop offset=".7" stop-color="#78797d"/>
      <stop offset=".96" stop-color="#363637"/>
      <stop offset="1" stop-color="#2b2c2c"/>
    </linearGradient>
    <linearGradient id="Naamloos_verloop_16" data-name="Naamloos verloop 16" x1="150.94" y1="15418.83" x2="193.79" y2="15377.43" gradientTransform="translate(0 15571.16) scale(1 -1)" gradientUnits="userSpaceOnUse">
      <stop offset="0" stop-color="#d9def0"/>
      <stop offset=".12" stop-color="#d5daed"/>
      <stop offset=".26" stop-color="#c8cfe2"/>
      <stop offset=".41" stop-color="#b0bcd1"/>
      <stop offset=".57" stop-color="#91a1b8"/>
      <stop offset=".72" stop-color="#678099"/>
      <stop offset=".88" stop-color="#355775"/>
      <stop offset=".97" stop-color="#173d5d"/>
    </linearGradient>
    <linearGradient id="Naamloos_verloop_17-3" data-name="Naamloos verloop 17" x1="107.11" y1="15507.42" x2="229.13" y2="15389.51" xlink:href="#Naamloos_verloop_17"/>
  </defs>
  <g id="Laag_1-2" data-name="Laag 1">
    <g>
      <rect class="cls-1" width="300" height="300"/>
      <g>
        <path class="cls-19" d="M150,9.9C72.63,9.9,9.9,72.62,9.9,150s62.73,140.1,140.1,140.1,140.1-62.72,140.1-140.1c0-77.38-62.72-140.1-140.1-140.1ZM150,283.09c-73.51,0-133.09-59.59-133.09-133.09S76.49,16.91,150,16.91s133.09,59.59,133.09,133.09-59.59,133.09-133.09,133.09Z"/>
        <path class="cls-22" d="M284.1,150c0,74.05-60.04,134.1-134.1,134.1S15.91,224.05,15.91,150,75.95,15.9,150,15.9s134.1,60.04,134.1,134.1h0Z"/>
        <path class="cls-17" d="M283.09,150c0,73.51-59.59,133.09-133.09,133.09S16.91,223.51,16.91,150,76.49,16.91,150,16.91s133.09,59.59,133.09,133.09Z"/>
        <path class="cls-21" d="M239.23,150c0,49.28-39.95,89.23-89.23,89.23s-89.23-39.95-89.23-89.23,39.95-89.23,89.23-89.23,89.23,39.95,89.23,89.23Z"/>
        <polygon class="cls-2" points="153.57 58.36 162.84 33.79 162.84 58.36 169.88 58.36 169.88 23.18 159.3 23.18 149.68 48.37 149.77 48.37 140.15 23.18 129.57 23.18 129.57 58.36 136.61 58.36 136.61 33.79 145.88 58.36 153.57 58.36"/>
        <polygon class="cls-2" points="250.19 74.14 238.16 91.67 257.05 82.38 262.17 88.53 232.44 103.46 226.43 96.18 237.96 78.8 237.89 78.72 218.72 86.92 212.64 79.7 232.69 53.15 237.82 59.3 225.26 76.21 244.69 67.54 250.19 74.14"/>
        <path class="cls-22" d="M87.69,67.41c-2.83-2.75-7.21-3.58-11.32-1.03.79-2.04.47-4.11.05-5.26-1.77-3.22-2.39-3.63-3.84-4.85-4.73-3.96-9.7-.58-13.25,3.65l-17.17,20.46,26.99,22.64,18.1-21.57c4.14-4.93,4.78-9.82.43-14.05h0ZM52.77,77.28l10.31-12.29c1.2-1.42,3.9-1.37,5.63.09,1.91,1.6,1.91,3.87.63,5.4l-10.2,12.15-6.38-5.35ZM81.22,79.33l-10.75,12.81-6.73-5.66,10.83-12.91c1.23-1.46,3.96-1.88,5.8-.34,2.07,1.74,2.28,4.4.85,6.1h0Z"/>
        <polygon class="cls-18" points="153.65 57 162.92 32.43 162.92 57 169.96 57 169.96 21.82 159.38 21.82 149.76 47.01 149.85 47.01 140.22 21.82 129.64 21.82 129.64 57 136.68 57 136.68 32.43 145.95 57 153.65 57"/>
        <polygon class="cls-16" points="250.25 71.77 238.23 89.31 257.12 80.02 262.24 86.17 232.51 101.1 226.51 93.82 238.03 76.44 237.96 76.36 218.79 84.56 212.72 77.34 232.77 50.79 237.89 56.94 225.34 73.84 244.76 65.18 250.25 71.77"/>
        <path class="cls-15" d="M86.43,66.72c-2.83-2.75-7.21-3.58-11.31-1.03.78-2.04.46-4.11.05-5.25-1.77-3.23-2.39-3.63-3.85-4.86-4.73-3.96-9.69-.58-13.24,3.66l-17.18,20.46,26.99,22.65,18.1-21.58c4.13-4.93,4.78-9.82.43-14.04h0ZM51.51,76.59l10.31-12.29c1.19-1.42,3.89-1.37,5.63.09,1.91,1.6,1.92,3.88.63,5.4l-10.19,12.15-6.38-5.35ZM79.97,78.63l-10.75,12.81-6.74-5.66,10.84-12.91c1.23-1.46,3.95-1.88,5.79-.34,2.09,1.75,2.29,4.39.87,6.1h0Z"/>
        <path class="cls-7" d="M63.74,150c0-47.64,38.62-86.26,86.26-86.26s86.26,38.62,86.26,86.26-38.62,86.26-86.26,86.26-86.26-38.62-86.26-86.26h0Z"/>
        <path class="cls-20" d="M66.22,150c0-46.27,37.51-83.78,83.78-83.78s83.79,37.51,83.79,83.78-37.51,83.78-83.79,83.78-83.78-37.51-83.78-83.78h0Z"/>
        <path class="cls-8" d="M66.09,150h83.91v-83.91c-46.35,0-83.91,37.57-83.91,83.91Z"/>
        <path class="cls-13" d="M150,150v83.91c46.34,0,83.91-37.57,83.91-83.91h-83.91Z"/>
        <polygon class="cls-10" points="234.61 148.51 151.49 148.51 151.49 65.39 148.51 65.39 148.51 148.51 65.39 148.51 65.39 151.49 148.51 151.49 148.51 234.61 151.49 234.61 151.49 151.49 234.61 151.49 234.61 148.51"/>
        <path class="cls-5" d="M151.49,67.75c44.26.79,79.98,36.5,80.78,80.76h1.48c-.79-45.08-37.17-81.47-82.26-82.25v1.49h0Z"/>
        <path class="cls-9" d="M67.59,148.5c.79-44.32,36.56-80.09,80.88-80.88v-1.49c-45.15.79-81.57,37.22-82.37,82.37h1.49Z"/>
        <path class="cls-11" d="M148.51,232.26c-44.26-.79-79.98-36.51-80.77-80.77h-1.49c.79,45.08,37.17,81.47,82.26,82.26v-1.49h0Z"/>
        <path class="cls-14" d="M232.26,151.49c-.79,44.26-36.51,79.98-80.78,80.77v1.49c45.09-.79,81.47-37.17,82.26-82.26h-1.48Z"/>
        <polygon class="cls-4" points="146.92 66.13 146.92 146.88 66.18 146.88 66.18 148.47 146.92 148.47 148.51 148.47 148.51 146.88 148.51 66.13 146.92 66.13"/>
        <polygon class="cls-3" points="146.79 232.96 146.79 153.19 66.85 153.19 66.85 151.62 146.79 151.62 148.36 151.62 148.36 153.19 148.36 232.96 146.79 232.96"/>
        <polygon class="cls-6" points="153.19 232.96 153.19 153.19 232.97 153.19 232.97 151.62 153.19 151.62 151.62 151.62 151.62 153.19 151.62 232.96 153.19 232.96"/>
        <polygon class="cls-12" points="153.19 66.85 153.19 146.62 232.97 146.62 232.97 148.19 153.19 148.19 151.62 148.19 151.62 146.62 151.62 66.85 153.19 66.85"/>
      </g>
    </g>
  </g>
</svg>