<?xml version="1.0" encoding="UTF-8"?>
<svg id="Laag_2" data-name="Laag 2" xmlns="http://www.w3.org/2000/svg" xmlns:xlink="http://www.w3.org/1999/xlink" viewBox="0 0 300 300">
  <defs>
    <style>
      .cls-1 {
        fill: none;
      }

      .cls-2 {
        fill: url(#Naamloos_verloop_58);
      }

      .cls-3 {
        fill: url(#Naamloos_verloop_59);
      }

      .cls-4 {
        fill: url(#Naamloos_verloop_60);
      }

      .cls-5 {
        fill: #231f20;
      }

      .cls-6 {
        fill: url(#Naamloos_verloop_59-2);
      }

      .cls-7 {
        fill: url(#Naamloos_verloop_58-2);
      }

      .cls-8 {
        fill: url(#Naamloos_verloop_60-2);
      }

      .cls-9 {
        fill: url(#Naamloos_verloop_60-3);
      }

      .cls-10 {
        fill: url(#Naamloos_verloop_60-4);
      }

      .cls-11 {
        clip-path: url(#clippath);
      }

      .cls-12 {
        fill: #e51c37;
      }
    </style>
    <clipPath id="clippath">
      <rect class="cls-1" x="7.65" y="49.32" width="284.7" height="201.35"/>
    </clipPath>
    <linearGradient id="Naamloos_verloop_60" data-name="Naamloos verloop 60" x1="2320.61" y1="2477.17" x2="2443.41" y2="2477.17" gradientTransform="translate(-3026.27 -3190.95) scale(1.33)" gradientUnits="userSpaceOnUse">
      <stop offset="0" stop-color="#bdbcbc"/>
      <stop offset=".13" stop-color="#bdbcbc"/>
      <stop offset=".5" stop-color="#716e6f"/>
      <stop offset=".88" stop-color="#dedede"/>
    </linearGradient>
    <linearGradient id="Naamloos_verloop_60-2" data-name="Naamloos verloop 60" x1="2320.55" x2="2443.36" xlink:href="#Naamloos_verloop_60"/>
    <linearGradient id="Naamloos_verloop_60-3" data-name="Naamloos verloop 60" y1="2520.89" y2="2520.89" xlink:href="#Naamloos_verloop_60"/>
    <linearGradient id="Naamloos_verloop_60-4" data-name="Naamloos verloop 60" x1="2320.55" y1="2520.89" x2="2443.36" y2="2520.89" xlink:href="#Naamloos_verloop_60"/>
    <linearGradient id="Naamloos_verloop_59" data-name="Naamloos verloop 59" x1="2320.63" y1="2458.93" x2="2443.06" y2="2458.93" gradientTransform="translate(-3026.27 -3190.95) scale(1.33)" gradientUnits="userSpaceOnUse">
      <stop offset="0" stop-color="#716e6f"/>
      <stop offset=".27" stop-color="#fff"/>
      <stop offset=".71" stop-color="#fff"/>
      <stop offset="1" stop-color="#716e6f"/>
    </linearGradient>
    <linearGradient id="Naamloos_verloop_59-2" data-name="Naamloos verloop 59" y1="2502.65" y2="2502.65" xlink:href="#Naamloos_verloop_59"/>
    <linearGradient id="Naamloos_verloop_58" data-name="Naamloos verloop 58" x1="6131.58" y1="7640.29" x2="6134.06" y2="7640.29" gradientTransform="translate(-185786.18 241633.09) rotate(-1.16) scale(31.12 -31.12)" gradientUnits="userSpaceOnUse">
      <stop offset="0" stop-color="#f2f2f2"/>
      <stop offset=".17" stop-color="#716e6f"/>
      <stop offset=".37" stop-color="#716e6f"/>
      <stop offset=".59" stop-color="#9c9b9b"/>
      <stop offset="1" stop-color="#716e6f"/>
    </linearGradient>
    <linearGradient id="Naamloos_verloop_58-2" data-name="Naamloos verloop 58" x1="6131.56" y1="7639.17" x2="6134.04" y2="7639.17" gradientTransform="translate(-185786.28 241656.5) rotate(-1.16) scale(31.12 -31.12)" xlink:href="#Naamloos_verloop_58"/>
  </defs>
  <g id="Laag_1-2" data-name="Laag 1">
    <g>
      <rect class="cls-1" width="300" height="300"/>
      <g>
        <path class="cls-12" d="M187.86,246.66h-4.49c-4.92,0-10.23-3.71-10.23-9.71s5.2-9.5,10.21-9.5c.06,0,2.5-.11,4.51,0,5.03,0,10.24,3.55,10.24,9.5s-5.31,9.71-10.23,9.71h0ZM192.66,223.7c-7-.16-14.11,0-14.17,0-8.55,0-15.5,5.93-15.5,13.21s6.96,13.41,15.51,13.41h14.17c8.56,0,15.53-6.02,15.53-13.41s-6.83-13.02-15.54-13.21M283.63,249.97h8.71v-12.69c0-7.41-6.64-13.22-15.11-13.22h-22.05c-.36,0-1.19.09-1.19.97v23.95c0,.64.47.98.92.98h9.21v-20.04c0-.88.67-1.31,1.32-1.31h10.15c2.81,0,6.97,2.52,6.97,8.02v12.33s.03,1.01,1.06,1.01M99.69,229.21h13.6v-4.13c0-.58-.42-1.01-.98-1.01h-37.91c-.62,0-.98.51-.98,1v4.14h9.06c3.4,0,5.69,2.92,5.69,5.64v14.14c.02.54.46.98,1,.99h9.19v-19.44c0-.73.6-1.32,1.33-1.32M57.78,248.99c0,.58.53.99,1,.99h9.18v-24.92c-.02-.54-.46-.98-1-.99h-8.19c-.54,0-1,.45-1,.98v23.94M128.89,236.2v-5.17c0-1.41,1.01-2.4,2.44-2.4h13.53c2.05,0,3.78,1.72,3.78,3.76s-1.72,3.81-3.83,3.81h-15.93ZM148.67,249.98h10.11c-.27-6.71-7.51-9.48-7.51-9.48,4.55-1.04,7.49-4.31,7.49-8.09,0-4.01-3.93-8.35-10.28-8.35h-24.46c-2.89-.03-5.26,2.29-5.29,5.18,0,.04,0,.07,0,.11v19.63c0,.57.4.99.97.99h9.18v-9.19h8.66c7.71,0,10.88,5.57,11.11,9.19"/>
        <g class="cls-11">
          <path class="cls-12" d="M42.33,232.76h9.9c-2.14-5.42-8.35-9.25-14.91-9.26h-14.16c-4.88.24-7.95,1.36-10.95,3.97-2.93,2.56-4.55,5.94-4.56,9.52,0,7.41,6.59,13.22,15.33,13.53l14.49-.02c7.28-.22,12.5-3.51,14.75-9.26h-9.89c-.37,0-.66.17-.85.5-1.79,3.08-5.16,4.93-8.84,4.99h-4.6c-5.14-.04-10.23-3.65-10.23-9.75s5.23-9.65,10.26-9.65h4.46c3.67,0,7.19,1.95,8.97,4.96.17.3.49.48.84.48"/>
        </g>
        <path class="cls-12" d="M248.54,245.32h-23.96c-.81,0-1.37-.54-1.37-1.3v-4.94h20.77v-4.55h-20.78v-4.51s0-1.31,1.55-1.31h23.79v-3.64c0-1.06-1.13-1.01-1.16-1.01h-33.33c-.1,0-1.01.03-1.01,1.01v19.62c0,2.59,2,5.27,5.33,5.27h29.19c.76,0,1-.71,1-.97v-3.68M241.08,214.68c-.97-.6-2.15-.9-3.52-.9s-2.6.32-3.53.9-1.68,1.36-2.78,1.36-1.76-.78-2.75-1.36-2.15-.9-3.53-.9-2.55.3-3.53.9-1.46,1.31-1.46,2.15.49,1.56,1.46,2.16,2.15.89,3.53.89,2.57-.29,3.45-.82,1.83-1.42,2.83-1.42,1.9.79,2.78,1.35,2.15.89,3.53.89,2.6-.3,3.55-.89,1.43-1.31,1.43-2.16-.49-1.56-1.46-2.15"/>
        <path class="cls-5" d="M150,89.46c21.26,0,72.58,44.07,79.02,49.67.44.38,1.04.87,2.15.74,1.61-.18,1.65-2.63,1.65-2.63,0,0,.38-5.6.38-11.24,0-7.1-5.55-13.31-5.55-13.31,0,0-57.52-63.36-77.66-63.36s-77.66,63.36-77.66,63.36c0,0-5.55,6.21-5.55,13.31.02,3.75.14,7.5.38,11.24,0,0,.05,2.45,1.65,2.63,1.11.13,1.71-.36,2.15-.74,6.43-5.6,57.76-49.67,79.02-49.67M150,147.76c21.26,0,72.58,44.07,79.02,49.67.44.38,1.04.87,2.15.74,1.61-.19,1.65-2.64,1.65-2.64,0,0,.38-5.6.38-11.24,0-7.1-5.55-13.31-5.55-13.31,0,0-57.52-63.36-77.66-63.36s-77.66,63.36-77.66,63.36c0,0-5.55,6.21-5.55,13.31.02,3.75.14,7.5.38,11.24,0,0,.05,2.45,1.65,2.64,1.11.13,1.71-.36,2.15-.74,6.43-5.6,57.76-49.67,79.02-49.67"/>
        <g>
          <path class="cls-4" d="M91.64,103.1c-11.65,9.59-20.65,18.61-23.74,21.78-.17,3.86.33,12.23.34,12.28,0,0,.05,3.02,2.21,1.09l2.15-1.91c23.2-21.22,47.02-39.79,66.1-48.05,1.36-.59,3.58-.98,2.43-2.44-.65-.82-2.91-.92-4.34-.83-19.79,1.14-44.25,17.44-45.15,18.09h0"/>
          <path class="cls-8" d="M208.36,103.1c11.65,9.59,20.65,18.61,23.74,21.78.17,3.86-.33,12.23-.34,12.28,0,0-.05,3.02-2.21,1.09l-2.15-1.91c-23.2-21.22-47.02-39.79-66.1-48.05-1.36-.59-3.58-.98-2.43-2.44.65-.82,2.91-.92,4.34-.83,19.79,1.14,44.25,17.44,45.15,18.09h0"/>
          <path class="cls-9" d="M91.64,161.4c-8.29,6.84-16.21,14.11-23.74,21.78-.17,3.86.33,12.23.34,12.28,0,0,.05,3.02,2.21,1.09l2.15-1.91c23.2-21.22,47.02-39.79,66.1-48.05,1.36-.59,3.58-.98,2.43-2.44-.65-.82-2.91-.92-4.34-.83-19.79,1.14-44.25,17.44-45.15,18.09h0"/>
          <path class="cls-10" d="M208.36,161.4c8.29,6.84,16.21,14.11,23.74,21.78.17,3.86-.33,12.23-.34,12.28,0,0-.05,3.02-2.21,1.09l-2.15-1.91c-23.2-21.22-47.02-39.79-66.1-48.05-1.36-.59-3.58-.98-2.43-2.44.65-.82,2.91-.92,4.34-.83,19.79,1.14,44.25,17.44,45.15,18.09h0"/>
          <path class="cls-3" d="M226.87,113.38c-.7-.77-57.45-63.01-76.87-63.01s-76.17,62.24-76.87,63.01c-.06.07-4.7,5.36-5.22,11.5,3.09-3.17,12.08-12.19,23.74-21.78,0,0,3.51-2.95,8.79-6.92,11.7-8.81,32.34-22.58,49.57-22.58s37.87,13.77,49.57,22.58c5.28,3.98,8.79,6.93,8.79,6.92,11.65,9.59,20.65,18.61,23.74,21.78-.52-6.14-5.16-11.43-5.22-11.5"/>
          <path class="cls-6" d="M226.87,171.68c-.7-.77-57.45-63.01-76.87-63.01s-76.17,62.24-76.87,63.01c-.06.07-4.7,5.36-5.22,11.5,7.52-7.67,15.45-14.94,23.74-21.78,0,0,3.51-2.95,8.79-6.92,11.7-8.81,32.34-22.58,49.57-22.58s37.87,13.77,49.57,22.58c5.28,3.97,8.79,6.92,8.79,6.92,8.29,6.84,16.21,14.11,23.74,21.78-.52-6.14-5.16-11.43-5.22-11.5"/>
          <path class="cls-2" d="M227.75,117.33c-31.85-36.53-66.6-64.6-76.54-65.1-1.43-.07-1.46,1.34-1.46,1.34-.01,12,.71,14.12,8.97,17.34,1.13.44,32.1,9.74,69,47.43l.53.54-.51-1.54"/>
          <path class="cls-7" d="M227.75,175.63c-31.85-36.53-66.6-64.6-76.54-65.1-1.43-.07-1.46,1.34-1.46,1.34-.01,12,.71,14.12,8.97,17.34,1.13.44,32.1,9.74,69,47.43l.53.54-.51-1.54"/>
        </g>
      </g>
    </g>
  </g>
</svg>