<?xml version="1.0" encoding="UTF-8"?>
<svg id="Laag_2" data-name="Laag 2" xmlns="http://www.w3.org/2000/svg" xmlns:xlink="http://www.w3.org/1999/xlink" viewBox="0 0 300 300">
  <defs>
    <style>
      .cls-1 {
        fill: none;
      }

      .cls-2 {
        fill: url(#Naamloos_verloop_99);
      }

      .cls-3 {
        fill: url(#Naamloos_verloop_98);
      }

      .cls-4 {
        fill: #bdbcbc;
      }

      .cls-5 {
        fill: url(#Naamloos_verloop_99-7);
      }

      .cls-6 {
        fill: url(#Naamloos_verloop_99-8);
      }

      .cls-7 {
        fill: url(#Naamloos_verloop_99-6);
      }

      .cls-8 {
        fill: url(#Naamloos_verloop_99-2);
      }

      .cls-9 {
        fill: url(#Naamloos_verloop_99-3);
      }

      .cls-10 {
        fill: url(#Naamloos_verloop_99-4);
      }

      .cls-11 {
        fill: url(#Naamloos_verloop_99-5);
      }

      .cls-12 {
        fill: #fff;
      }

      .cls-13 {
        fill: #1e2f54;
      }

      .cls-14 {
        fill: url(#Naamloos_verloop_106);
      }

      .cls-15 {
        fill: url(#Naamloos_verloop_101);
      }

      .cls-16 {
        fill: url(#Naamloos_verloop_100);
      }

      .cls-17 {
        fill: url(#Naamloos_verloop_103);
      }

      .cls-18 {
        fill: url(#Naamloos_verloop_102);
      }

      .cls-19 {
        fill: url(#Naamloos_verloop_105);
      }

      .cls-20 {
        fill: url(#Naamloos_verloop_104);
      }

      .cls-21 {
        fill: #504d4d;
      }
    </style>
    <linearGradient id="Naamloos_verloop_106" data-name="Naamloos verloop 106" x1="7400.52" y1="6153" x2="7400.96" y2="6153" gradientTransform="translate(-3236273.66 -3892576.08) rotate(90) scale(525.99 -525.99)" gradientUnits="userSpaceOnUse">
      <stop offset="0" stop-color="#fff"/>
      <stop offset=".65" stop-color="#828485"/>
      <stop offset="1" stop-color="#2b292c"/>
    </linearGradient>
    <linearGradient id="Naamloos_verloop_105" data-name="Naamloos verloop 105" x1="7425.66" y1="6190.38" x2="7426.1" y2="6190.38" gradientTransform="translate(2306343.14 2766630.59) rotate(-90) scale(372.54 -372.54)" gradientUnits="userSpaceOnUse">
      <stop offset="0" stop-color="#fdfdfd"/>
      <stop offset=".49" stop-color="#4c4b4e"/>
      <stop offset=".79" stop-color="#2b292c"/>
      <stop offset="1" stop-color="#2b292c"/>
    </linearGradient>
    <linearGradient id="Naamloos_verloop_104" data-name="Naamloos verloop 104" x1="7030.22" y1="6664.53" x2="7069.86" y2="6664.53" gradientTransform="translate(-43258.92 41175.58) scale(6.16 -6.16)" gradientUnits="userSpaceOnUse">
      <stop offset="0" stop-color="#fff"/>
      <stop offset="1" stop-color="#fff"/>
    </linearGradient>
    <linearGradient id="Naamloos_verloop_103" data-name="Naamloos verloop 103" x1="7450.52" y1="6226.93" x2="7450.95" y2="6226.93" gradientTransform="translate(868761.7 1039507.78) rotate(-90) scale(139.49 -139.49)" gradientUnits="userSpaceOnUse">
      <stop offset="0" stop-color="#504d4d"/>
      <stop offset="1" stop-color="#231f20"/>
    </linearGradient>
    <linearGradient id="Naamloos_verloop_102" data-name="Naamloos verloop 102" x1="7430.28" y1="6197.66" x2="7430.72" y2="6197.66" gradientTransform="translate(1732639.81 2077213.91) rotate(-90) scale(279.54 -279.54)" gradientUnits="userSpaceOnUse">
      <stop offset="0" stop-color="#343437"/>
      <stop offset="0" stop-color="#343437"/>
      <stop offset=".16" stop-color="#fff"/>
      <stop offset=".37" stop-color="#c4c6c8"/>
      <stop offset="1" stop-color="#8a8d90"/>
    </linearGradient>
    <radialGradient id="Naamloos_verloop_101" data-name="Naamloos verloop 101" cx="7030.64" cy="6683.84" fx="7030.64" fy="6683.84" r="24.69" gradientTransform="translate(-43258.92 41175.58) scale(6.16 -6.16)" gradientUnits="userSpaceOnUse">
      <stop offset="0" stop-color="#fff"/>
      <stop offset=".92" stop-color="#d0d1d2"/>
      <stop offset="1" stop-color="#d0d1d2"/>
    </radialGradient>
    <linearGradient id="Naamloos_verloop_100" data-name="Naamloos verloop 100" x1="7280.08" y1="6018.71" x2="7280.52" y2="6018.71" gradientTransform="translate(-340145.74 -314504.39) rotate(82.33) scale(49.06 -49.06)" gradientUnits="userSpaceOnUse">
      <stop offset="0" stop-color="#5b6999"/>
      <stop offset="1" stop-color="#1d3662"/>
    </linearGradient>
    <linearGradient id="Naamloos_verloop_99" data-name="Naamloos verloop 99" x1="8425.97" y1="6714.74" x2="8426.41" y2="6714.74" gradientTransform="translate(83240.99 36298.3) rotate(-117.92) scale(8.42 -8.42)" gradientUnits="userSpaceOnUse">
      <stop offset="0" stop-color="#fff"/>
      <stop offset="1" stop-color="#bdbcbc"/>
    </linearGradient>
    <linearGradient id="Naamloos_verloop_99-2" data-name="Naamloos verloop 99" x1="7062.53" y1="6240.2" x2="7062.97" y2="6240.2" gradientTransform="translate(-242727.64 85097.68) rotate(22.17) scale(27.3 -27.3)" xlink:href="#Naamloos_verloop_99"/>
    <linearGradient id="Naamloos_verloop_99-3" data-name="Naamloos verloop 99" x1="6932.79" y1="6326.53" x2="6933.23" y2="6326.53" gradientTransform="translate(-161720.01 82670.59) rotate(15.35) scale(19.36 -19.36)" xlink:href="#Naamloos_verloop_99"/>
    <linearGradient id="Naamloos_verloop_99-4" data-name="Naamloos verloop 99" x1="8156.29" y1="6608" x2="8156.73" y2="6608" gradientTransform="translate(107107.5 50276.84) rotate(-115.85) scale(11.26 -11.26)" xlink:href="#Naamloos_verloop_99"/>
    <linearGradient id="Naamloos_verloop_99-5" data-name="Naamloos verloop 99" x1="7632.65" y1="6504.15" x2="7633.09" y2="6504.15" gradientTransform="translate(158478.2 185874.67) rotate(-90) scale(24.34 -24.34)" xlink:href="#Naamloos_verloop_99"/>
    <linearGradient id="Naamloos_verloop_99-6" data-name="Naamloos verloop 99" x1="7212.91" y1="5869.14" x2="7213.34" y2="5869.14" gradientTransform="translate(-159903.72 -196625.95) rotate(90) scale(27.27 -27.27)" xlink:href="#Naamloos_verloop_99"/>
    <linearGradient id="Naamloos_verloop_99-7" data-name="Naamloos verloop 99" x1="6911.38" y1="6319.55" x2="6911.82" y2="6319.55" gradientTransform="translate(-158603.62 77564.04) rotate(16.43) scale(18.87 -18.87)" xlink:href="#Naamloos_verloop_99"/>
    <linearGradient id="Naamloos_verloop_99-8" data-name="Naamloos verloop 99" x1="8157.53" y1="6621.74" x2="8157.97" y2="6621.74" gradientTransform="translate(107116.1 50918.41) rotate(-115.5) scale(11.27 -11.27)" xlink:href="#Naamloos_verloop_99"/>
    <linearGradient id="Naamloos_verloop_98" data-name="Naamloos verloop 98" x1="7391.75" y1="6139.58" x2="7392.19" y2="6139.58" gradientTransform="translate(-1730895.89 -2084059.11) rotate(90) scale(281.95 -281.95)" gradientUnits="userSpaceOnUse">
      <stop offset="0" stop-color="#504d4d"/>
      <stop offset=".04" stop-color="#494547"/>
      <stop offset=".54" stop-color="#231f20"/>
      <stop offset="1" stop-color="#333031"/>
    </linearGradient>
  </defs>
  <g id="Laag_1-2" data-name="Laag 1">
    <g>
      <rect class="cls-1" width="300" height="300"/>
      <g>
        <path class="cls-14" d="M30.15,38.09c-1.89.18-3.62.36-5.19.61-.7.09-1.61.21-2.01.33-2.91.76-4.62,3.61-4.28,6.38.03.15.76,4.19.97,5.5,3.46,19.06,7.59,37.99,12.37,56.76,1.43,5.68,2.95,11.33,4.5,16.98,1.12,4.16,4.65,16.47,6.77,23.49,2.35,7.83,4.79,15.63,7.32,23.4,2.77,8.48,11.43,33.21,12.98,37.16,7.08,17.99,14.65,31.9,27.8,42.29,12.73,10.09,26.29,14.37,58.64,14.37s45.88-4.28,58.61-14.37c13.18-10.39,20.72-24.31,27.8-42.29,1.58-3.95,10.21-28.68,12.97-37.16,2.52-7.78,4.98-15.56,7.35-23.39,2.32-7.81,4.57-15.64,6.75-23.49,1.56-5.65,3.06-11.31,4.5-16.98,4.78-18.77,8.91-37.7,12.37-56.76.24-1.3.94-5.35.97-5.5.33-2.77-1.37-5.62-4.26-6.38-.42-.12-1.34-.24-2.03-.33-1.73-.25-3.46-.46-5.2-.61-17.57-1.55-73.26-3.46-119.83-3.46s-102.26,1.91-119.86,3.46M210.01,155.55c-1.61,4.86-11.33,28.62-12.97,32.51-3.68,8.6-7.5,16.74-13.58,22.24-4.41,4.01-10.67,7.66-25.12,8.2-2.77.12-6.35.12-8.33.12s-5.56,0-8.32-.12c-14.47-.55-20.73-4.19-25.13-8.2-6.08-5.5-9.91-13.64-13.58-22.24-1.67-3.89-11.36-27.65-12.97-32.51,19.81,1,41.81,1.7,60,1.7s40.2-.7,60.01-1.7"/>
        <path class="cls-19" d="M37.14,64.04c.55,2.01,1.1,3.89,1.61,5.77,3,10.79,6.13,21.55,9.39,32.27,6.38,21,12.97,42.41,21.11,63.71,4.32,11.3,8.33,21.27,12.31,30.44,3.49,8.14,7.96,17.47,14.43,25.13,6.62,7.78,13.91,12.76,23,15.68,7.9,2.55,17.16,3.62,31.02,3.62s23.12-1.06,31.02-3.62c9.08-2.92,16.38-7.9,23-15.67,6.47-7.66,10.94-16.98,14.44-25.13,3.98-9.17,7.99-19.14,12.3-30.44,8.15-21.33,14.74-42.72,21.12-63.71,3.26-10.71,6.39-21.47,9.38-32.27.46-1.64.92-3.31,1.37-4.95,2.34-8.23,4.7-16.71,6.23-24.76-2.21,7.66-10.96,36.92-21.27,60.77-12.31,28.53-32.15,51.38-37.07,55.33l-.22.18-.82.58c-.24.73-.48,1.43-.58,1.67-.49,1.22-.95,2.43-1.4,3.61-2.91,7.56-5.94,15.08-9.08,22.55-2.1,4.92-4.16,9.87-6.75,14.58-2.4,4.35-5.29,8.51-9.11,11.7-3.89,3.25-8.57,5.26-13.52,6.29-5.2,1.09-10.54,1.25-15.86,1.27h-6.38c-5.32-.03-10.67-.18-15.86-1.27-4.95-1.03-9.63-3.04-13.52-6.29-3.83-3.19-6.71-7.35-9.11-11.7-2.58-4.71-4.65-9.66-6.74-14.58-2.1-4.98-4.14-9.99-6.14-15.01-1-2.49-1.97-5.01-2.95-7.53-.46-1.18-.94-2.4-1.4-3.61-.2-.56-.39-1.11-.58-1.67l-.82-.58-.21-.18c-4.93-3.95-25.16-27.83-37.49-56.39-10.4-24.1-18.9-52.87-20.9-59.98,1.34,7.66,3.7,16.07,6.04,24.21"/>
        <path class="cls-20" d="M262.64,64.89l-1.37,4.95c-2.99,10.8-6.12,21.55-9.39,32.27-6.52,21.41-13.79,42.59-21.78,63.5-4.28,11.18-8.26,21.05-12.22,30.17-3.46,8.05-7.86,17.32-14.31,24.91-6.56,7.72-13.8,12.67-22.79,15.56-7.83,2.52-17.04,3.59-30.78,3.59s-22.94-1.06-30.78-3.59c-8.99-2.88-16.22-7.84-22.79-15.56-6.44-7.59-10.84-16.86-14.31-24.91-3.95-9.11-7.93-18.99-12.22-30.17-8-20.91-15.26-42.09-21.78-63.5-3.26-10.72-6.39-21.47-9.39-32.27-.51-1.88-1.06-3.77-1.61-5.77-2.52-8.81-5.07-17.9-6.35-26.01l-.64.06c-.76.06-1.49.12-2.19.21,1.58,10.18,5.19,21.88,8.05,32.27,3.02,10.81,6.17,21.59,9.43,32.33,6.54,21.48,13.82,42.72,21.84,63.68,3.87,10.18,7.95,20.28,12.24,30.29,3.92,9.09,8.36,18.05,14.76,25.61,14.34,16.92,31.3,20.14,55.72,20.14s41.35-3.22,55.72-20.14c6.41-7.56,10.85-16.53,14.77-25.61,4.3-10.01,8.38-20.11,12.24-30.29,8.02-20.97,15.31-42.21,21.85-63.68,3.26-10.74,6.4-21.52,9.41-32.33,2.85-10.39,6.29-21.75,8.05-32.27-.74-.09-1.47-.16-2.21-.21l-.61-.06c-1.46,8.66-4.07,17.89-6.59,26.83"/>
        <path class="cls-17" d="M209.93,153.91c-22.09,1.06-43.36,1.67-59.92,1.67s-37.82-.61-59.91-1.67l-2.43-.12.76,2.31c1.64,4.95,11.33,28.68,13.04,32.6,3.55,8.39,7.56,17.04,13.97,22.85,4.35,3.95,10.88,8.05,26.19,8.63l8.39.12,8.39-.12c15.31-.58,21.85-4.68,26.19-8.66,6.41-5.77,10.42-14.43,13.98-22.82,1.7-3.95,11.4-27.65,13.04-32.6l.76-2.31-2.43.12ZM207.58,157.35c-2.83,7.6-10.63,26.68-12.09,30.05-3.4,8.02-7.23,16.32-13.16,21.66-4.1,3.74-9.84,7.26-24.06,7.81l-8.26.09-8.26-.09c-14.25-.55-20.17-4.25-24.06-7.81-5.93-5.35-9.75-13.64-13.15-21.66-1.46-3.37-9.27-22.45-12.1-30.05,21.24,1.03,41.59,1.58,57.58,1.58s36.34-.55,57.58-1.58"/>
        <path class="cls-18" d="M31.43,38s5.68,26.01,14.97,51.01l.03.03h-.03c1.46,3.89,3.01,7.75,4.62,11.52,12.09,28.01,33.51,50.37,38.98,55.02,1.43.06,3.56.18,4.98.24,3.83.18,7.66.36,11.49.52,7.56.3,15.1.55,22.66.7,6.96.15,13.92.22,20.87.22s13.91-.06,20.88-.22c7.56-.15,15.1-.39,22.66-.7,3.83-.15,7.66-.33,11.48-.52,1.43-.06,3.55-.18,4.99-.24,5.47-4.65,26.89-27.01,38.98-55.02,6.44-14.95,11.63-31.9,15.04-44.39l-.03.03.03-.06c2.92-10.72,4.56-18.14,4.56-18.14-39.5-2.4-79.03-3.34-118.59-3.37-39.55.03-79.08.97-118.58,3.37"/>
        <path class="cls-15" d="M31.43,37.97v.03s5.68,26.01,14.97,51.01l.03.03h-.03c.52,1.34,1,2.64,1.52,3.95,17.65.82,36.07.76,55.03-.31,64.68-3.58,122.2-17.89,161.39-37.73,2.73-10.09,4.25-16.95,4.25-16.95-18.8-1.55-73.07-3.37-118.59-3.37s-99.74,1.82-118.58,3.34"/>
        <path class="cls-13" d="M122.26,73.41c-1.76,0-3.4.27-4.89.68-1.45.39-2.55.97-3.29,1.69-.28.3-1.18,1.71-3.54,6.58l-5.32,11.39-3.29,7.43h8.78c.24-.49,2.36-5.06,2.36-5.06h18.48l2.45,5.06h8.61c-.51-1.14-3.38-7.43-3.38-7.43-2.18-4.82-3.89-8.69-5.23-11.48-2.46-5.12-3.27-6.25-3.54-6.5-.72-.74-1.83-1.29-3.29-1.69-1.5-.41-3.16-.68-4.9-.68h0ZM214.84,73.41c-1.76,0-3.4.27-4.9.68-1.45.39-2.64.97-3.38,1.69-.29.3-1.09,1.71-3.46,6.58l-5.4,11.39s-2.79,6.31-3.29,7.43h8.78c.23-.49,2.45-5.06,2.45-5.06h18.4l2.45,5.06h8.69c-.51-1.14-3.38-7.43-3.38-7.43-2.18-4.82-3.97-8.69-5.32-11.48-2.46-5.12-3.27-6.25-3.54-6.5-.72-.74-1.84-1.29-3.29-1.69-1.5-.41-3.08-.68-4.81-.68h0ZM65.55,73.58v27.6h20.34c4.67,0,8.39-1.41,11.06-4.22,2.38-2.5,3.63-5.58,3.63-9.28s-1.27-7.07-3.71-9.71c-2.7-2.92-6.4-4.39-10.97-4.39h-20.34ZM158.3,73.58c-4.56,0-8.26,1.47-10.97,4.39-2.44,2.64-3.71,5.93-3.71,9.71s1.23,6.77,3.63,9.28c2.67,2.81,6.41,4.22,11.06,4.22h16.79v-5.23h-15.28c-2.32,0-4.19-.91-5.57-2.79-1.22-1.66-1.86-3.74-1.86-6.08s.56-4.18,1.77-5.74c1.36-1.77,3.29-2.7,5.65-2.7h15.28v-5.06h-16.79ZM181.26,73.58v27.6h8.19v-27.6h-8.19ZM73.65,78.64h10.8c2.38,0,4.21.93,5.57,2.7,1.19,1.55,1.86,3.45,1.86,5.74s-.63,4.43-1.86,6.08c-1.4,1.87-3.26,2.79-5.57,2.79h-10.8v-17.3ZM122.26,78.9c.78,0,1.09.33,1.18.59l5.99,12.41h-14.35l5.91-12.49c.23-.37.67-.51,1.27-.51ZM214.84,78.9c.78,0,1.01.33,1.1.59l6.08,12.41h-14.35l5.91-12.49c.23-.37.68-.51,1.27-.51h0Z"/>
        <path class="cls-16" d="M209.89,74.07c-1.42.39-2.55.97-3.31,1.7-.22.28-.41.57-.57.88,3.63-.99,7.24-2.02,10.84-3.1-.67-.06-1.33-.12-2.03-.12-1.76,0-3.4.21-4.92.64M117.35,74.07c-1.46.39-2.58.97-3.31,1.7-.27.27-1.12,1.67-3.49,6.56l-4.77,10.18c3.13-.18,6.23-.4,9.33-.64l5.92-12.46c.25-.36.67-.55,1.25-.55.79,0,1.06.36,1.15.61l5.41,11.18c2.86-.29,5.71-.61,8.57-.94-1.12-2.49-2.27-4.96-3.46-7.41-2.46-5.14-3.25-6.29-3.52-6.54-.73-.73-1.82-1.3-3.28-1.7-1.59-.44-3.24-.65-4.89-.63-1.74,0-3.41.21-4.9.64M181.27,73.58v8.99c2.74-.58,5.44-1.16,8.11-1.79v-7.2h-8.11ZM158.27,73.58c-4.55,0-8.23,1.46-10.97,4.38-2.43,2.64-3.67,5.89-3.67,9.69,0,.42.03.85.05,1.27,2.92-.39,5.83-.79,8.7-1.22l-.04-.61c0-2.28.64-4.22,1.83-5.77,1.36-1.79,3.25-2.67,5.62-2.67h15.31v-5.08h-16.84M65.55,73.58v19.93c2.67.03,5.37.03,8.11.03v-14.89h10.75c2.37,0,4.28.88,5.62,2.67,1.19,1.55,1.79,3.49,1.79,5.77s-.6,4.38-1.85,6.05l-.09.12c3.22-.12,6.47-.24,9.72-.43.65-1.65.97-3.42.95-5.19,0-3.8-1.22-7.05-3.68-9.7-2.71-2.92-6.38-4.38-10.97-4.38h-20.35"/>
        <path class="cls-4" d="M74.63,79.61h9.79c1.9,0,3.38.62,4.53,1.89l.68-.68c-1.32-1.44-3.07-2.17-5.21-2.17h-10.75v17.31l.96-.96"/>
        <path class="cls-2" d="M88.94,81.51l.33.39c1.06,1.37,1.61,3.13,1.61,5.2s-.55,3.98-1.67,5.47c-1.22,1.64-2.79,2.43-4.8,2.43h-9.78l-.97.97h10.75c2.31,0,4.2-.97,5.59-2.82,1.22-1.67,1.82-3.68,1.82-6.05s-.58-4.22-1.76-5.77l-.46-.52-.67.7Z"/>
        <path class="cls-8" d="M64.57,72.61v29.56l.98-.97v-27.65h20.35c4.59,0,8.26,1.49,10.97,4.4.33.34.61.7.88,1.03l.67-.67c-.24-.33-.54-.67-.82-1-2.92-3.13-6.84-4.71-11.7-4.71h-21.33Z"/>
        <path class="cls-4" d="M97.67,97.64c2.55-2.68,3.85-6.05,3.85-10.01,0-3.56-1.04-6.68-3.09-9.31l-.68.68c1.86,2.44,2.8,5.33,2.8,8.63,0,3.71-1.2,6.85-3.58,9.34-2.67,2.81-6.39,4.24-11.06,4.24h-20.38l-.96.96h21.34c4.94,0,8.9-1.53,11.75-4.54"/>
        <path class="cls-9" d="M117.1,73.13c-1.61.46-2.88,1.09-3.74,1.94-.33.36-1.06,1.43-3.67,6.84l-5.38,11.46-3.89,8.81,1.46-.97c.52-1.12,3.31-7.41,3.31-7.41l5.37-11.48c2.34-4.86,3.19-6.26,3.47-6.56.76-.7,1.89-1.28,3.31-1.67,1.6-.44,3.26-.65,4.93-.63h.03c1.63-.01,3.26.2,4.83.64,1.46.39,2.58.94,3.31,1.7.24.24,1.06,1.4,3.52,6.53,1.81,3.79,3.57,7.61,5.29,11.45,0,0,2.85,6.32,3.37,7.45h-8.66l-.61.97h10.72l-3.95-8.81c-1.73-3.85-3.51-7.68-5.32-11.49-2.61-5.41-3.37-6.47-3.73-6.81-.82-.85-2.07-1.49-3.68-1.94-1.67-.43-3.38-.65-5.1-.64h-.03c-1.86,0-3.59.21-5.17.64"/>
        <path class="cls-12" d="M140.15,93.36c-2.18-4.82-3.97-8.69-5.32-11.48-2.61-5.42-3.37-6.48-3.73-6.81-.83-.84-2.08-1.5-3.7-1.94-1.58-.43-3.29-.65-5.1-.65v.96c1.72,0,3.35.21,4.84.61,1.46.4,2.56.97,3.29,1.71.27.25,1.07,1.41,3.53,6.53,1.35,2.79,3.13,6.64,5.31,11.46l3.35,7.46h-8.65l-.6.96h10.73"/>
        <path class="cls-12" d="M113.08,96.15l-2.41,5.06h-8.77l-1.47.97h.74s10.11,0,10.11,0l2.41-5.07h17.22l.6-.96"/>
        <path class="cls-4" d="M121.82,80.03l.38-.21v-.95c-.54.02-.94.2-1.16.55l-5.96,12.51,1.52-.96c.58-1.22,5.21-10.94,5.21-10.94"/>
        <path class="cls-10" d="M122.21,78.87v.94h.09l.33.21s4.71,9.72,5.29,10.94h-11.33l-1.52.97h14.39l-6.04-12.43c-.09-.27-.36-.64-1.12-.64h-.09M123.42,79.47v.03l.04.03-.04-.06Z"/>
        <path class="cls-12" d="M131.51,96.15l-.6.96c.24.48,2.46,5.07,2.46,5.07l.6-.96c-.23-.49-2.46-5.06-2.46-5.06"/>
        <path class="cls-11" d="M175.13,73.55v5.1h-15.34c-2.37,0-4.26.88-5.59,2.67-1.22,1.55-1.82,3.49-1.82,5.77v.55c.09,2.13.7,3.95,1.85,5.47,1.36,1.88,3.25,2.85,5.56,2.85h15.34l.97-.97h-16.31c-2.04,0-3.59-.79-4.81-2.43-1.09-1.49-1.67-3.34-1.67-5.47l.03-.24c.04-1.94.58-3.62,1.62-4.95,1.18-1.55,2.76-2.31,4.83-2.31h16.31v-6.99l-.97.94"/>
        <path class="cls-7" d="M158.31,72.61c-4.87,0-8.79,1.58-11.67,4.71-2.62,2.82-3.95,6.29-3.95,10.3,0,2.58.58,4.89,1.67,6.96.58,1.09,1.31,2.13,2.22,3.07,2.85,3.01,6.81,4.53,11.73,4.53h17.8v-7.17l-.97.97v5.23h-16.83c-4.65,0-8.36-1.4-11.03-4.22-.89-.93-1.63-1.98-2.21-3.13-.94-1.86-1.4-3.92-1.4-6.23,0-3.77,1.25-7.02,3.67-9.66,2.71-2.92,6.39-4.4,10.97-4.4h16.83l.97-.95h-17.8Z"/>
        <path class="cls-12" d="M181.29,73.56h8.13l.96-.96h-10.04v29.57l.96-.96"/>
        <path class="cls-4" d="M190.37,72.61l-.96.96v27.65h-8.13l-.96.96h10.04"/>
        <path class="cls-5" d="M209.68,73.13c-1.61.46-2.89,1.09-3.77,1.94-.3.36-1.03,1.43-3.64,6.84l-5.38,11.46-3.89,8.81,1.46-.97c.49-1.12,3.31-7.41,3.31-7.41l5.34-11.48c2.37-4.86,3.19-6.26,3.49-6.56.73-.7,1.86-1.28,3.31-1.67,1.59-.44,3.24-.65,4.89-.63h.03c1.73,0,3.38.21,4.86.64,1.46.39,2.56.94,3.29,1.7.27.24,1.06,1.4,3.52,6.53,1.83,3.79,3.6,7.61,5.32,11.45,0,0,2.82,6.32,3.34,7.45h-8.63l-.6.97h10.72l-3.95-8.81c-1.74-3.85-3.51-7.67-5.32-11.49-2.61-5.41-3.38-6.47-3.74-6.81-.82-.85-2.07-1.49-3.71-1.94-1.67-.44-3.38-.65-5.1-.64h-.03c-1.82,0-3.55.21-5.13.64"/>
        <path class="cls-12" d="M205.64,96.15l-2.41,5.06h-8.77l-1.47.97h.74s10.11,0,10.11,0l2.41-5.07h17.22l.6-.96"/>
        <path class="cls-6" d="M214.75,78.87v.94h.09l.33.21s4.71,9.72,5.32,10.94h-11.33l-1.52.97h14.37l-6.04-12.43c-.09-.27-.33-.64-1.13-.64h-.09M215.97,79.47v.03l.03.03-.03-.06Z"/>
        <path class="cls-4" d="M214.37,80.03l.39-.21v-.95c-.54.02-.94.2-1.16.55l-5.95,12.51,1.52-.96c.58-1.22,5.21-10.94,5.21-10.94"/>
        <path class="cls-12" d="M232.71,93.36c-2.18-4.82-3.97-8.69-5.32-11.48-2.61-5.42-3.38-6.48-3.73-6.81-.82-.84-2.08-1.5-3.7-1.94-1.58-.43-3.29-.65-5.1-.65v.96c1.73,0,3.36.21,4.85.61,1.45.4,2.56.97,3.28,1.71.27.25,1.07,1.41,3.53,6.53,1.34,2.79,3.13,6.64,5.31,11.46,0,0,2.84,6.32,3.35,7.46h-8.65l-.6.96h10.73"/>
        <path class="cls-12" d="M224.08,96.15l-.6.96c.24.48,2.46,5.07,2.46,5.07l.6-.96c-.24-.49-2.46-5.06-2.46-5.06"/>
        <path class="cls-3" d="M30.52,38.07l.03.03c.31,1.43,7.84,35.58,19.6,62.8,11.88,27.49,33.09,50.62,39.1,55.45l.21.18s.88.64,1.22.88c0,0-.45-1.34-.67-1.86-4.8-4.1-26.58-26.67-38.86-55.08-11.85-27.44-19.47-62.13-19.56-62.5-.37.03-.73.06-1.06.09M248.87,100.47c-12.27,28.41-34.09,51.07-38.85,55.12l-.04.06c-.18.46-.67,1.85-.67,1.85l1.19-.88.21-.18c6.02-4.86,27.29-28.04,39.17-55.54,11.73-27.13,19.36-61.37,19.66-62.8v-.03c-.36-.03-.73-.06-1.09-.09-.09.42-7.75,35.09-19.57,62.5"/>
        <path class="cls-21" d="M277.49,37.42l-.08-.02.08.02ZM92.4,249.68c-13.09-10.34-20.37-24.11-27.27-41.6-1.56-3.93-10.26-28.87-12.94-37.07l-7.33-23.35-6.76-23.45-4.49-16.95c-2.37-9.33-4.59-18.7-6.64-28.11-2.06-9.47-3.96-18.98-5.68-28.52l-.96-5.46c-.25-2.04,1.06-4,3.03-4.53l1.81-.3,5.13-.58c17.99-1.59,74.19-3.44,119.7-3.44s101.68,1.85,119.67,3.44l5.13.58,1.81.3c1.97.53,3.28,2.49,3.03,4.56l-.95,5.43c-1.73,9.54-3.62,19.05-5.68,28.52-2.05,9.41-4.27,18.78-6.64,28.11l-4.49,16.95-6.75,23.45-7.33,23.35c-2.69,8.22-11.39,33.17-12.93,37.07-6.9,17.49-14.19,31.25-27.28,41.6-11.75,9.28-23.88,14-57.58,14s-46.12-4.92-57.62-14M30.02,36.43l-5.31.6-2.21.38c-3.57.96-5.93,4.48-5.48,8.18l.99,5.62c1.73,9.58,3.63,19.13,5.71,28.64,2.06,9.44,4.29,18.85,6.67,28.22l4.5,17.02,6.78,23.53,7.35,23.42c2.77,8.47,11.39,33.19,13,37.26,7.11,17.99,14.64,32.19,28.32,43,13.93,11,28.99,14.72,59.69,14.72s45.71-3.72,59.64-14.72c13.67-10.81,21.21-25.01,28.32-43,1.6-4.04,10.22-28.77,13-37.26l7.36-23.43,6.78-23.52,4.5-17.02c2.38-9.37,4.6-18.78,6.67-28.22,2.07-9.51,3.97-19.06,5.71-28.64l.99-5.63.05-.9c0-3.35-2.26-6.39-5.54-7.27l-2.2-.38-5.31-.6c-18.06-1.6-74.39-3.46-119.97-3.46s-101.94,1.86-119.99,3.46"/>
      </g>
    </g>
  </g>
</svg>