<?xml version="1.0" encoding="UTF-8"?>
<svg id="Laag_2" data-name="Laag 2" xmlns="http://www.w3.org/2000/svg" xmlns:xlink="http://www.w3.org/1999/xlink" viewBox="0 0 300 300">
  <defs>
    <style>
      .cls-1 {
        fill: none;
      }

      .cls-2 {
        fill: #1b1b1b;
      }

      .cls-3 {
        fill: #6c141a;
      }

      .cls-4 {
        fill: url(#Naamloos_verloop_54);
      }

      .cls-5 {
        fill: url(#Naamloos_verloop_52);
      }

      .cls-6 {
        fill: #231f20;
      }

      .cls-7 {
        fill: #bdbcbc;
      }

      .cls-8 {
        fill: url(#Naamloos_verloop_52-4);
      }

      .cls-9 {
        fill: url(#Naamloos_verloop_52-2);
      }

      .cls-10 {
        fill: url(#Naamloos_verloop_52-3);
      }

      .cls-11 {
        fill: url(#Naamloos_verloop_53);
        stroke: #6c141a;
        stroke-miterlimit: 33.9;
        stroke-width: 16.95px;
      }

      .cls-12 {
        clip-path: url(#clippath);
      }
    </style>
    <clipPath id="clippath">
      <path class="cls-1" d="M274.49,128.81c.05.48.1.93.16,1.41,1.55,15.41,2.26,11.29-.16-1.41ZM43.97,64.14s12.27-11.31,21.02-19.65c0,0-11.68,6.55-21.02,19.65ZM40.7,214.27c6.95,14.01,13.78,23.13,13.78,23.13,0,0-6.51-9.82-13.78-23.13ZM268.22,79.62l-2.28-6.65,20.38,7.25-19.72-10.11,20.03-11.89-22.01,9.02,3.52-22.01-7.15,21.26-5.18-1.46c-10.86-16.15-25.79-24.23-44.57-33.24-34.91-16.75-81.43-12.31-81.43-12.31,0,0,54.93.7,96.94,25.6,8.68,5.14,15.91,12.28,21.92,20.34l-9.07.5,10.39,1.33c.98,1.38,1.93,2.78,2.84,4.21l-12.07,6.97,13.02-5.46c1.34,2.17,2.61,4.37,3.81,6.62l-5.15,16.11,6.08-14.34c9.02,17.44,13.77,35.96,15.95,47.46-2.52-24.06-6.93-41.21-13.15-54.08l.46-1.07s22.77,29.77,18.69,78.59c-4.09,48.82-15.77,66.09-27.45,78l-.58-5.96s-16.93,50.61-101.03,49.42c-84.1-1.19-90.52-28.58-90.52-28.58l-4.67-2.39s-19.85-15.47-32.12-56.56c-12.27-41.08-.58-74.42-.58-74.42,0,0-6.42,27.39-1.75,55.37,2.42,14.5,11.11,32.83,18.92,47.13-5.74-11.57-11.55-26.47-13.67-42.36-4.67-35.13-3.51-58.94,2.33-76.8,5.84-17.86,9.34-25.6,9.34-25.6,0,0-24.53,28.58-25.11,89.31-.58,60.73,50.81,102.41,73.58,111.34,22.78,8.93,94.61,20.84,137.82-9.53,43.22-30.37,40.3-38.1,54.31-66.09,14.02-27.98,8.18-84.54-11.09-114.91h0ZM257.99,68.48c-.05-.08-.09-.16-.14-.23l.44.05-.3.17ZM260,72.07c-.25-.47-.49-.94-.74-1.4l1.37-.58-.63,1.97h0ZM54.48,69.5c3.5-5.95,21.61-16.67,21.61-16.67,0,0-9.93,5.96-21.02,19.05-11.1,13.1,4.09-1.19,24.53-14.89,20.44-13.69,49.05-12.5,49.05-12.5,0,0-9.34-7.15-44.97,4.17l34.46-14.89s-52.56,11.31-67.74,32.75c-15.19,21.43.58,8.93,4.09,2.98h0ZM230.27,67.62c6.44,6.69,11.08,12.6,11.08,12.6,0,0-1.9-6.02-11.08-12.6ZM30.54,155.24c6.42,63.11,33.29,89.9,33.29,89.9,0,0,20.44,20.24,84.09,23.22,63.65,2.98,84.1-22.03,85.85-26.2,1.75-4.17-8.18,2.38-11.1,1.19-2.92-1.19,9.35-23.22,9.35-23.22-6.42,23.82,3.5-3.57,9.93-.59,6.42,2.97-12.85,10.72-6.42,16.67,6.42,5.95,19.85-36.32,28.61-55.37,8.76-19.05,5.84-38.7,5.26-51.2-.58-12.5-3.5-17.86-3.5-17.86l-1.75,29.77s1.17,4.16-8.18-16.67l-7.59-20.24c-5.26,92.88-26.28,128.01-26.28,128.01,0,0-7.59,23.22-68.91,23.81-61.32.59-70.08-15.48-70.08-15.48-19.85-26.2-31.53-82.16-28.61-119.07,2.92-36.91,0-47.04,26.28-58.35,26.28-11.31,65.99-12.5,65.99-12.5,47.7-1.34,71.68,8.08,83.52,16.57-1.53-1.59-3.09-3.14-4.69-4.66-8.76-8.33-89.93-25.6-132.56-8.93-42.63,16.67-45.55,32.75-42.63,81.57,2.92,48.82,18.1,89.31,28.62,104.79,10.51,15.48,47.89,20.24,47.89,20.24-50.81-1.19-56.65-27.98-59.57-32.75-2.92-4.76-11.68-14.29-13.43-6.55-1.75,7.74-17.45-39.59-14.53-41.97,2.92-2.38,20.96,24.11,20.96,24.11,0,0-6.42-13.1-12.85-50.01-6.42-36.91,3.5-55.37-2.92-56.56-6.42-1.19,7.99,54.47-10.41,56.94-5.24.71-.89-49.23,1.45-59.35,2.33-10.12,4.88-13.08,4.88-13.08,0,0-16.35,10.72-9.93,73.83h0Z"/>
    </clipPath>
    <linearGradient id="Naamloos_verloop_54" data-name="Naamloos verloop 54" x1="1514.5" y1="3865.75" x2="1578.52" y2="3804.55" gradientTransform="translate(-3127.51 -7745.81) scale(2.08)" gradientUnits="userSpaceOnUse">
      <stop offset="0" stop-color="#8c8c8c"/>
      <stop offset=".5" stop-color="#474647"/>
      <stop offset=".75" stop-color="#fff"/>
      <stop offset="1" stop-color="#fff"/>
    </linearGradient>
    <radialGradient id="Naamloos_verloop_53" data-name="Naamloos verloop 53" cx="4340.08" cy="6074.11" fx="4340.08" fy="6074.11" r="11.06" gradientTransform="translate(-36630.36 -54868.89) scale(8.47 9.06)" gradientUnits="userSpaceOnUse">
      <stop offset="0" stop-color="#e51148"/>
      <stop offset="1" stop-color="#7c142a"/>
    </radialGradient>
    <radialGradient id="Naamloos_verloop_52" data-name="Naamloos verloop 52" cx="5232.35" cy="6584.86" fx="5232.35" fy="6584.86" r="6.21" gradientTransform="translate(-85924.67 -93843.46) scale(16.45 14.27)" gradientUnits="userSpaceOnUse">
      <stop offset="0" stop-color="#d3d1d2"/>
      <stop offset=".5" stop-color="#cac8c9"/>
      <stop offset="1" stop-color="#8d8b8c"/>
    </radialGradient>
    <radialGradient id="Naamloos_verloop_52-2" data-name="Naamloos verloop 52" r="6.21" xlink:href="#Naamloos_verloop_52"/>
    <radialGradient id="Naamloos_verloop_52-3" data-name="Naamloos verloop 52" r="6.21" xlink:href="#Naamloos_verloop_52"/>
    <radialGradient id="Naamloos_verloop_52-4" data-name="Naamloos verloop 52" cx="5232.35" cy="6584.86" fx="5232.35" fy="6584.86" r="6.21" xlink:href="#Naamloos_verloop_52"/>
  </defs>
  <g id="Laag_1-2" data-name="Laag 1">
    <g>
      <rect class="cls-1" width="300" height="300"/>
      <g>
        <path class="cls-6" d="M291.14,150c0,77.95-63.19,141.14-141.14,141.14S8.86,227.95,8.86,150,72.05,8.86,150,8.86s141.14,63.19,141.14,141.13"/>
        <path class="cls-7" d="M286.18,150c0,75.22-60.97,136.19-136.18,136.19S13.81,225.21,13.81,150c0-75.21,60.97-136.18,136.19-136.18s136.18,60.97,136.18,136.18"/>
        <path class="cls-6" d="M40.47,81.41c0,.11-15.11,2.41-15.09,2.48.07.38-.78,77.73,13.02,73.83,9.09-4.28,4.2-54.68,4.2-47.9,0,9.45.92,24.95,4.54,49.29,4.09,27.42,2.36,30.83,4.27,36.74-4.43-4.3-11.33-6.24-11.33-6.24l9.78,33.05,7.2-.07s.1-2.22.2-2.33c.19,0,7.11.51,11.87,9.21,27.5,50.34,99.91,30.98,80.96,32.07l29.84-3.59c-87.39,14.95-103.78-25.34-108.17-33.39-2.75-4.03-10.67-8.26-15.64-5.85,0,0,12.14.49,11.6-2.73,3.79,3.69-9.44-5.97-9.44-5.97l.67,2.09c2.05.21,1.13-2.01,3.29-2.37l-2.68-1.23c-.34-.42,1.49-2.61-5.06-46.58-3.6-24.16-2.87-42.96-2.87-52.32s-.59-9.71-.58-9.78l-5.32-3.48-1.02-.21c-1.47-.3-2.92-.77-3.55-1.12.33-.49.52-1.14.52-2.21s-.11-2.39-.26-4.13c-.19-2.33-.1-10.69-.42-7.9-16.97,147.26,6.52-16.48,3.64-13.34l1.65-1.87c7.99-9.23,35.91-30.77,107.96-32.46,76.19-1.79,76.53,26.04,76.79,26.45l19.74,9.78c-.26-.42-25.89-42.96-103.26-41.15-72.91,1.71-94.55,26.68-102.7,36.09l-1.61,1.83c-3.35,3.65-7.19,3.69-7.19,9.07,0,2.87-3.22,6.7-3.03,9.08,9.41,16.52,6.16,8.36,7.53-2.86h0ZM248.81,74.32c-1.66.71-1.41,3.41-1.06,7.14.25,2.78.55,5.93,0,8.13l1.9.48c.63-2.53.32-5.85.05-8.79-.17-1.87-.44-4.69-.04-5.2.05.06.6,21.04,4.92,26.05,6.88,7.96,3.45,3.38,3.45,17.25,0,6.84,5.11,14.81,4.91,17.6-2.55-3.23-3.27-11.52-3.92-18.96-.76-8.67-1.41-16.15-4.49-18.63,3.8-3.33-9.4-20.78-8.5-8.96.62,4.13-1.4-9.28-4.34-13.85-8.99-13.99-27.62-30.34-92.35-32.59-59.34-2.06-88.75,22.3-96.31,29.73l.98-1.69-9.64-4.97-2.73,28.87,4.13-6.51s6.66-12.08,6.78-12.36c1.04-1.23,29.16-33.43,96.72-31.08,72.01,2.5,85.16,22.96,90.78,31.69,2.7,4.21,3.41,8.92,4.04,13.07.82,5.47,1.61,10.63,7.75,9.81.56-.07,1.03.05,1.46.4,2.43,1.96,3.11,9.74,3.76,17.26.86,9.95,1.69,19.35,6.26,21.66l1.27.64.14-1.43c.17-1.83,4.12-44.85-8.07-58.96-4.8-5.55-6.56-6.32-7.86-5.77h0ZM274.86,109.99c-1.23-5.72-3.08-11.29-5.52-16.61,1.38,3.19,3.59,8.87,5.52,16.61ZM269.34,93.38c-.28-.65-.56-1.29-.86-1.92.32.64.57,1.28.86,1.92ZM263.2,79.13c16.1,15.52,13.21,55.58,13.21,55.58l-7.83-9.1v38.81l-5.42,10.91c-9.64,51.55-32.53,97.03-122.29,94.61-89.76-2.43-103.61-50.33-112.04-95.82-8.43-45.48,3.61-95.21,3.61-95.21-26.51,78.84,4.82,138.27,4.82,138.27,0,0,15.06,55.79,107.83,55.19,92.77-.61,107.23-52.15,107.23-52.15l1.69,13.01s21.55-19.71,28.17-60.95c3.36-20.88-9.62-84.13-18.97-93.15h0ZM268.47,91.45c-.31-.66-.5-1.02-.5-1.02.18.34.34.68.5,1.02"/>
        <g class="cls-12">
          <path class="cls-4" d="M43.97,64.14s12.27-11.31,21.02-19.65c0,0-11.68,6.55-21.02,19.65ZM40.7,214.27c6.95,14.01,13.78,23.13,13.78,23.13,0,0-6.51-9.82-13.78-23.13ZM268.22,79.62l-2.28-6.65,20.38,7.25-19.72-10.11,20.03-11.89-22.01,9.02,3.52-22.01-7.15,21.26-5.18-1.46c-10.86-16.15-25.79-24.23-44.57-33.24-34.91-16.75-81.43-12.31-81.43-12.31,0,0,54.93.7,96.94,25.6,8.68,5.14,15.91,12.28,21.92,20.34l-9.07.5,10.39,1.33c.98,1.38,1.93,2.78,2.84,4.21l-12.07,6.97,13.02-5.46c1.34,2.17,2.61,4.37,3.81,6.62l-5.15,16.11,6.08-14.34c9.02,17.44,13.77,35.96,15.95,47.46-2.52-24.06-6.93-41.21-13.15-54.08l.46-1.07s22.77,29.77,18.69,78.59c-4.09,48.82-15.77,66.09-27.45,78l-.58-5.96s-16.93,50.61-101.03,49.42c-84.1-1.19-90.52-28.58-90.52-28.58l-4.67-2.39s-19.85-15.47-32.12-56.56c-12.27-41.08-.58-74.42-.58-74.42,0,0-6.42,27.39-1.75,55.37,2.42,14.5,11.11,32.83,18.92,47.13-5.74-11.57-11.55-26.47-13.67-42.36-4.67-35.13-3.51-58.94,2.33-76.8,5.84-17.86,9.34-25.6,9.34-25.6,0,0-24.53,28.58-25.11,89.31-.58,60.73,50.81,102.41,73.58,111.34,22.78,8.93,94.61,20.84,137.82-9.53,43.22-30.37,40.3-38.1,54.31-66.09,14.02-27.98,8.18-84.54-11.09-114.91h0ZM257.99,68.48c-.05-.08-.09-.16-.14-.23l.44.05-.3.17ZM260,72.07c-.25-.47-.49-.94-.74-1.4l1.37-.58-.63,1.97h0ZM54.48,69.5c3.5-5.95,21.61-16.67,21.61-16.67,0,0-9.93,5.96-21.02,19.05-11.1,13.1,4.09-1.19,24.53-14.89,20.44-13.69,49.05-12.5,49.05-12.5,0,0-9.34-7.15-44.97,4.17l34.46-14.89s-52.56,11.31-67.74,32.75c-15.19,21.43.58,8.93,4.09,2.98h0ZM230.27,67.62c6.44,6.69,11.08,12.6,11.08,12.6,0,0-1.9-6.02-11.08-12.6ZM30.54,155.24c6.42,63.11,33.29,89.9,33.29,89.9,0,0,20.44,20.24,84.09,23.22,63.65,2.98,84.1-22.03,85.85-26.2,1.75-4.17-8.18,2.38-11.1,1.19-2.92-1.19,9.35-23.22,9.35-23.22-6.42,23.82,3.5-3.57,9.93-.59,6.42,2.97-12.85,10.72-6.42,16.67,6.42,5.95,19.85-36.32,28.61-55.37,8.76-19.05,5.84-38.7,5.26-51.2-.58-12.5-3.5-17.86-3.5-17.86l-1.75,29.77s1.17,4.16-8.18-16.67l-7.59-20.24c-5.26,92.88-26.28,128.01-26.28,128.01,0,0-7.59,23.22-68.91,23.81-61.32.59-70.08-15.48-70.08-15.48-19.85-26.2-31.53-82.16-28.61-119.07,2.92-36.91,0-47.04,26.28-58.35,26.28-11.31,65.99-12.5,65.99-12.5,47.7-1.34,71.68,8.08,83.52,16.57-1.53-1.59-3.09-3.14-4.69-4.66-8.76-8.33-89.93-25.6-132.56-8.93-42.63,16.67-45.55,32.75-42.63,81.57,2.92,48.82,18.1,89.31,28.62,104.79,10.51,15.48,47.89,20.24,47.89,20.24-50.81-1.19-56.65-27.98-59.57-32.75-2.92-4.76-11.68-14.29-13.43-6.55-1.75,7.74-17.45-39.59-14.53-41.97,2.92-2.38,20.96,24.11,20.96,24.11,0,0-6.42-13.1-12.85-50.01-6.42-36.91,3.5-55.37-2.92-56.56s7.99,54.47-10.41,56.94c-5.24.71-.89-49.23,1.45-59.35,2.33-10.12,4.88-13.08,4.88-13.08,0,0-16.35,10.72-9.93,73.83"/>
        </g>
        <path class="cls-11" d="M158.67,252.53c.1,0,14.64-.72,27.31-3.57,11.02-2.48,20.77-7.22,20.86-7.27l.04-.02.04-.02c.05-.02,5.49-2.37,8.83-5.56,3.39-3.24,4.93-7.48,4.94-7.52.07-.18,6-15.99,10.48-32.87,4.13-15.54,6.96-32.71,6.99-32.88.04-.23,3.46-17.58,4.42-36.04.81-15.52-.8-33.13-.82-33.31,0-.13-.84-10.56-5.02-17.39-3.76-6.13-11.03-9.14-11.1-9.17l-.06-.02-.06-.03c-.08-.04-8.52-4.27-24.52-7.75-12.76-2.78-30.5-4.76-45.18-5.04-16.79-.33-34.82.84-48.21,3.13-16.07,2.75-26.5,6.83-26.61,6.87l-.09.03-.09.02c-.1.03-10.51,2.88-15.99,9.83-5.56,7.06-6.46,18.65-6.47,18.77v.07c-.02.12-1.19,10.12-1.19,22.38,0,2.2.04,4.47.13,6.77.63,16.33,3.48,34.42,3.51,34.6.03.18,3.9,21.42,8.31,39.32,3.27,13.27,7.52,25.01,7.56,25.13l.03.08.02.09c.02.06,1.47,6.02,3.82,10.17,2.05,3.62,5.08,5.74,5.11,5.76l.05.03.05.04s2.08,1.68,5.24,3.41c3.64,1.99,8.51,4.13,8.72,4.21.34.13,11.08,4.25,25.24,6.12,14.79,1.95,33.51,1.63,33.7,1.63Z"/>
        <path class="cls-3" d="M94.5,241.16c-.64-.29-.99-.46-.99-.46-.04-.02-.22-.1-.51-.23l-.11-.64c-2.54-13.98-6.41-39.53-7.67-70.68-1.57-36.63-1.51-81.52-1.36-103.27v-1.57c.43-.14.87-.29,1.33-.44v1.58c-.14,21.56-.22,66.79,1.36,103.65,1.29,31.69,5.28,57.56,7.8,71.3l.16.76h0Z"/>
        <path class="cls-3" d="M98.69,242.95c-.51-.21-1-.41-1.44-.6l-.12-.98c-1.85-13.17-5.11-40.01-6.67-74.35-1.65-36.5-1.35-82.39-1.09-103.25v-1.17c.44-.12.88-.25,1.33-.37v1.29c-.26,20.72-.56,66.81,1.09,103.44,1.59,35.12,4.97,62.37,6.79,75.14l.12.84ZM130,56.95c.33,40.44,1.3,157.08,1.58,190.87l.03,2.85c-.43-.05-.88-.1-1.32-.15l-.03-2.71c-.28-33.77-1.25-150.11-1.58-190.69l-.03-1.18c.45-.04.9-.08,1.34-.11l.02,1.12ZM147.33,56.43l.63,192.36v2.7c-.46,0-.91,0-1.33.01v-3.06c-.13-40.14-.52-157.66-.63-192.45v-.91s1.29-.02,1.29-.02l.04,1.36h0ZM153.99,56.6l-.95,192.19v2.6c-.46.01-.91.02-1.35.03l.02-2.11c.17-34.14.76-153.68.96-192.97l-.03-1.27c.46,0,.93,0,1.39.02l-.02,1.51ZM171.98,248.1c.95-15.81,2.76-49.34,3.5-87.28.76-38.66.42-82.67.19-103.33l-.08-1.33c.54.05,1.07.1,1.61.15l.07,1.7c.23,20.89.56,64.49-.19,102.84-.74,37.62-2.52,70.91-3.48,86.91l-.14,2.29c-.56.07-1.04.13-1.61.19l.13-2.14ZM217.45,232.42c-.63.86-1.33,1.66-2.1,2.4l.64-3.39c2.78-14.41,6.38-36.71,8.18-62.89,2.13-31.12,2.41-73.68,2.36-97.87l.03-2.32c.52.29,1.04.59,1.57.92v3.09c.03,24.46-.28,65.83-2.36,96.28-1.76,25.7-5.26,47.68-8.03,62.17l-.29,1.62ZM232.83,180.21c1.27-10.01,2.26-20.06,2.95-30.14,1.61-23.74,1.65-50.63,1.45-67.74l-.03-2.86c.65,1.46,1.2,2.97,1.65,4.51l.03,2.65c.14,17.14-.01,41.67-1.49,63.54-.3,4.49-.67,8.98-1.1,13.46l-.49,4.81c-1.18,5.94-2.44,11.87-3.76,17.78l.8-6.02h0Z"/>
        <path class="cls-3" d="M211.79,237.63c-.51.34-1.11.74-1.8,1.15l.49-2.73c2.67-14.68,6.82-41.33,8.45-72.3,1.79-34.02,1.8-74.46,1.65-95.16l-.06-2.93c.46.16,1,.36,1.59.6l.07,2.73c.15,20.84.13,61.01-1.65,94.84-1.59,30.12-5.55,56.16-8.23,71.15l-.51,2.65h0ZM192.15,244.36c1.26-13.68,3.57-42,4.68-76.17,1.25-38.35,1.25-83.81,1.16-105.76l-.05-3.12c.56.11,1.11.23,1.64.35v3.02c.1,22.06.09,67.33-1.16,105.57-1.1,33.94-3.39,62.12-4.66,75.95l-.16,1.68c-.53.16-1.06.32-1.65.48l.18-1.99ZM186.62,245.65c1.38-11.62,3.65-34.14,4.59-63.43,1.36-42.62,1.2-96.36,1.02-121.23l-.03-2.77c.53.09,1.05.18,1.57.28l.06,2.89c.18,25.06.34,78.47-1.02,120.88-.92,28.84-3.13,51.13-4.53,62.96l-.26,2.14c-.53.13-1.1.27-1.66.4l.26-2.13h0ZM182.14,246.59c1.08-12.28,2.95-36.61,3.83-66.21,1.23-41.37.91-93.75.61-121.06l-.03-1.95c.55.07,1.08.15,1.61.23l.03,2.61c.29,27.56.59,79.28-.63,120.22-.86,29.14-2.69,53.19-3.78,65.69l-.2,2.27c-.55.11-1.07.22-1.64.33l.19-2.11h0ZM176.94,247.64c.92-14.35,2.65-44.33,3.41-76.49,1.01-42.75,1.06-90.43,1.01-112.75l-.04-1.68c.54.06,1.08.12,1.62.18l.03,1.89c.04,22.49-.01,69.88-1.01,112.39-.75,31.77-2.45,61.42-3.38,75.99l-.14,2.15c-.57.1-1.03.18-1.62.27l.12-1.96h0ZM171.44,57.65c-.07,22.84-.3,74.67-1.04,118.88-.41,23.75-1.09,47.49-2.05,71.22l-.12,2.83c-.45.04-.91.08-1.36.11l.13-2.52c.56-13.72,1.55-40.72,2.07-71.67.75-44.42.97-96.54,1.04-119.2v-1.57c.46.03.91.06,1.35.09l-.02,1.82h0ZM164.86,56.6c.19,20.16.46,59.62.22,96.8-.27,40.25-1.14,78.67-1.55,95.22l-.05,2.32c-.45.03-.91.06-1.36.08l.06-1.96c.41-16.28,1.29-55.04,1.56-95.67.25-36.96-.02-76.18-.21-96.43v-1.59c.43.02.87.04,1.32.06v1.18s.01,0,.01,0ZM159.63,56.52c.27,23.12.65,64.51.47,103.54-.17,36.31-.95,71.09-1.42,89.26l-.04,1.88-1.34.06.06-2.2c.47-18.23,1.24-52.86,1.41-89,.19-38.84-.19-80-.47-103.18l-.03-1.69,1.34.04.02,1.3h0ZM112.54,247.53c-.46-.11-.92-.23-1.38-.36l-.08-.87c-1.12-12.07-3.37-39.22-4.3-71.09-1.19-40.66-.79-91.47-.5-115.4v-1.05c.43-.08.88-.15,1.33-.23v1.06c-.29,23.82-.69,74.81.5,115.57.94,32.28,3.24,59.71,4.34,71.51l.09.85h0ZM103.51,244.78c-.48-.17-.95-.34-1.41-.51l-.11-1c-2.04-16.99-5.98-53.7-7.23-92.65-1.06-32.95-.14-69.73.47-88.22l.02-1.36c.44-.11.89-.22,1.34-.32l-.02,1.17c-.61,18.29-1.56,55.44-.49,88.69,1.27,39.5,5.3,76.69,7.31,93.3l.1.9h0ZM65.58,177.05c-1.63-7.92-2.58-13.71-2.59-13.81l-.23-3.47c-.94-11.86-1.78-25.14-1.98-36.46-.23-13.39-.13-26.78.02-36.79l-.06-1.28c.4-1.58.9-3.14,1.49-4.66l-.11,7.12c-.14,9.87-.23,22.73,0,35.59.25,14.33,1.53,31.8,2.74,45.53l.73,8.23h0ZM77.16,219.33c-.92-2.71-1.98-5.9-3.08-9.39l-.81-4.68c-2.08-12.28-3.92-25.32-4.44-35.33-2.72-33.3-2.85-71.74-2.68-92.2l.03-3.76c.42-.46.86-.9,1.3-1.31v3.56c-.18,20-.11,59.51,2.67,93.62.61,11.68,3.02,27.49,5.5,41.39l1.5,8.11ZM83.71,226.33c-2.74-13.5-6.12-33.41-7.86-56.17-2.71-35.32-2.62-76.89-2.35-97.45l.03-4.25c-.39.2-.85.45-1.37.75v3.54c-.26,20.61-.35,62.17,2.36,97.5,1.74,22.67,5.1,42.53,7.83,56.07l1.7,8.03c.29.33.61.66.94.98.24.23.49.45.75.68l-2.03-9.68h0ZM107.82,245.48c-1.24-11.13-3.43-33.68-4.33-60.9-1.49-44.78-1.6-100.66-1.57-123.87v-1.13c-.47.09-.92.18-1.36.27l.03.99c-.03,23.3.08,79.08,1.57,123.79.89,26.61,3,48.77,4.25,60.19l.1.98c.46.15.92.29,1.39.44l-.08-.76h0Z"/>
        <path class="cls-3" d="M79.5,65.87c-.49.19-.94.37-1.36.53l-.02,2c-.45,20.9-1.03,62.68.63,90.13,2.36,38.93,7.24,66.53,9.65,78.38l.22,1.17c.51.32,1.09.67,1.57.94l-.3-1.43c-2.33-11.24-7.4-39.2-9.81-79.13-1.67-27.64-1.06-69.84-.62-90.54l.04-2.1M113.34,57.66l-1.35.19.02,1.12c-.23,21.76-.53,64.81.18,102.5.67,35.83,2.87,68.51,4.11,84.69l.16,2.25c.45.09.91.18,1.36.27l-.15-1.99c-1.23-15.93-3.47-48.97-4.15-85.25-.71-37.73-.41-80.83-.18-102.56v-1.22s0,0,0,0ZM119,56.92c-.46.05-.91.11-1.36.17v1.09c-.35,17.75-.86,54.46-.11,91.02.81,41.58,2.98,80.83,4.04,98.07l.12,2.09c.46.07.91.15,1.37.22l-.15-2.28c-1.05-17.18-3.23-56.48-4.04-98.12-.75-36.62-.23-73.39.11-91.08l.03-1.17h0ZM124.45,56.33c-.44.04-.89.09-1.33.13v1.1c-.16,19.05-.36,59.09.09,97.94.44,37.67,1.58,74.92,2.15,91.98l.08,2.44c.45.06.9.12,1.34.18l-.09-2.63c-.57-17.04-1.71-54.3-2.15-91.98-.46-39.03-.25-79.26-.1-98.19v-.97s0,0,0,0ZM136.01,55.43c-.46.03-.93.05-1.39.08l.03.74c.23,34.91,1.02,153.95,1.28,192.54l.02,2.31c.47.04.92.08,1.34.11l-.03-2.33c-.26-38.51-1.05-157.87-1.28-192.71l.03-.74h0ZM141.62,55.18c-.45.01-.91.03-1.36.05l.03,1.29.35,191.74-.02,3.18c.35.02.6.03.74.04.08,0,.28,0,.61,0v-3.32c-.06-35.85-.28-154.73-.35-191.66v-1.33s0,0,0,0ZM196.67,242.55c1.93-16.2,5.42-49.7,6.9-89.86,1.1-29.9.23-70.01-.35-90.07l-.1-2.16c.56.13,1.1.27,1.64.4l.08,2.22c.58,20.24,1.43,59.97.33,89.67-1.48,40.11-4.97,73.59-6.9,89.87l-.23,1.86c-.56.19-1.12.38-1.68.55l.31-2.48h0Z"/>
        <path class="cls-3" d="M203.35,240.23c1.56-14.11,4.29-41.99,5.94-76.78,1.58-33.4,1.5-76.52,1.31-99.38l-.03-1.66c-.52-.15-1.05-.3-1.61-.46l.05,1.97c.19,22.8.28,66.01-1.3,99.45-1.67,35.2-4.45,63.33-5.99,77.23l-.3,2.52c.48-.22,1.04-.48,1.66-.77l.28-2.13h0ZM208.25,237.14c1.89-12.63,4.45-33.27,5.91-59.64,2.17-39.23,2.56-89.27,2.62-111.64l-.03-1.49c-.45-.16-.98-.33-1.58-.54l.02,1.5c-.06,22.09-.44,72.58-2.62,112.07-1.51,27.45-4.23,48.67-6.13,61.07l-.37,2.44c.59-.29,1.17-.59,1.75-.9l.44-2.87h0ZM222.25,220.77s1.44-3.96,3.21-9.61l.67-4.4c2.18-14.59,4.48-32.79,6.01-52.51,2.03-26.25,1.59-58.23,1.02-77.48l-.12-3.63c-.53-.54-1.09-1.06-1.67-1.55l.13,2.96c.59,18.89,1.16,52.34-.95,79.58-1.77,22.9-4.59,43.74-7.05,59.25l-1.24,7.39h0Z"/>
        <g>
          <path class="cls-2" d="M109.28,163.38v-13.85h-11.88l.04-34.87h15.51l-.08-14h-32.25l2.91,107.16h14.17l-.31-44.44h11.88ZM118.47,100.66l1.79,107.16h14.63l.3-107.16h-16.72ZM212.44,207.82l3-93.66h11.46l-.09-13.5h-39.76v13.52h11.56l-.33,93.64h14.16ZM157.26,150.26l.16-36.4h8.17c3.7,8.11,6.08,18.83,7.95,36.4h-16.28ZM144.21,207.82h13.55l.15-44.31h16.23c1.28,7.82,1.59,31.96,1.66,44.31h13.14c1.24-54.71-2.61-85.63-13.25-107.16h-32.72l1.24,107.16h0Z"/>
          <g>
            <path class="cls-5" d="M111.02,147.61h-11.91l.04-34.87h15.55l-.08-14h-32.33l2.92,107.16h14.2l-.31-44.44h11.91v-13.85Z"/>
            <path class="cls-9" d="M136.99,98.74h-16.76l1.8,107.16h14.67l.3-107.16Z"/>
            <path class="cls-10" d="M200.25,205.9h14.19l3.01-93.66h11.49l-.09-13.5h-39.86v13.52h11.59l-.33,93.64Z"/>
            <path class="cls-8" d="M159.11,148.34l.16-36.4h8.19c3.71,8.11,6.1,18.83,7.97,36.4h-16.32ZM146.03,205.9h13.58l.15-44.31h16.27c1.28,7.82,1.59,31.96,1.67,44.31h13.17c1.24-54.71-2.62-85.63-13.29-107.16h-32.8l1.24,107.16Z"/>
          </g>
        </g>
      </g>
    </g>
  </g>
</svg>