<?xml version="1.0" encoding="UTF-8"?>
<svg id="Laag_2" data-name="Laag 2" xmlns="http://www.w3.org/2000/svg" viewBox="0 0 300 300">
  <defs>
    <style>
      .cls-1 {
        fill: none;
      }

      .cls-2 {
        fill: #fff;
      }

      .cls-3 {
        fill: #21264f;
      }
    </style>
  </defs>
  <g id="Laag_1-2" data-name="Laag 1">
    <g>
      <rect class="cls-1" width="300" height="300"/>
      <g id="g2317">
        <path id="path2" class="cls-3" d="M150,99.39c-77.68,0-140.6,22.62-140.6,50.61s62.92,50.6,140.6,50.6,140.6-22.63,140.6-50.6-62.91-50.61-140.6-50.61Z"/>
        <path id="path6" class="cls-2" d="M150.71,196.17c-74.81,0-135.45-20.9-135.45-46.68s60.64-46.68,135.45-46.68,135.44,20.89,135.44,46.68-60.64,46.68-135.44,46.68h0ZM150.71,106.86c-72.18,0-130.69,19.08-130.69,42.63s58.51,42.64,130.69,42.64,130.68-19.09,130.68-42.64-58.5-42.63-130.68-42.63h0Z"/>
        <path id="path8" class="cls-2" d="M115.38,114.44c-1.92,0-3.85.08-5.8.24-12.92,1.08-25.22,8.28-25.24,19.21-.01,5.54,3.97,10.04,10.14,9.84,7.25-.24,13.2-5.99,16.31-13.24,1.18-2.75-1.01-3.89-2.05-2.31-1.81,2.77-4.34,4.99-7.31,6.44-3.41,1.65-7.06,1.21-8.16-1.53-1.55-3.87,1.68-9.66,9.05-12.38,10.65-3.9,21.79-1.32,32.5.67.15,0,.72.31.22.57-1.92,1.04-3.81,1.88-6.75,4.39-2.11,1.79-4.87,4.17-7.01,6.77-2.12,2.56-3.63,4.84-5.61,7.37-.28.37-.62.35-.61.35-4.85.81-9.6,1.35-13.94,4.35-.9.61-1.29,1.7-.74,2.54.49.74,1.61.82,2.39.26,2.7-2,5.48-2.94,8.67-3.03.14,0,.21.03.25.12.02.05,0,.15-.05.22-4.78,6.56-5.97,8.04-9.57,12.11-1.84,2.09-3.65,3.86-5.66,5.69-8.16,7.5-16.93,7.38-20.08,2.67-1.88-2.82-1.63-5.79-.4-8.25,1.52-3.01,4.58-5.22,7.14-6.51.95-.48,1.22-1.68.27-2.77-.6-.71-2.06-.84-3.15-.64-3.34.61-7.29,3.11-9.62,6.12-2.63,3.38-3.94,7.48-3.5,12.08.79,8.3,7.7,13.1,15.54,13.05,6.24-.05,12.11-1.92,19.18-9.03,6.59-6.63,12.6-16.53,18.22-25.71.18-.29.3-.45,1.16-.56,3.53-.44,8.73-.93,12.07-1.13.74-.04.89-.03,1.19.33.87,1.09,2.18,2.01,3.22,2.57.51.27.75.41,1.15.42.49.01.88-.25,1.13-.53.35-.38.45-.89.26-1.21-.2-.34-2.53-1.62-2.6-2.13-.05-.32.3-.4.3-.4,1.71-.53,3.49-1.63,4.57-3.67,1.06-2.01,1.23-4.7-.71-6.2-1.7-1.31-4.27-1.11-6.32.72-2.01,1.77-2.67,4.34-2.4,6.6.05.39.03.52-.51.57-3.08.24-6.06.33-9.36.5-.22.02-.29-.13-.16-.28,3.81-6.55,9.49-11.21,15.77-15.8.42-.31.29-.9.27-1.39,11.35,2.44,22.32,6.99,34.09,6.89,4.87-.04,9.53-.77,13.99-3.19,3.92-2.12,5.51-4.07,5.63-6.11.09-1.41-.9-2.29-2.3-1.99-11.9,2.71-23.25,2.68-35.08,1.26-13.52-1.62-26.49-4.97-39.95-4.93h0ZM139.13,133.41c.28.01.54.11.75.29.63.53.33,1.85-.3,2.77-.69,1.01-1.87,1.88-2.94,2.1-.21.04-.4-.05-.49-.52h0c-.17-1.25.24-2.92,1.58-4.09.42-.37.93-.56,1.4-.54h0ZM234.63,133.65c-2.16,0-5,0-7.25,0-.54,0-.81.06-1.07.56-.83,1.58-10.97,16.62-12.86,19.54-.32.44-.71.38-.75-.12-.19-1.73-1.7-3.73-4.09-4.68-1.82-.73-3.59-.86-5.44-.62-3.33.44-6.3,2.19-8.92,4.15-3.94,2.96-7.33,6.8-11.72,9.64-2.39,1.54-5.67,2.89-7.86.88-1.98-1.82-1.76-5.87,1.28-9,.32-.33.7-.05.64.24-.29,1.42.07,2.82,1.15,3.81,1.32,1.17,3.22,1.31,4.84.52,1.92-.94,3.04-2.75,3.37-4.81.51-3.19-1.98-6.01-5.08-6.24-2.52-.18-4.94.69-7.3,2.62-1.18.97-1.86,1.69-2.88,3.13-.25.35-.63.39-.62-.13.12-4.09-1.59-6.39-5.01-6.47-2.65-.06-5.48,1.36-7.69,3.1-2.42,1.92-4.53,4.47-6.8,6.87-.28.3-.53.28-.61-.29-.07-2.71-.76-5.33-2.02-7.2-.45-.65-1.39-.97-2.18-.53-.37.2-1.64.78-2.57,1.52-.46.38-.64.92-.44,1.61,1.22,4.05.95,8.65-.7,12.54-1.52,3.56-4.48,6.77-7.96,7.86-2.29.72-4.67.37-6.15-1.64-2.02-2.78-1.21-7.6,1.81-11.61,2.66-3.53,6.52-5.77,10.36-7.22.45-.17.54-.46.42-.84-.21-.63-.54-1.48-.68-1.87-.35-.93-1.34-1.08-2.54-.95-2.79.32-5.31,1.27-7.8,2.59-6.52,3.45-9.78,10.14-11.21,13.72-.69,1.72-1.28,2.79-2.04,3.74-1.03,1.28-2.32,2.44-4.67,4.49-.21.19-.37.58-.19.94.24.49,1.47,2.21,1.81,2.36.38.19.83-.07,1.01-.2,1.65-1.11,3.62-2.86,4.59-4.05.34-.41.69-.24.87.38.9,3.18,3.26,5.78,6.53,6.87,5.97,1.99,12.17-.89,16.85-5.92,2.97-3.19,4.04-5.25,5.18-6.65,1.93-2.37,5.74-7.67,10.27-11.07,1.66-1.25,3.63-2.21,4.62-1.58.79.51,1.05,1.69-.23,3.99-4.62,8.36-11.43,18.19-12.68,20.57-.23.41-.03.74.41.74,2.42-.01,4.82,0,7.02,0,.36-.02.53-.18.71-.44,3.55-5.5,6.89-10.74,10.47-16.15.2-.32.39-.07.39.07.07,1.26.39,2.97,1.14,4.1,1.35,2.09,3.27,2.98,5.4,2.99,1.69.02,2.55-.24,4.37-.91,1.28-.47,2.48-1.12,3.59-1.91.53-.37.63.25.61.34-.82,4.37.19,9.54,4.58,11.69,5.25,2.56,11.01-1.04,14.33-4.29.32-.31.67-.28.71.39.07,1.24.64,2.71,1.67,3.74,2.78,2.76,8.39,1.67,14.01-2.65,3.61-2.76,7.39-6.66,10.81-10.79.13-.16.22-.42-.02-.68-.52-.54-1.27-1.16-1.79-1.63-.23-.2-.58-.14-.78,0-3.5,3.3-6.65,7.06-11.21,10.16-1.54,1.06-3.98,1.92-5.08.44-.43-.57-.38-1.36.04-2.4,1.33-3.28,22.35-34.97,23.44-36.84h0c.19-.33-.01-.57-.43-.57h0ZM205.17,153.46c.55,0,1.07.1,1.54.32,2.59,1.22,1.76,4.19.6,6.52-.08.15-.1.32-.05.48.04.24.36.48.67.59.11.04.17.12.05.37-.89,1.9-1.72,2.99-2.84,4.64-1.03,1.52-2.19,2.71-3.6,3.85-2.12,1.74-5.06,3.63-7.5,2.36-1.08-.56-1.55-2.05-1.53-3.27.06-3.41,1.58-6.91,4.41-10.35,2.8-3.42,5.85-5.5,8.23-5.52h0Z"/>
      </g>
    </g>
  </g>
</svg>