<?xml version="1.0" encoding="UTF-8"?>
<svg id="Laag_2" data-name="Laag 2" xmlns="http://www.w3.org/2000/svg" viewBox="0 0 300 300">
  <defs>
    <style>
      .cls-1 {
        fill: none;
      }

      .cls-2 {
        fill: #2b5ca7;
        fill-rule: evenodd;
      }
    </style>
  </defs>
  <g id="Laag_1-2" data-name="Laag 1">
    <g>
      <rect class="cls-1" width="300" height="300"/>
      <path class="cls-2" d="M13.4,180.43h10.58v11.63h18.89v-11.63h10.44v32.63h-10.44v-13.74h-19.03v13.61h-10.44v-32.5h0ZM54.5,180.43h10.31l10.84,12.55,10.7-12.55h10.17l-15.73,19.95v12.68h-10.44v-13.61l-15.86-19.03h0ZM97.84,180.43h10.44v25.24h16.78c2.64,0,4.36-2.64,4.36-5.42v-19.82h10.44v26.03c0,4.09-4.62,6.47-7.27,6.47h-34.75v-32.5h0ZM142.1,180.43h34.76c4.1,0,7.4,2.51,7.4,7.6v24.97l-10.44.07v-19.82c0-2.77-.93-4.42-4.49-4.42h-15.72v24.31h-11.5v-32.71ZM187.43,180.43h30.39c6.08,0,10.77,4.89,10.77,8.65v15c-.07,2.64-3.77,8.98-8.39,8.98h-32.77v-32.63h0,0ZM198.07,205.8h16.04c2.31,0,4.1-1.72,4.1-3.84v-9.51c0-2.31-1.9-3.7-4.34-3.7h-15.79v17.04h0ZM241.48,180.29h32.57v32.77h-11.63v-8.45h-20.02v8.45h-11.76v-21.28c-.27-7.13,6.08-11.5,10.84-11.5h0ZM242.27,191.93v5.28h20.09v-8.33h-16.92c-1.98,0-3.17,1.19-3.17,3.05ZM276.16,180.37h10.44v33.69h-10.44v-33.69ZM150.64,85.94c-43.32,0-78.44,17.34-78.44,38.72s35.12,38.72,78.44,38.72,78.44-17.34,78.44-38.72c0-21.38-35.12-38.72-78.44-38.72h0ZM143.19,94.56c8.95-3.17,35.55,0,45.88,4.96,3.31,3.17-14.74,13.36-36.23,17.78-30.73,6.2-16.12-17.5-9.65-22.74ZM90.43,140.44c-6.75-4.82-19.98-18.6,1.93-32.93,11.57-6.75,18.05-8.27,26.04-9.92,3.86-.83,6.61.14,3.17,3.03-7.3,7.58-22.46,32.65-23.83,38.17-1.11,3.72-3.31,4.68-7.3,1.65h0ZM153.53,156.43c-12.95,1.37-41.74-2.89-42.3-6.61.55-8.96,45.74-23.84,53.87-15.57,3.45,6.47-3.17,21.77-11.57,22.18ZM219.39,130.38c-3.31,7.58-14.47,16.13-37.89,21.91-3.59.82-4.83-1.38-2.48-3.45,3.86-2.34,22.46-33.48,24.8-39.68,1.38-3.17,4-1.93,5.65-.69,7.44,4.82,13.09,12.68,9.92,21.9h0Z"/>
    </g>
  </g>
</svg>