<?xml version="1.0" encoding="UTF-8"?>
<svg id="Laag_2" data-name="Laag 2" xmlns="http://www.w3.org/2000/svg" viewBox="0 0 300 300">
  <defs>
    <style>
      .cls-1 {
        fill: none;
      }

      .cls-2 {
        fill: #151f2a;
      }
    </style>
  </defs>
  <g id="Laag_1-2" data-name="Laag 1">
    <g>
      <rect class="cls-1" width="300" height="300"/>
      <path class="cls-2" d="M172,174.88c0,.52.16.82.47.82.25-.03.47-.14.66-.27l85.55-55.53c1.45-1.01,3.18-1.53,4.94-1.48h18.8c2.88,0,4.83,1.92,4.83,4.8v35.9c0,4.34-.96,6.86-4.8,9.17l-22.81,13.72c-.23.16-.49.25-.77.27-.27,0-.55-.22-.55-1.02v-41.89c0-.49-.14-.82-.47-.82-.24.03-.47.12-.66.27l-62.53,40.62c-1.43.96-3.1,1.48-4.8,1.45h-41.45c-2.91,0-4.83-1.92-4.83-4.83v-51.74c0-.38-.16-.74-.49-.74-.24.03-.47.13-.66.27l-41.25,24.76c-.41.27-.52.47-.52.66,0,.16.08.33.36.63l29.48,29.45c.38.38.66.69.66,1.02,0,.27-.44.49-.96.49h-26.62c-2.09,0-3.71-.3-4.83-1.43l-17.87-17.84c-.14-.16-.34-.26-.55-.27-.19,0-.38.07-.55.16l-29.86,17.95c-1.81,1.1-3.05,1.4-4.83,1.4h-27.47c-2.94.03-4.86-1.92-4.86-4.8v-35.22c0-4.36.96-6.86,4.83-9.17l22.95-13.78c.18-.12.39-.18.6-.19.36,0,.55.36.55,1.15v47.16c0,.49.11.71.47.71.25-.03.47-.14.69-.27l77.51-46.63c1.48-1.02,3.29-1.51,5.11-1.43h41.72c2.88,0,4.83,1.92,4.83,4.8l-.03,51.68h.03Z"/>
    </g>
  </g>
</svg>