<?xml version="1.0" encoding="UTF-8"?>
<svg id="Laag_2" data-name="Laag 2" xmlns="http://www.w3.org/2000/svg" viewBox="0 0 300 300">
  <defs>
    <style>
      .cls-1 {
        fill: none;
      }

      .cls-2 {
        fill: #010101;
      }

      .cls-2, .cls-3 {
        fill-rule: evenodd;
      }

      .cls-3 {
        fill: #cd2529;
      }
    </style>
  </defs>
  <g id="Laag_1-2" data-name="Laag 1">
    <g>
      <rect class="cls-1" width="300" height="300"/>
      <g>
        <path class="cls-3" d="M149.42,158.09h-78.16l-38.74,68.03h78.39l38.52-68.03h0ZM189.14,88.3l-39.08-68.7-39.19,68.7,39.19,68.82,39.08-68.82ZM189.1,226.12h78.39l-38.74-68.03h-78.16l38.52,68.03h0Z"/>
        <path class="cls-2" d="M185.62,279.42h5.85v-31.27h-5.85v31.27ZM251.27,279.42h5.85v-31.27h-5.85v31.27ZM75.6,279.42h5.85v-31.27h-5.85v31.27ZM103.83,248.15h-18.1v5.3h6.03v25.97h6.03v-25.97h6.03v-5.3h0ZM239.55,260.03h-13.18v-11.89h-5.85v31.27h5.85v-14.08h13.18v14.08h5.85v-31.27h-5.85v11.89ZM56.71,262.14l-5.49-13.99h-6.77v31.27h5.85v-19.38l6.4,15.54,6.22-15.73v19.57h5.85v-31.27h-6.58l-5.49,13.99h0ZM153.42,248.15h-5.8v22.31c0,2.43-2.72,4.4-5.15,4.4s-5.15-1.97-5.15-4.4v-22.31h-5.91l.09,22.04c0,5.64,5.32,10.22,10.97,10.22s10.97-4.57,10.97-10.22l-.02-22.04h0ZM175.99,262.5c.82-.55,3.93-2.38,3.93-6.31,0-5.49-4.39-7.96-7.32-8.05h-13.56v31.27h12c4.76,0,9.88-2.29,9.88-8.32,0-5.21-2.46-7.23-4.93-8.6h0ZM171.33,274.12h-6.42v-20.67h6.15c1.65,0,2.93,1.37,2.93,3.02s-.64,3.57-2.83,3.57h-2.56v5.3h2.74c1.65,0,3.93,1.55,3.84,4.75-.08,2.74-2.29,4.02-3.84,4.02h0ZM106.17,269.27c-.05.32,0,.69.02,1.28,0,5.39,4.37,9.49,9.76,9.49s9.76-3.64,9.76-9.03c0-2.84-1.11-5.03-3.04-6.81-1.58-1.46-6.07-3.64-7.82-4.71-1.65-1.01-2.42-1.78-2.46-3.25,0-2.14,1.42-3.65,3.56-3.65s3.88,1.74,3.88,3.88h0c.04.55.05,1.1.05,1.46h5.18v-1.46c0-5.03-3.17-9.02-9.12-9.02-5.03,0-9.12,3.45-9.12,9.02.02,2.47,1.16,4.85,4,6.72,3.05,2.01,6.86,3.52,8.14,4.8.77.77,1.25,1.84,1.25,3.02,0,2.36-1.91,4.04-4.27,4.04s-4.25-2.07-4.54-4.04c-.06-.5-.21-1.37-.17-1.74h-5.07s0,0,0,0ZM205.01,259.49c-1.65-1.01-2.42-1.78-2.46-3.25,0-2.14,1.42-3.65,3.56-3.65,2.14,0,3.88,1.74,3.88,3.88.04.55.05,1.1.05,1.46h5.18v-1.46c0-5.03-3.17-9.02-9.12-9.02-5.04,0-9.12,3.45-9.12,9.02.02,2.47,1.16,4.85,4,6.72,3.05,2.01,6.86,3.52,8.14,4.8.77.77,1.25,1.84,1.25,3.02,0,2.36-1.91,4.04-4.27,4.04s-4.25-2.07-4.54-4.04c-.06-.5-.21-1.37-.17-1.74h-5.08c-.05.32,0,.69.02,1.28,0,5.39,4.37,9.49,9.76,9.49s9.76-3.64,9.76-9.03c0-2.84-1.11-5.03-3.04-6.81-1.58-1.45-6.07-3.64-7.81-4.71h0Z"/>
      </g>
    </g>
  </g>
</svg>