<?xml version="1.0" encoding="UTF-8"?>
<svg id="Laag_2" data-name="Laag 2" xmlns="http://www.w3.org/2000/svg" xmlns:xlink="http://www.w3.org/1999/xlink" viewBox="0 0 300 300">
  <defs>
    <style>
      .cls-1 {
        fill: none;
      }

      .cls-2 {
        fill: url(#Naamloos_verloop_85);
      }

      .cls-3 {
        fill: url(#Naamloos_verloop_86);
      }

      .cls-4 {
        fill: url(#Naamloos_verloop_89);
      }

      .cls-5 {
        fill: url(#Naamloos_verloop_87);
      }

      .cls-6 {
        fill: url(#Naamloos_verloop_88);
      }

      .cls-7 {
        fill: url(#Naamloos_verloop_87-2);
      }

      .cls-8 {
        fill: url(#Naamloos_verloop_87-3);
      }

      .cls-9 {
        fill: #252525;
      }

      .cls-10 {
        fill: #fff;
      }

      .cls-11 {
        fill: #4e4d4d;
      }

      .cls-12 {
        fill: #8c8c8c;
      }
    </style>
    <linearGradient id="Naamloos_verloop_89" data-name="Naamloos verloop 89" x1="5213.65" y1="6455.7" x2="5213.65" y2="6439.87" gradientTransform="translate(-65020.59 80728.3) scale(12.5 -12.5)" gradientUnits="userSpaceOnUse">
      <stop offset=".19" stop-color="#fff"/>
      <stop offset=".21" stop-color="#f9f9f9"/>
      <stop offset=".37" stop-color="#aeaeaf"/>
      <stop offset=".51" stop-color="#717171"/>
      <stop offset=".65" stop-color="#404040"/>
      <stop offset=".76" stop-color="#1e1e1e"/>
      <stop offset=".86" stop-color="#080809"/>
      <stop offset=".92" stop-color="#010101"/>
    </linearGradient>
    <radialGradient id="Naamloos_verloop_88" data-name="Naamloos verloop 88" cx="5207.27" cy="6459.9" fx="5207.27" fy="6459.9" r="15.84" gradientTransform="translate(-65020.59 80728.3) scale(12.5 -12.5)" gradientUnits="userSpaceOnUse">
      <stop offset=".2" stop-color="#fff"/>
      <stop offset=".38" stop-color="#fefefe"/>
      <stop offset=".49" stop-color="#f4f3f4"/>
      <stop offset=".57" stop-color="#e7e6e6"/>
      <stop offset=".65" stop-color="#d2d2d2"/>
      <stop offset=".69" stop-color="#c5c5c4"/>
      <stop offset="1" stop-color="#343434"/>
    </radialGradient>
    <radialGradient id="Naamloos_verloop_87" data-name="Naamloos verloop 87" cx="5245.6" cy="6434.53" fx="5245.6" fy="6434.53" r="32.99" gradientTransform="translate(-65020.59 80728.3) scale(12.5 -12.5)" gradientUnits="userSpaceOnUse">
      <stop offset=".2" stop-color="#fff"/>
      <stop offset=".37" stop-color="#e4e4e3"/>
      <stop offset=".59" stop-color="#c5c5c4"/>
      <stop offset="1" stop-color="#343434"/>
    </radialGradient>
    <radialGradient id="Naamloos_verloop_87-2" data-name="Naamloos verloop 87" cx="5211.08" cy="6441.81" fx="5211.08" fy="6441.81" r="10.13" xlink:href="#Naamloos_verloop_87"/>
    <radialGradient id="Naamloos_verloop_87-3" data-name="Naamloos verloop 87" cx="5219.25" cy="6431.45" fx="5219.25" fy="6431.45" r="19.22" xlink:href="#Naamloos_verloop_87"/>
    <radialGradient id="Naamloos_verloop_86" data-name="Naamloos verloop 86" cx="5213.5" cy="6453.99" fx="5213.5" fy="6453.99" r="15.27" gradientTransform="translate(-65020.59 80728.3) scale(12.5 -12.5)" gradientUnits="userSpaceOnUse">
      <stop offset=".2" stop-color="#fff"/>
      <stop offset=".4" stop-color="#fefefe"/>
      <stop offset=".51" stop-color="#f4f3f4"/>
      <stop offset=".6" stop-color="#e7e6e6"/>
      <stop offset=".68" stop-color="#d2d2d2"/>
      <stop offset=".73" stop-color="#c5c5c4"/>
      <stop offset="1" stop-color="#4e4d4d"/>
    </radialGradient>
    <radialGradient id="Naamloos_verloop_85" data-name="Naamloos verloop 85" cx="5213.85" cy="6452.46" fx="5213.85" fy="6452.46" r="10.29" gradientTransform="translate(-65020.59 80728.3) scale(12.5 -12.5)" gradientUnits="userSpaceOnUse">
      <stop offset=".11" stop-color="#4e4d4d"/>
      <stop offset=".25" stop-color="#4a4a4a"/>
      <stop offset=".35" stop-color="#404040"/>
      <stop offset=".45" stop-color="#303030"/>
      <stop offset=".54" stop-color="#181819"/>
      <stop offset=".61" stop-color="#010101"/>
    </radialGradient>
  </defs>
  <g id="Laag_1-2" data-name="Laag 1">
    <g>
      <rect class="cls-1" width="300" height="300"/>
      <g>
        <path class="cls-4" d="M282.2,120.56c-2.62-.73-5.55-1.08-11.7-1.84-25.47-1.04-88.42-3.49-120.5-3.49s-95.03,2.45-120.49,3.49c-6.16.76-9.08,1.11-11.7,1.84-8.01,1.89-9.77,4.76-9.77,10.5v39.31c0,5.74,6.15,9.6,10.38,10.38,4.24.79,6.92,1.1,11.38,1.52,22.78,1.41,75.64,4.35,120.21,4.4,44.57-.04,97.42-2.99,120.21-4.4,4.46-.42,7.14-.74,11.38-1.52,4.23-.78,10.38-4.65,10.38-10.38v-39.31c0-5.74-1.76-8.61-9.77-10.5h0Z"/>
        <path class="cls-6" d="M47.85,122.11c12.53-43.6,53.71-75.59,102.6-75.59s89.84,31.81,102.49,75.24c.04.15.07.23.11.38,7.27-.82,13.78-2.08,18.37-3.31-.08-.28-.11-.34-.18-.61-14.38-51.73-63.02-89.79-120.8-89.79S43.71,66.74,29.5,118.72c6.39,1.75,11.07,2.48,18.35,3.38h0Z"/>
        <path class="cls-5" d="M252.65,179.25c-.13.39-.27.81-.33,1.03-13.33,42.38-53.89,73.2-101.86,73.2s-89.17-31.3-102.17-74.19c-7.95,1.41-10.63,1.94-18.49,2.99,14.55,51.47,63.05,89.29,120.66,89.29s106.15-37.86,120.67-89.37c-6.92-.85-11-1.5-18.48-2.95h0Z"/>
        <path class="cls-7" d="M50.41,122.01c3.02-1.25,5.94-3.23,10.49-4.51,13.56-35.24,48.54-60.34,89.55-60.34s75.77,24.94,89.42,60.02c.05.12.1.26.14.35,2.35.81,9.27,3.62,11.42,4.56.31,0,.96.03,1.63.05-.04-.13-.08-.25-.11-.38-12.66-43.41-53.76-75.21-102.5-75.21s-90.05,31.98-102.59,75.57c.72,0,2.1-.06,2.55-.09h0Z"/>
        <path class="cls-10" d="M149.67,49.49c45.73,0,86.27,27.27,101.63,72.22l.12.38c.24,0,1.11.03,1.63.05-.04-.16-.08-.26-.11-.38-12.66-43.41-53.76-75.21-102.5-75.21s-90.05,31.98-102.59,75.57c.98-.02,1.45-.02,2.55-.09,13.73-42.67,53.87-72.53,99.26-72.53h0Z"/>
        <path class="cls-8" d="M250.05,179.37c-3.29,1.84-7.38,3.6-10.64,4.63-.04.11-.23.57-.27.68-14.14,34.1-48.52,58.18-88.69,58.18s-74.97-24.37-88.95-58.81c-3.76-1.04-9.38-3.61-11.51-4.68-.8-.04-1.23-.06-1.71-.09,13,42.88,53.83,74.19,102.18,74.19s88.8-31.02,101.99-73.6c.03-.08.17-.55.21-.63-.76.03-1.93.12-2.6.12h0Z"/>
        <path class="cls-3" d="M279.92,123.41c-6.75-.82-11.35-.73-27.78-1.3-.75-.03-1.51-.05-2.28-.08-29.8-1.02-74.56-2.39-99.87-2.39s-70.06,1.37-99.87,2.39c-.77.03-1.53.05-2.27.08-16.44.57-21.04.48-27.78,1.3-6.75.83-12.05,3.78-12.05,8.81v36.45c0,5.03,6.38,9.1,12.04,9.1,0,0,72.04,4.45,129.92,4.5,57.88-.05,129.92-4.5,129.92-4.5,5.66,0,12.04-4.07,12.04-9.1v-36.45c0-5.02-5.3-7.98-12.04-8.81h0Z"/>
        <path class="cls-10" d="M250.05,179.37c-14.14,41.94-53.9,71.16-98.82,71.16s-85.63-26.84-101.26-71.16c-.57-.03-1.14-.05-1.7-.09,13,42.89,53.83,74.19,102.19,74.19s89.21-31.33,102.19-74.23c-.85.04-1.72.09-2.61.13h0Z"/>
        <path class="cls-12" d="M250.14,179.37h-.09c-3.29,1.84-7.37,3.6-10.64,4.64-.04.11-.23.57-.27.68-4.47,10.79-10.98,20.58-19.05,28.92,12.64-9.24,22.96-20.92,30.05-34.24h0Z"/>
        <path class="cls-11" d="M83.55,216.32c-9.51-9.06-17.08-20.02-22.05-32.27-3.76-1.04-9.38-3.61-11.51-4.68,2.28,4.72,4.96,9.23,8.02,13.48,6.26,8.15,13.85,15.42,22.48,21.57,1.01.66,2.02,1.29,3.06,1.9h0Z"/>
        <path class="cls-9" d="M48.28,179.29h0s-.03,0-.03,0c-7.92,1.4-10.61,1.94-18.45,2.98.63,2.24,1.33,4.45,2.09,6.64l16.39-9.63Z"/>
        <path class="cls-2" d="M207.69,139.55c-2.37-5.29-1.53-4.74-6.68-4.87-.42-.14-1.54-.14-3.07-.14s-1.81,0-3.06.14c-4.87,0-4.04-.28-5.71,3.2,0,0-8.36,18.8-11.98,26.6l-.14.28c-.7,1.39-.28,1.39.83,1.39h7.52c.56,0,.83-.27.97-.56,0,0,1.11-2.37,2.51-5.71h18.38c1.39,3.2,2.37,5.57,2.37,5.71.14.42.56.56.97.56h7.8c1.11,0,1.39.15.98-.83-1.4-3.34-10.45-22.84-11.7-25.76h0ZM191.67,153.2c2.37-5.57,4.74-11,4.74-11.14.14-.28.42-.42.83-.42.14-.14.56-.14.98-.14.28,0,.69,0,.83.14.28,0,.56.14.69.56.56,1.53,2.65,6.27,4.6,11h-12.67ZM91.4,134.26c.7,0,.84.28.84.83v29.81c0,.69-.14.98-.97.98h-7.24c-.83,0-.97-.14-.97-.98v-29.81c0-.56.14-.83.69-.83h7.66ZM75.94,134.54c.83,0,.98.28.98.98v29.67c0,.84-.14.98-.98.98h-8.5c-5.01,0-5.43,0-7.1-2.78-3.48-5.43-13.93-21.45-13.93-21.45v23.26c0,.84-.14.98-.97.98h-6.27c-.83,0-.98-.14-.98-.98v-29.67c0-.7.14-.98.98-.98h7.24c5.43,0,6.13-.14,8.08,2.65,1.53,2.51,14.2,22,14.2,22v-23.68c0-.7.14-.98.98-.98h6.27ZM261.87,134.54c.84,0,.98.28.98.98v29.67c0,.84-.14.98-.98.98h-8.49c-5.02,0-5.44,0-7.11-2.78-3.49-5.43-13.93-21.45-13.93-21.45v23.26c0,.84-.14.97-.98.97h-6.26c-.83,0-.98-.14-.98-.97v-29.67c0-.7.14-.98.98-.98h7.24c5.43,0,6.13-.14,8.08,2.65,1.67,2.51,14.21,22,14.21,22v-23.68c0-.7.14-.98.98-.98h6.26ZM123.29,146.66c5.57.56,9.61,1.53,10.73,6.82,0,.41.14,1.81.14,3.34,0,.98,0,2.23-.28,3.34-.97,5.01-4.74,5.99-10.58,5.99h-23.4c-.84,0-.98-.14-.98-.97v-5.01c0-.84.14-.98.98-.98h23.67c.98,0,1.25-.28,1.39-.98v-2.09c-.14-.56-.28-1.39-1.53-1.53-2.65-.14-10.44-.84-15.74-1.39-6.82-.7-8.49-3.62-8.77-6.13-.14-.84-.14-1.95-.14-2.93,0-.84,0-2.09.14-3.07.98-4.46,4.32-6.54,10.17-6.54h22.7c.84,0,1.12.14,1.12.84v5.15c0,.69-.28.97-1.12.83h-22.28c-.98,0-1.39.42-1.53,1.39v1.25c0,.7.42,1.25,1.39,1.39,2.65.28,10.87.98,13.93,1.26h0ZM163.54,146.66c5.58.56,9.61,1.53,10.73,6.82,0,.41.14,1.81.14,3.34,0,.98,0,2.23-.28,3.34-.97,5.01-4.73,5.99-10.58,5.99h-23.4c-.84,0-.98-.14-.98-.97v-5.01c0-.84.14-.98.98-.98h23.68c.97,0,1.25-.28,1.39-.98v-2.09c-.14-.56-.42-1.39-1.53-1.53-2.64-.14-10.44-.84-15.74-1.39-6.83-.7-8.36-3.62-8.78-6.13-.14-.84-.14-1.95-.14-2.93,0-.84,0-2.09.14-3.07.98-4.46,4.32-6.54,10.17-6.54h22.7c.83,0,1.11.14,1.11.84v5.15c0,.69-.28.97-1.11.83h-22.29c-.97,0-1.39.42-1.53,1.39v1.25c0,.7.28,1.25,1.4,1.39,2.65.28,10.86.98,13.92,1.26h0Z"/>
      </g>
    </g>
  </g>
</svg>