<?xml version="1.0" encoding="UTF-8"?>
<svg id="Laag_2" data-name="Laag 2" xmlns="http://www.w3.org/2000/svg" xmlns:xlink="http://www.w3.org/1999/xlink" viewBox="0 0 300 300">
  <defs>
    <style>
      .cls-1, .cls-2, .cls-3, .cls-4, .cls-5, .cls-6, .cls-7 {
        stroke-miterlimit: 35.15;
      }

      .cls-1, .cls-2, .cls-3, .cls-4, .cls-6, .cls-8, .cls-9 {
        stroke: #f2f2f2;
      }

      .cls-1, .cls-3, .cls-6, .cls-8 {
        stroke-width: 3.82px;
      }

      .cls-1, .cls-10, .cls-4 {
        fill: #1b1b1b;
      }

      .cls-11, .cls-2, .cls-3, .cls-5, .cls-7, .cls-8, .cls-9 {
        fill: none;
      }

      .cls-2, .cls-4, .cls-5, .cls-7, .cls-9 {
        stroke-width: 5.1px;
      }

      .cls-12 {
        fill: url(#Naamloos_verloop_93);
      }

      .cls-13 {
        fill: url(#Naamloos_verloop_92);
      }

      .cls-14 {
        fill: url(#Naamloos_verloop_95);
      }

      .cls-15 {
        fill: url(#Naamloos_verloop_94);
      }

      .cls-16 {
        fill: url(#Naamloos_verloop_96);
      }

      .cls-17 {
        fill: url(#Naamloos_verloop_91);
      }

      .cls-18 {
        fill: url(#Naamloos_verloop_90);
      }

      .cls-19 {
        fill: url(#Naamloos_verloop_97);
      }

      .cls-5, .cls-7 {
        stroke: #1b1b1b;
      }

      .cls-5, .cls-8, .cls-9 {
        stroke-linecap: square;
      }

      .cls-6 {
        fill: #c3c2c2;
      }

      .cls-20 {
        fill: #8c8c8c;
      }

      .cls-8, .cls-9 {
        stroke-linejoin: bevel;
      }
    </style>
    <linearGradient id="Naamloos_verloop_97" data-name="Naamloos verloop 97" x1="6636.75" y1="7736.45" x2="6658.89" y2="7736.45" gradientTransform="translate(-58301.74 68110.97) scale(8.79 -8.79)" gradientUnits="userSpaceOnUse">
      <stop offset="0" stop-color="#8c8c8c"/>
      <stop offset="1" stop-color="#4e4d4d"/>
    </linearGradient>
    <linearGradient id="Naamloos_verloop_96" data-name="Naamloos verloop 96" x1="6642.31" y1="7742.07" x2="6661.44" y2="7726.02" gradientTransform="translate(-58301.74 68110.97) scale(8.79 -8.79)" gradientUnits="userSpaceOnUse">
      <stop offset="0" stop-color="#e0e0e0"/>
      <stop offset=".15" stop-color="#939393"/>
      <stop offset=".17" stop-color="#9f9f9f"/>
      <stop offset=".23" stop-color="#c2c1c1"/>
      <stop offset=".3" stop-color="#dcdcdc"/>
      <stop offset=".37" stop-color="#f0f0f0"/>
      <stop offset=".44" stop-color="#fcfcfc"/>
      <stop offset=".51" stop-color="#fff"/>
      <stop offset=".58" stop-color="#fcfcfc"/>
      <stop offset=".64" stop-color="#f0f0f0"/>
      <stop offset=".7" stop-color="#dcdcdc"/>
      <stop offset=".76" stop-color="#c2c1c1"/>
      <stop offset=".82" stop-color="#9e9e9e"/>
      <stop offset=".85" stop-color="#8c8c8c"/>
      <stop offset="1" stop-color="#fbfbfb"/>
    </linearGradient>
    <linearGradient id="Naamloos_verloop_95" data-name="Naamloos verloop 95" x1="6639.2" y1="7728.14" x2="6664.34" y2="7728.14" gradientTransform="translate(-58301.74 68110.97) scale(8.79 -8.79)" gradientUnits="userSpaceOnUse">
      <stop offset="0" stop-color="#1b1b1b"/>
      <stop offset="0" stop-color="#282929"/>
      <stop offset=".03" stop-color="#5e5e5e"/>
      <stop offset=".05" stop-color="#878889"/>
      <stop offset=".06" stop-color="#a6a6a6"/>
      <stop offset=".08" stop-color="#b9b9b9"/>
      <stop offset=".08" stop-color="#bfbebf"/>
      <stop offset=".14" stop-color="#9a9999"/>
      <stop offset=".21" stop-color="#777778"/>
      <stop offset=".28" stop-color="#5b5b5b"/>
      <stop offset=".36" stop-color="#434342"/>
      <stop offset=".45" stop-color="#313131"/>
      <stop offset=".56" stop-color="#232323"/>
      <stop offset=".7" stop-color="#1d1d1d"/>
      <stop offset="1" stop-color="#1b1b1b"/>
    </linearGradient>
    <linearGradient id="Naamloos_verloop_94" data-name="Naamloos verloop 94" x1="6639.43" y1="7739.9" x2="6664.57" y2="7739.9" gradientTransform="translate(-58301.74 68110.97) scale(8.79 -8.79)" gradientUnits="userSpaceOnUse">
      <stop offset="0" stop-color="#e0e0e0"/>
      <stop offset=".12" stop-color="#dbdbdb"/>
      <stop offset=".26" stop-color="#cdcccc"/>
      <stop offset=".42" stop-color="#b3b2b2"/>
      <stop offset=".59" stop-color="#8f8f8f"/>
      <stop offset=".77" stop-color="#636363"/>
      <stop offset=".84" stop-color="#4e4d4d"/>
      <stop offset="1" stop-color="#1b1b1b"/>
    </linearGradient>
    <linearGradient id="Naamloos_verloop_93" data-name="Naamloos verloop 93" x1="6639.76" y1="7728.42" x2="6663.8" y2="7728.42" gradientTransform="translate(-58301.74 68110.97) scale(8.79 -8.79)" gradientUnits="userSpaceOnUse">
      <stop offset="0" stop-color="#fff"/>
      <stop offset="0" stop-color="#ececec"/>
      <stop offset="0" stop-color="#dbdbdb"/>
      <stop offset="0" stop-color="#d0d0d0"/>
      <stop offset="0" stop-color="#cac9c9"/>
      <stop offset="0" stop-color="#c8c7c7"/>
      <stop offset=".18" stop-color="#cac9c9"/>
      <stop offset=".28" stop-color="#d2d2d2"/>
      <stop offset=".36" stop-color="#e0e0e0"/>
      <stop offset=".43" stop-color="#f4f3f4"/>
      <stop offset=".47" stop-color="#fff"/>
      <stop offset=".64" stop-color="#fefefe"/>
      <stop offset=".73" stop-color="#f5f5f5"/>
      <stop offset=".81" stop-color="#e8e7e7"/>
      <stop offset=".87" stop-color="#d5d5d4"/>
      <stop offset=".93" stop-color="#bcbcbb"/>
      <stop offset=".98" stop-color="#9d9d9d"/>
      <stop offset="1" stop-color="#8c8c8c"/>
    </linearGradient>
    <linearGradient id="Naamloos_verloop_92" data-name="Naamloos verloop 92" x1="6642.9" y1="7743.29" x2="6663.97" y2="7733.08" gradientTransform="translate(-58301.74 68110.97) scale(8.79 -8.79)" gradientUnits="userSpaceOnUse">
      <stop offset="0" stop-color="#c8c7c7"/>
      <stop offset=".03" stop-color="#d2d2d2"/>
      <stop offset=".06" stop-color="#ddd"/>
      <stop offset=".09" stop-color="#e0e0e0"/>
      <stop offset=".1" stop-color="#e9e9e9"/>
      <stop offset=".12" stop-color="#f6f6f6"/>
      <stop offset=".14" stop-color="#fefefe"/>
      <stop offset=".2" stop-color="#fff"/>
      <stop offset=".71" stop-color="#8c8c8c"/>
      <stop offset="1" stop-color="#8c8c8c"/>
    </linearGradient>
    <linearGradient id="Naamloos_verloop_91" data-name="Naamloos verloop 91" x1="6663.25" y1="7739.29" x2="6640.7" y2="7739.29" gradientTransform="translate(-58301.74 68110.97) scale(8.79 -8.79)" gradientUnits="userSpaceOnUse">
      <stop offset="0" stop-color="#e0e0e0"/>
      <stop offset="0" stop-color="#e0e0e0"/>
      <stop offset="0" stop-color="#e0e0e0"/>
      <stop offset=".18" stop-color="#c3c2c2"/>
      <stop offset=".57" stop-color="#767676"/>
      <stop offset="1" stop-color="#1b1b1b"/>
    </linearGradient>
    <linearGradient id="Naamloos_verloop_90" data-name="Naamloos verloop 90" x1="6663.03" y1="7728.72" x2="6640.51" y2="7728.72" gradientTransform="translate(-58301.74 68110.97) scale(8.79 -8.79)" gradientUnits="userSpaceOnUse">
      <stop offset="0" stop-color="#1b1b1b"/>
      <stop offset=".02" stop-color="#313131"/>
      <stop offset=".06" stop-color="#666"/>
      <stop offset=".1" stop-color="#919292"/>
      <stop offset=".15" stop-color="#b5b4b4"/>
      <stop offset=".18" stop-color="#cdcccc"/>
      <stop offset=".22" stop-color="#dbdbdb"/>
      <stop offset=".25" stop-color="#e0e0e0"/>
      <stop offset=".36" stop-color="#ddd"/>
      <stop offset=".47" stop-color="#d1d1d1"/>
      <stop offset=".57" stop-color="#bdbdbc"/>
      <stop offset=".68" stop-color="#a2a2a1"/>
      <stop offset=".78" stop-color="#7e7f7f"/>
      <stop offset=".89" stop-color="#555454"/>
      <stop offset=".99" stop-color="#202121"/>
      <stop offset="1" stop-color="#1b1b1b"/>
    </linearGradient>
  </defs>
  <g id="Laag_1-2" data-name="Laag 1">
    <g>
      <rect class="cls-11" width="300" height="300"/>
      <g>
        <path class="cls-10" d="M282.9,170.35l-195.85,6.41,15.8-5.48,177.32-5.81,2.73,4.87Z"/>
        <path class="cls-20" d="M87.05,176.76l15.8-5.48,34.63-25.49-14,4.15-36.43,26.81Z"/>
        <path class="cls-10" d="M137.48,145.8l-14,4.15-115.41-6.7,8.87-4.45,120.54,7Z"/>
        <path class="cls-20" d="M17.1,129.55l2.73,4.87-2.89,4.38-8.87,4.45,9.03-13.7Z"/>
        <path class="cls-19" d="M17.1,129.55l2.73,4.87,176-5.8,15.79-5.48"/>
        <path class="cls-4" d="M87.05,176.76l15.8-5.48,177.32-5.81,2.73,4.87"/>
        <path class="cls-6" d="M87.05,176.76l15.8-5.48,34.63-25.49-14,4.15"/>
        <path class="cls-16" d="M19.82,134.42l-2.89,4.38,120.54,7-34.63,25.49,177.32-5.81,2.88-4.37-121.82-7,34.59-25.49-176,5.8h0Z"/>
        <path class="cls-1" d="M8.06,143.25l8.87-4.45,120.54,7-15.49,4.59"/>
        <path class="cls-3" d="M17.1,129.55l2.73,4.87-2.89,4.38-8.87,4.45"/>
        <path class="cls-3" d="M17.1,129.55l2.73,4.87,176-5.8,15.79-5.48"/>
        <path class="cls-7" d="M211.61,122.9l-194.64,6.42-9.32,14.14,115.17,6.69-36.52,26.88,196.73-6.44,9.32-14.14-116.46-6.69,36.46-26.88-.75.02h0Z"/>
        <path class="cls-14" d="M254.82,169.23c-2.81,15.45-9.08,30.5-19.01,43.97-34.85,47.29-101.66,57.41-148.95,22.56-30.52-22.49-45.56-58.31-43.01-93.59l-5.17,2.86c-1.57,35.86,14.18,71.83,45.25,94.72,49.57,36.53,119.36,25.96,155.88-23.61,10.19-13.82,16.71-29.21,19.74-45.02l-4.72-1.89h0Z"/>
        <path class="cls-15" d="M261.44,154.9c1.54-35.84-14.2-71.77-45.25-94.65-49.56-36.53-119.35-25.96-155.88,23.61-10.16,13.79-16.68,29.14-19.72,44.91l4.57,2.71c2.74-15.7,9.06-31.01,19.14-44.68,34.84-47.29,101.66-57.41,148.95-22.56,30.71,22.63,45.75,58.75,42.96,94.25l5.23-3.59h0Z"/>
        <path class="cls-12" d="M247.95,169.8c-6,29.51-25.2,56-54.33,70.12-49.58,24.02-109.46,3.23-133.48-46.35-7.8-16.1-10.87-33.28-9.77-49.97l-6.53-1.32c-1.35,18.07,1.9,36.72,10.36,54.17,25.61,52.86,89.45,75.03,142.31,49.42,31.69-15.35,52.34-44.44,58.3-76.66l-6.85.59h0Z"/>
        <path class="cls-13" d="M256.22,158.49c1.49-18.31-1.72-37.24-10.3-54.94-25.61-52.86-89.45-75.03-142.31-49.42-31.91,15.46-52.64,44.85-58.42,77.35l6.62.53c5.57-30.24,24.95-57.53,54.68-71.94,49.58-24.02,109.46-3.23,133.48,46.35,8,16.51,11.03,34.16,9.68,51.25l6.57.8h0Z"/>
        <path class="cls-17" d="M249.67,157.7c.19-2.54.29-5.11.29-7.7,0-55.09-44.82-99.91-99.92-99.91-48.97,0-89.82,35.41-98.3,81.97l5.86-3.84c9.87-41.89,47.57-73.17,92.44-73.17,52.36,0,94.96,42.6,94.96,94.96,0,1.87-.06,3.74-.16,5.61l4.83,2.09h0Z"/>
        <path class="cls-18" d="M242.47,171.88c-9.91,41.85-47.58,73.08-92.42,73.08-52.36,0-94.96-42.6-94.96-94.96,0-1.52.04-3.02.11-4.52l-4.86-1.9c-.14,2.14-.2,4.28-.2,6.42,0,55.09,44.82,99.91,99.91,99.91,48.33,0,88.75-34.49,97.95-80.14l-5.54,2.1Z"/>
        <path class="cls-2" d="M256.24,158.47c.22-2.79.33-5.62.33-8.47,0-58.74-47.79-106.52-106.53-106.52-52.42,0-96.12,38.06-104.91,88M43.8,142.27c-.19,2.57-.28,5.15-.28,7.73,0,58.74,47.79,106.52,106.52,106.52,52.17,0,95.71-37.7,104.79-87.29"/>
        <path class="cls-9" d="M51.75,132.06c8.47-46.56,49.33-81.98,98.3-81.98,55.09,0,99.92,44.82,99.92,99.91,0,2.59-.1,5.16-.29,7.7"/>
        <path class="cls-2" d="M50.34,143.6c-.13,2.13-.2,4.26-.2,6.4,0,55.09,44.82,99.91,99.91,99.91,48.32,0,88.74-34.47,97.95-80.12"/>
        <path class="cls-7" d="M38.67,145.02l5.17-2.86,6.52,1.43,4.84,1.92c-.07,1.49-.1,2.99-.1,4.49,0,52.36,42.6,94.96,94.96,94.96,44.79,0,82.43-31.17,92.38-72.95l5.56-2.21,6.84-.56,4.7,1.88"/>
        <path class="cls-5" d="M259.51,171.26c-9.92,51.4-55.16,90.22-109.46,90.22-61.57,0-111.48-49.91-111.48-111.48,0-1.59.03-3.17.1-4.74"/>
        <path class="cls-8" d="M57.57,128.14l-5.64,4.1-6.8-.76-4.51-2.94"/>
        <path class="cls-7" d="M57.61,128.21c9.87-41.89,47.57-73.17,92.44-73.17,52.36,0,94.96,42.6,94.96,94.96,0,1.24-.02,2.47-.07,3.7"/>
        <path class="cls-5" d="M40.63,128.54c10-51.3,55.19-90.02,109.42-90.02,61.57,0,111.48,49.91,111.48,111.48,0,1.56-.03,3.12-.1,4.67"/>
      </g>
    </g>
  </g>
</svg>