<?xml version="1.0" encoding="UTF-8"?>
<svg id="Laag_2" data-name="Laag 2" xmlns="http://www.w3.org/2000/svg" xmlns:xlink="http://www.w3.org/1999/xlink" viewBox="0 0 300 300">
  <defs>
    <style>
      .cls-1 {
        fill: none;
      }

      .cls-2 {
        fill: #010101;
      }

      .cls-3 {
        fill: url(#Naamloos_verloop_67);
      }

      .cls-4 {
        fill: url(#Naamloos_verloop_69);
      }

      .cls-5 {
        fill: url(#Naamloos_verloop_68);
      }

      .cls-6 {
        fill: url(#Naamloos_verloop_30);
      }

      .cls-7 {
        fill: url(#Naamloos_verloop_19);
      }

      .cls-8 {
        fill: url(#Naamloos_verloop_29);
      }

      .cls-9 {
        fill: url(#Naamloos_verloop_28);
      }

      .cls-10 {
        fill: url(#Naamloos_verloop_21);
      }

      .cls-11 {
        fill: url(#Naamloos_verloop_23);
      }

      .cls-12 {
        fill: url(#Naamloos_verloop_24);
      }

      .cls-13 {
        fill: url(#Naamloos_verloop_20);
      }

      .cls-14 {
        fill: url(#Naamloos_verloop_25);
      }

      .cls-15 {
        fill: url(#Naamloos_verloop_26);
      }

      .cls-16 {
        fill: url(#Naamloos_verloop_84);
      }

      .cls-17 {
        fill: url(#Naamloos_verloop_82);
      }

      .cls-18 {
        fill: url(#Naamloos_verloop_80);
      }

      .cls-19 {
        fill: url(#Naamloos_verloop_83);
      }

      .cls-20 {
        fill: url(#Naamloos_verloop_81);
      }

      .cls-21 {
        fill: url(#Naamloos_verloop_73);
      }

      .cls-22 {
        fill: url(#Naamloos_verloop_75);
      }

      .cls-23 {
        fill: url(#Naamloos_verloop_74);
      }

      .cls-24 {
        fill: url(#Naamloos_verloop_71);
      }

      .cls-25 {
        fill: url(#Naamloos_verloop_72);
      }

      .cls-26 {
        fill: url(#Naamloos_verloop_78);
      }

      .cls-27 {
        fill: url(#Naamloos_verloop_77);
      }

      .cls-28 {
        fill: url(#Naamloos_verloop_70);
      }

      .cls-29 {
        fill: url(#Naamloos_verloop_76);
      }

      .cls-30 {
        fill: url(#Naamloos_verloop_79);
      }

      .cls-31 {
        fill: #e7e6e6;
      }

      .cls-32 {
        fill: url(#Naamloos_verloop_28-3);
      }

      .cls-33 {
        fill: url(#Naamloos_verloop_28-2);
      }

      .cls-34 {
        fill: #fff;
      }

      .cls-35 {
        fill: #808181;
      }

      .cls-36 {
        fill: #1c2442;
      }

      .cls-37 {
        fill: #4e4d4d;
      }

      .cls-38 {
        fill: #747474;
      }

      .cls-39 {
        fill: #8c8c8c;
      }

      .cls-40 {
        fill: #e0e0e0;
      }
    </style>
    <linearGradient id="Naamloos_verloop_84" data-name="Naamloos verloop 84" x1="848.95" y1="12682.7" x2="883.32" y2="12731.79" gradientTransform="translate(-987.53 16349.12) scale(1.27 -1.27)" gradientUnits="userSpaceOnUse">
      <stop offset=".05" stop-color="#676767"/>
      <stop offset=".17" stop-color="#1b1b1b"/>
      <stop offset=".26" stop-color="#f2f2f2"/>
      <stop offset=".38" stop-color="#343434"/>
      <stop offset=".39" stop-color="#3f3f3f"/>
      <stop offset=".46" stop-color="#6d6d6d"/>
      <stop offset=".52" stop-color="#949494"/>
      <stop offset=".58" stop-color="#b5b4b4"/>
      <stop offset=".65" stop-color="#cecdcc"/>
      <stop offset=".72" stop-color="#dfdfdf"/>
      <stop offset=".8" stop-color="#eaeaea"/>
      <stop offset=".89" stop-color="#eeeded"/>
    </linearGradient>
    <linearGradient id="Naamloos_verloop_83" data-name="Naamloos verloop 83" x1="878.2" y1="12707.43" x2="887.69" y2="12701.96" gradientTransform="translate(-987.53 16349.12) scale(1.27 -1.27)" gradientUnits="userSpaceOnUse">
      <stop offset=".43" stop-color="#d9d9d9"/>
      <stop offset=".45" stop-color="#cecdcc"/>
      <stop offset=".62" stop-color="#717171"/>
      <stop offset=".73" stop-color="#353535"/>
      <stop offset=".79" stop-color="#202020"/>
      <stop offset=".99" stop-color="#1b1b1b"/>
    </linearGradient>
    <linearGradient id="Naamloos_verloop_82" data-name="Naamloos verloop 82" x1="883.55" y1="12729.35" x2="895.53" y2="12743.64" gradientTransform="translate(-987.53 16349.12) scale(1.27 -1.27)" gradientUnits="userSpaceOnUse">
      <stop offset=".3" stop-color="#f2f2f2"/>
      <stop offset=".8" stop-color="#676767"/>
    </linearGradient>
    <linearGradient id="Naamloos_verloop_81" data-name="Naamloos verloop 81" x1="840.88" y1="12739.22" x2="937.89" y2="12739.22" gradientTransform="translate(-987.53 16349.12) scale(1.27 -1.27)" gradientUnits="userSpaceOnUse">
      <stop offset=".51" stop-color="#f2f2f2"/>
      <stop offset=".88" stop-color="#b4b4b4"/>
    </linearGradient>
    <radialGradient id="Naamloos_verloop_80" data-name="Naamloos verloop 80" cx="862.38" cy="12755.58" fx="862.38" fy="12755.58" r="29.13" gradientTransform="translate(-987.53 16349.12) scale(1.27 -1.27)" gradientUnits="userSpaceOnUse">
      <stop offset=".26" stop-color="#1b1b1b"/>
      <stop offset=".33" stop-color="#232323"/>
      <stop offset=".44" stop-color="#3b3b3b"/>
      <stop offset=".58" stop-color="#656565"/>
      <stop offset=".75" stop-color="#9c9b9b"/>
      <stop offset=".81" stop-color="#b4b4b4"/>
    </radialGradient>
    <radialGradient id="Naamloos_verloop_79" data-name="Naamloos verloop 79" cx="855.86" cy="12748.35" fx="855.86" fy="12748.35" r="15.21" gradientTransform="translate(-987.53 16349.12) scale(1.27 -1.27)" gradientUnits="userSpaceOnUse">
      <stop offset=".12" stop-color="#808181"/>
      <stop offset=".57" stop-color="#fff"/>
    </radialGradient>
    <radialGradient id="Naamloos_verloop_78" data-name="Naamloos verloop 78" cx="918.18" cy="12753.7" fx="918.18" fy="12753.7" r="25.51" gradientTransform="translate(-987.53 16349.12) scale(1.27 -1.27)" gradientUnits="userSpaceOnUse">
      <stop offset=".54" stop-color="#262626"/>
      <stop offset=".9" stop-color="#8c8c8c"/>
    </radialGradient>
    <radialGradient id="Naamloos_verloop_77" data-name="Naamloos verloop 77" cx="874.84" cy="12756.02" fx="874.84" fy="12756.02" r="19.2" gradientTransform="translate(-987.53 16349.12) scale(1.27 -1.27)" gradientUnits="userSpaceOnUse">
      <stop offset=".36" stop-color="#b4b4b4"/>
      <stop offset=".41" stop-color="#c4c4c3"/>
      <stop offset=".5" stop-color="#ddd"/>
      <stop offset=".6" stop-color="#f0f0f0"/>
      <stop offset=".7" stop-color="#fcfcfc"/>
      <stop offset=".8" stop-color="#fff"/>
    </radialGradient>
    <radialGradient id="Naamloos_verloop_76" data-name="Naamloos verloop 76" cx="870.02" cy="12767.59" fx="870.02" fy="12767.59" r="25.23" gradientTransform="translate(-987.53 16349.12) scale(1.27 -1.27)" gradientUnits="userSpaceOnUse">
      <stop offset=".09" stop-color="#f2f2f2"/>
      <stop offset=".4" stop-color="#bbb"/>
      <stop offset=".76" stop-color="#7e7f7f"/>
      <stop offset=".93" stop-color="#676767"/>
    </radialGradient>
    <radialGradient id="Naamloos_verloop_75" data-name="Naamloos verloop 75" cx="874.89" cy="12755.87" fx="874.89" fy="12755.87" r="19.4" gradientTransform="translate(-987.53 16349.12) scale(1.27 -1.27)" gradientUnits="userSpaceOnUse">
      <stop offset=".18" stop-color="#4e4d4d"/>
      <stop offset=".43" stop-color="#b4b4b4"/>
      <stop offset=".47" stop-color="#c4c4c3"/>
      <stop offset=".55" stop-color="#ddd"/>
      <stop offset=".63" stop-color="#f0f0f0"/>
      <stop offset=".71" stop-color="#fcfcfc"/>
      <stop offset=".8" stop-color="#fff"/>
    </radialGradient>
    <radialGradient id="Naamloos_verloop_74" data-name="Naamloos verloop 74" cx="870.28" cy="12767.59" fx="870.28" fy="12767.59" r="25.23" gradientTransform="translate(-987.53 16349.12) scale(1.27 -1.27)" gradientUnits="userSpaceOnUse">
      <stop offset=".07" stop-color="#343434"/>
      <stop offset=".14" stop-color="#6f6f6e"/>
      <stop offset=".21" stop-color="#a6a6a6"/>
      <stop offset=".28" stop-color="#d0d0d0"/>
      <stop offset=".33" stop-color="#e9e9e9"/>
      <stop offset=".36" stop-color="#f2f2f2"/>
      <stop offset=".56" stop-color="#aeadad"/>
      <stop offset=".76" stop-color="#676767"/>
      <stop offset=".99" stop-color="#343434"/>
    </radialGradient>
    <linearGradient id="Naamloos_verloop_73" data-name="Naamloos verloop 73" x1="866.58" y1="12777.15" x2="873.07" y2="12783.65" gradientTransform="translate(-987.53 16349.12) scale(1.27 -1.27)" gradientUnits="userSpaceOnUse">
      <stop offset=".11" stop-color="#010101"/>
      <stop offset=".12" stop-color="#151415"/>
      <stop offset=".2" stop-color="#646567"/>
      <stop offset=".28" stop-color="#919294"/>
      <stop offset=".36" stop-color="#b5b6b7"/>
      <stop offset=".44" stop-color="#d1d2d3"/>
      <stop offset=".52" stop-color="#e5e6e7"/>
      <stop offset=".61" stop-color="#f4f3f4"/>
      <stop offset=".69" stop-color="#fdfdfd"/>
      <stop offset=".78" stop-color="#fff"/>
    </linearGradient>
    <linearGradient id="Naamloos_verloop_72" data-name="Naamloos verloop 72" x1="880.18" y1="12785.23" x2="880.18" y2="12753.62" gradientTransform="translate(-987.53 16349.12) scale(1.27 -1.27)" gradientUnits="userSpaceOnUse">
      <stop offset=".09" stop-color="#b4b4b4"/>
      <stop offset=".11" stop-color="#a2a2a1"/>
      <stop offset=".17" stop-color="#797879"/>
      <stop offset=".23" stop-color="#575757"/>
      <stop offset=".29" stop-color="#3b3b3b"/>
      <stop offset=".36" stop-color="#2a292a"/>
      <stop offset=".42" stop-color="#1e1e1e"/>
      <stop offset=".49" stop-color="#1b1b1b"/>
    </linearGradient>
    <linearGradient id="Naamloos_verloop_71" data-name="Naamloos verloop 71" x1="876.02" y1="12788.43" x2="876.61" y2="12786.8" gradientTransform="translate(-987.53 16349.12) scale(1.27 -1.27)" gradientUnits="userSpaceOnUse">
      <stop offset=".33" stop-color="#bfbebf"/>
      <stop offset=".34" stop-color="#bbb"/>
      <stop offset=".4" stop-color="#919292"/>
      <stop offset=".46" stop-color="#717171"/>
      <stop offset=".52" stop-color="#565656"/>
      <stop offset=".59" stop-color="#434342"/>
      <stop offset=".65" stop-color="#383737"/>
      <stop offset=".72" stop-color="#343434"/>
    </linearGradient>
    <linearGradient id="Naamloos_verloop_70" data-name="Naamloos verloop 70" x1="902.65" y1="12739.08" x2="913.54" y2="12739.08" gradientTransform="translate(-987.53 16349.12) scale(1.27 -1.27)" gradientUnits="userSpaceOnUse">
      <stop offset=".09" stop-color="#4e4d4d"/>
      <stop offset=".1" stop-color="#555454"/>
      <stop offset=".13" stop-color="#797879"/>
      <stop offset=".17" stop-color="#9a9999"/>
      <stop offset=".21" stop-color="#b4b4b4"/>
      <stop offset=".26" stop-color="#c8c7c7"/>
      <stop offset=".31" stop-color="#d6d6d6"/>
      <stop offset=".37" stop-color="#dedede"/>
      <stop offset=".47" stop-color="#e0e0e0"/>
      <stop offset=".58" stop-color="#dcdcdc"/>
      <stop offset=".7" stop-color="#d0d0d0"/>
      <stop offset=".82" stop-color="#bbb"/>
      <stop offset=".94" stop-color="#9d9d9d"/>
      <stop offset=".95" stop-color="#9a9999"/>
    </linearGradient>
    <linearGradient id="Naamloos_verloop_69" data-name="Naamloos verloop 69" x1="842.41" y1="12726.82" x2="930.29" y2="12726.82" gradientTransform="translate(-987.53 16349.12) scale(1.27 -1.27)" gradientUnits="userSpaceOnUse">
      <stop offset=".07" stop-color="#b4b4b4"/>
      <stop offset=".13" stop-color="#8f8f8f"/>
      <stop offset=".22" stop-color="#646464"/>
      <stop offset=".3" stop-color="#414142"/>
      <stop offset=".38" stop-color="#282929"/>
      <stop offset=".46" stop-color="#1b1b1b"/>
      <stop offset=".52" stop-color="#141414"/>
      <stop offset=".56" stop-color="#1d1d1d"/>
      <stop offset=".62" stop-color="#303030"/>
      <stop offset=".69" stop-color="#515151"/>
      <stop offset=".78" stop-color="#7d7d7e"/>
      <stop offset=".86" stop-color="#b8b7b7"/>
      <stop offset=".9" stop-color="#cdcccc"/>
    </linearGradient>
    <radialGradient id="Naamloos_verloop_68" data-name="Naamloos verloop 68" cx="888.64" cy="12720.49" fx="888.64" fy="12720.49" r="37.35" gradientTransform="translate(-987.53 16349.12) scale(1.27 -1.27)" gradientUnits="userSpaceOnUse">
      <stop offset=".12" stop-color="#e7e6e6"/>
      <stop offset=".74" stop-color="#5b5a5a"/>
      <stop offset=".96" stop-color="#808181"/>
    </radialGradient>
    <linearGradient id="Naamloos_verloop_67" data-name="Naamloos verloop 67" x1="851.14" y1="12713.61" x2="884.13" y2="12713.61" gradientTransform="translate(-987.53 16349.12) scale(1.27 -1.27)" gradientUnits="userSpaceOnUse">
      <stop offset=".18" stop-color="#343434"/>
      <stop offset=".51" stop-color="#9a9999"/>
      <stop offset=".65" stop-color="#343434"/>
      <stop offset=".84" stop-color="#b4b4b4"/>
    </linearGradient>
    <linearGradient id="Naamloos_verloop_19" data-name="Naamloos verloop 19" x1="901.48" y1="12746.06" x2="906.5" y2="12749.58" gradientTransform="translate(-987.53 16349.12) scale(1.27 -1.27)" gradientUnits="userSpaceOnUse">
      <stop offset=".06" stop-color="#2a292a"/>
      <stop offset=".08" stop-color="#414142"/>
      <stop offset=".13" stop-color="#747474"/>
      <stop offset=".18" stop-color="#9d9d9c"/>
      <stop offset=".23" stop-color="#bcbcbb"/>
      <stop offset=".27" stop-color="#d3d3d3"/>
      <stop offset=".31" stop-color="#e1e1e1"/>
      <stop offset=".35" stop-color="#e7e6e6"/>
      <stop offset=".38" stop-color="#d2d2d2"/>
      <stop offset=".46" stop-color="#a1a0a0"/>
      <stop offset=".53" stop-color="#777778"/>
      <stop offset=".6" stop-color="#585858"/>
      <stop offset=".67" stop-color="#404040"/>
      <stop offset=".74" stop-color="#343434"/>
      <stop offset=".8" stop-color="#2e2f2f"/>
    </linearGradient>
    <linearGradient id="Naamloos_verloop_20" data-name="Naamloos verloop 20" x1="916.36" y1="12782.56" x2="930.56" y2="12782.56" gradientTransform="translate(-987.53 16349.12) scale(1.27 -1.27)" gradientUnits="userSpaceOnUse">
      <stop offset=".08" stop-color="#f2f2f2"/>
      <stop offset=".17" stop-color="#ddd"/>
      <stop offset=".36" stop-color="#a6a6a6"/>
      <stop offset=".63" stop-color="#50504f"/>
      <stop offset=".71" stop-color="#343434"/>
    </linearGradient>
    <linearGradient id="Naamloos_verloop_21" data-name="Naamloos verloop 21" x1="845.52" y1="12760.92" x2="856.6" y2="12754.52" gradientTransform="translate(-987.53 16349.12) scale(1.27 -1.27)" gradientUnits="userSpaceOnUse">
      <stop offset=".11" stop-color="#010101"/>
      <stop offset=".54" stop-color="#cdcccc"/>
      <stop offset=".82" stop-color="#010101"/>
    </linearGradient>
    <linearGradient id="Naamloos_verloop_28" data-name="Naamloos verloop 28" x1="844.39" y1="12737.92" x2="875.89" y2="12737.92" gradientTransform="translate(-987.53 16349.12) scale(1.27 -1.27)" gradientUnits="userSpaceOnUse">
      <stop offset=".11" stop-color="#010101"/>
      <stop offset=".54" stop-color="#cdcccc"/>
      <stop offset=".95" stop-color="#010101"/>
    </linearGradient>
    <linearGradient id="Naamloos_verloop_23" data-name="Naamloos verloop 23" x1="846.09" y1="12692.06" x2="880.81" y2="12692.06" gradientTransform="translate(-987.53 16349.12) scale(1.27 -1.27)" gradientUnits="userSpaceOnUse">
      <stop offset=".12" stop-color="#010101"/>
      <stop offset=".17" stop-color="#242424"/>
      <stop offset=".22" stop-color="#414142"/>
      <stop offset=".28" stop-color="#565656"/>
      <stop offset=".33" stop-color="#636363"/>
      <stop offset=".38" stop-color="#676767"/>
      <stop offset=".46" stop-color="#636363"/>
      <stop offset=".54" stop-color="#565656"/>
      <stop offset=".62" stop-color="#404040"/>
      <stop offset=".71" stop-color="#232323"/>
      <stop offset=".79" stop-color="#010101"/>
    </linearGradient>
    <linearGradient id="Naamloos_verloop_24" data-name="Naamloos verloop 24" x1="819.49" y1="12591.53" x2="819.49" y2="12615.66" gradientTransform="translate(-1172.53 16181.45) rotate(1.15) scale(1.27 -1.27)" gradientUnits="userSpaceOnUse">
      <stop offset=".19" stop-color="#010101"/>
      <stop offset=".21" stop-color="#101010"/>
      <stop offset=".23" stop-color="#2b2c2c"/>
      <stop offset=".27" stop-color="#414142"/>
      <stop offset=".3" stop-color="#535353"/>
      <stop offset=".35" stop-color="#5e5e5e"/>
      <stop offset=".42" stop-color="#656565"/>
      <stop offset=".6" stop-color="#676767"/>
      <stop offset=".69" stop-color="#646464"/>
      <stop offset=".75" stop-color="#5b5a5a"/>
      <stop offset=".81" stop-color="#4a4a4a"/>
      <stop offset=".86" stop-color="#343434"/>
      <stop offset=".91" stop-color="#161617"/>
      <stop offset=".94" stop-color="#010101"/>
    </linearGradient>
    <linearGradient id="Naamloos_verloop_25" data-name="Naamloos verloop 25" x1="902.7" y1="12782.71" x2="913.95" y2="12782.71" gradientTransform="translate(-987.53 16349.12) scale(1.27 -1.27)" gradientUnits="userSpaceOnUse">
      <stop offset=".09" stop-color="#b4b4b4"/>
      <stop offset=".18" stop-color="#8e8e8e"/>
      <stop offset=".44" stop-color="#282929"/>
      <stop offset=".56" stop-color="#010101"/>
    </linearGradient>
    <linearGradient id="Naamloos_verloop_26" data-name="Naamloos verloop 26" x1="908.5" y1="12700.01" x2="898.78" y2="12716.85" gradientTransform="translate(-987.53 16349.12) scale(1.27 -1.27)" gradientUnits="userSpaceOnUse">
      <stop offset=".25" stop-color="#010101"/>
      <stop offset=".29" stop-color="#1a1a1a"/>
      <stop offset=".36" stop-color="#3f3f3f"/>
      <stop offset=".44" stop-color="#5c5c5c"/>
      <stop offset=".51" stop-color="#707070"/>
      <stop offset=".58" stop-color="#7c7c7d"/>
      <stop offset=".65" stop-color="#808181"/>
      <stop offset=".7" stop-color="#7c7c7d"/>
      <stop offset=".75" stop-color="#707070"/>
      <stop offset=".8" stop-color="#5b5b5b"/>
      <stop offset=".85" stop-color="#3d3e3e"/>
      <stop offset=".91" stop-color="#171717"/>
      <stop offset=".93" stop-color="#010101"/>
    </linearGradient>
    <linearGradient id="Naamloos_verloop_28-2" data-name="Naamloos verloop 28" x1="835.6" y1="12740.52" x2="842.94" y2="12740.52" xlink:href="#Naamloos_verloop_28"/>
    <linearGradient id="Naamloos_verloop_28-3" data-name="Naamloos verloop 28" x1="844.64" x2="876.14" xlink:href="#Naamloos_verloop_28"/>
    <linearGradient id="Naamloos_verloop_29" data-name="Naamloos verloop 29" x1="907.32" y1="12686.56" x2="936.48" y2="12686.56" gradientTransform="translate(-987.53 16349.12) scale(1.27 -1.27)" gradientUnits="userSpaceOnUse">
      <stop offset=".13" stop-color="#010101"/>
      <stop offset=".14" stop-color="#040404"/>
      <stop offset=".18" stop-color="#323232"/>
      <stop offset=".22" stop-color="#585858"/>
      <stop offset=".26" stop-color="#757575"/>
      <stop offset=".3" stop-color="#878889"/>
      <stop offset=".34" stop-color="#969696"/>
      <stop offset=".39" stop-color="#9a9999"/>
      <stop offset=".44" stop-color="#969696"/>
      <stop offset=".5" stop-color="#878889"/>
      <stop offset=".56" stop-color="#747474"/>
      <stop offset=".63" stop-color="#575757"/>
      <stop offset=".69" stop-color="#343434"/>
      <stop offset=".93" stop-color="#010101"/>
    </linearGradient>
    <linearGradient id="Naamloos_verloop_30" data-name="Naamloos verloop 30" x1="917.49" y1="12776.64" x2="925.96" y2="12776.64" gradientTransform="translate(-987.53 16349.12) scale(1.27 -1.27)" gradientUnits="userSpaceOnUse">
      <stop offset=".37" stop-color="#010101"/>
      <stop offset=".83" stop-color="#e7e6e6"/>
      <stop offset=".95" stop-color="#010101"/>
    </linearGradient>
  </defs>
  <g id="Laag_1-2" data-name="Laag 1">
    <g>
      <rect class="cls-1" width="300" height="300"/>
      <g>
        <g>
          <path class="cls-36" d="M21.06,224.87h-12.64v23.88h6.69v-7.36h5.96c11.71.18,18.97-3.68,18.97-8.21,0-4.54-4.38-8.3-18.97-8.3ZM22.85,238.64h-7.75v-11.07h7.75c6.78,0,10.01,2.48,10.01,5.53,0,3.06-4.6,5.62-10.01,5.53ZM60.79,245.86s-3.9.18-3.88-3.47v-14.54h19.99v-2.98h-26.44v18.01c-.06,6.18,7.04,5.86,7.04,5.86h20.19v-2.89h-16.89Z"/>
          <path class="cls-36" d="M55.2,235.24h20.81v2.87h-20.81v-2.87ZM187.98,245.83s-3.9.18-3.88-3.47v-14.48h19.99v-2.98h-26.44v17.95c-.06,6.18,7.04,5.86,7.04,5.86h20.19v-2.89h-16.9Z"/>
          <path class="cls-36" d="M182.4,235.21h20.81v2.87h-20.81v-2.87ZM271.87,226.31h6.74v22.44h-6.74v-22.44Z"/>
          <path class="cls-36" d="M258.84,224.95h32.74v3.41h-32.74v-3.41ZM233.37,224.25c-11.92,0-19.95,5.71-19.95,12.75s7.35,12.75,19.95,12.75,19.95-5.71,19.95-12.75-7.97-12.75-19.95-12.75ZM233.33,247.05c-7.97,0-12.63-4.46-12.63-9.96s4.66-9.96,12.63-9.96,12.63,4.46,12.63,9.96-4.6,9.96-12.63,9.96h0ZM159.01,238.13v7.13c-3.48,1.18-4.9,1.34-8.36,1.34-7.97,0-12.41-4.01-12.41-9.51s3.87-9.96,12.41-9.96c4.35,0,9.89,1.25,14.14,3.25l-.02-4.11c-3.78-1.46-9.14-2.02-14.09-2.02-11.92,0-19.95,5.71-19.95,12.75s7.36,12.75,19.95,12.75c0,0,5.89.25,14.73-2.29v-9.29l-6.4-.03ZM113.16,245.02s-2.17,1.35-8.57,1.35c0,0-9.54.39-9.29-7.58v-13.98h-6.4v16.26s-.53,9.34,15.24,8.64c0,0,8.48.09,15.7-3.61v-21.29h-6.67v20.21Z"/>
        </g>
        <path class="cls-16" d="M129.78,125.75s5.55,2.17,7.98,4.46c0,0-14.81,23.83-17.11,28.84l-2.77,4.24-.09,12.08-5.47,2.88-12.18,2.03-2.71,2.98v3.25l.27,3.11-7.44.41s.41-9.34.54-9.74c.14-.41,3.84-4.08,3.84-4.08l10.7-1.94,5.89-1.29.68-2.16s.14-3.52.14-4.19-.54-5.68-.27-6.09c.27-.41,1.08-2.84,1.08-2.84,0,0,7.44-16.37,14.21-26.39,0,0,2.84-3.52,2.71-5.55Z"/>
        <path class="cls-19" d="M146.68,144.15s-24.26,16.88-20.28,40.05l1.71.14s-.28-6.82,2.56-9.52l22.6-24.02-6.59-6.65Z"/>
        <path class="cls-17" d="M82.78,83.06l6.66-1.46,10.82,2.91,19.14,8.74,21.64,13.32,9.15,5.83,14.15,12.69,16.44,18.11,12.07,17.69,4.99,9.36,1.46,5.83-4.37,2.71-3.12-2.29-11.24-9.78-8.11-5.62-27.88-25.39-8.32-7.7-32.59-26.84-12.56-10.2-8.12-3.95-.21-3.95Z"/>
        <path class="cls-20" d="M110.54,63.14s6.31-2.53,9.38-3.61l2.17-2.71s8.3-5.41,17.5-6.13l5.05,1.26,18.77,5.95s6.86,12.63,12.45,14.44c0,0,3.07,21.47,1.8,28.14l-7.22,4.15-9.02,2.35s-1.26,3.97,6.32,12.09c0,0,27.6,35.36,32.29,46.37,0,0,6.5,12.99,7.22,16.6,0,0-6.86,6.67-7.22,8.48l-27.06-1.08-.18-8.12,5.95-3.43,9.92-3.07,6.14,1.26s3.97-.54,1.8-5.23c0,0-24.9-46.01-58.28-63.51,0,0-39.15-27.97-54.67-23.64l.54-3.43,5.05-1.26h5.95l6.32,1.98,24.9,12.99s11.37,5.41,14.79,7.4c0,0,4.51,1.98,7.94-5.95l4.51-10.1s.9-4.51-2.35-8.3l-10.1-13.35s-3.43-2.17-8.3-1.08c0,0-10.83,1.08-20.21,6.13l-2.16-5.6Z"/>
        <path class="cls-18" d="M103.93,101.73l-6.74.62-6.43,1.01-8.44,2.25-4.11,2.01-1.94,3.18s-1.7,5.73-1.63,5.96c.08.23,1.96,3.73,1.96,3.73l1.76-.4s7.13-4.8,9.61.77c0,0,2.94-1.4,7.44-1.4l21.23.77s10.77,4.8,12.63,7.13l2.87-.15,4.34,2.87s4.88,2.25.31-1.16c0,0-17.56-15.33-31.64-27.69,0,0-.12.34-1.2.49h0Z"/>
        <path class="cls-37" d="M112.71,112.12l4.31,4.97-25.22.32s-3.49.24-1.01-1.71c0,0,1.94-1.95,5.5-2.44,0,0,9.76-.74,16.42-1.14h0Z"/>
        <path class="cls-30" d="M113.07,111.9l4.34,5.24h-25.02s-3.49.23-1.01-1.63c0,0,1.94-1.86,5.5-2.32,0,0,9.53-.9,16.19-1.29h0Z"/>
        <path class="cls-38" d="M100.49,97.11l-16.09-13.62s-1.8-1.48,1.07-3.43c0,0-6.54,1.5-7.4,7.4l1.29,2.9,2.47-.64,2.04-.21h1.72l2.25,1.18.63,2.71,2.27.83,8.37,3.75,2.15,1.82-.75-2.68Z"/>
        <path class="cls-26" d="M176.25,77.07c.75-14.97,12.21-14.96,12.21-14.96,8.64,0,10.46,7.66,10.46,7.66,1.38,4.89,5.77,21.57,5.77,21.57-12.89-4.82-13.22-19.79-13.22-19.79-.26-3-2.91-3.19-2.91-3.19-6.9-.13-7.74,8.86-7.74,8.86,0,6.51,5.7,17.54,5.7,17.54,3.44,6.76,10.08,20.73,10.08,20.73,2.88,7.58-1.14,13.28-1.14,13.28-1.94,2.44-7.55,6.12-7.55,6.12-5.07,3.33-2.87,7.29-2.87,7.29l-24.35-31.12c-3.51-5.39,2.33-6.09,2.33-6.09l7.95-2.11c3.01-.44,7.08-2.15,7.08-2.15-1.38,2.44-5,3.97-5,3.97-2.38.63-4.72,1.37-7.03,2.21-4.76,2.63-2.88,5.9-2.88,5.9l11.96,14.91c2.19,2.76,5.07,1.82,5.07,1.82,4.01-1,9.93-6.74,9.93-6.74,3.7-2.44.78-7.55.78-7.55l-2.34-5.34-7.16-13.93c-5.15-10.31-5.15-18.9-5.15-18.9h0Z"/>
        <path class="cls-27" d="M132.48,84.39s13.12,2.15,20.11,2.76l-3.68,7.98-3.45,5.83s-2.79,1.72-5.39.09l-15.58-7.61s3.31.31,4.62-1.38l3.3-5.68.08-2Z"/>
        <path class="cls-29" d="M124.55,64.4l1.52,4.86,2.03,1.23,2.54,3.19-.43,1.88s-4.56,3.62-10.36,1.09l-2.68,1.88s4.35,8.4,7.68,6.59c0,0,5.94-3.98,7.25-.22l.65-.22s11.09,1.88,19.71,2.75l1.09-3.84-.58-2.68-1.23-3.41-8.84-11.67-3.41-2.83-3.91-.43-5.72.51-5.29,1.3Z"/>
        <path class="cls-22" d="M132.8,84.39s13.13,2.15,20.11,2.76l-3.68,7.98-3.45,5.83s-2.29,2.02-4.88.39l-16.37-7.88s3.36.17,4.66-1.52l3.55-5.57.08-2Z"/>
        <path class="cls-23" d="M124.88,64.4l1.52,4.86,2.03,1.23,2.54,3.19-.43,1.88s-4.57,3.62-10.36,1.09l-2.68,1.88s4.35,8.4,7.68,6.59c0,0,5.94-3.98,7.25-.22l.65-.22s11.09,1.88,19.71,2.75l1.09-3.84-.58-2.68-1.23-3.41-8.84-11.67-3.4-2.83-3.91-.43-5.72.51-5.29,1.3Z"/>
        <path class="cls-21" d="M125.07,64.4l1.52,4.86s-6.27-.31-8.25,3.94c0,0-4.16-1.98-5.11-4.92,0,0,8.55-3.7,11.84-3.88h0Z"/>
        <path class="cls-25" d="M140.39,101.06c4.28,1.09,6.19-1.99,6.19-1.99l5.22-10.08c1.02-1.93,1.32-3.76,1.32-5.28,0-1.72-.4-3.03-.59-3.56-.06-.18-.1-.25-.1-.26-.85-1.99-3.5-5.74-5.9-8.93-2.41-3.2-4.59-5.87-4.59-5.87-1.43-1.72-4.09-2.04-5.56-2.03-.61,0-.99.05-.99.05h-.03s-.02,0-.02,0c-4.69.14-10.17,1.1-14.45,2.47-4.29,1.37-7.37,2.7-7.38,2.7v.44l-.43-.99s12.47-5.38,22.19-5.69c.09-.01.5-.05,1.1-.05,1.58.01,4.55.27,6.39,2.42.02.03,8.93,11.01,10.83,15.38.02.04.78,1.74.78,4.26,0,1.66-.34,3.68-1.45,5.78l-5.22,10.07s-2.1,4.06-6.81,1.52l-.51-.36Z"/>
        <path class="cls-24" d="M125.12,59.4c.08-.14.72-.5,1.44-.78.83-.33,1.66-.63,2.51-.9.66-.21,1.49-.45,1.84-.55s.77-.17.93-.17.4.09.53.2c.13.11.25.37.27.58.01.21-.05.48-.13.61-.09.13-.41.34-.72.46-.31.13-1.15.48-1.88.78-.72.3-1.67.69-2.11.87-.44.18-1.02.38-1.3.44-.28.06-.66.1-.85.08-.2-.02-.43-.17-.51-.32-.08-.15-.15-.45-.15-.66,0-.21,0-.4.13-.64h0Z"/>
        <path class="cls-2" d="M125.99,59.19c.07-.09.54-.34,1.07-.54.62-.22,1.24-.43,1.87-.62.49-.14,1.11-.31,1.37-.38.26-.07.58-.12.7-.12s.3.06.4.14c.1.08.19.26.2.4.01.14-.03.33-.1.42-.07.09-.31.23-.54.32-.23.09-.86.33-1.4.53-.54.21-1.25.47-1.58.6-.33.12-.76.26-.97.3s-.49.07-.64.05c-.14-.01-.31-.11-.38-.22s-.11-.31-.11-.45-.01-.31.1-.44Z"/>
        <path class="cls-28" d="M162.36,111.92s11.22,14.48,13.86,17.73c0,0-9.2-10.67-13.86-17.73Z"/>
        <path class="cls-39" d="M113.39,67.62s.8,2.71,2.8,3.94c0,0-2.34-1.59-3.24-3.9l.45-.05Z"/>
        <path class="cls-4" d="M196.76,171.08c-21.82-39.63-45.06-55.61-45.06-55.61-21.14-16.51-52.1-30.04-52.1-30.04-5.1-2.27-11.26-2.43-13.99-2.36,2.76,0,9.38.6,18.68,5.25,0,0,17.5,9.48,31.69,18.4,5.16,3.39,12.44,8.69,15.17,10.69,2.51,2,14.77,12.06,26.09,26.87,0,0,14.8,20.54,17.68,26.21,0,0,2.6,4.28-1.86,5.02l-10.97,1.21,3.93-4.91-3.12-1.36s-1.73,5.15-10.38,5.52c0,0-2.57.76-2.96,2.14l-2.3,11.64,8.8-.95v-2.84c0-3.65,2.84-4.74,2.84-4.74l14.88-4.19c6.09-1.08,2.98-5.96,2.98-5.96h0Z"/>
        <path class="cls-5" d="M193.9,175.35l-91.45-76.59s22.83,23.27,35.92,31.69c0,0-1.52.35-3.27,2.57,0,0-14.7,19.84-17.16,25.8,0,0-1.65,3.09-1.65,6.83l.22,6.67s.9,4.03-4.24,4.85l-11.24,1.43s-7.92,3.07-5.43,11.57c0,0,18.68-3.47,31.42-1.01l1.32-.16-1.44-9.19s-2.56-11.78,19.77-35.65l21.4,19.4,6.64,4.17,4.36,1.09,3.31,1.34s2.55,3.13-.24,4.89c0,0-1.56,1.05-6.29,1.89,0,0-5,.97-5.55,4.62,0,0-.51,1.91-.95,5.09l2.73-.16s2.08-.08,2.09-2.09c0,0,.05-4.02,3.59-4.88,0,0,10.15-2.87,16.14-4.18h0Z"/>
        <path class="cls-31" d="M126.03,187.94s-19.36-2.78-30.84-1.32c0,0-.77-6.78,4.8-7.64,0,0,6.44-1.82,12.08-2.04,0,0-9.03,1.56-11.74,2.6,0,0-3.25.94-3,5.91,0,0,20.98.12,28.7,2.48Z"/>
        <path class="cls-40" d="M92.22,188.05s0-7.03,2.26-9.65c0,0,1.16-1.43,3.52-1.71l13.71-2.18s2.6-.43,2.08-4.14l-.54-7.13s-.3-2.73,1.44-6.31c0,0,9.1-19.86,15.75-28.5-.22.23-.36.41-.36.41-6.67,8.48-15.97,28.78-15.97,28.78-1.74,3.59-1.44,6.31-1.44,6.31l.54,7.13c.09,2.89-2.07,3.16-2.07,3.16l-13.71,2.44c-2.36.29-3.52,1.71-3.52,1.71-2.25,2.62-2.25,10.37-2.25,10.37,8-2.31,20.86-1.59,28.75-.82-8.09-1.06-20.49-2.09-28.18.13h0Z"/>
        <path class="cls-3" d="M131.49,126.6l.88.72,4.56,2.95s-5.61,4.16-18.49,27.24c0,0-2.7,4.23-2.33,8.98l.28,6.76s.37,3.15-4.08,3.52c0,0-12.85.7-15.57,3.8,0,0,1.71-2.32,15.52-3.34,0,0,4.5-.12,4.41-3.34l-.19-8.06s-.19-4.02,2.59-8.62c0,0,10.63-17.77,18.42-25.83,0,0,3.15.46-.46-2.04l-4.98-3.47-.56.71Z"/>
        <path class="cls-7" d="M164.87,103.99s-2.31,1.62,1.04,3.02c0,0-6.26,1.74-1.04,7.97,0,0,.73.71.15.63l-5-4.92s-3.62-5.89,4.85-6.7Z"/>
        <path class="cls-35" d="M77.48,110.5s1.08-2.57,3.45-3.45c0,0,7.65-3.83,23.48-4.47.8-.03.93-.31.85-.59-.07.18-.3.31-.85.34-15.83.63-23.48,4.47-23.48,4.47-2.37.88-3.45,3.45-3.45,3.45l-1.96,4.87c-.14.46-.17.95-.16,1.32.03-.43.11-.85.22-1.27l1.91-4.67Z"/>
        <path class="cls-2" d="M131.23,176.31s-.92.9-1.22,2.51c0,0-.45-2.14,1.22-2.51Z"/>
        <path class="cls-34" d="M128.97,92.99l3.9-5.41c.06-.1.8-1.08.81-2.23.01-.81-.36-1.83-1.34-2.56-.04-.03-.4-.3-.99-.5.36.16.57.32.6.34.99.72,1.36,1.74,1.34,2.56-.01,1.14-.75,2.13-.81,2.23l-3.9,5.41c-.72.97-1.73,1.24-2.39,1.23,0,0-.4-.03-.88-.18.4.18.83.3,1.27.34.66.01,1.68-.26,2.39-1.23ZM121.99,83.41c-.77-.72-2.69-2.72-3.59-4.73.57-.43,1.22-.79,1.69-1.26,0,0,3.19,1.22,7.08.41,0,0,4.98-.89,4.65-3.26,0,0-.76-3.41-2.89-5.07,0,0-.4-.3-1.11-.55.46.2.72.39.72.39,2.13,1.66,2.89,5.07,2.89,5.07.33,2.37-4.55,3.08-4.55,3.08-3.88.81-6.82-.47-6.82-.47-.48.47-1.48,1.07-2.05,1.5.91,2,2.82,4.01,3.59,4.73.92,1,1.89,1.57,2.21,1.66-.35-.18-1.19-.82-1.82-1.5h0Z"/>
        <path class="cls-13" d="M188.24,63.34c5.43,0,8.27,2.65,9.66,4.9-1.05-2.16-3.7-5.68-9.84-5.68,0,0-4.82-.24-8.25,4.03,3.66-3.71,8.43-3.24,8.43-3.24Z"/>
        <path class="cls-2" d="M112.54,66.81s.24.79,1.94.22c0,0,9.67-3.69,14.26-4.18,0,0-6.35,1.26-14.32,4.51,0,0-1.43.72-1.98.13l.1-.67Z"/>
        <path class="cls-2" d="M187.18,142.33c-1.85-2.68.27-4.46.27-4.46,2.77-2.5,5.89-5.62,5.89-5.62,7.78-6.77,3.86-16.78,3.86-16.78-.77-2.53-5.96-13.13-5.96-13.13-2.57-4.65-7.62-17-7.62-17-2.35-6.13-1.44-9.88-1.44-9.88,1.22-6.45,5.23-6,5.23-6,2.36-.02,2.35,2.48,2.35,2.48,0,1.22.14,2.12.14,2.12,2.21,12.09,12.22,17.41,12.22,17.41,4.07,2.58,2.48-2.17,2.48-2.17-.86-3.74-5.37-20.25-5.37-20.25-1.97-8.15-12-7.89-12-7.89-8.01.18-11.28,8.43-11.28,8.43-.24.78-.5.5-.5.5-8.07-4.92-9.43-10.01-9.43-10.01-.76-2.21-1.99-2.71-1.99-2.71-9.69-4.69-20.17-6.54-20.2-6.56-2.03-.42-3.21-.56-4.78-.56-8.23.02-15.38,4.46-16.05,4.88-1.66.83-2.75,2.52-2.97,2.84-.21.28-.55.57-.83.77-.14.1-.27.18-.36.24-.03.02-.06.04-.08.05l-7.6,2.73c-1.22.41-1.81,1.41-1.77,2.2,0,.48.14.95.4,1.36h0s2.66,4.6,2.66,4.6c2.37,3.86,6.11,4.15,6.2,4.17l-.02-.04c1.14-3.17,6.12-3.64,6.12-3.64,4.61-.29,5.23,3.9,5.23,3.9.34,2.14-4.24,2.59-4.24,2.59-4.27.56-5.79-.91-5.79-.91-.24.25-1.46.98-1.97,1.36-.5.39-.94.7-.94.7l-.59.42.18.47c1.24,3.25,3.89,5.58,4.35,5.97,1.15,1.18,1.97,1.39,2.8,1.38.94,0,1.56-.35,1.63-.39l.04-.02,1.75-1.04c.84-.61,1.51-.76,2.04-.76.43,0,.79.11,1.04.21.12.05.23.11.33.18.6.47.69.85.71,1.26,0,.29-.08.58-.17.8-.04.11-.09.19-.12.25-.03.06-.04.06-.04.07l-3.6,5.07c-.39.5-.75.55-1.08.57-.13,0-.24-.02-.31-.03,0,0-.01,0-.02,0-.21-.13-.53-.3-1.07-.59-4.56-2.44-21.15-10.98-26.53-12.7-.05-.01-3-.98-7.1-.98-2.14,0-4.59.26-7.11,1.07-.11.03-4.54,1.48-6.73,7.06h0s0,.04,0,.04c-.02.06-.11.35-.11.79s.09,1.01.42,1.62l.83,1.92.03.05c.06.12.55.77,1.54.77.41,0,.88-.11,1.38-.37.04-.02.13-.05.26-.09.58-.21,1.97-.62,3.26-.61.85,0,1.62.18,2.13.58.51.41.91,1.05.96,2.39v1.31c6.09.41,10.69,5.34,10.69,5.34,1.71,1.5-.61,1.56-.61,1.56-14.48,1.49-19.82,4.8-19.82,4.8-3.92,2.5-5.14,10.15-5.14,10.15,0,2.37,3.65,5.82,3.65,5.82,4.23-3.39,7.37-3.18,7.37-3.18,2.23,0,3.75,2.59,3.75,2.59,1.35-1.17,6.24-1.08,6.24-1.08l20.21.27c6.77,0,13.53,7.58,13.53,7.58-5.77,8.57-15.43,27.61-15.43,27.61-1.89,3.35-1.62,7.85-1.62,7.85l.36,6.31c-.09,2.26-2.62,2.44-2.62,2.44l-13.26,2.53c-4.42.54-5.23,4.78-5.23,4.78-.72,3.34-1.26,11.73-1.26,11.73,18.49-2.35,41.23,0,41.23,0-.18-1.17-.27-10.83-.27-10.83-.14-2.96.9-4.15.9-4.15l20.21-22.37c1.2-1.49,2.35-.45,2.35-.45,2.26,1.89,17.41,12.63,17.41,12.63,2.74,2.12,7.58,2.71,7.58,2.71,0,0,2.99.43,2.89,2.45,0,0,.65,2.42-8.28,3.68,0,0-4.12.46-4.98,4.25,0,0-1.98,6.49-1.35,12.09,0,0,17.86-2.08,34.46,0,0,0,4.6-6.22,8.12-9.02,0,0-4.48-15.01-22.01-40.44h0ZM176.51,77c.75-14.97,11.59-14.41,11.59-14.41,8.85-.01,10.46,7.33,10.46,7.33,1.38,4.88,5.57,20.98,5.57,20.98-11.68-4.87-12.34-19.79-12.34-19.79-.12-3.86-3.44-3.69-3.44-3.69-8.52,0-7.89,9.96-7.89,9.96,0,6.51,5.7,17.54,5.7,17.54,3.44,6.76,10.08,20.73,10.08,20.73,2.88,7.58-1.63,12.34-1.63,12.34-1.94,2.44-7.39,6.58-7.39,6.58-5.07,3.33-2.51,6.83-2.51,6.83l-23.8-30.44c-3.07-5.09,1.75-5.83,1.75-5.83l8.08-1.94c3.01-.44,6.95-2.32,6.95-2.32-1.38,2.44-6.58,3.63-6.58,3.63-3.82,1-6.2,2.25-6.2,2.25-4.76,2.63-2.13,6.2-2.13,6.2l11.96,14.91c2.19,2.76,5.07,1.82,5.07,1.82,4.01-1,10.27-6.39,10.27-6.39,3.7-2.44.94-8.46.94-8.46l-2.88-5.89-7.95-15.66c-4.01-9.21-3.7-16.29-3.7-16.29ZM177.9,102.29c.16-.23.36-.68.44-1.01.08-.33.18-1.49.22-2.58.04-1.1.12-2.12.2-2.28.07-.16.21-.31.31-.35.1-.04.27-.03.4.02.12.05.34.23.48.39.15.17,1.39,2.46,2.78,5.1l2.94,5.61c1.38,2.64,2.84,5.41,3.24,6.17.4.76.87,1.75,1.05,2.21.18.46.33,1.27.33,1.82s-.13,1.48-.28,2.08c-.16.6-.67,1.55-1.14,2.1-.47.55-1.58,1.54-2.47,2.19s-2.56,1.65-3.7,2.21c-1.14.57-2.42,1.15-2.83,1.29-.41.14-1.06.3-1.44.35-.39.05-.98,0-1.31-.09-.34-.1-.82-.32-1.07-.5s-.75-.65-1.09-1.05c-.35-.4-1.61-1.88-2.8-3.31-1.22-1.46-2.45-2.91-3.68-4.36-.83-.97-2.14-2.51-2.91-3.41-.77-.9-1.53-1.91-1.69-2.23-.16-.33-.32-.81-.37-1.07-.05-.33-.06-.67-.04-1.01.02-.29.16-.81.31-1.16.14-.35.5-.84.79-1.09s.85-.6,1.25-.77c.4-.17,1.85-.7,3.24-1.18,1.39-.48,3.34-1.16,4.34-1.51s2.12-.79,2.5-.99c.43-.23.84-.48,1.23-.77.3-.23.67-.6.83-.83h0ZM126.32,94.1c.66.01,1.67-.26,2.39-1.23l3.9-5.42c.06-.1.8-1.08.81-2.23.01-.81-.36-1.83-1.34-2.56-.07-.05-.94-.72-2.36-.73-.86,0-2.12.47-3.18,1.25l-1.92,1.28s0,0-.01,0c-.11.05-.47.23-.85.23,0,0-.75.06-2.1-1.41-.77-.72-2.69-2.73-3.6-4.73.57-.43,1.57-1.03,2.05-1.5,0,0,2.94,1.28,6.82.47,0,0,4.88-.71,4.55-3.08,0,0-.76-3.41-2.89-5.07,0,0-1.71-1.28-4.36-.81,0,0-4.59.57-6.44,3.37l-.1.13c-.53-.11-2.48-.74-3.81-2.97l-2.69-4.65-.02-.02h0s-.16-.32-.15-.51c.04-.19-.05-.34.71-.67l7.72-2.77.05-.03s.96-.38,1.84-1.53l.03-.03.02-.03s.06-.09.18-.27c.36-.52,1.28-1.64,2.18-2.04l.05-.02.04-.03c.4-.25.81-.49,1.22-.72,2.39-1.31,8-3.94,13.99-3.93,1.46,0,2.94.15,4.41.51l.84.18c1.83.45,2.71.81,6.77,2.03,4.06,1.22,8.51,3.02,11.62,4.89,0,0-.77,6.18,11.09,14.57,0,0,2.2,1.72,2.71,6.45,0,0,1.17,11.01.9,15.7,0,0,.36,3.92-3.34,4.83l-12.4,3.02s-5.5,1.35-2.03,6.86c0,0,19.35,24.67,25.3,32.52,0,0,17.59,26.43,21.2,37.71,0,0-5.41,5.05-6.68,7.76,0,0-21.38-2.25-30.94-.45,0,0-.4-10.79,4.67-11.46,4.98-.51,7.95-1.95,7.95-1.95,0,0,2-.93,1.99-3.09,0,0,.34-3.27-4.87-3.97,0,0-2.01-.14-5.23-3.07,0,0-24.27-19.4-26.34-20.75,0,0,1.15,2.04,6.08,6.81l-21.24,20.89s-4.88,4.48-4.69,9.65l.24,7.1s-23.25-3.41-35.43.11c0,0,0-7.76,2.26-10.37,0,0,1.16-1.42,3.52-1.71l13.71-2.44s2.17-.27,2.07-3.16l-.54-7.13s-.3-2.73,1.44-6.31c0,0,9.29-20.3,15.97-28.78,0,0,1.27-1.68,2.46-1.37,0,0-12.02-9.37-16.62-9.37h-22.46s-4.6.18-5.86,1.08c0,0-.61-2.75-3.65-2.75,0,0-3.04-.05-6.7,2.77,0,0-2.57-1.08-1.69-4.06l1.96-4.87s1.08-2.57,3.45-3.45c0,0,7.65-3.83,23.48-4.47,1.69-.07.41-1.22.41-1.22-9.07-9.61-15.11-8.16-15.11-8.16-.12-1.48-.7-2.58-1.57-3.25-.94-.72-2.08-.92-3.13-.92-2.14,0-4.11.82-4.16.84h-.03s-.03.03-.03.03c-.34.17-.56.21-.68.21-.06,0-.11,0-.16-.03l-.77-1.79-.02-.04c-.15-.27-.24-.57-.24-.89,0-.11.01-.19.02-.24v-.03c.97-2.46,2.41-3.97,3.61-4.88.48-.36.99-.68,1.52-.95.19-.09.34-.16.44-.2.1-.04.13-.05.13-.05,2.32-.75,4.61-1,6.61-1s3.59.23,4.76.46c.59.11,1.05.23,1.37.31.32.08.47.13.47.13,2.86.91,9.61,4.11,15.64,7.13,2.68,1.34,5.36,2.7,8.02,4.09,1.07.56,1.96,1.03,2.6,1.37.32.17.58.31.76.41.67.36,1.41.41,1.41.41h0Z"/>
        <path class="cls-10" d="M89.21,93.58s4.41-1.39,14.46,7.58l-1.55.23s-6.5-7.5-12.91-7.81Z"/>
        <path class="cls-9" d="M88.13,120.03s1.78-1.01,6.03-1.01h21.57s3.69-.33,12.53,6.5c0,0-7.61-6.03-12.94-6.03h-21.08s-2.98-.17-6.11.54Z"/>
        <path class="cls-11" d="M90.78,189.73s13.09-2.97,37.03.05c0,0,.49.1.53-.78l-.29-7.35s-.35-3.64,1.46-5.74l5.01-5.25-4.62,5.79s-1.22,1.21-1.22,5.55l.23,8.71s-27.52-2.53-38.13-.34c0,0-1.07-.19,0-.63h0Z"/>
        <path class="cls-12" d="M191.04,150.55c-3.11-5.16-5.8-9.46-5.81-9.48-.15-.32-.23-.68-.22-1.04.09-2.91,5.03-5.79,5.03-5.81l-.03.06s-4.71,3.13-4.73,5.76c0,.31.05.62.18.9,0,0,10.8,17.22,14.07,24.11v.12c-1.61-3.42-5.38-9.45-8.49-14.61h0Z"/>
        <path class="cls-14" d="M176.74,70.48s-1.13,1.19-2.56.18c0,0-6.36-4.1-8.97-9.92,0,0-1.05-2.6-2.79-2.79,0,0,1.11,1.13,1.66,2.91,0,0,1.19,5.7,9.63,11.29,0,0,1.6,1.43,3.03-1.66Z"/>
        <path class="cls-15" d="M168.6,163.91s-14.43-10.92-15.88-11.64c0,0,.67-.4.86-.95.47.23.94.5,1.76,1.13l18.22,14.52s.43.33,1.15.75c-2.01-.93-4.46-2.25-6.11-3.82Z"/>
        <path class="cls-33" d="M76.94,120.49s6.65-3.96,9.36-2.17c0,0-2.14-3.12-9.36,2.17Z"/>
        <path class="cls-32" d="M88.46,120.03s1.78-1.01,6.03-1.01h21.57s3.69-.33,12.53,6.5c0,0-7.61-6.03-12.94-6.03h-21.08s-2.98-.17-6.11.54Z"/>
        <path class="cls-8" d="M168.7,189.42s14.03-1.76,31.62.34c0,0,3.24-3.92,5.13-5.14,0,0-3.17,3.8-4.54,6.16,0,0-18.22-2.5-32.48-.47,0,0-.4-.61.27-.88h0Z"/>
        <path class="cls-6" d="M192.05,77.77s-1.17-5.03-1.08-7.19c0,0,.29-2.55-3.3-2.46,0,0-6.3-.04-6.41,9.12,0,0,.17-8.51,6.55-8.62,0,0,2.71,0,2.71,2.66,0,0,.05,3.55,1.53,6.5Z"/>
        <path class="cls-2" d="M125.75,92.29s.32.22.87.15l.21-.03-.03.27-1.04.02s-1.08-.79,0-.41ZM79.12,86.49s-.23.49-.11.94l.97,2.41s.34-.01,1.26-.33l.69.17-.89.55s-1.51.03-1.46.03c.05,0-1-3.01-1-3.01,0,0,.63-1.91.55-.77Z"/>
      </g>
    </g>
  </g>
</svg>