<?xml version="1.0" encoding="UTF-8"?>
<svg id="Laag_2" data-name="Laag 2" xmlns="http://www.w3.org/2000/svg" viewBox="0 0 300 300">
  <defs>
    <style>
      .cls-1 {
        fill: none;
      }

      .cls-2 {
        fill: #d8b147;
      }

      .cls-2, .cls-3, .cls-4, .cls-5 {
        fill-rule: evenodd;
      }

      .cls-3 {
        fill: #dbdddd;
      }

      .cls-4 {
        fill: #1f3461;
      }

      .cls-5 {
        fill: #b01a43;
      }
    </style>
  </defs>
  <g id="Laag_1-2" data-name="Laag 1">
    <g>
      <rect class="cls-1" width="300" height="300"/>
      <g>
        <path class="cls-4" d="M289.59,150c0-77.09-62.5-139.59-139.59-139.59S10.41,72.91,10.41,150s62.5,139.59,139.59,139.59,139.59-62.5,139.59-139.59Z"/>
        <path class="cls-3" d="M150,20.53c71.13,0,129.47,58.04,129.47,129.47s-58.34,129.47-129.47,129.47S20.53,221.13,20.53,150,78.57,20.53,150,20.53Z"/>
        <path class="cls-4" d="M274.71,150c0-69.05-55.96-124.71-124.71-124.71S25.29,80.95,25.29,150s55.96,124.71,124.71,124.71,124.71-55.96,124.71-124.71h0Z"/>
        <path class="cls-3" d="M83.03,98.21c2.68,2.38,6.84,6.84,13.1,6.84s11.31-2.38,15.77-2.38c3.28,0,8.93,1.79,11.61,7.44-1.49-1.19-4.47-2.68-9.52-2.68-3.57,0-9.82,3.57-15.18,3.57-8.33,0-13.1-6.84-15.77-12.8Z"/>
        <path class="cls-2" d="M128.27,74.7l-14.88-34.52c6.25,0,12.5,2.68,12.5,7.74,0,1.49-.6,3.27-1.79,5.06q0,.3.3.3c1.19-1.19,2.68-2.08,4.46-2.08,3.28,0,5.66,2.68,5.66,5.95,0,2.98-2.38,5.66-5.66,5.66h-1.19c.3,1.19,4.47,3.57,9.23,3.57,3.57,0,7.74-1.49,10.12-6.25-.89.89-2.38,1.19-3.57,1.19-3.27,0-5.95-2.38-5.95-5.66s2.68-5.95,5.95-5.95c1.19,0,2.38.3,3.27.89-1.31-.98-2.08-2.53-2.08-4.17,0-2.98,2.68-5.66,5.95-5.66s5.95,2.68,5.95,5.66c0,1.49-.6,2.98-1.78,3.87.89-.3,1.78-.6,2.68-.6,3.27,0,5.95,2.68,5.95,5.95s-2.68,5.66-5.95,5.66c-1.49,0-2.68-.6-3.87-1.19.89,2.38,5.35,6.55,10.71,6.55,2.98,0,6.25-1.19,9.23-3.87h-.89c-3.57,0-6.25-2.68-6.25-5.66,0-3.27,2.68-5.95,6.25-5.95,1.49,0,2.98.89,4.17,2.08h.3s.3,0,.3-.3c-1.49-1.79-2.08-3.57-2.08-5.06,0-5.06,6.25-7.74,12.2-7.74l-14.29,34.23h-43.16c-.6,0-1.19,0-1.79.3h0Z"/>
        <path class="cls-3" d="M123.81,82.14c.6-3.57,3.27-7.74,6.25-7.74h43.16c.89.89,1.79,2.08,2.68,3.27,2.98-1.19,5.95-1.49,8.34-1.49,2.08,0,3.57.3,3.87.3,0,0,1.78.3,2.08.89-2.08,4.76-3.57,7.44-5.35,9.82,7.44,7.74,10.42,17.26,8.93,29.47-2.08-1.19-6.25-2.98-8.63-3.57,3.87,5.95,5.06,11.31,5.06,17.26,0,4.17-.89,8.63-2.68,12.8l-1.19,3.27c-2.38-3.27-4.17-5.66-6.84-7.74.6,2.08,1.49,6.55,1.49,9.52,0,8.04-3.27,15.18-10.71,19.94-1.49-3.87-4.47-9.52-7.44-13.1.3,7.44,0,16.07-2.98,21.73-5.65,7.44-13.39,11.91-25.6,14.88,2.08-5.06,3.87-18.45,2.98-34.52-2.38,3.57-5.06,10.42-5.95,19.05-2.98-2.38-11.9-8.93-11.9-20.54,0-4.76,1.79-9.52,4.76-14.29-4.17,1.79-7.14,4.46-10.12,10.42-.89-8.33.6-17.26,4.76-23.81-10.71-.3-13.69-6.55-13.1-16.07,2.98,2.68,6.25,4.47,10.71,4.47s10.12-1.79,15.78-9.23c-2.18-1.2-4.48-2.2-6.85-2.98-2.08-.6-5.36-1.19-8.63-5.36-1.19-1.49-3.27-1.79-5.66-1.79-2.98,0-7.44.6-14.29,4.17.89-17.26,9.23-22.62,15.78-22.62,3.27,0,7.14,1.19,11.31,3.57h0ZM88.09,197.92c11.01,0,21.13,1.79,21.13,11.01h-14.88c0-3.87-2.68-4.47-6.25-4.47-3.27,0-5.66.89-5.66,3.27s2.08,3.57,7.44,3.57c13.39,0,19.35,2.38,20.54,8.63l8.63-21.43h19.35l9.23,22.92,9.52-22.92h19.05l10.72,25.3v-25.3h30.66c7.74,0,9.52,5.36,9.52,8.63,0,2.98-1.19,7.15-7.15,8.04,6.85.6,8.33,5.66,8.33,8.63,0,3.57-2.68,9.23-9.22,9.23h-41.67l-2.08-5.35h-16.97l-2.38,5.35h-16.37l-2.38-5.35h-16.97l-2.38,5.35h-13.1l1.19-2.98c-2.08,1.79-5.66,3.87-17.56,3.87s-21.43-2.38-21.73-11.61h15.18c0,2.08,1.49,4.47,6.25,4.47,5.95,0,6.55-1.79,6.55-3.28,0-2.08-1.49-3.87-8.63-3.87-10.42,0-17.86-1.78-17.86-10.12,0-9.53,11.02-11.62,19.94-11.62h0ZM161.61,219.65h10.42l-5.36-12.8-5.06,12.8ZM123.51,219.65h10.42l-5.36-12.8-5.06,12.8ZM210.42,211.91c1.19,0,2.38-1.19,2.38-2.68,0-1.19-1.19-2.38-2.38-2.38h-11.01v5.06h11.01ZM199.41,224.11h11.61c1.49,0,2.68-1.19,2.68-2.38,0-1.49-1.19-2.38-2.68-2.38h-11.61v4.76Z"/>
        <path class="cls-5" d="M136.61,87.5c0,1.19-1.49,2.98-4.17,2.98-2.38,0-3.57-1.49-3.87-2.68-.6,0-1.19,0-1.79-.3,0,4.17,2.98,5.36,5.95,5.36,2.08,0,5.36-.6,6.25-5.36h-2.38Z"/>
        <path class="cls-5" d="M123.51,86.31c-4.17-2.38-8.04-3.87-11.01-3.87-7.14,0-10.12,8.04-11.31,12.5,3.87-1.19,7.14-1.79,9.82-1.79,3.87,0,6.55.89,8.63,3.27,2.08,2.98,4.76,3.57,5.66,3.57,3.87,1.19,10.71,3.57,10.71,6.85,0,.6,0,1.49-.89,2.38-6.85,8.63-13.1,11.01-18.45,11.01-2.68,0-4.76-.6-6.55-1.19,1.49,4.17,5.66,5.06,8.93,5.06,2.68,0,5.06-.3,10.12-1.49-5.36,4.17-9.82,9.52-11.01,17.86,4.76-3.57,9.82-4.47,15.18-4.47-6.25,6.55-9.82,13.1-9.82,19.64s2.98,10.72,5.06,13.1c2.38-11.01,8.04-17.86,11.61-21.43,2.08,15.48.89,32.15-.3,38.69,6.55-2.38,12.2-5.36,16.67-11.31,2.68-4.47,2.98-17.56,2.08-28.28,5.65,3.57,10.71,10.12,13.1,15.48,3.27-3.27,5.06-7.74,5.06-13.69,0-6.55-2.08-12.5-4.17-16.97,4.76,1.49,8.93,3.57,12.21,7.44.89-2.98,1.49-5.66,1.49-8.63,0-10.42-5.66-17.86-9.52-21.73,6.25,0,9.82,1.19,13.39,2.38.3-6.55-1.49-14.29-7.44-20.54-5.36,6.25-10.42,9.82-20.54,13.39,8.93,6.85,6.25,17.26-2.08,27.68-.89-4.47-2.08-8.33-5.06-11.61.6,5.66-.89,16.07-12.5,21.73.3-4.47-.3-8.33-1.19-12.2-.89.89-2.38,2.08-3.87,3.28-.3-1.19-.6-3.28-.3-4.76,2.08-1.79,3.87-4.17,5.95-6.55,1.79,4.47,2.68,10.42,2.98,13.1,4.17-3.87,7.44-11.01,3.28-23.81,6.25,3.27,9.52,6.55,11.91,11.91,6.55-11.01-.3-16.67-10.42-20.54,11.91-1.49,26.49-6.84,33.93-21.73-5.06-.3-12.8,1.49-20.24,11.01-.89-.6-2.08-1.49-2.38-2.38,2.98-4.17,6.55-7.44,10.42-9.52-.3-.6-.59-1.19-.89-1.19h-41.38c-1.49,0-2.98,2.68-3.57,5.66.89.3,2.38.3,3.87.3h4.76c2.98,0,7.44.3,10.12,2.08-.24,1.01-.76,1.94-1.49,2.68-.6-.3-1.19-.3-1.79-.6-1.49,6.85-6.25,8.33-9.52,8.33-8.33,0-9.82-6.55-9.22-10.12h0Z"/>
      </g>
    </g>
  </g>
</svg>