<?xml version="1.0" encoding="UTF-8"?>
<svg xmlns="http://www.w3.org/2000/svg" xmlns:xlink="http://www.w3.org/1999/xlink" viewBox="0 0 300 300">
  <defs>
    <style>
      .cls-1 {
        fill: none;
      }

      .cls-2 {
        fill: #3c3c3b;
      }

      .cls-3 {
        fill: url(#radial-gradient-4);
      }

      .cls-4 {
        fill: url(#linear-gradient-8);
      }

      .cls-5 {
        fill: url(#linear-gradient-7);
      }

      .cls-6 {
        fill: url(#linear-gradient-5);
      }

      .cls-7 {
        fill: url(#linear-gradient-6);
      }

      .cls-8 {
        fill: url(#linear-gradient-9);
      }

      .cls-9 {
        fill: url(#linear-gradient-4);
      }

      .cls-10 {
        fill: url(#linear-gradient-3);
      }

      .cls-11 {
        fill: url(#linear-gradient-2);
      }

      .cls-12 {
        fill: url(#radial-gradient);
      }

      .cls-13 {
        fill: url(#linear-gradient);
      }

      .cls-14 {
        fill: #1d1d1b;
      }

      .cls-15 {
        isolation: isolate;
      }

      .cls-16 {
        fill: #fff;
      }

      .cls-17 {
        fill: #878787;
      }

      .cls-18 {
        fill: url(#linear-gradient-10);
      }

      .cls-19 {
        fill: url(#linear-gradient-11);
      }

      .cls-20 {
        fill: url(#linear-gradient-12);
      }

      .cls-21 {
        fill: #e30613;
      }

      .cls-22 {
        fill: #9d9d9c;
      }

      .cls-23 {
        fill: url(#radial-gradient-3);
      }

      .cls-23, .cls-24, .cls-25, .cls-26 {
        mix-blend-mode: multiply;
      }

      .cls-24 {
        fill: url(#radial-gradient-2);
      }

      .cls-25 {
        fill: url(#radial-gradient-5);
      }

      .cls-26 {
        fill: url(#radial-gradient-6);
        opacity: .1;
      }

      .cls-27 {
        fill: #b2b2b2;
      }
    </style>
    <radialGradient id="radial-gradient" cx="144.75" cy="176.13" fx="144.75" fy="176.13" r="80.16" gradientTransform="translate(34.9 30.53) rotate(15.49) scale(1 .63)" gradientUnits="userSpaceOnUse">
      <stop offset=".33" stop-color="#818080"/>
      <stop offset=".59" stop-color="#9f9e9e"/>
      <stop offset=".8" stop-color="#b2b2b2"/>
      <stop offset="1" stop-color="#dadada"/>
    </radialGradient>
    <linearGradient id="linear-gradient" x1="125.22" y1="80.34" x2="223.37" y2="80.34" gradientUnits="userSpaceOnUse">
      <stop offset="0" stop-color="#4a4a49"/>
      <stop offset=".31" stop-color="#515150"/>
      <stop offset=".45" stop-color="#575756"/>
      <stop offset=".48" stop-color="#525251"/>
      <stop offset=".76" stop-color="#2b2b2a"/>
      <stop offset=".91" stop-color="#1d1d1b"/>
    </linearGradient>
    <linearGradient id="linear-gradient-2" x1="84.96" y1="90.28" x2="76.29" y2="51.52" gradientUnits="userSpaceOnUse">
      <stop offset="0" stop-color="#9d9d9c"/>
      <stop offset=".51" stop-color="#aaa"/>
      <stop offset="1" stop-color="#b2b2b2"/>
    </linearGradient>
    <linearGradient id="linear-gradient-3" x1="82.68" y1="50.04" x2="226.07" y2="50.04" gradientUnits="userSpaceOnUse">
      <stop offset=".06" stop-color="#bfbfbf"/>
      <stop offset=".28" stop-color="#bcbcbc"/>
      <stop offset=".44" stop-color="#b2b2b2"/>
      <stop offset=".59" stop-color="#a2a2a2"/>
      <stop offset=".72" stop-color="#8c8c8c"/>
      <stop offset=".85" stop-color="#6f6f6f"/>
      <stop offset=".97" stop-color="#4b4b4b"/>
      <stop offset="1" stop-color="#404040"/>
    </linearGradient>
    <linearGradient id="linear-gradient-4" x1="223.98" y1="54.56" x2="223.98" y2="82.3" gradientUnits="userSpaceOnUse">
      <stop offset="0" stop-color="#fff"/>
      <stop offset=".12" stop-color="#ccc"/>
      <stop offset=".5" stop-color="#cacaca"/>
      <stop offset=".63" stop-color="#c3c3c3"/>
      <stop offset=".73" stop-color="#b7b7b7"/>
      <stop offset=".81" stop-color="#a6a6a6"/>
      <stop offset=".87" stop-color="#909090"/>
      <stop offset=".93" stop-color="#757575"/>
      <stop offset=".99" stop-color="#555"/>
      <stop offset="1" stop-color="#4d4d4d"/>
    </linearGradient>
    <radialGradient id="radial-gradient-2" cx="221.91" cy="176.41" fx="221.91" fy="176.41" r="191.23" gradientUnits="userSpaceOnUse">
      <stop offset=".14" stop-color="#878787"/>
      <stop offset=".26" stop-color="#9b9b9b"/>
      <stop offset=".47" stop-color="#bababa"/>
      <stop offset=".59" stop-color="#c6c6c6"/>
      <stop offset=".62" stop-color="#cdcdcd"/>
      <stop offset=".72" stop-color="#dedede"/>
      <stop offset=".83" stop-color="#e9e9e9"/>
      <stop offset=".96" stop-color="#ededed"/>
    </radialGradient>
    <radialGradient id="radial-gradient-3" cx="292.4" cy="207.63" fx="292.4" fy="207.63" r="199.52" gradientUnits="userSpaceOnUse">
      <stop offset=".14" stop-color="#878787"/>
      <stop offset=".26" stop-color="#9b9b9b"/>
      <stop offset=".47" stop-color="#bababa"/>
      <stop offset=".59" stop-color="#c6c6c6"/>
      <stop offset=".59" stop-color="#c6c6c6"/>
      <stop offset=".67" stop-color="#dfdfdf"/>
      <stop offset=".75" stop-color="#f0f0f0"/>
      <stop offset=".84" stop-color="#fbfbfb"/>
      <stop offset=".94" stop-color="#fff"/>
    </radialGradient>
    <linearGradient id="linear-gradient-5" x1="74.21" y1="177.07" x2="213.78" y2="177.07" gradientUnits="userSpaceOnUse">
      <stop offset="0" stop-color="#706f6f" stop-opacity=".91"/>
      <stop offset=".5" stop-color="#444443" stop-opacity=".96"/>
      <stop offset="1" stop-color="#1d1d1b"/>
    </linearGradient>
    <linearGradient id="linear-gradient-6" x1="218.21" y1="174.02" x2="229.05" y2="134.85" gradientUnits="userSpaceOnUse">
      <stop offset=".27" stop-color="#575756"/>
      <stop offset=".39" stop-color="#474745"/>
      <stop offset=".62" stop-color="#2f2f2e"/>
      <stop offset=".82" stop-color="#21211f"/>
      <stop offset="1" stop-color="#1d1d1b"/>
    </linearGradient>
    <radialGradient id="radial-gradient-4" cx="288.44" cy="566.95" fx="288.44" fy="566.95" r="618.38" gradientUnits="userSpaceOnUse">
      <stop offset="0" stop-color="#7c7c7b"/>
      <stop offset="0" stop-color="#7d7d7c"/>
      <stop offset=".26" stop-color="#afafae"/>
      <stop offset=".45" stop-color="#cecece"/>
      <stop offset=".56" stop-color="#dadada"/>
      <stop offset=".84" stop-color="#f4f4f4"/>
      <stop offset="1" stop-color="#fff"/>
    </radialGradient>
    <linearGradient id="linear-gradient-7" x1="180.27" y1="136.22" x2="177.01" y2="149.29" gradientUnits="userSpaceOnUse">
      <stop offset=".06" stop-color="#706f6f"/>
      <stop offset=".1" stop-color="#7c7b7b"/>
      <stop offset=".2" stop-color="#9c9b9b"/>
      <stop offset=".31" stop-color="#b7b6b6"/>
      <stop offset=".43" stop-color="#cbcbcb"/>
      <stop offset=".57" stop-color="#d9d9d9"/>
      <stop offset=".74" stop-color="#e2e2e2"/>
      <stop offset="1" stop-color="#e5e5e5"/>
    </linearGradient>
    <linearGradient id="linear-gradient-8" x1="73.6" y1="146.11" x2="175.35" y2="146.11" gradientUnits="userSpaceOnUse">
      <stop offset="0" stop-color="#9c9c9c"/>
      <stop offset=".19" stop-color="#949494"/>
      <stop offset=".48" stop-color="#7e7e7e"/>
      <stop offset=".84" stop-color="#5b5b5a"/>
      <stop offset="1" stop-color="#4a4a49"/>
    </linearGradient>
    <linearGradient id="linear-gradient-9" x1="133.38" y1="96.09" x2="225.99" y2="96.09" gradientUnits="userSpaceOnUse">
      <stop offset="0" stop-color="#b2b2b2"/>
      <stop offset=".34" stop-color="#b9b9b9"/>
      <stop offset=".87" stop-color="#cfcfcf"/>
      <stop offset="1" stop-color="#d6d6d6"/>
    </linearGradient>
    <linearGradient id="linear-gradient-10" x1="75" y1="122.02" x2="173.46" y2="139.11" gradientUnits="userSpaceOnUse">
      <stop offset="0" stop-color="#878787"/>
      <stop offset=".9" stop-color="#1d1d1b"/>
    </linearGradient>
    <linearGradient id="linear-gradient-11" x1="76.12" y1="121.94" x2="189.84" y2="140.63" gradientUnits="userSpaceOnUse">
      <stop offset="0" stop-color="#646363"/>
      <stop offset="1" stop-color="#4a4a49"/>
    </linearGradient>
    <linearGradient id="linear-gradient-12" x1="110.45" y1="92.25" x2="188.33" y2="92.25" gradientUnits="userSpaceOnUse">
      <stop offset=".22" stop-color="#575756"/>
      <stop offset=".39" stop-color="#5c5c5b"/>
      <stop offset=".6" stop-color="#6d6d6c"/>
      <stop offset=".85" stop-color="#888887"/>
      <stop offset="1" stop-color="#9d9d9c"/>
    </linearGradient>
    <radialGradient id="radial-gradient-5" cx="223.43" cy="175.07" fx="223.43" fy="175.07" r="191.98" gradientUnits="userSpaceOnUse">
      <stop offset="0" stop-color="#878787"/>
      <stop offset=".13" stop-color="#9b9b9b"/>
      <stop offset=".38" stop-color="#bababa"/>
      <stop offset=".51" stop-color="#c6c6c6"/>
      <stop offset=".51" stop-color="#c6c6c6"/>
      <stop offset=".62" stop-color="#dfdfdf"/>
      <stop offset=".74" stop-color="#f0f0f0"/>
      <stop offset=".86" stop-color="#fbfbfb"/>
      <stop offset="1" stop-color="#fff"/>
    </radialGradient>
    <radialGradient id="radial-gradient-6" cx="219.37" cy="177.74" fx="219.37" fy="177.74" r="66.34" gradientUnits="userSpaceOnUse">
      <stop offset="0" stop-color="#1d1d1b"/>
      <stop offset=".25" stop-color="#5a5a59"/>
      <stop offset=".64" stop-color="#b5b5b5"/>
      <stop offset=".81" stop-color="#dadada"/>
      <stop offset=".93" stop-color="#f4f4f4"/>
      <stop offset="1" stop-color="#fff"/>
    </radialGradient>
  </defs>
  <g class="cls-15">
    <g id="Laag_2" data-name="Laag 2">
      <g id="Laag_1-2" data-name="Laag 1">
        <g>
          <rect class="cls-1" width="300" height="300"/>
          <g>
            <path class="cls-21" d="M207.69,227.85v11.77h-37.45v-3.27c0-5.09.81-8.5,6.83-8.5h30.62ZM174.76,220.59c-9.85,0-14.37,5.24-14.37,13.61v23.6h9.85v-10.86h37.45v10.86h9.86v-37.21h-42.79ZM229.61,220.59v7.26h23.12v29.94h9.85v-29.94h23.17v-7.26h-56.15ZM97.26,243.47c0,5.2,1.06,7.07,6.83,7.07h41.06v7.26h-43.37c-9.85,0-14.43-4.43-14.43-12.79v-24.42h57.79v7.26h-47.88v7.3h45.96v7.11h-45.96v1.2ZM26.89,233.52c-3.03-.24-3.56-1.29-3.56-3.12,0-1.68.91-2.65,3.22-2.65h45.33v-7.16H25.39c-6.64,0-11.16,2.55-11.16,9.95s3.41,9.95,10.96,10.58l36.78,3.08c2.84.24,3.61,1.2,3.61,3.22s-.87,3.13-3.37,3.13H16.07v7.26h46.97c8.08,0,11.63-3.22,11.63-10.86,0-6.97-3.22-9.71-11.1-10.38l-36.68-3.03Z"/>
            <g>
              <g>
                <path class="cls-16" d="M229.19,123.85l-158.3-28.13s.44-17.74.76-27.11c.32-9.38,2.29-15.1,6.17-18.53,5.35-4.74,11.58-5.88,26.46-6.69,34.48-1.87,69.58-1.61,113.56,1.46,4.57.32,6.31,1.18,7.21,1.8,1.94,1.33,2.19,2.83,2.71,10.64.42,6.3,1.43,27.4,1.43,27.4,0,0-51.92-1.9-77.47-1.9-7.18,0-12.97.04-17.7.14-3.16.06-4.63.35-5.85.94l101.03,17.2v22.78Z"/>
                <path class="cls-16" d="M70.79,101.74l158.29,28.13s-.44,17.73-.76,27.11c-.32,9.38-2.29,15.09-6.17,18.53-5.34,4.74-11.58,5.87-26.45,6.68-34.48,1.87-69.58,1.62-113.56-1.46-4.58-.32-6.31-1.18-7.21-1.8-1.95-1.33-2.19-2.83-2.71-10.64-.42-6.3-1.43-27.4-1.43-27.4,0,0,51.92,1.9,77.47,1.9,7.18,0,12.97-.04,17.7-.14,3.16-.06,4.64-.35,5.85-.94l-101.02-17.2v-22.78Z"/>
              </g>
              <g id="did">
                <g>
                  <path class="cls-14" d="M229.19,123.85l-158.3-28.13s.44-17.74.76-27.11c.32-9.38,2.29-15.1,6.17-18.53,5.35-4.74,11.58-5.88,26.46-6.69,34.48-1.87,69.58-1.61,113.56,1.46,4.57.32,6.31,1.18,7.21,1.8,1.94,1.33,2.19,2.83,2.71,10.64.42,6.3,1.43,27.4,1.43,27.4,0,0-51.92-1.9-77.47-1.9-7.18,0-12.97.04-17.7.14-3.16.06-4.63.35-5.85.94l101.03,17.2v22.78ZM70.79,101.74l158.29,28.13s-.44,17.73-.76,27.11c-.32,9.38-2.29,15.09-6.17,18.53-5.34,4.74-11.58,5.87-26.45,6.68-34.48,1.87-69.58,1.62-113.56-1.46-4.58-.32-6.31-1.18-7.21-1.8-1.95-1.33-2.19-2.83-2.71-10.64-.42-6.3-1.43-27.4-1.43-27.4,0,0,51.92,1.9,77.47,1.9,7.18,0,12.97-.04,17.7-.14,3.16-.06,4.64-.35,5.85-.94l-101.02-17.2v-22.78ZM72.46,103.73v19.39l102.94,17.53s-1.43,1.9-2.86,2.58c-1.44.68-3.32,1.04-6.54,1.1-4.74.09-10.55.13-17.74.13-22.6,0-66.3-1.5-75.72-1.83.25,5.25,1,20.44,1.34,25.56.52,7.77.77,8.54,1.99,9.37.43.29,1.73,1.19,6.38,1.51,25.4,1.78,48.27,2.64,69.93,2.64,14.61,0,28.82-.38,43.42-1.18,14.45-.79,20.47-1.85,25.44-6.27,3.53-3.13,5.31-8.64,5.61-17.34.26-7.71.61-21.25.72-25.66l-154.93-27.53ZM227.52,121.86v-19.39l-102.95-17.53s1.43-1.9,2.87-2.58c1.44-.68,3.32-1.04,6.54-1.1,4.74-.09,10.55-.13,17.73-.13,22.6,0,66.3,1.5,75.72,1.83-.26-5.25-1-20.44-1.34-25.57-.52-7.76-.77-8.53-1.99-9.37-.42-.29-1.73-1.19-6.38-1.51-25.39-1.78-48.27-2.64-69.93-2.64-14.62,0-28.82.39-43.43,1.18-14.45.79-20.47,1.85-25.44,6.27-3.53,3.13-5.31,8.64-5.61,17.34-.26,7.71-.61,21.25-.72,25.66l154.93,27.53Z"/>
                  <path class="cls-16" d="M154.14,151.11c-.91,0-5.53,0-6.52,0-21.01,0-43.54-.15-71.06-1.67l-4-6.81,1.06.04,4.56,5.27c23.77,1.31,45.56,1.61,69.44,1.61,1,0,5.51,0,6.52,0,3.38,0,7.31-.01,10.81-.13,12.05-.39,15.71-1.65,23.98-10.01l2.99-.27-1.23,1.27c-8.91,9.18-12.56,10.14-25.69,10.56-3.51.12-7.46.13-10.85.13h0Z"/>
                  <polygon class="cls-16" points="227.39 131.26 72.46 103.73 72.46 104.71 75.16 106.1 75.19 118.83 72.46 121.85 72.46 123.12 76.67 119.64 76.67 105.46 225.14 131.85 227.39 131.26"/>
                  <path class="cls-12" d="M223.53,131.56c-.1,2.57-.21,5.84-.31,8.81-.08,2.53-.16,4.72-.25,6.76-.12,2.75-.24,5.54-.39,9.31-.39,9.64-2.58,12.7-6.77,15.25-3.98,2.43-8.66,2.76-22.86,3.47-14.41.71-29.8,1.13-45.75,1.24-1.22,0-2.44.01-3.63.01-18.71,0-35.76-1.04-57.21-2.71-3.65-.28-5.96-.58-7.01-1.28-1.13-.75-1.43-.94-1.73-5.53-.04-.69-.09-1.32-.12-1.93-.12-1.76-.26-3.31-.35-5.64-.09-2.39-.26-4.71-.6-9.87l-1.41-2.41c.3,5.48.5,10.18.58,12.61.07,2.21.12,3.66.23,5.4l.02.21c.04.54.07,1.1.11,1.72.3,4.61.64,5.55,2.42,6.73,1.34.88,3.75,1.22,7.75,1.53,21.49,1.67,38.58,2.71,57.33,2.71,1.2,0,2.42,0,3.64-.01,15.98-.11,31.4-.53,45.82-1.24,14.5-.72,19.29-1.07,23.59-3.69,4.65-2.83,7.09-6.16,7.51-16.51.15-3.7.27-6.45.38-9.15v-.16c.19-4.34.38-8.97.62-15.34l-1.61-.29Z"/>
                  <path class="cls-13" d="M223.6,78.32l.02.03-.65-.03c-22.61-1.11-45.7-.97-71.72-.97-1.63,0-3.71.01-5.95.04-6.86.07-12.19.12-15.32.68-6.86,1.23-6.5,4.79-3.93,5.27.43-.38.91-.75,1.39-.98,1.44-.68,3.32-1.04,6.54-1.1,4.74-.09,10.55-.13,17.73-.13,22.03,0,64.1,1.42,74.94,1.81-.82-1.24-2.68-4.05-3.05-4.62Z"/>
                  <path class="cls-16" d="M220.52,54.98l.88-1.28s-.24-.17-.24-.17c-1.13-.78-3.5-1.27-7.46-1.54-20.24-1.42-42.68-2.3-58.58-2.3-1.09,0-2.16,0-3.19.01-3.34.02-6.51.04-9.54.06-15.27.09-27.24.25-36.04.73-.75.04-1.48.08-2.19.12-12.55.67-18.85,1.01-23.78,5.38-3.33,2.95-4.68,6.96-5,14.79l-.15,3.75c-.24,5.92-.36,9.65-.61,17.57-.43.2-1.6.75-2,.94l-.03,1.28,3.58-1.47.05-1.8c.21-6.91.35-11.08.57-16.46l.15-3.75c.3-7.34,1.51-11.05,4.48-13.69,4.52-4.02,10.64-4.34,22.83-4.99.71-.04,1.44-.08,2.18-.12,8.77-.48,20.72-.64,35.97-.73,3.02-.02,6.2-.04,9.54-.06,1.03,0,2.09,0,3.18,0,15.86,0,38.26.88,58.47,2.29,3.57.25,5.83.68,6.7,1.27l.25.17h0Z"/>
                  <path class="cls-11" d="M75.23,74.53l.15-3.75c.32-7.83,1.67-11.83,5-14.79.73-.64,1.49-1.2,2.29-1.69-.72-1.45-.95-2.82-.42-3.86.42-.84,2.17-2.28,5.94-3.64-3.98.92-6.76,2.29-9.26,4.52-3.53,3.13-5.31,8.64-5.61,17.34-.24,7.07-.55,19.03-.69,24.38.29-.13,1.49-.7,2-.94.25-7.92.37-11.65.61-17.57Z"/>
                  <path class="cls-10" d="M222.11,54.33c1-1.55,2.52-1.59,3.9,1.88-.46-6.67-.76-7.4-1.91-8.19-.42-.29-1.73-1.19-6.38-1.51-25.39-1.78-48.27-2.64-69.93-2.64-14.62,0-28.82.39-43.43,1.18-7.17.39-12.26.85-16.18,1.75-3.77,1.36-5.51,2.8-5.94,3.64-.52,1.04-.3,2.41.42,3.86,4.64-2.79,10.79-3.12,21.49-3.69.71-.04,1.44-.08,2.19-.12,8.8-.48,20.77-.64,36.04-.73,3.03-.02,6.2-.04,9.54-.06,1.03,0,2.1-.01,3.19-.01,15.89,0,38.34.88,58.58,2.3,3.96.28,6.33.77,7.46,1.54,0,0,.25.17.24.17.28.2.51.41.71.63Z"/>
                  <path class="cls-9" d="M227.38,81.96l-3.05-5.17c-.06-4.19-.41-12.87-.75-16.46-.33-3.44-.47-4.9-1.47-6-.2-.22-.43-.43-.71-.63l-.88,1.28c.98.73,1.12,1.38,1.51,5.49.35,3.75.92,13.19.96,16.92l3.66,5.54.78.03-.05-1Z"/>
                  <path class="cls-14" d="M226.01,56.22c-1.38-3.48-2.9-3.43-3.9-1.88,1,1.1,1.14,2.56,1.47,6,.34,3.59.7,12.27.75,16.46l3.05,5.17c-.29-5.96-.97-19.73-1.29-24.57"/>
                  <path class="cls-24" d="M222.99,77.39c-21.11-1.02-43.9-1.6-71.74-1.6-5.57,0-16.4.18-21.35.27-8.41.16-9.87,5.39-9.92,7.33l103.82,24.1v12.86l3.72,1.49-154.93-27.53,3.58-1.47.05-1.8s.35-11.08.57-16.46l.15-3.75c.3-7.34,1.51-11.05,4.48-13.69,4.52-4.02,10.64-4.34,22.83-4.99.71-.04,1.44-.08,2.18-.12,8.77-.48,20.72-.64,35.97-.73,3.02-.02,6.2-.04,9.54-.06,1.03,0,2.09,0,3.18,0,15.86,0,38.26.88,58.47,2.29,3.57.25,5.83.68,6.7,1.27l.25.17s.02.02.03.02c.02.02.04.03.06.05,0,0,.01,0,.01,0,.02.02.05.04.07.06,0,0,0,0,0,0,.03.02.05.04.07.06t0,0s.05.04.07.07c0,0,0,0,0,0,.02.02.04.05.07.07h0c.58.62.75,1.53,1.04,4.42.02.23.05.47.07.72.35,3.75.92,13.19.96,16.92"/>
                  <path class="cls-23" d="M222.99,77.39c-21.11-1.02-43.9-1.6-71.74-1.6-5.57,0-16.4.18-21.35.27-8.41.16-9.87,5.39-9.92,7.33l103.82,24.1v12.86l3.72,1.49-154.93-27.53,3.58-1.47.05-1.8s.35-11.08.57-16.46l.15-3.75c.3-7.34,1.51-11.05,4.48-13.69,4.52-4.02,10.64-4.34,22.83-4.99.71-.04,1.44-.08,2.18-.12,8.77-.48,20.72-.64,35.97-.73,3.02-.02,6.2-.04,9.54-.06,1.03,0,2.09,0,3.18,0,15.86,0,38.26.88,58.47,2.29,3.57.25,5.83.68,6.7,1.27l.25.17s.02.02.03.02c.02.02.04.03.06.05,0,0,.01,0,.01,0,.02.02.05.04.07.06,0,0,0,0,0,0,.03.02.05.04.07.06t0,0s.05.04.07.07c0,0,0,0,0,0,.02.02.04.05.07.07h0c.58.62.75,1.53,1.04,4.42.02.23.05.47.07.72.35,3.75.92,13.19.96,16.92"/>
                  <polygon class="cls-27" points="72.46 104.71 75.16 106.1 75.19 118.83 72.46 121.85 72.46 104.71"/>
                  <path class="cls-6" d="M211.75,178.79c1.1-.71,1.66-1.42,1.86-1.82.39-.79.04-1.51-.61-2.34-3.83,1.2-9.24,1.53-19.97,2.06-14.42.71-29.84,1.13-45.82,1.24-1.22,0-2.45.01-3.64.01-18.75,0-35.84-1.04-57.33-2.71-4-.31-6.41-.65-7.75-1.53-.44-.29-.79-.56-1.07-.88-.15.15-.34.33-.59.55-1.38,1.24-2.11.99-2.63-.94.36,3.87.72,4.48,1.67,5.13.43.29,1.73,1.19,6.38,1.51,25.4,1.78,48.27,2.64,69.93,2.64,14.61,0,28.82-.38,43.42-1.18,7.14-.39,12.22-.85,16.14-1.74h0Z"/>
                  <path class="cls-22" d="M75.96,165.26l-.02-.21c-.11-1.74-.16-3.19-.23-5.4-.08-2.43-.28-7.13-.58-12.61l-2.59-4.4c.25,5.25,1,20.44,1.34,25.56l.32,4.24c.52,1.93,1.25,2.17,2.63.94.25-.22.44-.4.59-.55-.87-.98-1.12-2.37-1.35-5.84-.04-.61-.07-1.18-.11-1.72Z"/>
                  <path class="cls-7" d="M225.14,131.84c-.25,6.37-.43,11-.61,15.34v.16c-.12,2.7-.24,5.45-.39,9.15-.42,10.34-2.86,13.67-7.51,16.51-1.12.68-2.27,1.21-3.62,1.63.65.83,1,1.55.61,2.34-.2.4-.77,1.11-1.86,1.82,4.01-.92,6.79-2.29,9.31-4.53,3.53-3.13,5.31-8.64,5.61-17.34.26-7.71.61-21.25.72-25.66l-2.25.58Z"/>
                  <path class="cls-3" d="M222.98,147.12c-.12,2.75-.24,5.54-.39,9.31-.39,9.64-2.58,12.7-6.77,15.25-3.98,2.43-8.66,2.76-22.86,3.47-14.41.71-29.8,1.13-45.75,1.24-1.22,0-2.44.01-3.63.01-18.71,0-35.76-1.04-57.21-2.71-3.65-.28-5.96-.58-7.01-1.28-1.13-.75-1.43-.94-1.73-5.53-.04-.69-.09-1.32-.12-1.93-.12-1.76-.26-3.31-.35-5.64-.09-2.39-.26-4.71-.6-9.87,27.53,1.52,50.05,1.67,71.06,1.67,1,0,5.61,0,6.52,0,3.4,0,7.34-.01,10.85-.13,13.13-.43,16.78-1.38,25.69-10.56l1.23-1.27-115.24-19.51v-14.18s146.86,26.1,146.86,26.1h0c-.1,2.57-.21,5.84-.31,8.81-.08,2.53-.16,4.72-.25,6.76Z"/>
                  <path class="cls-5" d="M175.35,147.08c-.04.54-.78,1.3-3.44,1.89,6.94-.85,10.58-3.05,17.01-9.55l-13.52,1.23s-1.43,1.9-2.86,2.58c-.95.45-2.1.76-3.71.93,2.87.65,3.82.99,4.94,1.45.95.38,1.6,1.02,1.57,1.47Z"/>
                  <path class="cls-4" d="M171.92,148.97c2.66-.59,3.39-1.35,3.44-1.89.03-.45-.62-1.1-1.57-1.47-1.13-.45-2.07-.8-4.94-1.45,0,0-1.75.15-2.83.17-4.74.09-10.55.13-17.74.13-21.84,0-63.41-1.4-74.66-1.8h0l4.56,5.27c23.77,1.31,45.56,1.61,69.44,1.61,1,0,5.51,0,6.52,0,3.38,0,7.31-.01,10.81-.13,2.7-.09,4.97-.22,6.97-.46Z"/>
                  <path class="cls-8" d="M223.44,105.75l2.55-3.54-92.61-15.77c9.57,3.13,35.31,9.08,54.95,13.51-.93-.15,31.95,5.27,35.11,5.8Z"/>
                  <path class="cls-18" d="M164.94,136.2c-2.54-.5-4.49-.92-6.56-1.24-.9-.14-50.19-8.53-83.02-14.25l-2.9,2.4,102.94,17.53c-1.46-1.7-6.59-3.69-10.46-4.44Z"/>
                  <path class="cls-19" d="M164.94,136.2c-2.54-.5-4.49-.92-6.56-1.24-.91-.14-50.19-8.53-83.02-14.25l1.31-1.08,115.24,19.51-16.51,1.5c-.93-1.27-5.73-3.52-10.46-4.44Z"/>
                  <path class="cls-14" d="M222.99,77.39c-21.11-1.02-43.9-1.6-71.74-1.6-5.57,0-16.4.18-21.35.27-10.49.2-16.51,5.19-21.32,10.58l-.85.89,17.17-2.99s.31-.44,1.15-1.21c-2.57-.48-2.93-4.04,3.93-5.27,3.13-.56,8.46-.61,15.32-.68,2.25-.02,4.32-.04,5.95-.04,26.02,0,49.12-.14,71.72.97l.65.03-.63-.95Z"/>
                  <path class="cls-20" d="M110.45,87.06c7.07,1.2,47.31,7.85,77.87,12.89-19.65-4.43-45.38-10.37-54.95-13.51l-8.48-1.9-14.44,2.52Z"/>
                  <path class="cls-25" d="M222.98,147.12c-.12,2.75-.24,5.54-.39,9.31-.39,9.64-2.58,12.7-6.77,15.25-3.98,2.43-8.66,2.76-22.86,3.47-14.41.71-29.8,1.13-45.75,1.24-1.22,0-2.44.01-3.63.01-18.71,0-35.76-1.04-57.21-2.71-3.65-.28-5.96-.58-7.01-1.28-1.13-.75-1.43-.94-1.73-5.53-.04-.69-.09-1.32-.12-1.93-.12-1.76-.26-3.31-.35-5.64-.09-2.39-.26-4.71-.6-9.87,27.53,1.52,50.05,1.67,71.06,1.67,1,0,5.61,0,6.52,0,3.4,0,7.34-.01,10.85-.13,13.13-.43,16.78-1.38,25.69-10.56l1.23-1.27-115.24-19.51v-14.18s146.86,26.1,146.86,26.1h0c-.1,2.57-.21,5.84-.31,8.81-.08,2.53-.16,4.72-.25,6.76Z"/>
                  <path class="cls-16" d="M107.73,87.53l2.73-.47c11.16,1.9,104.78,17.29,112.99,18.69l2.55-3.54,1.53.26-3.72,5.03-116.07-19.97Z"/>
                  <path class="cls-26" d="M215.82,171.67c4.18-2.55,6.38-5.6,6.77-15.25.15-3.77.27-6.56.39-9.31.09-2.04.16-4.23.25-6.76.1-2.96.21-6.24.31-8.81h0l-41.7-7.41c-7.26,2.48-13.74,5.91-19.13,10.06l29.21,4.95-1.23,1.27c-8.91,9.18-12.56,10.14-25.69,10.56-3.51.12-7.46.13-10.85.13-.69,0-3.46,0-5.22,0-1.86,4.21-2.86,8.69-2.86,13.33,0,4.13.79,8.13,2.28,11.93,15.55-.12,30.56-.54,44.63-1.23,14.2-.71,18.88-1.04,22.86-3.47Z"/>
                </g>
                <polygon class="cls-22" points="223.8 120.37 225.28 119.93 225.28 105.5 223.8 107.5 223.8 120.37"/>
                <polygon class="cls-17" points="223.8 120.37 225.28 119.93 227.52 121.03 227.52 121.86 223.8 120.37"/>
                <polygon class="cls-2" points="227.52 102.47 225.28 105.5 225.28 119.93 227.52 121.03 227.52 102.47"/>
              </g>
            </g>
          </g>
        </g>
      </g>
    </g>
  </g>
</svg>