<?xml version="1.0" encoding="UTF-8"?>
<svg id="Laag_2" data-name="Laag 2" xmlns="http://www.w3.org/2000/svg" xmlns:xlink="http://www.w3.org/1999/xlink" viewBox="0 0 300 300">
  <defs>
    <style>
      .cls-1 {
        fill: none;
      }

      .cls-2 {
        fill: url(#Naamloos_verloop_12);
      }

      .cls-3 {
        fill: url(#Naamloos_verloop_18);
        stroke-linecap: square;
        stroke-width: .97px;
      }

      .cls-3, .cls-4, .cls-5 {
        stroke: #141414;
      }

      .cls-6 {
        fill: #141414;
      }

      .cls-4 {
        fill: url(#Naamloos_verloop_13);
      }

      .cls-4, .cls-5 {
        stroke-miterlimit: 2.83;
        stroke-width: .8px;
      }

      .cls-7 {
        fill: #54b042;
      }

      .cls-8, .cls-5 {
        fill: #fff;
      }

      .cls-9 {
        fill: url(#Naamloos_verloop_7);
      }
    </style>
    <linearGradient id="Naamloos_verloop_18" data-name="Naamloos verloop 18" x1="15629.82" y1="16561.99" x2="15965.26" y2="16561.99" gradientTransform="translate(13900.02 13257.79) rotate(-90.2) scale(.83 -.83)" gradientUnits="userSpaceOnUse">
      <stop offset="0" stop-color="#99a3a8"/>
      <stop offset=".48" stop-color="#99a4a9"/>
      <stop offset=".54" stop-color="#e7e6e6"/>
      <stop offset="1" stop-color="#e7e6e6"/>
    </linearGradient>
    <linearGradient id="Naamloos_verloop_13" data-name="Naamloos verloop 13" x1="1857.34" y1="2287.77" x2="1999.62" y2="2157.59" gradientTransform="translate(-2353.01 -2742.11) scale(1.3)" gradientUnits="userSpaceOnUse">
      <stop offset="0" stop-color="#151313"/>
      <stop offset=".09" stop-color="#151313"/>
      <stop offset=".13" stop-color="#f8f1f1"/>
      <stop offset=".23" stop-color="#151313"/>
      <stop offset=".3" stop-color="#141414"/>
      <stop offset=".38" stop-color="#f8f1f1"/>
      <stop offset=".45" stop-color="#151313"/>
      <stop offset=".57" stop-color="#f8f1f4"/>
      <stop offset=".63" stop-color="#141414"/>
      <stop offset=".79" stop-color="#f8f1f1"/>
      <stop offset="1" stop-color="#f8f1f2"/>
    </linearGradient>
    <linearGradient id="Naamloos_verloop_12" data-name="Naamloos verloop 12" x1="1268.17" y1="14900.24" x2="1282.31" y2="14874.82" gradientTransform="translate(1071.47 15191.32) rotate(-8.32) scale(1.01 -1.01)" gradientUnits="userSpaceOnUse">
      <stop offset="0" stop-color="#151313"/>
      <stop offset=".16" stop-color="#cdc4c5"/>
      <stop offset=".5" stop-color="#b7adae"/>
      <stop offset="1" stop-color="#151313"/>
    </linearGradient>
    <linearGradient id="Naamloos_verloop_7" data-name="Naamloos verloop 7" x1="17735.72" y1="10123.09" x2="17755.44" y2="10102.57" gradientTransform="translate(12321.76 16743.48) rotate(-155.97)" gradientUnits="userSpaceOnUse">
      <stop offset="0" stop-color="#151313"/>
      <stop offset=".25" stop-color="#cdc4c5"/>
      <stop offset=".5" stop-color="#b7adae"/>
      <stop offset="1" stop-color="#151313"/>
    </linearGradient>
  </defs>
  <g id="Laag_1-2" data-name="Laag 1">
    <rect class="cls-1" y="0" width="300" height="300"/>
    <g id="g3942">
      <g id="g3935">
        <path id="path3112" class="cls-3" d="M149.52,10.83c76.86-.27,139.38,61.83,139.65,138.69.27,76.86-61.83,139.38-138.69,139.65-76.86.27-139.38-61.83-139.65-138.69S72.66,11.1,149.52,10.83h0Z"/>
        <g id="g24">
          <path id="path26" class="cls-6" d="M150,274.96c-33.38,0-64.76-13-88.37-36.6-23.6-23.6-36.6-54.99-36.6-88.36s13-64.76,36.6-88.36c23.6-23.6,54.98-36.6,88.37-36.6s64.76,13,88.37,36.6c23.6,23.6,36.6,54.98,36.6,88.36s-13,64.76-36.6,88.36c-23.6,23.6-54.98,36.6-88.37,36.6"/>
        </g>
        <g id="g28">
          <path id="path30" class="cls-8" d="M150,264.82c-30.67,0-59.51-11.94-81.19-33.63-21.69-21.69-33.63-50.52-33.63-81.19s11.94-59.51,33.63-81.19c21.69-21.69,50.52-33.63,81.19-33.63s59.51,11.95,81.19,33.63c21.69,21.69,33.63,50.52,33.63,81.19s-11.94,59.5-33.63,81.19c-21.69,21.69-50.52,33.63-81.19,33.63"/>
        </g>
      </g>
      <g id="g4188">
        <path id="path22-7" class="cls-4" d="M237.17,205.16c-8.49-7.97-19.19-13.3-30.85-15.16-1.66-.26-3.17,1.03-3.17,2.71v4.23c0,1.26-.96,2.68-2.22,2.68-.92,0-1.83.02-2.75,0-3.25-.05-3.84-4.04-3.19-6.4,6.93-24.85,8.63-39.93,8.54-50.9-.09-11.67-.38-23.29-5.64-38.68-5.07-14.8-9.69-29.3-34.16-51.45-1.66-1.5-3.34-2.22-5.58-2.39-2.41-.17-4.37-.25-6.82-.25-10.16,0-19.96,1.49-29.22,4.27-3.47,1.05-2.95,3.46-1.04,5.1,9.24,7.9,21.76,19.78,30.4,34.61-5.47.53-9.65-2.51-13.17-5.88-11.55-10.99-23.57-18.83-33.12-24.19-1.66-.93-3.3-1.32-4.95-.37-10.53,6.12-17.62,11.88-25.98,21.57-1.42,1.65-.5,2.93.89,3.67,9.14,4.84,23.44,14.03,36.56,25.97-2.67,2.25-6.91,1.51-13.05-1.71-11.81-6.2-23.15-9.77-31.82-12-1.85-.47-3.84.05-4.8,1.7-5.55,9.64-9.37,21.16-11.18,32.85-.34,2.25,1.18,4.23,3.42,4.62,20.19,3.53,56.17,13.02,62.15,54.48.52,3.63-2.79,6.82-7.13,4.78-6.07-2.84-12.13-5.68-18.19-8.52-.64-.29-1.36-.55-2.06-.55h-28.59c-4.07,0-5.74,3.89-3.09,6.92,6.88,7.92,13.18,16.46,18.57,25.52.48.8,1.02,1.11,1.96,1.11h12.48c.85,0,1.58-.2,2.31-.63,3.92-2.3,7.85-4.6,11.78-6.9.73-.43,1.46-.43,2.31-.43h94.09c1.26,0,2.29.81,2.29,2.08v4.63c0,1.68,1.51,2.96,3.17,2.7,11.66-1.86,22.36-7.19,30.85-15.15,1.35-1.26,1.35-3.4,0-4.66"/>
        <path id="path24" class="cls-7" d="M167.07,191.61c-9.27,0-16.77-7.51-16.77-16.76s7.5-16.76,16.77-16.76,16.76,7.5,16.76,16.76-7.51,16.76-16.76,16.76ZM228.69,207.48c-6.37-5.19-13.07-8.55-21.22-10.24-.74-.15-1.1.13-1.1.89v.41c0,2-2,4.33-4.01,4.33h-5.29c-4.47,0-8.46-3.68-6.8-9.59,19.13-68.26-2.25-110.46-29.23-134.08-7.33-6.41-7.99-6.76-15.29-6.48-5.76.22-12.51.93-18.22,2.31-1.12.27-2.06,1.16-.58,2.41,13.85,11.67,32.37,31.79,41.23,63.11.3,1.09-.34,1.01-1.17,1.06-7.93.48-10.61-4.38-13.09-7.47-17.98-22.38-38.15-36-53.24-44.94-1.5-.9-1.74-.88-2.89-.22-6.07,3.5-12.88,9.09-17.67,14.18-1,1.08-.75,1.58.36,2.17,13.65,7.32,34.41,21.73,53.7,46.17,1.2,1.51,1.28,2.21.6,2.61-3.71,2.21-9.9,2.18-16.69-2.05-18.39-11.47-37.07-19.6-51.69-23.81-1.56-.45-1.83-.36-2.47.97-3.56,7.49-7.45,17.23-8.85,25.67-.18,1.1-.27,1.19.75,1.4,40.22,8.17,62.29,30.23,64.81,59.73.44,5.12-5.35,10.04-11.11,8.22-6.25-1.99-12.33-4.22-18.58-6.2-.67-.22-1.35-.32-2.06-.32-8.64,0-17.3,0-25.96,0-1.15,0-1.83.72-.68,2.17,6.53,8.26,10.33,12.94,14.93,20.67.47.8,1.02,1.11,1.96,1.11,3.17,0,6.36,0,9.55,0,1.26,0,2.35-.29,3.44-.94,3.46-2.03,6.91-3.92,10.37-5.95,1.1-.65,2.04-1.04,3.32-1.04,31.41,0,65.07,0,96.47,0,2,0,4.08,2.34,4.08,4.36v.69c0,.76.36,1.04,1.1.89,8.15-1.69,14.86-5.6,21.22-10.79.58-.47.58-.93,0-1.41"/>
        <g id="g16866">
          <path id="path26-4" class="cls-2" d="M184.55,172.94c1.51,10.34-5.64,19.93-15.98,21.45-10.33,1.51-19.93-5.63-21.45-15.97-1.51-10.34,5.64-19.94,15.97-21.46,10.34-1.51,19.95,5.64,21.46,15.98"/>
          <path id="path26-4-9" class="cls-9" d="M168.86,156.99l-5.69,37.42c8.15,1.16,16.41-3.15,19.93-11.04,4.26-9.54-.03-20.71-9.56-24.97-1.53-.68-3.1-1.16-4.68-1.42h0Z"/>
        </g>
        <path id="path28" class="cls-5" d="M181.8,175.19c0,6.99-5.68,12.67-12.68,12.67s-12.67-5.68-12.67-12.67,5.67-12.68,12.67-12.68,12.68,5.68,12.68,12.68"/>
      </g>
    </g>
  </g>
</svg>