<?xml version="1.0" encoding="UTF-8"?>
<svg id="Laag_2" data-name="Laag 2" xmlns="http://www.w3.org/2000/svg" viewBox="0 0 300 300">
  <defs>
    <style>
      .cls-1 {
        fill: none;
      }

      .cls-2 {
        fill: #e1111a;
      }

      .cls-3 {
        fill: #1f3d8a;
      }
    </style>
  </defs>
  <g id="Laag_1-2" data-name="Laag 1">
    <g>
      <rect class="cls-1" width="300" height="300"/>
      <g>
        <path class="cls-2" d="M209.52,142.93s-11.17,3.23-32.77,16.5c-19.37,11.92-26.96,19.93-26.96,19.93l-59.75-41.29s25.14-18.48,46.14-4.33l28.17,19.33,3.44-2.26-77.73-54.46s11.17-3.23,32.76-16.5c19.38-11.92,26.97-19.94,26.97-19.94l59.74,41.29s-25.13,18.48-46.14,4.33l-28.17-19.33-3.44,2.26,77.73,54.47Z"/>
        <path class="cls-3" d="M163.25,199.26h-45.47v10.11h21.96l-22.74,21.23v8.47h46.16v-10.15h-22.97l23.05-21.18v-8.48ZM91.01,240.09c18.19,0,22.84-4.64,22.84-14.89v-25.95h-14.41v24.39c0,4.1-3.51,6.54-8.44,6.54s-8.43-2.45-8.43-6.6v-24.33h-14.41v25.95c0,10.24,4.66,14.89,22.84,14.89M189.65,240.09c18.19,0,22.84-4.64,22.84-14.89v-25.95h-14.41v24.39c0,4.1-3.51,6.54-8.43,6.54s-8.44-2.45-8.44-6.6v-24.33h-14.4v25.95c0,10.24,4.66,14.89,22.84,14.89M284.41,199.26h-15.02v39.81h15.02v-39.81ZM267.1,199.26h-19.77l-15.99,13.74v-13.74h-15.03v39.81h15.03v-14.12l14.85,14.12h20.18l-21.97-20.43,22.69-19.39ZM32.66,210.26c0-3.08,4.56-3.18,6.1-3.18s5.02.62,7.38,4.5h16.99c0-7.5-7.11-13.47-24.32-13.47-19.12,0-22.37,8.39-22.37,13.21,0,8.88,6.88,11.49,21.84,13.08,1.28.13,9.06-.23,9.06,3.51,0,2.77-4.37,2.96-5.99,2.96s-4.59-.26-7.07-4.67H15.59c0,8.74,5.89,13.79,25.75,13.79,18.29,0,23.14-7.47,23.14-13.14s-3.78-11.12-19.37-13.11c-6.5-.84-12.44-1.2-12.44-3.48"/>
      </g>
    </g>
  </g>
</svg>