<?xml version="1.0" encoding="UTF-8"?>
<svg id="Laag_2" data-name="Laag 2" xmlns="http://www.w3.org/2000/svg" xmlns:xlink="http://www.w3.org/1999/xlink" viewBox="0 0 300 300">
  <defs>
    <style>
      .cls-1 {
        fill: none;
      }

      .cls-2 {
        fill: #010101;
      }

      .cls-3 {
        fill: url(#Naamloos_verloop_57);
      }

      .cls-4 {
        fill: url(#Naamloos_verloop_56);
      }

      .cls-5 {
        fill: url(#Naamloos_verloop_55);
      }

      .cls-6 {
        fill: url(#Naamloos_verloop_56-3);
      }

      .cls-7 {
        fill: url(#Naamloos_verloop_56-2);
      }

      .cls-8 {
        fill: url(#Naamloos_verloop_57-8);
      }

      .cls-9 {
        fill: url(#Naamloos_verloop_57-7);
      }

      .cls-10 {
        fill: url(#Naamloos_verloop_57-4);
      }

      .cls-11 {
        fill: url(#Naamloos_verloop_57-3);
      }

      .cls-12 {
        fill: url(#Naamloos_verloop_57-5);
      }

      .cls-13 {
        fill: url(#Naamloos_verloop_57-6);
      }

      .cls-14 {
        fill: url(#Naamloos_verloop_57-2);
      }

      .cls-15 {
        fill: #2e3035;
      }

      .cls-16 {
        fill: #ab1733;
      }
    </style>
    <linearGradient id="Naamloos_verloop_57" data-name="Naamloos verloop 57" x1="4874.93" y1="5329.66" x2="4874.93" y2="5319.22" gradientTransform="translate(-41270.19 -45104.02) scale(8.5)" gradientUnits="userSpaceOnUse">
      <stop offset="0" stop-color="#f0f3f5"/>
      <stop offset=".06" stop-color="#e2e5e8"/>
      <stop offset=".14" stop-color="#d4d8dd"/>
      <stop offset=".24" stop-color="#cbd0d6"/>
      <stop offset=".44" stop-color="#caced4"/>
      <stop offset=".57" stop-color="#b4b8be"/>
      <stop offset=".83" stop-color="#797c84"/>
      <stop offset="1" stop-color="#53555e"/>
    </linearGradient>
    <linearGradient id="Naamloos_verloop_57-2" data-name="Naamloos verloop 57" x1="4874.93" y1="5321.71" x2="4874.93" y2="5316.05" xlink:href="#Naamloos_verloop_57"/>
    <linearGradient id="Naamloos_verloop_57-3" data-name="Naamloos verloop 57" x1="4876.81" y1="5320.67" x2="4873.28" y2="5317.7" xlink:href="#Naamloos_verloop_57"/>
    <linearGradient id="Naamloos_verloop_57-4" data-name="Naamloos verloop 57" x1="4877.17" y1="5325.6" x2="4872.02" y2="5322.62" xlink:href="#Naamloos_verloop_57"/>
    <linearGradient id="Naamloos_verloop_57-5" data-name="Naamloos verloop 57" x1="4873.12" y1="5313.28" x2="4873.12" y2="5322.25" xlink:href="#Naamloos_verloop_57"/>
    <linearGradient id="Naamloos_verloop_57-6" data-name="Naamloos verloop 57" x1="4876.74" y1="5313.28" x2="4876.74" y2="5322.25" xlink:href="#Naamloos_verloop_57"/>
    <linearGradient id="Naamloos_verloop_57-7" data-name="Naamloos verloop 57" x1="4876.85" y1="5313.2" x2="4876.85" y2="5328.18" xlink:href="#Naamloos_verloop_57"/>
    <linearGradient id="Naamloos_verloop_57-8" data-name="Naamloos verloop 57" x1="4873.02" y1="5313.2" x2="4873.02" y2="5328.18" xlink:href="#Naamloos_verloop_57"/>
    <linearGradient id="Naamloos_verloop_56" data-name="Naamloos verloop 56" x1="4874.93" y1="5313.28" x2="4874.93" y2="5331.6" gradientTransform="translate(-41270.19 -45104.02) scale(8.5)" gradientUnits="userSpaceOnUse">
      <stop offset="0" stop-color="#f0f3f5"/>
      <stop offset=".25" stop-color="#edf0f3"/>
      <stop offset=".41" stop-color="#e5e8ea"/>
      <stop offset=".53" stop-color="#d8dbdc"/>
      <stop offset=".64" stop-color="#c4c6ca"/>
      <stop offset=".74" stop-color="#aaabaf"/>
      <stop offset=".84" stop-color="#898b90"/>
      <stop offset=".93" stop-color="#64666c"/>
      <stop offset="1" stop-color="#3d4047"/>
    </linearGradient>
    <linearGradient id="Naamloos_verloop_56-2" data-name="Naamloos verloop 56" x1="4874.93" y1="5313.28" x2="4874.93" y2="5331.6" xlink:href="#Naamloos_verloop_56"/>
    <linearGradient id="Naamloos_verloop_56-3" data-name="Naamloos verloop 56" x1="4874.93" y1="5313.28" x2="4874.93" y2="5331.6" xlink:href="#Naamloos_verloop_56"/>
    <linearGradient id="Naamloos_verloop_55" data-name="Naamloos verloop 55" x1="4874.93" y1="5317.08" x2="4874.93" y2="5322.3" gradientTransform="translate(-41270.19 -45104.02) scale(8.5)" gradientUnits="userSpaceOnUse">
      <stop offset="0" stop-color="#caced4"/>
      <stop offset="1" stop-color="#53555e"/>
    </linearGradient>
  </defs>
  <g id="Laag_1-2" data-name="Laag 1">
    <g>
      <rect class="cls-1" width="300" height="300"/>
      <g>
        <path class="cls-16" d="M149.67,239.68c-.04-13.64,10.95-24.65,24.69-24.68,13.4.02,24.4,11.03,24.67,24.68-.27,13.49-11.27,24.5-24.67,24.69-13.74-.19-24.73-11.2-24.69-24.69ZM174.36,255.27c7.41-.11,13.55-7.08,13.63-15.59-.08-8.68-6.22-15.64-13.63-15.59-7.74-.05-13.89,6.92-13.64,15.59-.24,8.51,5.91,15.48,13.64,15.59M226.96,225.38v37.69h-10.39v-37.69h-14.94v-8.43h39.62v8.43h-14.29ZM253.59,252.66l-3.89,10.41h-12.33l19.48-46.12h12.98l18.84,46.12h-12.33l-3.9-10.41h-18.86ZM263.35,244.88h6.49l-6.49-16.9-6.5,16.9h6.5ZM36,225.38v37.69h-10.39v-37.69h-14.29v-8.43h38.97v8.43h-14.29ZM52.89,239.68c.02-13.64,11.01-24.65,24.67-24.68,13.48.02,24.49,11.03,24.69,24.68-.2,13.49-11.21,24.5-24.69,24.69-13.66-.19-24.65-11.2-24.67-24.69h0ZM77.56,255.27c7.5-.11,13.64-7.08,13.64-15.59,0-8.68-6.14-15.64-13.64-15.59-7.66-.05-13.8,6.92-13.63,15.59-.18,8.51,5.97,15.48,13.63,15.59M125.64,263.07h5.19v-17.54l18.19-28.57h-11.69l-11.7,19.48-11.05-19.48h-12.34l18.19,28.57v17.54h5.19Z"/>
        <path class="cls-2" d="M19.68,115.44c0,44,57.22,79.81,127.54,79.81s127.54-35.8,127.54-79.81c0-44.01-57.22-79.8-127.54-79.8S19.68,71.43,19.68,115.44ZM23.6,115.44c0-41.84,55.46-75.88,123.63-75.88s123.63,34.04,123.63,75.88-55.46,75.89-123.63,75.89c-68.17,0-123.63-34.04-123.63-75.89h0Z"/>
        <path class="cls-2" d="M135.17,50.14c-29.85,1.82-51.53,9.73-55.23,20.16-.38,1.05-.57,2.16-.57,3.27,0,1.76.5,3.52,1.48,5.2,4.14,7.06,17,12.88,35.3,16l1.94.32.32-1.94c3-18.32,9.6-32.73,18.1-39.54l4.82-3.86-6.16.38ZM84.23,76.8c-.64-1.09-.95-2.16-.95-3.21,0-.67.11-1.32.35-1.98,2.82-7.96,21.98-14.92,46.46-17.16-6.98,7.9-12.35,20.63-15.15,36.09-15.91-2.94-27.35-8.01-30.71-13.74h0ZM129.72,94.32l-.38,2.13,2.16.16c5.12.38,10.42.59,15.73.59s10.61-.21,15.74-.59l2.16-.16-.38-2.13c-2.94-16.53-9.49-26.41-17.51-26.41s-14.56,9.88-17.51,26.41h0ZM147.22,71.83c5.48,0,10.53,8.2,13.2,21.01-4.33.28-8.74.46-13.2.46s-8.87-.18-13.19-.46c2.66-12.8,7.72-21.01,13.2-21.01h0ZM157.93,53.62c8.5,6.8,15.1,21.21,18.1,39.54l.32,1.94,1.93-.32c18.31-3.12,31.17-8.95,35.3-16,1.61-2.71,1.91-5.64.92-8.47-3.69-10.42-25.38-18.33-55.23-20.16l-6.15-.38,4.8,3.86ZM164.36,54.45c24.47,2.24,43.64,9.21,46.45,17.16.24.66.36,1.31.36,1.98,0,1.05-.32,2.13-.94,3.21-3.37,5.73-14.82,10.8-30.72,13.74-2.8-15.46-8.16-28.19-15.15-36.09h0ZM61.06,77.98c-13.42,11.24-20.51,24.59-20.51,38.61,0,33,40.23,60.89,93.58,64.86l5.96.45-4.54-3.88c-11.69-10-18.95-33.72-18.95-61.92l.12-6.66-1.64-.33c-28.06-5.03-48.03-16.83-50.87-30.04l-.68-3.17-2.49,2.08h0ZM44.47,116.59c0-12.03,5.87-23.57,16.88-33.6,5.13,13.35,24.31,24.47,51.41,29.65-.03,1.53-.06,3.46-.06,3.46,0,26.14,6.2,48.72,16.44,60.9-48.61-5.19-84.67-30.58-84.67-60.42h0ZM128.12,113.07v.71c-.01,26.21,8.21,45.98,19.1,45.98s19.11-19.77,19.11-45.98l-.03-2.83-2.1.18c-5.54.49-11.25.73-16.98.73s-11.45-.24-16.97-.73l-2.11-.19-.02,2.13ZM162.4,115.17c-.29,24.38-7.98,40.68-15.17,40.68s-14.89-16.29-15.17-40.68c4.98.37,10.06.6,15.17.6s10.19-.23,15.17-.6ZM230.21,79.07c-2.84,13.21-22.81,25.01-50.86,30.04l-1.64.31.13,6.69c0,28.19-7.26,51.92-18.95,61.92l-4.54,3.88,5.95-.45c53.35-3.97,93.59-31.86,93.59-64.86,0-14.03-7.1-27.38-20.51-38.61l-2.48-2.08-.69,3.17ZM233.09,83c11.02,10.03,16.89,21.57,16.89,33.6,0,29.84-36.05,55.23-84.67,60.42,10.23-12.18,16.44-34.76,16.44-60.9,0,0-.04-1.93-.06-3.46,27.1-5.18,46.27-16.3,51.4-29.65h0Z"/>
        <path class="cls-3" d="M231.6,69c.18.5.34,1,.47,1.51.74,2.93.59,5.81-.37,8.62,12.73,10.5,20.23,23.44,20.23,37.47,0,35.01-46.88,63.4-104.71,63.4s-104.71-28.39-104.71-63.4c0-14.01,7.51-26.97,20.22-37.47-.95-2.81-1.1-5.68-.36-8.62.15-.56.36-1.1.61-1.62-17.37,12.37-27.9,28.59-27.9,46.35,0,38.78,50.2,70.21,112.14,70.21s112.14-31.43,112.14-70.21c0-17.72-10.49-33.9-27.76-46.25h0Z"/>
        <path class="cls-14" d="M162.8,94.67c-4.94.37-10.15.57-15.58.57s-10.63-.2-15.58-.57h-.02l-3.23,2.35c5.96.52,12.25.81,18.82.81s12.86-.29,18.83-.81l-3.25-2.35ZM220.08,70.07c-3.94-13.01-36.39-22.57-72.86-22.57s-68.92,9.56-72.85,22.57c-3.42,11.29,15.23,21.73,44.66,25.88l-2.56-3.11c-23.8-4.05-37.95-12.69-34.69-21.87,3.96-11.15,32.69-19.22,65.43-19.22s61.48,8.08,65.44,19.22c3.26,9.18-10.88,17.82-34.69,21.87l-2.55,3.11c29.42-4.14,48.08-14.59,44.67-25.88h0Z"/>
        <path class="cls-11" d="M131.68,94.67c2.73-15.19,8.66-24.68,15.54-24.68s12.81,9.49,15.54,24.68h.05l3.2,2.32c-2.7-20.05-10.09-32.87-18.79-32.87s-16.09,12.82-18.79,32.87l3.2-2.32h.05Z"/>
        <path class="cls-10" d="M166.99,108.35l-2.61,4.73c0,.34.02.7.02,1.06,0,25.17-7.7,44.26-17.16,44.26s-17.16-19.09-17.16-44.26c0-.4,0-.79.02-1.17l-2.62-4.61c-.08,1.92-.12,3.84-.11,5.76,0,28.54,8.9,50.16,19.88,50.16s19.89-21.62,19.89-50.16c0-1.92-.05-3.84-.13-5.76h0Z"/>
        <path class="cls-12" d="M119.08,95.96c3.76-27.87,14.94-48.45,28.15-48.45-14.16,0-26.23,18.23-30.71,45.39l2.52,3.07h.04Z"/>
        <path class="cls-13" d="M175.38,95.96h.03l2.52-3.07c-4.47-27.15-16.55-45.39-30.7-45.39,13.21,0,24.4,20.58,28.15,48.45Z"/>
        <path class="cls-9" d="M179.69,111.03l-3.21-3.83h-.03c.18,3.05.28,6.14.28,9.29,0,38.1-13.21,68.98-29.51,68.98,18.27,0,32.56-28.64,32.56-68.98,0-1.85-.04-3.66-.1-5.45Z"/>
        <path class="cls-8" d="M117.73,116.48c0-3.14.1-6.24.28-9.29h-.02l-3.22,3.82c-.07,1.82-.1,3.64-.11,5.46,0,40.34,14.31,68.98,32.57,68.98-16.29,0-29.5-30.88-29.5-68.98h0Z"/>
        <path class="cls-15" d="M231.7,79.13c4.87,4.01,8.97,8.39,12.18,13.04-1.11-7.4-4.05-14.4-8.56-20.37-1.22-.97-2.46-1.9-3.72-2.8.18.5.35,1,.47,1.51.74,2.93.59,5.81-.37,8.61h0ZM62.74,79.13c-.95-2.81-1.1-5.68-.36-8.62.15-.56.36-1.1.61-1.62-1.31.94-2.59,1.91-3.86,2.91-4.5,5.97-7.44,12.98-8.56,20.37,3.21-4.65,7.31-9.03,12.17-13.04Z"/>
        <path class="cls-4" d="M21.64,115.44c0-42.99,56.22-77.84,125.59-77.84s125.58,34.86,125.58,77.84-56.22,77.84-125.58,77.84c-69.36,0-125.59-34.84-125.59-77.84h0ZM147.22,185.46c61.93,0,112.14-31.43,112.14-70.21s-50.21-70.23-112.14-70.23-112.14,31.45-112.14,70.23,50.21,70.21,112.14,70.21Z"/>
        <path class="cls-7" d="M117.73,116.48c0-37.7,13.21-68.98,29.5-68.98s29.51,31.28,29.51,68.98-13.21,68.98-29.51,68.98-29.5-30.88-29.5-68.98h0ZM147.22,164.27c10.98,0,19.89-21.62,19.89-50.15s-8.91-50-19.89-50-19.88,20.4-19.88,50,8.9,50.15,19.88,50.15Z"/>
        <path class="cls-6" d="M62.38,70.51c3.24-12.81,42.38-31.47,84.85-31.47s80.26,13.33,84.85,31.47c5.13,20.33-32.59,38.73-84.85,38.73s-89.99-18.4-84.85-38.73h0ZM147.22,47.5c-36.47,0-68.92,9.56-72.85,22.57-4.41,14.57,27.98,27.76,72.85,27.76s77.27-13.19,72.86-27.76c-3.94-13.01-36.38-22.57-72.86-22.57Z"/>
        <path class="cls-5" d="M127.42,108.31l.02.02,2.69,4.75c5.48.47,11.19.74,17.08.74s11.64-.27,17.16-.75l2.62-4.74.02-.02c-6.31.6-12.92.93-19.8.93-6.61,0-13.22-.31-19.8-.93h0ZM232.52,74.91c-.67,14.54-23.02,27.42-56.05,32.27h.01s3.22,3.86,3.22,3.86c32.32-5.81,53.58-20.08,52.82-36.13h0ZM61.93,74.91c-.76,16.07,20.5,30.32,52.81,36.13l3.23-3.85h0c-33.04-4.86-55.37-17.75-56.05-32.28h0Z"/>
      </g>
    </g>
  </g>
</svg>