<?xml version="1.0" encoding="UTF-8"?>
<svg id="Laag_2" data-name="Laag 2" xmlns="http://www.w3.org/2000/svg" viewBox="0 0 300 300">
  <defs>
    <style>
      .cls-1 {
        fill: none;
      }

      .cls-2 {
        fill: #1d284a;
      }
    </style>
  </defs>
  <g id="Laag_1-2" data-name="Laag 1">
    <g>
      <rect class="cls-1" width="300" height="300"/>
      <path class="cls-2" d="M150,276.82c-69.56,0-126.54-57.27-126.54-126.82,0-15.64,2.79-30.45,8.1-44.42l74.03,148.89c.84,1.96,2.23,3.63,4.47,3.63s3.63-1.68,4.47-3.63l34.08-76.26c.28-.84.84-1.68,1.68-1.68s1.12.84,1.68,1.68l34.08,76.26c.84,1.96,2.23,3.63,4.47,3.63s3.63-1.68,4.47-3.63l74.03-148.89c5.31,13.97,8.1,28.77,8.1,44.42-.56,69.56-57.54,126.82-127.1,126.82ZM150,121.23c-.84,0-1.12-.84-1.68-1.68L108.66,30.16c12.85-4.75,26.82-7.26,41.34-7.26s28.49,2.51,41.34,7.26l-39.67,89.39c-.56,1.12-.84,1.68-1.68,1.68ZM109.5,213.13c-.84,0-1.12-.84-1.68-1.68L43.57,81.84c11.45-17.6,26.82-32.4,45.53-42.74l46.37,103.08c.56,1.68,1.96,2.23,3.35,2.23h22.35c1.68,0,2.79-.28,3.63-2.23l46.37-103.08c18.44,10.34,34.08,25.14,45.53,42.74l-64.81,129.62c-.28.84-.84,1.68-1.68,1.68s-1.12-.84-1.68-1.68l-24.3-55.31c-.84-1.96-1.96-2.23-3.63-2.23h-22.35c-1.68,0-2.79.28-3.63,2.23l-23.46,55.31c-.28.84-.84,1.68-1.68,1.68ZM150,289.67c77.38,0,139.67-62.29,139.67-139.67S227.38,10.33,150,10.33,10.33,72.62,10.33,150s62.29,139.67,139.67,139.67Z"/>
    </g>
  </g>
</svg>