<?xml version="1.0" encoding="UTF-8"?>
<svg id="Laag_2" data-name="Laag 2" xmlns="http://www.w3.org/2000/svg" xmlns:xlink="http://www.w3.org/1999/xlink" viewBox="0 0 300 300">
  <defs>
    <style>
      .cls-1, .cls-2, .cls-3, .cls-4, .cls-5 {
        fill: none;
      }

      .cls-2 {
        stroke: #a7a79c;
        stroke-width: 19.29px;
      }

      .cls-2, .cls-3, .cls-4, .cls-5 {
        stroke-linecap: round;
        stroke-miterlimit: 226.94;
      }

      .cls-6 {
        fill: #010101;
      }

      .cls-7 {
        fill: url(#Naamloos_verloop_50);
      }

      .cls-8 {
        fill: url(#Naamloos_verloop_51);
      }

      .cls-9 {
        fill: url(#Naamloos_verloop_49);
      }

      .cls-10 {
        fill: url(#Naamloos_verloop_48);
      }

      .cls-11 {
        fill: url(#Naamloos_verloop_46);
      }

      .cls-12 {
        fill: url(#Naamloos_verloop_45);
      }

      .cls-13 {
        fill: url(#Naamloos_verloop_44);
      }

      .cls-14 {
        fill: url(#Naamloos_verloop_43);
      }

      .cls-15 {
        fill: url(#Naamloos_verloop_42);
      }

      .cls-16 {
        fill: url(#Naamloos_verloop_41);
      }

      .cls-17 {
        fill: #39393c;
      }

      .cls-3 {
        stroke: #c3c3ba;
        stroke-width: 13.39px;
      }

      .cls-18 {
        fill: #bcbbb5;
      }

      .cls-19 {
        fill: url(#Naamloos_verloop_47);
      }

      .cls-19, .cls-20, .cls-21, .cls-22, .cls-23, .cls-24, .cls-25 {
        opacity: .67;
      }

      .cls-19, .cls-20, .cls-21, .cls-22, .cls-23, .cls-24, .cls-25, .cls-26 {
        isolation: isolate;
      }

      .cls-27 {
        fill: #fff;
      }

      .cls-4 {
        stroke: #e1e0d8;
        stroke-width: 7.49px;
      }

      .cls-20 {
        fill: url(#Naamloos_verloop_47-5);
      }

      .cls-21 {
        fill: url(#Naamloos_verloop_47-6);
      }

      .cls-22 {
        fill: url(#Naamloos_verloop_47-7);
      }

      .cls-23 {
        fill: url(#Naamloos_verloop_47-2);
      }

      .cls-24 {
        fill: url(#Naamloos_verloop_47-4);
      }

      .cls-25 {
        fill: url(#Naamloos_verloop_47-3);
      }

      .cls-26 {
        fill: url(#Naamloos_verloop_47-8);
        opacity: .86;
      }

      .cls-5 {
        stroke: #fff;
        stroke-width: 1.59px;
      }
    </style>
    <radialGradient id="Naamloos_verloop_51" data-name="Naamloos verloop 51" cx="5572.73" cy="6149.77" fx="5572.73" fy="6149.77" r="4.97" gradientTransform="translate(-316119.08 -348788.12) scale(56.74)" gradientUnits="userSpaceOnUse">
      <stop offset="0" stop-color="#fff"/>
      <stop offset=".04" stop-color="#fbfbf9"/>
      <stop offset=".23" stop-color="#f9f9f6"/>
      <stop offset=".29" stop-color="#dbdbd8"/>
      <stop offset=".41" stop-color="#a3a4a1"/>
      <stop offset=".52" stop-color="#7e7f7d"/>
      <stop offset=".6" stop-color="#696967"/>
      <stop offset=".65" stop-color="#60605e"/>
      <stop offset=".74" stop-color="#575855"/>
      <stop offset=".9" stop-color="#3b3a37"/>
      <stop offset="1" stop-color="#010101"/>
    </radialGradient>
    <linearGradient id="Naamloos_verloop_50" data-name="Naamloos verloop 50" x1="5573.49" y1="6149.93" x2="5575.27" y2="6150.54" gradientTransform="translate(-316119.08 -348788.12) scale(56.74)" gradientUnits="userSpaceOnUse">
      <stop offset="0" stop-color="#dddcd4"/>
      <stop offset="1" stop-color="#fff"/>
    </linearGradient>
    <radialGradient id="Naamloos_verloop_49" data-name="Naamloos verloop 49" cx="5575.85" cy="6151.78" fx="5575.85" fy="6151.78" r="5.45" gradientTransform="translate(-316119.08 -348788.12) scale(56.74)" gradientUnits="userSpaceOnUse">
      <stop offset="0" stop-color="#bcbcb7"/>
      <stop offset="1" stop-color="#818179"/>
    </radialGradient>
    <radialGradient id="Naamloos_verloop_48" data-name="Naamloos verloop 48" cx="5575.29" cy="6151.11" fx="5575.29" fy="6151.11" r="3.83" gradientTransform="translate(-316119.08 -348788.12) scale(56.74)" gradientUnits="userSpaceOnUse">
      <stop offset="0" stop-color="#fff"/>
      <stop offset=".16" stop-color="#f1f1f2"/>
      <stop offset=".3" stop-color="#e4e4e5"/>
      <stop offset=".34" stop-color="#cfcfce"/>
      <stop offset=".4" stop-color="#aeafad"/>
      <stop offset=".46" stop-color="#979795"/>
      <stop offset=".53" stop-color="#858683"/>
      <stop offset=".59" stop-color="#7c7c7a"/>
      <stop offset=".64" stop-color="#797977"/>
      <stop offset=".74" stop-color="#5f5f5c"/>
      <stop offset=".85" stop-color="#444240"/>
      <stop offset=".94" stop-color="#20201e"/>
      <stop offset="1" stop-color="#010101"/>
    </radialGradient>
    <linearGradient id="Naamloos_verloop_47" data-name="Naamloos verloop 47" x1="5572.27" y1="6150.83" x2="5572.27" y2="6150.82" gradientTransform="translate(-316119.08 -348788.12) scale(56.74)" gradientUnits="userSpaceOnUse">
      <stop offset="0" stop-color="#fff"/>
      <stop offset=".17" stop-color="#f9f9f6"/>
      <stop offset=".43" stop-color="#b2b2ac"/>
      <stop offset=".43" stop-color="#aeafa8"/>
      <stop offset=".53" stop-color="#898984"/>
      <stop offset=".63" stop-color="#6d6d68"/>
      <stop offset=".73" stop-color="#54544f"/>
      <stop offset=".82" stop-color="#3f3f3b"/>
      <stop offset=".92" stop-color="#252523"/>
      <stop offset="1" stop-color="#1c1b1a"/>
    </linearGradient>
    <linearGradient id="Naamloos_verloop_47-2" data-name="Naamloos verloop 47" x1="5572.6" y1="6150.78" x2="5572.6" y2="6150.77" xlink:href="#Naamloos_verloop_47"/>
    <linearGradient id="Naamloos_verloop_47-3" data-name="Naamloos verloop 47" x1="5572.6" y1="6150.79" x2="5572.6" y2="6150.79" xlink:href="#Naamloos_verloop_47"/>
    <linearGradient id="Naamloos_verloop_47-4" data-name="Naamloos verloop 47" x1="5572.38" x2="5572.38" xlink:href="#Naamloos_verloop_47"/>
    <linearGradient id="Naamloos_verloop_47-5" data-name="Naamloos verloop 47" x1="5572.66" y1="6150.8" x2="5572.66" y2="6150.79" xlink:href="#Naamloos_verloop_47"/>
    <linearGradient id="Naamloos_verloop_47-6" data-name="Naamloos verloop 47" x1="5572.6" y1="6151.04" x2="5572.6" y2="6150.87" xlink:href="#Naamloos_verloop_47"/>
    <linearGradient id="Naamloos_verloop_47-7" data-name="Naamloos verloop 47" x1="5572.66" y1="6150.79" x2="5572.66" y2="6150.78" xlink:href="#Naamloos_verloop_47"/>
    <linearGradient id="Naamloos_verloop_47-8" data-name="Naamloos verloop 47" x1="5065.77" y1="6151.04" x2="5065.77" y2="6150.87" gradientTransform="translate(287663.77 -348788.12) rotate(-180) scale(56.74 -56.74)" xlink:href="#Naamloos_verloop_47"/>
    <radialGradient id="Naamloos_verloop_46" data-name="Naamloos verloop 46" cx="5572.2" cy="6149.77" fx="5572.2" fy="6149.77" r="3.09" gradientTransform="translate(-316119.08 -348788.12) scale(56.74)" gradientUnits="userSpaceOnUse">
      <stop offset="0" stop-color="#2172b9"/>
      <stop offset=".08" stop-color="#1d6aac"/>
      <stop offset=".17" stop-color="#1c65a5"/>
      <stop offset=".24" stop-color="#1b64a3"/>
      <stop offset=".39" stop-color="#1a5e9a"/>
      <stop offset=".69" stop-color="#104e81"/>
      <stop offset=".84" stop-color="#024572"/>
      <stop offset=".93" stop-color="#024572"/>
      <stop offset=".97" stop-color="#094370"/>
      <stop offset=".99" stop-color="#11406e"/>
      <stop offset="1" stop-color="#153e6c"/>
    </radialGradient>
    <linearGradient id="Naamloos_verloop_45" data-name="Naamloos verloop 45" x1="5576.72" y1="6149.12" x2="5575.52" y2="6147.92" gradientTransform="translate(-316119.08 -348788.12) scale(56.74)" gradientUnits="userSpaceOnUse">
      <stop offset="0" stop-color="#13130d"/>
      <stop offset=".65" stop-color="#454442"/>
      <stop offset=".65" stop-color="#494946"/>
      <stop offset=".66" stop-color="#545451"/>
      <stop offset=".66" stop-color="#656662"/>
      <stop offset=".66" stop-color="#7c7c78"/>
      <stop offset=".67" stop-color="#979793"/>
      <stop offset=".67" stop-color="#bbbbb7"/>
      <stop offset=".68" stop-color="#e9e8e3"/>
      <stop offset=".68" stop-color="#fcfaf6"/>
      <stop offset=".68" stop-color="#f8f7f2"/>
      <stop offset=".68" stop-color="#f1f0ea"/>
      <stop offset=".69" stop-color="#e4e3dd"/>
      <stop offset=".69" stop-color="#d2d2cc"/>
      <stop offset=".69" stop-color="#bbbcb5"/>
      <stop offset=".69" stop-color="#a1a29a"/>
      <stop offset=".69" stop-color="#84847d"/>
      <stop offset=".69" stop-color="#6e6e68"/>
      <stop offset=".71" stop-color="#60605c"/>
      <stop offset=".73" stop-color="#4e4e4c"/>
      <stop offset=".76" stop-color="#3b3a3a"/>
      <stop offset=".8" stop-color="#242324"/>
      <stop offset=".85" stop-color="#101010"/>
      <stop offset="1" stop-color="#010101"/>
    </linearGradient>
    <radialGradient id="Naamloos_verloop_44" data-name="Naamloos verloop 44" cx="5576.62" cy="6148" fx="5576.62" fy="6148" r="1.29" gradientTransform="translate(-316119.08 -348788.12) scale(56.74)" gradientUnits="userSpaceOnUse">
      <stop offset="0" stop-color="#585753"/>
      <stop offset="1" stop-color="#53534f"/>
    </radialGradient>
    <linearGradient id="Naamloos_verloop_43" data-name="Naamloos verloop 43" x1="5575.7" y1="6147.86" x2="5576.83" y2="6147.86" gradientTransform="translate(-316119.08 -348788.12) scale(56.74)" gradientUnits="userSpaceOnUse">
      <stop offset="0" stop-color="#5f5f61"/>
      <stop offset=".02" stop-color="#5c5c5e"/>
      <stop offset=".2" stop-color="#494947"/>
      <stop offset=".41" stop-color="#353432"/>
      <stop offset=".65" stop-color="#222120"/>
      <stop offset="1" stop-color="#1c1b1a"/>
    </linearGradient>
    <linearGradient id="Naamloos_verloop_42" data-name="Naamloos verloop 42" x1="5576.81" y1="6148.99" x2="5576.81" y2="6147.85" gradientTransform="translate(-316119.08 -348788.12) scale(56.74)" gradientUnits="userSpaceOnUse">
      <stop offset="0" stop-color="#5f5f61"/>
      <stop offset=".39" stop-color="#464543"/>
      <stop offset=".74" stop-color="#2a2928"/>
      <stop offset="1" stop-color="#1c1b1a"/>
    </linearGradient>
    <linearGradient id="Naamloos_verloop_41" data-name="Naamloos verloop 41" x1="5572.64" y1="6149.26" x2="5573.36" y2="6150.24" gradientTransform="translate(-316119.08 -348788.12) scale(56.74)" gradientUnits="userSpaceOnUse">
      <stop offset="0" stop-color="#fff"/>
      <stop offset=".11" stop-color="#d6ddf0"/>
      <stop offset=".34" stop-color="#94add9"/>
      <stop offset=".54" stop-color="#678fc9"/>
      <stop offset=".71" stop-color="#457dc0"/>
      <stop offset=".85" stop-color="#2c75ba"/>
      <stop offset=".93" stop-color="#2172b9"/>
      <stop offset=".95" stop-color="#417abd"/>
      <stop offset=".97" stop-color="#5680c1"/>
      <stop offset=".98" stop-color="#6085c3"/>
      <stop offset="1" stop-color="#6586c4"/>
    </linearGradient>
  </defs>
  <g id="Laag_1-2" data-name="Laag 1">
    <g>
      <rect class="cls-1" width="300" height="300"/>
      <g>
        <path class="cls-18" d="M150,61.85c24.53,0,46.34,10,62.25,25.9,16.36,15.9,25.9,38.17,25.9,62.7s-9.54,46.34-25.9,62.24c-15.91,15.91-37.72,25.9-62.25,25.9s-46.34-10-62.7-25.9c-15.91-15.9-25.9-38.17-25.9-62.24s10-46.8,25.9-62.71c16.36-15.9,38.17-25.89,62.7-25.89h0ZM150,63.22c-23.01.03-45.07,9.18-61.34,25.44-15.91,15.9-25.9,37.71-25.9,61.79s10,45.88,25.9,61.34c15.45,15.9,37.25,25.44,61.34,25.44s45.89-9.55,61.34-25.44c15.91-15.45,25.44-37.26,25.44-61.34s-9.54-45.89-25.44-61.79c-16.27-16.27-38.33-25.42-61.34-25.44h0Z"/>
        <path class="cls-8" d="M150,15.06c30.9,0,59.52,10.44,82.24,27.72l14.99-14.99,26.35,26.35-14.99,15.45c16.81,22.72,26.35,50.43,26.35,80.42,0,74.51-60.43,135.4-134.94,135.4S15.06,224.51,15.06,150,75.49,15.06,150,15.06ZM150,46.86c-56.79,0-103.14,46.34-103.14,103.14s46.34,103.14,103.14,103.14,103.14-45.89,103.14-103.14-46.34-103.14-103.14-103.14Z"/>
        <path class="cls-7" d="M150,46.41c28.62,0,54.52,11.36,73.6,30.44,19.55,19.5,30.5,45.99,30.44,73.6,0,28.62-11.81,54.52-30.44,73.6-19.08,18.62-44.98,30.44-73.6,30.44-27.59-.03-54.05-10.97-73.6-30.44-18.63-19.08-30.44-44.99-30.44-73.6s11.81-54.98,30.44-73.6c18.63-19.08,44.98-30.44,73.6-30.44h0ZM150,47.77c-28.17,0-54.07,11.36-72.7,29.99s-29.99,44.07-29.99,72.7,11.36,54.06,29.99,72.7c18.62,18.17,44.53,29.99,72.7,29.99s54.07-11.81,72.7-29.99c19.24-19.3,30.03-45.45,29.99-72.7,0-28.62-11.37-54.07-29.99-72.7-19.3-19.24-45.45-30.02-72.7-29.98h0Z"/>
        <path class="cls-9" d="M150,14.15c30.9,0,59.97,10.45,82.69,28.17l-.45.45c-23.64-17.98-52.53-27.72-82.24-27.72C75.49,15.06,15.06,75.48,15.06,150s60.43,135.4,134.94,135.4,134.94-60.88,134.94-135.4c0-29.99-9.54-57.71-26.35-80.42l.45-.45c16.81,22.72,26.81,50.43,26.81,80.87,0,37.71-15.45,71.79-39.98,96.32-24.54,24.54-58.16,39.53-95.87,39.53-35.94.08-70.43-14.15-95.87-39.53-24.53-24.99-39.98-58.61-39.98-96.32s15.45-71.33,39.98-95.87c24.53-24.53,58.16-39.98,95.87-39.98Z"/>
        <path class="cls-10" d="M150,47.31c56.79,0,103.14,45.89,103.14,103.14s-46.34,103.14-103.14,103.14-103.14-46.35-103.14-103.14,46.34-103.14,103.14-103.14h0ZM150,61.85c-48.62,0-88.14,39.53-88.14,88.6s39.53,88.14,88.14,88.14,88.14-39.53,88.14-88.14-39.53-88.6-88.14-88.6h0Z"/>
        <path class="cls-19" d="M26.71,182.74c0,.13.03.25.1.36.06.11.15.15.29.15.1,0,.19-.03.3-.08.11-.06.22-.14.32-.23v-1c-.38.06-.64.15-.78.28-.14.13-.22.32-.22.51h0Z"/>
        <path class="cls-23" d="M45.94,179.87h.64v.54h-.64v-.54Z"/>
        <path class="cls-25" d="M45.94,180.51h.64v.55h-.64v-.55Z"/>
        <path class="cls-24" d="M33.1,182.74c0,.13.04.25.1.36.06.11.15.15.29.15.1,0,.2-.03.3-.08s.2-.13.32-.23v-1c-.38.06-.64.15-.78.28-.14.13-.22.32-.22.51h0Z"/>
        <path class="cls-20" d="M48.71,180.81h1.74v.83h-1.74v-.83Z"/>
        <path class="cls-21" d="M66.31,177.95H17.99c1.19,5.67,2.85,11.18,4.73,16.56h51.05c-3.05-5.25-5.55-10.8-7.47-16.56ZM45.71,179.01l.37.23-.13.15v.38h.61l.13-.21.25.3-.13.15v.4h.07l.18-.23.27.34h-.53v.73s-.22.14-.22.14v-.21h-.63v.62h.48l.16-.26.25.37h-.9v.57h.78l.18-.3.28.39h-1.25c0,.24,0,.5.03.77l-.27.13c.01-.33.03-.62.03-.9h-.67c-.09,0-.18.02-.25.06l-.15-.17h1.07v-.57h-.49c-.09,0-.15.02-.2.06l-.13-.16h.82v-.62h-.49c-.09,0-.15.02-.2.07l-.13-.18h.82v-.55h-.72c-.09,0-.15.02-.2.06l-.13-.17h1.05v-.53h-.46c-.09,0-.16.03-.2.07l-.13-.17h.78c0-.25,0-.51-.02-.76h0ZM25.83,183.38h-1.3v-.13h.38c.06,0,.1-.01.13-.04s.03-.07.03-.13v-3.04s0-.09-.03-.13c-.03-.03-.08-.05-.13-.05h-.38v-.13h.19c.2,0,.39-.06.55-.18h.03v3.51c0,.06.01.1.04.13.03.03.06.04.11.04h.39v.13h-.02ZM28.2,183.27c-.06.08-.13.13-.21.13-.07,0-.13-.02-.18-.06-.05-.06-.09-.14-.1-.21-.1.09-.2.16-.31.23-.11.05-.23.08-.35.08-.17,0-.34-.06-.46-.18-.11-.11-.17-.25-.16-.4,0-.26.09-.47.26-.64.17-.16.51-.28,1.02-.35v-.26c0-.12-.02-.24-.08-.35-.06-.1-.16-.14-.35-.14s-.32.04-.39.13c-.08.08-.11.15-.08.24.02.06.02.12,0,.17-.02.05-.07.09-.13.09-.04,0-.08-.02-.11-.05-.03-.04-.05-.1-.05-.15,0-.13.08-.25.21-.37.15-.11.34-.17.53-.16.22,0,.39.05.5.15.12.11.16.26.16.45v1.41c0,.12,0,.18.03.2s.04.03.09.03c.06,0,.1-.03.12-.09s.03-.15.03-.27h.08c0,.19-.02.33-.08.4h0ZM30.37,183.38h-.7v-.13h.09c.06,0,.09-.01.12-.04s.03-.06.03-.12v-1.43c0-.14-.02-.27-.08-.39-.05-.09-.14-.14-.25-.14-.12,0-.22.05-.31.13-.12.1-.22.23-.29.37v1.47c0,.06.01.1.04.13.03.03.06.04.11.04h.08v.13h-.7v-.13h.08c.06,0,.1-.01.13-.04s.03-.07.03-.13v-1.84s0-.08-.02-.1-.04-.03-.07-.03h-.15v-.13h.12c.06,0,.12,0,.16-.02s.1-.04.15-.09h.03v.49c.08-.12.18-.22.3-.32.09-.07.2-.11.32-.11.19,0,.33.06.42.18.1.18.15.38.13.58v1.36c0,.06.01.1.04.13s.07.04.11.04h.08v.13h0ZM32.14,183.21c-.1.13-.22.19-.38.19s-.29-.06-.37-.19-.13-.33-.13-.6v-1.49h-.48v-.13h.13c.13,0,.25-.06.33-.16.09-.11.13-.27.16-.5v-.16h.11v.83h.66v.13h-.66v1.58c0,.2.03.34.09.4.06.08.13.11.25.11.1,0,.2-.05.27-.13.07-.12.12-.25.13-.39l.09.04c-.02.17-.09.33-.19.47h0ZM34.6,183.27c-.06.08-.13.13-.21.13-.08,0-.13-.02-.18-.06-.05-.04-.08-.12-.11-.21-.1.09-.2.16-.31.23-.11.05-.22.08-.34.08-.33.02-.61-.24-.63-.57,0,0,0-.01,0-.02,0-.24.09-.47.26-.64.17-.16.51-.28,1.02-.35v-.26c0-.12-.02-.24-.08-.35-.05-.1-.16-.14-.34-.14-.19,0-.33.04-.4.13-.08.08-.11.15-.08.24.02.06.02.12,0,.17s-.07.09-.13.09c-.04,0-.08-.02-.11-.05-.03-.04-.04-.1-.04-.15,0-.13.07-.25.21-.37.15-.11.34-.17.53-.16.21,0,.39.05.5.15.11.11.16.26.16.45v1.41c0,.12,0,.18.03.2s.04.03.1.03.09-.03.11-.09.03-.15.03-.27h.08c.01.14-.01.28-.08.4h0ZM36.67,181.44c-.03.05-.07.07-.13.07-.06,0-.11-.02-.13-.07-.03-.05-.04-.11-.03-.16v-.11s-.05-.04-.11-.04c-.09,0-.2.07-.33.21-.15.18-.26.38-.34.6v1.15c0,.06.01.1.04.13s.06.04.11.04h.37v.13h-1.22v-.13h.34c.06,0,.09-.01.12-.04s.03-.07.03-.13v-1.77s-.01-.1-.03-.14c-.03-.03-.06-.05-.12-.05h-.34v-.13h.13c.18,0,.36-.04.53-.11h.05v.77c.09-.19.21-.37.36-.52.1-.11.24-.17.39-.18.11,0,.2.03.26.09s.09.13.09.21c0,.08-.02.13-.05.16ZM41.37,182.57v.85c0,.3-.13.5-.37.62,0-.21-.18-.37-.52-.46v-.09l.48.05c.11,0,.15-.08.15-.27v-.71h-1.34c-.11,0-.23.02-.33.06l-.13-.16h1.81v-.62s.2.13.2.13l.44-.49h-1.37l-.15.06-.13-.17h1.65l.18-.21.3.42c-.15-.03-.44.12-.86.45l.16.11-.16.13v.18h1.12l.23-.3.33.4h-1.69ZM43.06,181.3c-.16,0-.29.09-.37.26-.65-.33-1.13-.91-1.33-1.62h-.09c0,.66,0,1.06.01,1.19l-.28.09c.01-.32.02-.7.02-1.18-.37.76-.98,1.38-1.75,1.74v-.09c.66-.42,1.19-1.03,1.51-1.75h-1.03c-.11,0-.23.02-.33.06l-.13-.17h1.73l-.02-.76.43.23-.16.15v.38h1.22l.23-.3.3.4h-1.58c.27.68.89,1.17,1.62,1.27v.09h0ZM47.36,183.59c-.22.09-.33.18-.3.32-.35.01-.7.01-1.05,0-.35,0-.69-.08-1-.21-.26-.11-.5-.28-.69-.49-.19.33-.46.61-.78.83l-.05-.06c.3-.27.54-.59.71-.96-.18-.34-.32-.71-.4-1.09l.07-.04c.1.31.24.61.4.9.11-.37.19-.86.23-1.45h-.49l-.13.23-.23-.3.2-.11c.2-.41.39-.83.57-1.25h-.54l-.19.06-.13-.17h.89l.15-.23.23.35-.18.11c-.18.38-.39.79-.6,1.21h.45l.13-.19.25.3-.15.15c-.05.5-.15,1-.3,1.48.16.19.36.33.59.4.29.1.59.16.89.18.33.03.82,0,1.46-.05l-.02.09h0ZM51.46,183.55c-.2.04-.32.15-.35.35-.29-.11-.57-.25-.83-.42-.25-.18-.46-.4-.63-.65-.21-.33-.35-.69-.42-1.07h-.53v1.7l.9-.49.03.06c-.4.23-.75.54-1.03.9l-.2-.36c.05-.08.08-.17.08-.26v-3.07c0-.23,0-.42-.02-.59l.23.21h.85c-.03-.27-.13-.52-.28-.74l.03-.07c.28.16.44.3.47.42.04.13,0,.26-.11.38h.75l.13-.21.27.3-.15.13v1.77s-.22.11-.22.11v-.19h-1.1c.1.33.25.64.45.93.39-.22.74-.51,1.03-.85l.25.42h-.2c-.33.15-.66.33-1.02.5.21.25.47.44.78.55.27.1.55.15.84.15v.09h0Z"/>
        <path class="cls-22" d="M48.71,179.96h1.74v.74h-1.74v-.74Z"/>
        <path class="cls-26" d="M233.76,177.95h48.31c-1.21,5.62-2.79,11.15-4.73,16.56h-51.05c3.03-5.22,5.55-10.75,7.47-16.56Z"/>
        <path class="cls-6" d="M284.49,115.92c3.18,10.91,4.54,22.26,4.54,34.08s-1.82,24.07-4.54,35.44H15.97v-.45h268.07c3.18-11.36,4.54-23.17,4.54-35.44s-1.36-23.17-4.09-33.62h0Z"/>
        <path class="cls-11" d="M15.51,115.47h268.97c2.73,10.9,4.08,22.26,4.08,34.07s-1.36,24.08-4.54,35.44H15.97c-3.28-11.53-4.96-23.45-5-35.43,0-11.81,1.82-23.17,4.54-34.08Z"/>
        <path class="cls-12" d="M252.68,18.68l29.99,29.99-22.26,22.26,1.36,1.82-15.9,12.72-5,1.82,32.71-33.17-26.35-26.35-32.71,32.71,1.36-4.54,36.8-37.26Z"/>
        <path class="cls-13" d="M222.7,15.51c26.35,14.08,47.71,35.89,62.24,61.79V15.51h-62.24Z"/>
        <path class="cls-2" d="M222.7,15.51c26.35,14.08,47.71,35.89,62.24,61.79"/>
        <path class="cls-3" d="M222.7,15.51c26.08,14.27,47.52,35.71,61.79,61.79"/>
        <path class="cls-4" d="M222.24,15.51c26.35,14.08,47.71,35.89,62.25,62.25"/>
        <path class="cls-5" d="M222.24,15.51c25.9,14.55,47.71,35.89,61.79,62.25"/>
        <path class="cls-14" d="M284.94,14.15c.45,0,.92.45.92,1.36h-64.08c0-.91.46-1.36.92-1.36h62.25Z"/>
        <path class="cls-15" d="M285.85,77.3c0,.92-.45,1.37-.92,1.37l-.45-.92V14.15h.45c.45,0,.92.45.92,1.36v61.79h0Z"/>
        <g>
          <path class="cls-27" d="M247.23,167c-12.13,0-21.99-7.43-21.99-16.55s9.86-16.55,21.99-16.55,22.45,7.42,22.45,16.55-10.07,16.55-22.45,16.55ZM247.23,138.83c-4.36,0-7.53,4.89-7.53,11.63,0,6.37,3.24,11.17,7.53,11.17s7.53-5.12,7.53-11.17c0-6.42-3.38-11.63-7.53-11.63ZM109.11,167c-12.13,0-22-7.43-22-16.55s10.07-16.1,22-16.1,22.45,7.23,22.45,16.1-10.07,16.55-22.45,16.55ZM109.11,139.28c-4.3,0-7.53,4.8-7.53,11.18s3.24,11.17,7.53,11.17,7.53-5.12,7.53-11.17-3.44-11.18-7.53-11.18h0ZM189.98,166.09l-14.25-26.45-7.1.11-.19-4.28,31.09-.19.19,4.28-7.91.19,11.07,18.34,9.21-18.62-5.28.27-.19-4.28,21.54-.19.19,4.28-7.46.19-13.97,26.35h-16.93ZM133.19,166.09l-.19-5.19,7.47-.18-.19-21.17-7.08.19-.19-4.28,28.81-.19.19,4.28-7.47.19.19,21.17,7.53-.18c2.45,0,8.9-1.6,9.35-8.91l4.73-.18.19,14.46h-43.35ZM51.86,166.09l-14.25-26.45-7.1.11-.19-4.28,31.09-.19.19,4.28-7.91.19,11.07,18.34,9.67-18.62-5.74.28-.19-4.28,21.54-.19.19,4.28-7.47.19-13.97,26.35h-16.92s0-.01,0-.01Z"/>
          <path class="cls-17" d="M247.23,134.09c12.27,0,22.26,7.27,22.26,16.36s-10,16.36-22.26,16.36-21.81-7.27-21.81-16.36,10-16.36,21.81-16.36M247.23,161.81c4.08,0,7.72-5,7.72-11.36,0-6.82-3.63-11.81-7.72-11.81-4.54,0-7.73,5-7.73,11.81,0,6.36,3.19,11.36,7.73,11.36M109.11,134.55c12.26,0,22.26,7.27,22.26,15.91,0,9.08-10,16.36-22.26,16.36s-21.81-7.27-21.81-16.36,10-15.91,21.81-15.91M109.11,161.81c4.08,0,7.72-5,7.72-11.36s-3.63-11.37-7.72-11.37c-4.55,0-7.73,5-7.73,11.37,0,6.36,3.19,11.36,7.73,11.36M228.15,135.46v4.08h-7.26l-14.08,26.35h-16.81l-14.08-26.35h-7.27v-4.08h30.9v4.08h-7.72l10.91,18.63,9.54-18.63h-5.45v-4.08h21.34M161.81,135.46v4.08h-7.27v21.35h7.73c2.73,0,9.08-1.82,9.54-9.08h4.54v14.08h-43.17v-5h7.27v-21.35h-7.27v-4.08h28.62M90.03,135.46v4.08h-7.27l-14.08,26.35h-16.82l-14.08-26.35h-7.27v-4.08h30.9v4.08h-7.72l10.9,18.63,10-18.63h-5.91v-4.08h21.35M247.23,133.72c-12.23,0-22.19,7.5-22.19,16.74s9.95,16.73,22.19,16.73,22.64-7.5,22.64-16.73-10.16-16.74-22.64-16.74ZM247.23,161.43c-4.19,0-7.35-4.72-7.35-10.97,0-6.63,3.09-11.43,7.35-11.43s7.35,5.13,7.35,11.43c0,5.94-3.36,10.97-7.35,10.97ZM109.11,134.17c-12.03,0-22.19,7.46-22.19,16.28s9.95,16.73,22.19,16.73,22.64-7.5,22.64-16.73-10.15-16.28-22.64-16.28h0ZM109.11,161.43c-4.19,0-7.35-4.72-7.35-10.97s3.16-10.98,7.35-10.98,7.34,5.03,7.34,10.98c0,5.94-3.36,10.97-7.34,10.97ZM228.53,135.08h-22.12v4.85h5.21l-8.94,17.46-10.22-17.47h7.45v-4.85h-31.66v4.85h7.41l13.98,26.15.11.2h17.27l.11-.2,13.98-26.15h7.42v-4.85h0ZM162.19,135.08h-29.38v4.85h7.27v20.6h-7.27v5.76h43.93v-14.85h-5.28l-.03.36c-.45,7.16-6.76,8.73-9.16,8.73h-7.35v-20.6h7.27v-4.86h0ZM90.4,135.08h-22.11v4.85h5.65l-9.38,17.48-10.23-17.48h7.45v-4.85h-31.67v4.85h7.42l13.98,26.15.11.2h17.26l.11-.2,13.98-26.15h7.42v-4.85h0Z"/>
        </g>
        <path class="cls-16" d="M16.01,115.99c-2.73,10.9-4.54,22.26-4.54,34.07,0,.98.33,6.76.37,7.74l.79,8.78c-.01-.71-.37-15.01-.37-15.73,0-11.81,1.97-22.76,4.69-33.67l95.18-.39,41.08-.79H16.01s0-.01,0-.01Z"/>
      </g>
    </g>
  </g>
</svg>